<?xml version="1.0" encoding="UTF-8" standalone="no"?>
<!DOCTYPE svg PUBLIC "-//W3C//DTD SVG 1.1//EN" "http://www.w3.org/Graphics/SVG/1.1/DTD/svg11.dtd">
<svg version="1.1" xmlns="http://www.w3.org/2000/svg" xmlns:xlink="http://www.w3.org/1999/xlink" preserveAspectRatio="xMidYMid meet" viewBox="342.09999999999997 544.418503134046 217.17415099876922 180.58149686595368" width="213.17" height="176.58"><defs><path d="M466.2 635.2C468 635.2 469.7 634.1 470.4 632.2C470.5 632 479.1 607.3 497.5 588.9C499.2 587.2 499.2 584.4 497.5 582.7C495.8 581 493 581 491.3 582.7C471.5 602.5 462.5 628.2 462.2 629.3C461.2 631.7 462.5 634.2 464.8 635C465.3 635.2 465.8 635.2 466.2 635.2Z" id="c12UiJyxf2"></path><path d="M436.6 627.9C439 627.4 440.5 625.1 440 622.7C437 608.2 438.5 584.8 438.5 584.6C438.7 582.2 436.8 580.1 434.4 579.9C431.9 579.7 429.9 581.6 429.7 584C429.6 585 428.1 608.9 431.4 624.5C431.8 626.6 433.6 628 435.7 628C436 628 436.3 628 436.6 627.9Z" id="a5OPuYgfK"></path><path d="M391.9 596.4C389.7 597.5 388.9 600.2 390 602.3C391.2 604.63 400.8 623.27 402 625.6C402.8 627.1 404.3 628 405.9 628C406.6 628 407.3 627.8 407.9 627.5C410.1 626.4 410.9 623.7 409.8 621.6C409 620.05 405 612.28 397.8 598.3C395.27 596.3 393.3 595.67 391.9 596.4Z" id="e1exI33uWE"></path><path d="M512.2 574.8C512.7 572.6 512.2 570.4 510.9 568.8C509.2 566.7 506.5 565.7 502.7 565.7C500.9 565.7 498.9 565.9 496.7 566.4C495 557.3 488.8 551 488.5 550.7C487.5 549.7 486.2 549.3 484.8 549.5C470.9 551.4 458.3 559.9 452.3 564.5C450.9 560.9 451.1 554.7 451.9 550.7C452.2 549.1 451.6 547.4 450.4 546.4C449.1 545.4 447.4 545.1 445.9 545.8C445.1 546.2 425.9 554.6 419.6 567.1C416.2 573.9 408.3 574.4 405.2 574.4C404 573.7 402.5 573.1 400.8 573.2C397.4 573.3 394 575.6 390.7 580.1C382.1 573.8 366.5 568.8 348.9 581.4C347.8 582.2 347.1 583.5 347.1 584.8C347.1 586.2 347.7 587.5 348.7 588.3C353.9 592.5 368 606 370.3 617.9C372.5 628.9 380.4 631.3 386.1 633C390.9 634.4 394.8 635.6 397 640.6C400.5 648.5 405 653.9 410.3 656.4C410 662.7 409.1 695.5 421.8 710.7C427.2 717.1 435.2 720.6 444.1 720.6C445.6 720.6 447.2 720.5 448.8 720.3C459.8 718.8 469.6 712.7 473.2 704.9C476.5 697.8 478.4 686.1 480.1 675.8C480.9 670.7 482 664 482.8 661.5C490.3 658.3 519 645.5 526.1 632C533.1 618.7 533.1 614 533 603.7C533 602.6 533 601.5 533 600.3C533 593.1 547.3 589.9 552.3 589.4C554.1 589.2 555.6 588 556.1 586.3C556.6 584.6 556 582.7 554.6 581.6C541.6 571.3 521 574.4 511.9 576.5C512 575.9 512.1 575.4 512.2 574.8ZM511 612.4C511.8 613.7 512.8 615.2 513.1 616C512.2 616.8 509.7 617.8 508 618.5C504.9 619.8 501.4 621.2 498.7 623.6C497.3 624.8 495.8 626.3 494.1 627.9C489.8 632.2 483.2 638.6 479 638.6C478.9 638.6 478.8 638.6 478.7 638.6C472.8 638 468.4 641.2 465 643.8C463.3 645.1 461.5 646.3 460.3 646.6C459.2 644.6 458.4 639.3 457.7 634.3C457.9 633.3 457.8 632.3 457.3 631.4C457.2 630.4 457.1 629.4 457 628.5C456.2 621.3 455.3 613.8 453.6 608.7C450.9 600.5 454.6 591.3 456.8 588.9C460 589.7 465.1 591.7 467.1 592.4C469.2 593.2 471.5 592.4 472.6 590.5C477.4 581.8 494.6 574.5 502.9 574.5C502.9 574.4 503.1 574.5 503.3 574.5C499.5 594.3 506.7 605.6 511 612.4ZM466.9 583C465.8 582.6 464.4 582.1 463.1 581.7C462.7 579 461.5 574.7 458.5 571C463.6 567.1 473.4 560.8 483.8 558.7C485.3 560.6 487.6 564.4 488.2 568.9C480.2 571.9 471.8 576.9 466.9 583ZM442.6 557.4C442.6 563.2 443.8 570.3 449 574C449.1 574.1 449.2 574.2 449.3 574.2C449.3 574.2 449.3 574.2 449.4 574.3C451.9 576 453.2 578.3 453.9 580.4C452.5 581 450.8 582.1 449.2 584.4C444.8 590.5 442 601.7 445.3 611.4C446.7 615.7 447.5 622.7 448.3 629.4C448.4 630.4 448.5 631.3 448.6 632.3C443.4 638.9 437.3 645.4 434.1 648.7C423.6 641.3 421.1 619.2 419.8 607C419.6 605.2 419.4 603.6 419.2 602.2C418.2 594.8 414.6 587.6 411.6 582.6C417 581.5 423.8 578.6 427.6 571C430.3 565.6 437 560.7 442.6 557.4ZM379 616.4C376.5 603.9 365.3 591.8 358.8 585.7C376 576.8 387.8 589.2 388.4 589.8C389.3 590.8 390.7 591.4 392.1 591.2C393.5 591.1 394.7 590.3 395.4 589.1C398.1 584.5 399.9 582.9 400.8 582.4C402.8 585.1 409.3 594.4 410.5 603.5C410.7 604.8 410.8 606.4 411 608.1C412.2 618.9 414.2 636.3 421.7 648C419.6 649.3 417.6 649.7 415.7 649.3C411.9 648.4 408.1 644.1 405.1 637.3C401.2 628.4 394.3 626.3 388.7 624.7C382.8 622.9 380.1 621.9 379 616.4ZM465.4 701.3C463.2 705.9 456.7 710 449.5 711.4C450.87 707.01 461.83 671.89 463.2 667.5C463.9 665.2 462.6 662.7 460.3 662C458 661.3 455.5 662.6 454.8 664.9C454.17 666.91 451.04 676.98 445.4 695.1C443.18 678.84 441.95 669.81 441.7 668C441.4 665.6 439.2 663.9 436.7 664.2C434.3 664.5 432.6 666.7 432.9 669.2C433.48 673.41 438.12 707.09 438.7 711.3C435.2 710.5 431.6 708.7 428.6 705.1C419.6 694.4 418.6 669.1 419.1 658C421.6 657.7 424.4 656.7 427.4 654.6C429.1 656 431 657.3 433.1 658.2C433.7 658.4 434.2 658.6 434.8 658.6C435.9 658.6 437.1 658.2 437.9 657.3C438.2 657 444 651.2 450.2 644C451.6 650.6 453.8 654.8 458.3 655.4C458.7 655.5 459.2 655.5 459.6 655.5C463.8 655.5 467.1 653.1 470 650.9C470.1 650.9 470.1 650.8 470.2 650.8C471.4 653.9 473.2 656.9 474.6 658.8C473.7 661.9 472.8 666.8 471.6 674.5C470.1 683.8 468.2 695.3 465.4 701.3ZM524.4 603.9C524.5 613.7 524.5 616.7 518.5 628.1C513.7 637.2 492.4 648 481.3 652.8C480.2 651.1 479.1 649.1 478.4 647.4C478.6 647.4 478.8 647.4 478.9 647.4C478.9 647.4 478.9 647.4 478.9 647.4C486.7 647.4 494.2 640.1 500.2 634.1C501.7 632.6 503.2 631.2 504.3 630.2C506 628.8 508.7 627.6 511.3 626.6C516.2 624.6 522.8 621.8 521.9 615C521.6 612.6 520.2 610.4 518.4 607.7C515.4 602.9 511.2 596.3 511 585.8C514.6 584.8 527.3 581.7 538.5 583.9C531.1 586.9 524.4 592.1 524.4 600.4C524.4 601.6 524.4 602.8 524.4 603.9Z" id="a4rp9A6r1"></path><path d="M462.2 636.6C464 636.6 465.7 635.5 466.4 633.6C466.5 633.4 475.1 608.7 493.5 590.3C495.2 588.6 495.2 585.8 493.5 584.1C491.8 582.4 489 582.4 487.3 584.1C467.5 603.9 458.5 629.6 458.2 630.7C457.2 633.1 458.5 635.6 460.8 636.4C461.3 636.6 461.8 636.6 462.2 636.6Z" id="bpvkE6KTT"></path><path d="M432.6 629.3C435 628.8 436.5 626.5 436 624.1C433 609.6 434.5 586.2 434.5 586C434.7 583.6 432.8 581.5 430.4 581.3C427.9 581.1 425.9 583 425.7 585.4C425.6 586.4 424.1 610.3 427.4 625.9C427.8 627.9 429.6 629.4 431.7 629.4C432 629.4 432.3 629.4 432.6 629.3Z" id="c19MuI0xWL"></path><path d="M387.9 597.8C385.7 598.9 384.9 601.6 386 603.7C387.2 606.03 396.8 624.67 398 627C398.8 628.5 400.3 629.4 401.9 629.4C402.6 629.4 403.3 629.2 403.9 628.9C406.1 627.8 406.9 625.1 405.8 623C405 621.45 401 613.68 393.8 599.7C391.27 597.7 389.3 597.07 387.9 597.8Z" id="gxH8VvVxy"></path><path d="M508.2 576.2C508.7 574 508.2 571.8 506.9 570.2C505.2 568.1 502.5 567.1 498.7 567.1C496.9 567.1 494.9 567.3 492.7 567.8C491 558.7 484.8 552.4 484.5 552.1C483.5 551.1 482.2 550.7 480.8 550.9C466.9 552.8 454.3 561.3 448.3 565.9C446.9 562.3 447.1 556.1 447.9 552.1C448.2 550.5 447.6 548.8 446.4 547.8C445.1 546.8 443.4 546.5 441.9 547.2C441.1 547.6 421.9 556 415.6 568.5C412.2 575.3 404.3 575.8 401.2 575.8C400 575.1 398.5 574.5 396.8 574.6C393.4 574.7 390 577 386.7 581.5C378.1 575.2 362.5 570.2 344.9 582.8C343.8 583.6 343.1 584.9 343.1 586.2C343.1 587.6 343.7 588.9 344.7 589.7C349.9 593.9 364 607.4 366.3 619.3C368.5 630.3 376.4 632.7 382.1 634.4C386.9 635.8 390.8 637 393 642C396.5 649.9 401 655.3 406.3 657.8C406 664.1 405.1 696.9 417.8 712.1C423.2 718.5 431.2 722 440.1 722C441.6 722 443.2 721.9 444.8 721.7C455.8 720.2 465.6 714.1 469.2 706.3C472.5 699.2 474.4 687.5 476.1 677.2C476.9 672.1 478 665.4 478.8 662.9C486.3 659.7 515 646.9 522.1 633.4C529.1 620.1 529.1 615.4 529 605.1C529 604 529 602.9 529 601.7C529 594.5 543.3 591.3 548.3 590.8C550.1 590.6 551.6 589.4 552.1 587.7C552.6 586 552 584.1 550.6 583C537.6 572.6 517 575.8 507.9 577.9C508 577.3 508.1 576.8 508.2 576.2ZM507 613.7C507.8 615 508.8 616.5 509.1 617.3C508.2 618.1 505.7 619.1 504 619.8C500.9 621.1 497.4 622.5 494.7 624.9C493.3 626.1 491.8 627.6 490.1 629.2C485.8 633.5 479.2 639.9 475 639.9C474.9 639.9 474.8 639.9 474.7 639.9C468.8 639.3 464.4 642.5 461 645.1C459.3 646.4 457.5 647.6 456.3 647.9C455.2 645.9 454.4 640.6 453.7 635.6C453.9 634.6 453.8 633.6 453.3 632.7C453.2 631.7 453.1 630.7 453 629.8C452.2 622.6 451.3 615.1 449.6 610C446.9 601.8 450.6 592.6 452.8 590.2C456 591 461.1 593 463.1 593.7C465.2 594.5 467.5 593.7 468.6 591.8C473.4 583.1 490.6 575.8 498.9 575.8C498.9 575.8 499.1 575.8 499.3 575.8C495.5 595.6 502.7 606.9 507 613.7ZM462.9 584.3C461.8 583.9 460.4 583.4 459.1 583C458.7 580.3 457.5 576 454.5 572.3C459.6 568.4 469.4 562.1 479.8 560C481.3 561.9 483.6 565.7 484.2 570.2C476.2 573.2 467.8 578.2 462.9 584.3ZM438.6 558.7C438.6 564.5 439.8 571.6 445 575.3C445.1 575.4 445.2 575.5 445.3 575.5C445.3 575.5 445.3 575.5 445.4 575.6C447.9 577.3 449.2 579.6 449.9 581.7C448.5 582.3 446.8 583.4 445.2 585.7C440.8 591.8 438 603 441.3 612.7C442.7 617 443.5 624 444.3 630.7C444.4 631.7 444.5 632.6 444.6 633.6C439.4 640.2 433.3 646.7 430.1 650C419.6 642.6 417.1 620.5 415.8 608.3C415.6 606.5 415.4 604.9 415.2 603.5C414.2 596.1 410.6 588.9 407.6 583.9C413 582.8 419.8 579.9 423.6 572.3C426.3 566.9 433 562 438.6 558.7ZM375 617.7C372.5 605.2 361.3 593.1 354.8 587C372 578.1 383.8 590.5 384.4 591.1C385.3 592.1 386.7 592.7 388.1 592.5C389.5 592.4 390.7 591.6 391.4 590.4C394.1 585.8 395.9 584.2 396.8 583.7C398.8 586.4 405.3 595.7 406.5 604.8C406.7 606.1 406.8 607.7 407 609.4C408.2 620.2 410.2 637.6 417.7 649.3C415.6 650.6 413.6 651 411.7 650.6C407.9 649.7 404.1 645.4 401.1 638.6C397.2 629.7 390.3 627.7 384.7 626C378.8 624.2 376.1 623.2 375 617.7ZM461.4 702.6C459.2 707.2 452.7 711.3 445.5 712.7C446.87 708.31 457.83 673.19 459.2 668.8C459.9 666.5 458.6 664 456.3 663.3C454 662.6 451.5 663.9 450.8 666.2C450.17 668.21 447.04 678.28 441.4 696.4C439.18 680.14 437.95 671.11 437.7 669.3C437.4 666.9 435.2 665.2 432.7 665.5C430.3 665.8 428.6 668 428.9 670.5C429.48 674.71 434.12 708.39 434.7 712.6C431.2 711.8 427.6 710 424.6 706.4C415.6 695.7 414.6 670.4 415.1 659.3C417.6 659 420.4 658 423.4 655.9C425.1 657.3 427 658.6 429.1 659.5C429.7 659.7 430.2 659.9 430.8 659.9C431.9 659.9 433.1 659.5 433.9 658.6C434.2 658.3 440 652.5 446.2 645.3C447.6 651.9 449.8 656.1 454.3 656.7C454.7 656.8 455.2 656.8 455.6 656.8C459.8 656.8 463.1 654.4 466 652.2C466.1 652.2 466.1 652.1 466.2 652.1C467.4 655.2 469.2 658.2 470.6 660.1C469.7 663.2 468.8 668.1 467.6 675.8C466.1 685.1 464.2 696.6 461.4 702.6ZM520.4 605.2C520.5 615 520.5 618 514.5 629.4C509.7 638.5 488.4 649.3 477.3 654.1C476.2 652.4 475.1 650.4 474.4 648.7C474.6 648.7 474.8 648.7 474.9 648.7C474.9 648.7 474.9 648.7 474.9 648.7C482.7 648.7 490.2 641.4 496.2 635.4C497.7 633.9 499.2 632.5 500.3 631.5C502 630.1 504.7 628.9 507.3 627.9C512.2 625.9 518.8 623.1 517.9 616.3C517.6 613.9 516.2 611.7 514.4 609C511.4 604.2 507.2 597.6 507 587.1C510.6 586.1 523.3 583 534.5 585.2C527.1 588.2 520.4 593.4 520.4 601.7C520.4 602.9 520.4 604.1 520.4 605.2Z" id="bpUnPhIV6"></path></defs><g><g><use xlink:href="#c12UiJyxf2" opacity="1" fill="#20826d" fill-opacity="1"></use><g><use xlink:href="#c12UiJyxf2" opacity="1" fill-opacity="0" stroke="#000000" stroke-width="1" stroke-opacity="0"></use></g></g><g><use xlink:href="#a5OPuYgfK" opacity="1" fill="#20826d" fill-opacity="1"></use><g><use xlink:href="#a5OPuYgfK" opacity="1" fill-opacity="0" stroke="#000000" stroke-width="1" stroke-opacity="0"></use></g></g><g><use xlink:href="#e1exI33uWE" opacity="1" fill="#20826d" fill-opacity="1"></use><g><use xlink:href="#e1exI33uWE" opacity="1" fill-opacity="0" stroke="#000000" stroke-width="1" stroke-opacity="0"></use></g></g><g><use xlink:href="#a4rp9A6r1" opacity="1" fill="#20826d" fill-opacity="1"></use><g><use xlink:href="#a4rp9A6r1" opacity="1" fill-opacity="0" stroke="#000000" stroke-width="1" stroke-opacity="0"></use></g></g><g><use xlink:href="#bpvkE6KTT" opacity="1" fill="#000000" fill-opacity="1"></use><g><use xlink:href="#bpvkE6KTT" opacity="1" fill-opacity="0" stroke="#000000" stroke-width="1" stroke-opacity="0"></use></g></g><g><use xlink:href="#c19MuI0xWL" opacity="1" fill="#000000" fill-opacity="1"></use><g><use xlink:href="#c19MuI0xWL" opacity="1" fill-opacity="0" stroke="#000000" stroke-width="1" stroke-opacity="0"></use></g></g><g><use xlink:href="#gxH8VvVxy" opacity="1" fill="#000000" fill-opacity="1"></use><g><use xlink:href="#gxH8VvVxy" opacity="1" fill-opacity="0" stroke="#000000" stroke-width="1" stroke-opacity="0"></use></g></g><g><use xlink:href="#bpUnPhIV6" opacity="1" fill="#000000" fill-opacity="1"></use><g><use xlink:href="#bpUnPhIV6" opacity="1" fill-opacity="0" stroke="#000000" stroke-width="1" stroke-opacity="0"></use></g></g></g></svg>