<?xml version="1.0" encoding="UTF-8" standalone="no"?>
<!DOCTYPE svg PUBLIC "-//W3C//DTD SVG 1.1//EN" "http://www.w3.org/Graphics/SVG/1.1/DTD/svg11.dtd">
<svg version="1.1" xmlns="http://www.w3.org/2000/svg" xmlns:xlink="http://www.w3.org/1999/xlink" preserveAspectRatio="xMidYMid meet" viewBox="126.5175062029987 542.7578040878242 139.50216046454935 193.6421959121758" width="135.5" height="189.64"><defs><path d="M200.2 543.8C176.4 545.2 158.3 553.7 146.4 569.1C131.7 588.2 127.8 617.3 135.1 653.4C147.7 715.6 183.8 732 201.1 732C201.1 732 201.1 732 201.1 732C202.9 732 204.6 731.8 206.2 731.5C207.8 731.2 209.2 730.5 210.4 729.6C211 730.5 211.9 731.2 213.1 731.5C214.8 731.9 216.5 732.1 218.3 732.1C223.9 732.1 229.5 730.1 234.8 726.2C245.3 718.5 253.5 703.9 254.6 690.6C255 685.7 256.2 680.8 257.6 675.1C261.2 660.1 265.7 641.4 261 606.1C254.9 560.7 223.2 553.8 215.8 552.8C212.4 547.3 207.9 543.3 200.2 543.8ZM201.1 723.2C198.3 723.2 194.2 722.5 189.5 720.6C188.8 719.5 184.5 712.6 179.7 701.9C179.8 701.6 179.8 701.4 179.8 701.1C180.2 695.7 183.1 680.6 191.3 675.6C193.4 674.4 194.1 671.7 192.8 669.6C191.6 667.5 188.9 666.8 186.8 668.1C179.9 672.2 176 680 173.8 686.9C171.2 679 168.8 670.1 167.3 660.4C167.7 660 168 659.6 168.2 659.1C172.3 649.3 185.9 622.3 199.8 615.6C202 614.6 202.9 611.9 201.9 609.7C200.9 607.5 198.2 606.6 196 607.6C183.2 613.7 172.2 631.4 165.9 643.5C165.6 631.3 167.1 618.5 171.3 605.7C171.5 605.6 171.8 605.4 172 605.2C172.1 605.1 182.8 595.2 193.9 590.8C196.2 589.9 197.2 587.3 196.3 585.1C195.4 582.9 192.8 581.8 190.6 582.7C186.2 584.5 182 586.9 178.3 589.3C179.8 586.6 181.3 583.8 183.1 581.1C184.4 579.1 183.8 576.3 181.8 575C179.8 573.7 177 574.3 175.7 576.3C166.2 591 160.9 606.1 158.6 620.8C157.2 617.2 155.5 614 153.8 612C152.2 610.2 149.5 609.9 147.6 611.5C145.8 613.1 145.5 615.9 147.1 617.7C150.1 621.2 154 634.2 155.8 641.6C156 642.5 156.5 643.2 157.1 643.7C157.8 671.9 167.3 696.7 174.4 711.4C162.3 701.1 149.9 682.9 143.6 651.7C136.8 618.2 140.1 591.5 153.2 574.5C163.4 561.2 179.3 553.9 200.5 552.6C200.7 552.6 200.9 552.6 201.1 552.6C206.2 552.6 208.5 557 212.7 567.2C214.6 571.9 216.8 577.2 219.9 582C223.3 587.3 219.3 598.4 215.8 608.2C211.7 619.6 207.8 630.4 211.6 638.5C213.5 642.6 210.9 646.9 206.9 652.6C203.8 657 200.8 661.2 202.1 665.8C202.8 668.5 204.9 670.5 208.2 672C211.7 673.5 214.7 685.5 213.2 700.1C212.1 713.4 207.7 722.2 204.3 722.9C203.4 723.1 202.3 723.2 201.1 723.2ZM245.8 689.9C244.9 700.6 238 712.9 229.5 719.1C228.5 719.8 227.3 720.6 226 721.2C230.1 714.3 235.8 702.9 240.2 687C241.4 685.9 242 684.1 241.4 682.4C241.4 682.39 241.4 682.31 241.4 682.3C245.8 664.8 248.5 642.5 246.4 615.1C246.2 612.7 244.1 610.9 241.7 611.1C239.3 611.3 237.5 613.4 237.7 615.8C237.9 618.7 238.1 621.5 238.2 624.3C238.02 623.94 236.58 621.06 236.4 620.7C235.3 618.5 232.7 617.6 230.5 618.7C228.3 619.8 227.5 622.4 228.5 624.6C229.38 626.37 236.42 640.53 237.3 642.3C237.5 642.7 237.8 643.1 238.1 643.4C237.7 651.1 237 658.3 235.9 664.9C235.49 663.6 232.21 653.2 231.8 651.9C231.1 649.6 228.6 648.3 226.3 649C224 649.7 222.7 652.2 223.4 654.5C224.28 657.28 231.32 679.52 232.2 682.3C228.2 697.4 223 708.4 219.1 715.2C220.9 709.4 221.7 703.5 222 700.7C223.4 686.3 221.5 668 211.7 663.7C211.1 663.4 210.8 663.2 210.6 663.1C210.9 661.9 212.8 659.2 214 657.4C218.1 651.6 223.7 643.6 219.5 634.5C217.2 629.7 220.8 619.7 224 610.9C228.4 598.6 233 585.9 227.2 577C224.5 572.9 222.6 568.2 220.8 563.7C220.7 563.4 220.5 563 220.4 562.7C230.2 565.8 247.9 575.8 252.1 607.3C256.8 641 252.5 658.8 249 673.1C247.6 678.9 246.3 684.3 245.8 689.9Z" id="f1eWqOPeKA"></path><path d="M196.2 545.1C172.4 546.5 154.3 555 142.4 570.4C127.7 589.5 123.8 618.6 131.1 654.7C143.7 716.9 179.8 733.3 197.1 733.3C197.1 733.3 197.1 733.3 197.1 733.3C198.9 733.3 200.6 733.1 202.2 732.8C203.8 732.5 205.2 731.8 206.4 730.9C207 731.8 207.9 732.5 209.1 732.8C210.8 733.2 212.5 733.4 214.3 733.4C219.9 733.4 225.5 731.4 230.8 727.5C241.3 719.8 249.5 705.2 250.6 691.9C251 687 252.2 682.1 253.6 676.4C257.2 661.4 261.7 642.7 257 607.4C250.9 562.1 219.2 555.1 211.8 554.1C208.4 548.6 203.9 544.6 196.2 545.1ZM197.1 724.6C194.3 724.6 190.2 723.9 185.5 722C184.8 720.9 180.5 714 175.7 703.3C175.8 703 175.8 702.8 175.8 702.5C176.2 697.1 179.1 682 187.3 677C189.4 675.8 190.1 673.1 188.8 671C187.6 668.9 184.9 668.2 182.8 669.5C175.9 673.6 172 681.4 169.8 688.3C167.2 680.4 164.8 671.5 163.3 661.8C163.7 661.4 164 661 164.2 660.5C168.3 650.7 181.9 623.7 195.8 617C198 616 198.9 613.3 197.9 611.1C196.9 608.9 194.2 608 192 609C179.2 615.1 168.2 632.8 161.9 644.9C161.6 632.7 163.1 619.9 167.3 607.1C167.5 607 167.8 606.8 168 606.6C168.1 606.5 178.8 596.6 189.9 592.2C192.2 591.3 193.2 588.7 192.3 586.5C191.4 584.3 188.8 583.2 186.6 584.1C182.2 585.9 178 588.3 174.3 590.7C175.8 588 177.3 585.2 179.1 582.5C180.4 580.5 179.8 577.7 177.8 576.4C175.8 575.1 173 575.7 171.7 577.7C162.2 592.4 156.9 607.5 154.6 622.2C153.2 618.6 151.5 615.4 149.8 613.4C148.2 611.6 145.5 611.3 143.6 612.9C141.8 614.5 141.5 617.3 143.1 619.1C146.1 622.6 150 635.6 151.8 643C152 643.9 152.5 644.6 153.1 645.1C153.8 673.3 163.3 698.1 170.4 712.8C158.3 702.5 145.9 684.3 139.6 653.1C132.8 619.6 136.1 592.9 149.2 575.9C159.4 562.6 175.3 555.3 196.5 554C196.7 554 196.9 554 197.1 554C202.2 554 204.5 558.4 208.7 568.6C210.6 573.3 212.8 578.6 215.9 583.4C219.3 588.7 215.3 599.8 211.8 609.6C207.7 621 203.8 631.8 207.6 639.9C209.5 644 206.9 648.3 202.9 654C199.8 658.4 196.8 662.6 198.1 667.2C198.8 669.9 200.9 671.9 204.2 673.4C207.7 674.9 210.7 686.9 209.2 701.5C208.1 714.7 203.7 723.5 200.3 724.3C199.4 724.5 198.3 724.6 197.1 724.6ZM241.8 691.3C240.9 702 234 714.3 225.5 720.5C224.5 721.2 223.3 722 222 722.6C226.1 715.7 231.8 704.3 236.2 688.4C237.4 687.3 238 685.5 237.4 683.8C237.4 683.79 237.4 683.71 237.4 683.7C241.8 666.2 244.5 643.9 242.4 616.5C242.2 614.1 240.1 612.3 237.7 612.5C235.3 612.7 233.5 614.8 233.7 617.2C233.9 620.1 234.1 622.9 234.2 625.7C234.02 625.34 232.58 622.46 232.4 622.1C231.3 619.9 228.7 619 226.5 620.1C224.3 621.2 223.5 623.8 224.5 626C225.38 627.77 232.42 641.93 233.3 643.7C233.5 644.1 233.8 644.5 234.1 644.8C233.7 652.5 233 659.7 231.9 666.3C231.49 665 228.21 654.6 227.8 653.3C227.1 651 224.6 649.7 222.3 650.4C220 651.1 218.7 653.6 219.4 655.9C220.28 658.68 227.32 680.92 228.2 683.7C224.2 698.8 219 709.8 215.1 716.6C216.9 710.8 217.7 704.9 218 702.1C219.4 687.7 217.5 669.4 207.7 665.1C207.1 664.8 206.8 664.6 206.6 664.5C206.9 663.3 208.8 660.6 210 658.8C214.1 653 219.7 645 215.5 635.9C213.2 631.1 216.8 621.1 220 612.3C224.4 600 229 587.3 223.2 578.4C220.5 574.3 218.6 569.6 216.8 565.1C216.7 564.8 216.5 564.4 216.4 564.1C226.2 567.2 243.9 577.2 248.1 608.7C252.8 642.4 248.5 660.2 245 674.5C243.6 680.3 242.3 685.7 241.8 691.3Z" id="b43JK1FzvZ"></path></defs><g><g><use xlink:href="#f1eWqOPeKA" opacity="1" fill="#58b7a1" fill-opacity="1"></use><g><use xlink:href="#f1eWqOPeKA" opacity="1" fill-opacity="0" stroke="#000000" stroke-width="1" stroke-opacity="0"></use></g></g><g><use xlink:href="#b43JK1FzvZ" opacity="1" fill="#000000" fill-opacity="1"></use><g><use xlink:href="#b43JK1FzvZ" opacity="1" fill-opacity="0" stroke="#000000" stroke-width="1" stroke-opacity="0"></use></g></g></g></svg>