<?xml version="1.0" encoding="UTF-8" standalone="no"?>
<!DOCTYPE svg PUBLIC "-//W3C//DTD SVG 1.1//EN" "http://www.w3.org/Graphics/SVG/1.1/DTD/svg11.dtd">
<svg version="1.1" xmlns="http://www.w3.org/2000/svg" xmlns:xlink="http://www.w3.org/1999/xlink" preserveAspectRatio="xMidYMid meet" viewBox="882.7610249440978 279.59999999999997 75.78199696020056 193.80000000000007" width="71.78" height="189.8"><defs><path d="M937.7 286.1C933.3 286.7 929.6 289.1 926.7 291.7C926.1 289.7 925 287.9 923.5 286.4C920.1 282.7 914.7 280.6 908.9 280.6C901.2 280.6 894.3 284.3 890.4 290.5C884 300.8 890.8 305.8 894.4 308.4C897.9 310.9 898.5 311.7 897.9 314.2C896.9 318 897.5 321.6 899.6 324.6C901.3 327.1 903.8 328.9 906.4 330.3C906 330.5 905.7 330.7 905.3 330.9C885.1 344.4 893 399.8 903.3 433.8C910.4 457.2 917.8 469.1 925.3 469.1C925.4 469.1 925.6 469.1 925.7 469.1C928.7 468.9 931.5 467.1 933.9 463.6C947.3 443.9 957.2 356.5 952.2 341.3C950.7 336.7 947.6 332.9 943.3 330.2C948 325.8 952.4 319 949.7 312.1C949.5 311.5 949.4 311.3 951.5 308.9C954.1 305.8 959.8 299.5 950.1 290.5C945.5 286.2 940.8 285.8 937.7 286.1ZM897.9 295.2C900.2 291.6 904.3 289.4 909 289.4C912.3 289.4 915.5 290.6 917.2 292.4C918.3 293.6 918.8 295 918.7 296.6C918.4 301.1 918.8 305.3 919.1 309C919.7 315.3 920.1 320.1 917.6 325C913.8 324.2 908.6 322.4 906.8 319.7C906.3 319 905.9 318.1 906.4 316.5C908.6 307.9 903 303.8 899.6 301.4C895.9 298.7 895.8 298.6 897.9 295.2ZM925.2 460.2C919.9 457.3 907.6 427.6 903 390.2C899.6 362.9 902.3 343.5 910.1 338.3C914 335.7 919.5 334.2 925.2 334.2C932.5 334.2 941.2 336.8 943.7 344C945.5 349.4 944.5 376 940.2 405.7C934.3 446 927.6 458.4 925.2 460.2ZM941.4 315.3C942.8 318.8 937 324.2 934.2 326.1C934.1 326.2 934 326.3 933.9 326.3C931.7 325.8 929.3 325.5 926.8 325.4C928.7 319.5 928.2 313.8 927.8 308.2C927.7 306.9 927.6 305.5 927.5 304.2C927.8 303.9 928.1 303.6 928.3 303.3C929.6 301.3 934.3 295.4 938.8 294.8C939.9 294.7 941.7 294.7 944.1 296.9C947.5 300.1 947.4 300.2 944.8 303C942.6 305.4 939 309.5 941.4 315.3Z" id="adwXLTJ4B"></path><path d="M933.7 287.4C929.3 288 925.6 290.4 922.7 293C922.1 291 921 289.2 919.5 287.7C916.1 284 910.7 281.9 904.9 281.9C897.2 281.9 890.3 285.6 886.4 291.8C880 302.1 886.8 307.1 890.4 309.7C893.9 312.2 894.5 313 893.9 315.5C892.9 319.3 893.5 322.9 895.6 325.9C897.3 328.4 899.8 330.2 902.4 331.6C902 331.8 901.7 332 901.3 332.2C881.1 345.7 889 401.1 899.3 435.1C906.4 458.5 913.8 470.4 921.3 470.4C921.4 470.4 921.6 470.4 921.7 470.4C924.7 470.2 927.5 468.4 929.9 464.9C943.3 445.2 953.2 357.8 948.2 342.6C946.7 338 943.6 334.2 939.3 331.5C944 327.1 948.4 320.3 945.7 313.4C945.5 312.8 945.4 312.6 947.5 310.2C950.1 307.2 955.8 300.8 946.1 291.8C941.5 287.5 936.8 287.1 933.7 287.4ZM893.9 296.5C896.2 292.9 900.3 290.7 905 290.7C908.3 290.7 911.5 291.9 913.2 293.7C914.3 294.9 914.8 296.3 914.7 297.9C914.4 302.4 914.8 306.6 915.1 310.3C915.7 316.6 916.1 321.4 913.6 326.3C909.8 325.5 904.6 323.7 902.8 321C902.3 320.3 901.9 319.4 902.4 317.8C904.6 309.3 899 305.2 895.6 302.7C891.9 300 891.8 299.9 893.9 296.5ZM921.2 461.5C915.9 458.6 903.6 428.9 899 391.5C895.6 364.2 898.3 344.8 906.1 339.6C910 337 915.5 335.5 921.2 335.5C928.5 335.5 937.2 338.1 939.7 345.3C941.5 350.7 940.5 377.4 936.2 407C930.3 447.3 923.6 459.7 921.2 461.5ZM937.4 316.7C938.8 320.2 933 325.6 930.2 327.5C930.1 327.6 930 327.7 929.9 327.7C927.7 327.2 925.3 326.9 922.8 326.8C924.7 320.9 924.2 315.2 923.8 309.6C923.7 308.3 923.6 306.9 923.5 305.6C923.8 305.3 924.1 305 924.3 304.7C925.6 302.7 930.3 296.8 934.8 296.2C935.9 296.1 937.7 296.1 940.1 298.3C943.5 301.4 943.4 301.5 940.8 304.4C938.6 306.8 935 310.9 937.4 316.7Z" id="a1id7dOmxs"></path></defs><g><g><use xlink:href="#adwXLTJ4B" opacity="1" fill="#f6aa54" fill-opacity="1"></use><g><use xlink:href="#adwXLTJ4B" opacity="1" fill-opacity="0" stroke="#000000" stroke-width="1" stroke-opacity="0"></use></g></g><g><use xlink:href="#a1id7dOmxs" opacity="1" fill="#000000" fill-opacity="1"></use><g><use xlink:href="#a1id7dOmxs" opacity="1" fill-opacity="0" stroke="#000000" stroke-width="1" stroke-opacity="0"></use></g></g></g></svg>