<?xml version="1.0" encoding="UTF-8" standalone="no"?>
<!DOCTYPE svg PUBLIC "-//W3C//DTD SVG 1.1//EN" "http://www.w3.org/Graphics/SVG/1.1/DTD/svg11.dtd">
<svg version="1.1" xmlns="http://www.w3.org/2000/svg" xmlns:xlink="http://www.w3.org/1999/xlink" preserveAspectRatio="xMidYMid meet" viewBox="624.671943776915 541.7335785731365 145.99555601963448 184.86642142686355" width="142" height="180.87"><defs><path d="M758.8 621.7C759.8 611.7 765 597.8 767.3 592.5C768 590.9 767.7 588.9 766.4 587.7C765.1 586.4 763.2 586 761.6 586.7C752.9 590.4 746.2 596.8 741.7 602.1C737.7 581.6 730.5 556.3 718.4 546.9C714 543.5 709.1 542.1 704 543C685 546.2 675.2 576.4 670.3 601.7C662 591.9 651.5 587.6 650.9 587.4C649.2 586.7 647.2 587.2 646 588.6C644.8 590 644.6 592 645.5 593.6C650 601.6 652.6 613.9 654 622.6C644.1 617 636.7 613.5 635.9 613.2C633.7 612.2 631.2 613.1 630.1 615.3C629.1 617.4 629.9 620 632 621.1C648.9 629.9 659.3 654.6 659.3 685.4C659.3 696.3 662.6 705.1 669.2 711.5C679.4 721.5 694 721.9 696.4 721.9C696.4 721.9 696.4 721.9 696.5 721.9C698.7 722.2 700.9 722.3 703.1 722.3C718.6 722.3 732.9 715.7 742.3 704.1C750.8 693.7 754.2 680.4 751.5 667.6C746.5 643.5 765.1 629.2 765.9 628.7C767.5 627.5 768.1 625.3 767.3 623.4C766.5 621.7 764.5 620.6 762.5 620.9C761.2 621.1 760 621.4 758.8 621.7ZM749.9 624.1C748.3 624.6 746.8 625.2 745.4 625.8C745 622.8 744.5 618.8 743.8 614.1C745.2 611.7 749 606.2 754.6 601.4C752.3 608.4 750.1 617 749.9 624.1ZM697.7 655.9C697.7 655.6 697.7 655.4 697.7 655.1C696.9 649.5 696.7 641.7 696.9 632.9C702.6 632.7 708.9 632.7 715.2 632.9C715.3 638.8 715.2 644 714.7 648C714.6 648.6 714.7 649.1 714.8 649.6C711 654.6 707.8 660 705.1 665.4C703 662.2 700.5 659 697.7 655.9ZM681.9 590.8C682 590.8 685.7 589.5 691.2 588.2C690.8 592.2 690.4 596.3 690.1 600.5C685.7 601.3 681.9 602.1 679 602.7C679.8 598.8 680.7 594.8 681.7 590.9C681.8 590.9 681.9 590.9 681.9 590.8ZM721.7 598.4C721.3 594.1 720.8 589.8 720.3 585.6C723.5 585.9 726.5 586.6 729.3 587.6C730.4 591.6 731.3 595.6 732.2 599.5C728.8 598.9 725.3 598.5 721.7 598.4ZM734.9 613.9C735.6 618.4 736.2 622.6 736.6 626.2C732.5 625.5 728.2 625 723.8 624.7C723.5 619.1 723.1 613.3 722.6 607.3C726.5 607.6 730.4 608 734 608.9C734.3 610.4 734.5 612 734.8 613.6C734.8 613.7 734.8 613.8 734.9 613.9ZM689.3 609.7C688.9 614.7 688.6 619.7 688.4 624.5C682.7 624.8 678.2 625.2 675.5 625.5C676 621.2 676.6 616.8 677.3 612.3C679.3 611.8 683.6 610.7 689.3 609.7ZM713.7 607C714.2 612.8 714.6 618.6 714.9 624C712 623.9 709.1 623.8 706.3 623.8C703.2 623.8 700.1 623.9 697.2 623.9C697.5 618.9 697.9 613.6 698.3 608.2C703.1 607.6 708.3 607.1 713.7 607ZM699 599.3C699.4 594.9 699.8 590.6 700.2 586.5C703.7 585.9 707.6 585.5 711.4 585.3C711.9 589.5 712.4 593.9 712.8 598.3C708 598.4 703.3 598.8 699 599.3ZM688.2 633.2C688.1 637.9 688.1 642.4 688.3 646.4C683.9 642.6 679.3 639 674.6 635.7C674.6 635.3 674.6 634.8 674.7 634.3C676.6 634.1 681.6 633.6 688.2 633.2ZM730.5 634.1C728.2 635.8 726 637.6 724 639.5C724 637.6 724 635.5 724 633.4C726.2 633.6 728.4 633.8 730.5 634.1ZM719.3 576.7C718.4 569.3 717.5 562.8 716.8 557.8C720.5 562.6 723.7 569.7 726.4 577.7C724.1 577.2 721.7 576.9 719.3 576.7ZM710.4 576.6C707.3 576.7 704.2 577.1 701.2 577.5C702.7 563.8 704.1 553.9 704.1 553.6C704.2 553.1 704.1 552.5 704 552C704.4 551.9 704.8 551.8 705.3 551.7C705.9 551.6 706.5 551.6 707 551.6C707.6 555.5 708.9 564.9 710.4 576.6ZM692.2 579.1C689.3 579.7 686.7 580.4 684.6 580.9C687.4 572.4 690.7 565 694.5 559.7C693.9 564.5 693.1 571.2 692.2 579.1ZM668.1 614.3C667.2 620.6 666.6 626.1 666.2 630.1C665.3 629.5 664.5 629 663.6 628.5C663 623.1 661.4 612.4 658.3 602.3C661.9 605.2 665.5 609.2 668.1 614.3ZM657.6 636.4C658.2 636.7 658.9 636.9 659.7 636.9C659.8 636.9 660 636.9 660.1 636.9C660.2 636.9 660.2 636.9 660.3 636.9C676 646.9 693.7 660.7 700.7 675.4C700.7 675.5 700.8 675.5 700.8 675.6C694.9 691.2 693.1 705.8 692.5 713C688 712.4 680.7 710.6 675.3 705.3C670.5 700.6 668.1 693.9 668.1 685.5C668.1 666.2 664.4 649.4 657.6 636.4ZM735.5 698.6C727.4 708.6 714.8 714.1 701.3 713.5C702.4 698.9 709.3 649.5 750 633.4C744.5 641.6 739.6 653.8 742.9 669.5C745 679.8 742.4 690.2 735.5 698.6Z" id="dbckduuMo"></path><path d="M754.8 623C755.8 613 761 599.1 763.3 593.8C764 592.2 763.7 590.2 762.4 589C761.1 587.7 759.2 587.3 757.6 588C748.9 591.7 742.2 598.1 737.7 603.4C733.7 582.9 726.5 557.6 714.4 548.2C710 544.8 705.1 543.4 700 544.3C681 547.5 671.2 577.7 666.3 603C658 593.2 647.5 588.9 646.9 588.7C645.2 588 643.2 588.5 642 589.9C640.8 591.3 640.6 593.3 641.5 594.9C646 602.9 648.6 615.2 650 623.9C640.1 618.3 632.7 614.8 631.9 614.5C629.7 613.5 627.2 614.4 626.1 616.6C625.1 618.7 625.9 621.3 628 622.4C644.9 631.2 655.3 655.9 655.3 686.7C655.3 697.6 658.6 706.4 665.2 712.8C675.4 722.8 690 723.2 692.4 723.2C692.4 723.2 692.4 723.2 692.5 723.2C694.7 723.5 696.9 723.6 699.1 723.6C714.6 723.6 728.9 717 738.3 705.4C746.8 695 750.2 681.7 747.5 668.9C742.5 644.8 761.1 630.5 761.9 630C763.5 628.8 764.1 626.6 763.3 624.7C762.5 623 760.5 621.9 758.5 622.2C757.2 622.4 756 622.7 754.8 623ZM745.9 625.4C744.3 625.9 742.8 626.5 741.4 627.1C741 624.1 740.5 620.1 739.8 615.4C741.2 613 745 607.6 750.6 602.7C748.3 609.7 746.1 618.3 745.9 625.4ZM693.7 657.2C693.7 656.9 693.7 656.7 693.7 656.4C692.9 650.8 692.7 643 692.9 634.2C698.6 634 704.9 634 711.2 634.2C711.3 640.1 711.2 645.3 710.7 649.3C710.6 649.9 710.7 650.4 710.8 650.9C707 656 703.8 661.3 701.1 666.7C699 663.5 696.5 660.3 693.7 657.2ZM677.9 592.2C678 592.2 681.7 590.9 687.2 589.6C686.8 593.6 686.4 597.7 686.1 601.9C681.7 602.7 677.9 603.5 675 604.1C675.8 600.1 676.7 596.1 677.7 592.3C677.8 592.3 677.9 592.3 677.9 592.2ZM717.7 599.7C717.3 595.4 716.8 591.1 716.3 586.9C719.5 587.2 722.5 587.9 725.3 588.9C726.4 592.9 727.3 596.9 728.2 600.8C724.8 600.2 721.3 599.8 717.7 599.7ZM730.9 615.2C731.6 619.7 732.2 623.9 732.6 627.5C728.5 626.8 724.2 626.3 719.8 626C719.5 620.4 719.1 614.6 718.6 608.6C722.5 608.9 726.4 609.3 730 610.2C730.3 611.8 730.5 613.3 730.8 614.9C730.8 615 730.8 615.1 730.9 615.2ZM685.3 611C684.9 616 684.6 621 684.4 625.8C678.7 626.1 674.2 626.5 671.5 626.8C672 622.5 672.6 618.1 673.3 613.6C675.3 613.1 679.6 612 685.3 611ZM709.7 608.4C710.2 614.2 710.6 620 710.9 625.4C708 625.3 705.1 625.2 702.3 625.2C699.2 625.2 696.1 625.3 693.2 625.3C693.5 620.2 693.9 614.9 694.3 609.6C699.1 609 704.3 608.5 709.7 608.4ZM695 600.6C695.4 596.2 695.8 591.9 696.2 587.8C699.7 587.2 703.6 586.8 707.4 586.6C707.9 590.9 708.4 595.2 708.8 599.6C704 599.7 699.3 600.1 695 600.6ZM684.2 634.6C684.1 639.3 684.1 643.8 684.3 647.8C679.9 644 675.3 640.4 670.6 637.1C670.6 636.6 670.6 636.2 670.7 635.7C672.6 635.5 677.6 635 684.2 634.6ZM726.5 635.4C724.2 637.1 722 638.9 720 640.8C720 638.9 720 636.9 720 634.7C722.2 634.9 724.4 635.1 726.5 635.4ZM715.3 578C714.4 570.6 713.5 564.1 712.8 559.1C716.5 564 719.7 571 722.4 579C720.1 578.5 717.7 578.2 715.3 578ZM706.4 577.9C703.3 578 700.2 578.4 697.2 578.8C698.7 565.1 700.1 555.2 700.1 554.9C700.2 554.4 700.1 553.8 700 553.3C700.4 553.2 700.8 553.1 701.3 553C701.9 552.9 702.5 552.9 703 552.9C703.6 556.8 704.9 566.2 706.4 577.9ZM688.2 580.4C685.3 581 682.7 581.7 680.6 582.2C683.4 573.7 686.7 566.3 690.5 561C689.9 565.8 689.1 572.5 688.2 580.4ZM664.1 615.7C663.2 622 662.6 627.5 662.2 631.5C661.3 630.9 660.5 630.4 659.6 629.9C659 624.4 657.4 613.7 654.3 603.7C657.9 606.6 661.5 610.6 664.1 615.7ZM653.6 637.7C654.2 638 654.9 638.2 655.7 638.2C655.8 638.2 656 638.2 656.1 638.2C656.2 638.2 656.2 638.2 656.3 638.2C672 648.2 689.7 662 696.7 676.7C696.7 676.8 696.8 676.8 696.8 676.9C690.9 692.5 689.1 707.1 688.5 714.3C684 713.7 676.7 711.9 671.3 706.6C666.5 701.9 664.1 695.2 664.1 686.8C664.1 667.5 660.4 650.7 653.6 637.7ZM731.5 699.9C723.4 709.9 710.8 715.4 697.3 714.8C698.4 700.2 705.3 650.8 746 634.7C740.5 643 735.6 655.2 738.9 670.8C741 681.1 738.4 691.5 731.5 699.9Z" id="g1YOlTjngD"></path></defs><g><g><use xlink:href="#dbckduuMo" opacity="1" fill="#F5E25A" fill-opacity="1"></use><g><use xlink:href="#dbckduuMo" opacity="1" fill-opacity="0" stroke="#000000" stroke-width="1" stroke-opacity="0"></use></g></g><g><use xlink:href="#g1YOlTjngD" opacity="1" fill="#000000" fill-opacity="1"></use><g><use xlink:href="#g1YOlTjngD" opacity="1" fill-opacity="0" stroke="#000000" stroke-width="1" stroke-opacity="0"></use></g></g></g></svg>