<?xml version="1.0" encoding="UTF-8" standalone="no"?>
<!DOCTYPE svg PUBLIC "-//W3C//DTD SVG 1.1//EN" "http://www.w3.org/Graphics/SVG/1.1/DTD/svg11.dtd">
<svg version="1.1" xmlns="http://www.w3.org/2000/svg" xmlns:xlink="http://www.w3.org/1999/xlink" preserveAspectRatio="xMidYMid meet" viewBox="390.0160876569434 43.300000000000004 136.1913364929822 219" width="132.19" height="215"><defs><path d="M477.4 240.5C527.8 196.8 518.8 128.7 516.6 115.7C516.7 115.7 516.8 115.6 516.8 115.6C519.9 113.7 524.8 109 522.7 98.4C520.2 85.5 507.7 68.6 494.9 64C494.9 62.47 494.9 50.23 494.9 48.7C494.9 46.3 492.9 44.3 490.5 44.3C488.1 44.3 486.1 46.3 486.1 48.7C486.1 50.12 486.1 61.48 486.1 62.9C470.4 63.9 456.6 80.6 451.7 92.6C448 101.5 449.8 105.8 451.8 107.9C452.3 108.4 452.8 108.8 453.3 109.2C453.3 109.3 453.3 109.3 453.2 109.4C453.1 109.8 445.9 152.7 410.2 184.2C389.3 202.6 392.2 228.7 405.5 243.9C413 252.4 424 258 436.9 258C449.1 258 463.1 252.9 477.4 240.5ZM489.9 71.7C499.1 73.2 511.8 88 514.2 100.1C514.7 102.9 514.9 106.6 512.4 108.1C510.6 109.2 509.5 109.4 508.8 109.4C505.8 109.4 504.1 102.4 503.9 99.9C503.7 97.8 502.1 96.1 500 95.9C499.9 95.9 499.7 95.9 499.6 95.9C497.7 95.9 496 97.2 495.4 99C494.7 101.3 491.8 108 487.7 108C487.2 108 486.6 107.9 485.9 107.7C479.1 105.4 479.8 98.2 480 97.4C480.3 95.2 479 93.2 476.9 92.5C474.8 91.9 472.6 92.9 471.6 94.9C470.3 97.7 466.2 104 462.6 104C461.4 104 460 103.3 458.6 101.9C458.1 100.2 459.7 93.9 465.5 86.1C473 76 482.2 70.5 489.9 71.7ZM461.6 112.7C461.9 112.7 462.1 112.7 462.4 112.7C466.7 112.7 470.3 110.4 473.1 107.7C474.9 111.1 477.9 114.3 483 115.9C484.5 116.4 486.1 116.7 487.6 116.7C492.1 116.7 495.7 114.4 498.4 111.3C500.4 114.9 503.6 117.7 508.2 118C510.3 131.6 517.1 194.6 471.8 233.8C445.3 256.8 423.2 250.4 412.3 237.9C401.7 226 399.5 205.4 416.1 190.7C450.2 160.7 459.8 121.9 461.6 112.7Z" id="j5q43gymaQ"></path><path d="M473.4 241.8C523.8 198.1 514.8 130 512.6 117C512.7 117 512.8 116.9 512.8 116.9C515.9 115 520.8 110.3 518.7 99.7C516.2 86.8 503.7 69.9 490.9 65.3C490.9 63.77 490.9 51.53 490.9 50C490.9 47.6 488.9 45.6 486.5 45.6C484.1 45.6 482.1 47.6 482.1 50C482.1 51.42 482.1 62.78 482.1 64.2C466.4 65.2 452.6 81.9 447.7 93.9C444 102.8 445.8 107.1 447.8 109.2C448.3 109.7 448.8 110.1 449.3 110.5C449.3 110.6 449.3 110.6 449.2 110.7C449.1 111.1 441.9 154 406.2 185.5C385.3 203.9 388.2 230 401.5 245.2C409 253.7 420 259.3 432.9 259.3C445.1 259.3 459.1 254.2 473.4 241.8ZM485.9 73C495.1 74.5 507.8 89.3 510.2 101.4C510.7 104.2 510.9 107.9 508.4 109.4C506.6 110.5 505.5 110.7 504.8 110.7C501.8 110.7 500.1 103.7 499.9 101.2C499.7 99.1 498.1 97.4 496 97.2C495.9 97.2 495.7 97.2 495.6 97.2C493.7 97.2 492 98.5 491.4 100.3C490.7 102.6 487.8 109.3 483.7 109.3C483.2 109.3 482.6 109.2 481.9 109C475.1 106.7 475.8 99.5 476 98.7C476.3 96.5 475 94.5 472.9 93.8C470.8 93.2 468.6 94.2 467.6 96.2C466.3 99 462.2 105.3 458.6 105.3C457.4 105.3 456 104.6 454.6 103.2C454.1 101.5 455.7 95.2 461.5 87.4C469 77.3 478.2 71.8 485.9 73ZM457.6 114.1C457.9 114.1 458.1 114.1 458.4 114.1C462.7 114.1 466.3 111.8 469.1 109.1C470.9 112.5 473.9 115.7 479 117.3C480.5 117.8 482.1 118.1 483.6 118.1C488.1 118.1 491.7 115.8 494.4 112.7C496.4 116.3 499.6 119.1 504.2 119.4C506.3 133 513.1 196 467.8 235.2C441.3 258.2 419.2 251.8 408.3 239.3C397.7 227.4 395.5 206.7 412.1 192.1C446.2 162.1 455.8 123.3 457.6 114.1Z" id="bZpDgEk8D"></path></defs><g><g><use xlink:href="#j5q43gymaQ" opacity="1" fill="#690b67" fill-opacity="1"></use><g><use xlink:href="#j5q43gymaQ" opacity="1" fill-opacity="0" stroke="#000000" stroke-width="1" stroke-opacity="0"></use></g></g><g><use xlink:href="#bZpDgEk8D" opacity="1" fill="#000000" fill-opacity="1"></use><g><use xlink:href="#bZpDgEk8D" opacity="1" fill-opacity="0" stroke="#000000" stroke-width="1" stroke-opacity="0"></use></g></g></g></svg>