<?xml version="1.0" encoding="UTF-8" standalone="no"?>
<!DOCTYPE svg PUBLIC "-//W3C//DTD SVG 1.1//EN" "http://www.w3.org/Graphics/SVG/1.1/DTD/svg11.dtd">
<svg version="1.1" xmlns="http://www.w3.org/2000/svg" xmlns:xlink="http://www.w3.org/1999/xlink" preserveAspectRatio="xMidYMid meet" viewBox="870.7878756536776 71.5 145.79837522028174 130.00000000000006" width="141.8" height="126"><defs><path d="M965.4 91.6C955.8 86.8 950 83.8 946.3 79C945.4 77.3 944.5 75.8 943.5 74.4C943.4 74.3 943.4 74.3 943.3 74.2C943.2 74.1 943.1 74 943 73.8C942.8 73.6 942.6 73.4 942.4 73.3C942.3 73.2 942.2 73.2 942.1 73.1C941.8 72.9 941.6 72.8 941.3 72.7C941.2 72.7 941.1 72.6 941.1 72.6C940.8 72.5 940.4 72.5 940.1 72.5C940.1 72.5 940 72.5 940 72.5C940 72.5 940 72.5 939.9 72.5C939.9 72.5 939.9 72.5 939.9 72.5C939.8 72.5 939.7 72.5 939.6 72.5C939.3 72.5 939 72.6 938.7 72.7C938.7 72.7 938.7 72.7 938.7 72.7C937.5 73.1 936.5 73.9 936 75.1C936 75.1 936 75.1 936 75.1C936 75.1 936 75.1 936 75.1C935.9 75.2 930.3 87.5 904.5 99.3C887.2 107.2 871.4 135.8 876.9 160.9C879.8 174.3 891.5 196.8 937.2 196.8C937.3 196.8 938.1 196.8 938.2 196.8C939.2 197 940.3 197.1 941.3 197.1C941.3 197.1 941.3 197.1 941.3 197.1C942.5 197.1 943.8 197 945.2 196.6C996.3 194.1 1009.1 168.2 1012.2 156.8C1017.1 137.6 1008.7 116.2 991.9 106C981 99.4 972.4 95 965.4 91.6ZM927.1 178.7C915.9 156.5 932.9 106.8 940.5 87C953.1 113.6 957.6 164.3 947.8 182.9C946.2 186 944.5 187.3 943.2 187.9C941.8 188 940.3 188.1 938.8 188.1C933.5 186.8 929.6 183.7 927.1 178.7ZM917.3 177.9C910.7 171.1 903.3 160.3 903.3 145.9C903.3 125.3 919.3 107.3 926.4 100.3C918.8 123.4 910.4 157 917.3 177.9ZM954.3 99C962.5 107.8 976.2 125.4 978.9 146.4C981.2 165.6 967.2 177.1 957.5 182.6C964.5 163.5 962.4 126.6 954.3 99ZM907.9 107.3C908.3 107.1 908.6 107 909 106.8C901.7 116.8 894.5 130.5 894.5 145.9C894.5 164 903.8 177.1 911.9 184.9C897.1 180.7 888 171.9 885.2 159.1C880.8 138.8 894 113.7 907.9 107.3ZM971.8 183.2C981.6 174.7 989.7 162 987.6 145.4C985.5 128.6 977.3 114 969.5 103.5C974.7 106.2 980.6 109.4 987.4 113.5C1000.7 121.6 1007.6 139.2 1003.4 154.5C999.7 167.9 988.6 177.8 971.8 183.2Z" id="b7py6FgGJQ"></path><path d="M961.4 93C951.8 88.2 946 85.2 942.3 80.4C941.4 78.7 940.5 77.2 939.5 75.8C939.4 75.7 939.4 75.7 939.3 75.6C939.2 75.5 939.1 75.4 939 75.2C938.8 75 938.6 74.8 938.4 74.7C938.3 74.6 938.2 74.6 938.1 74.5C937.8 74.3 937.6 74.2 937.3 74.1C937.2 74.1 937.1 74 937.1 74C936.8 73.9 936.4 73.9 936.1 73.9C936.1 73.9 936 73.9 936 73.9C936 73.9 936 73.9 935.9 73.9C935.9 73.9 935.9 73.9 935.9 73.9C935.8 73.9 935.7 73.9 935.6 73.9C935.3 73.9 935 74 934.7 74.1C934.7 74.1 934.7 74.1 934.7 74.1C933.5 74.5 932.5 75.3 932 76.5C932 76.5 932 76.5 932 76.5C932 76.5 932 76.5 932 76.5C931.9 76.6 926.3 88.9 900.5 100.7C883.2 108.6 867.4 137.2 872.9 162.3C875.8 175.7 887.5 198.2 933.2 198.2C933.3 198.2 934.1 198.2 934.2 198.2C935.2 198.4 936.3 198.5 937.3 198.5C937.3 198.5 937.3 198.5 937.3 198.5C938.5 198.5 939.8 198.4 941.2 198C992.3 195.5 1005.1 169.6 1008.2 158.2C1013.1 138.9 1004.7 117.6 987.9 107.4C977 100.8 968.4 96.4 961.4 93ZM923.1 180C911.9 157.8 928.9 108.1 936.5 88.3C949.1 114.9 953.6 165.6 943.8 184.2C942.2 187.3 940.5 188.6 939.2 189.2C937.8 189.3 936.3 189.4 934.8 189.4C929.5 188.1 925.6 185 923.1 180ZM913.3 179.2C906.7 172.4 899.3 161.6 899.3 147.2C899.3 126.6 915.3 108.6 922.4 101.6C914.8 124.7 906.4 158.3 913.3 179.2ZM950.3 100.4C958.5 109.2 972.2 126.8 974.9 147.8C977.2 166.9 963.2 178.4 953.5 184C960.5 164.9 958.4 128 950.3 100.4ZM903.9 108.7C904.3 108.5 904.6 108.4 905 108.2C897.7 118.2 890.5 131.9 890.5 147.3C890.5 165.4 899.8 178.5 907.9 186.3C893.1 182 884 173.3 881.2 160.5C876.8 140.2 890 115.1 903.9 108.7ZM967.8 184.5C977.6 176 985.7 163.3 983.6 146.7C981.5 129.9 973.3 115.3 965.5 104.8C970.7 107.5 976.6 110.7 983.4 114.8C996.7 122.9 1003.6 140.6 999.4 155.8C995.7 169.2 984.6 179.1 967.8 184.5Z" id="c1j1z6Gqod"></path></defs><g><g><use xlink:href="#b7py6FgGJQ" opacity="1" fill="#e5c400" fill-opacity="1"></use><g><use xlink:href="#b7py6FgGJQ" opacity="1" fill-opacity="0" stroke="#000000" stroke-width="1" stroke-opacity="0"></use></g></g><g><use xlink:href="#c1j1z6Gqod" opacity="1" fill="#000000" fill-opacity="1"></use><g><use xlink:href="#c1j1z6Gqod" opacity="1" fill-opacity="0" stroke="#000000" stroke-width="1" stroke-opacity="0"></use></g></g></g></svg>