<?xml version="1.0" encoding="UTF-8" standalone="no"?>
<!DOCTYPE svg PUBLIC "-//W3C//DTD SVG 1.1//EN" "http://www.w3.org/Graphics/SVG/1.1/DTD/svg11.dtd">
<svg version="1.1" xmlns="http://www.w3.org/2000/svg" xmlns:xlink="http://www.w3.org/1999/xlink" preserveAspectRatio="xMidYMid meet" viewBox="380.97061166830724 300.3935843142102 139.67816978111205 181.90641568578985" width="135.68" height="177.91"><defs><path d="M446 467.9C450.8 471.5 461.1 478 473 478C473 478 473 478 473 478C483.5 478 492.6 473.1 500.1 463.4C514.4 444.8 525.1 393.2 511.1 364.8C504.8 352 494.1 345.2 480.1 345.2C477.3 345.2 474.3 345.5 471.2 346.1C470.1 341.5 470.5 337.5 472.4 334.3C476.4 327.4 486.2 325.4 486.2 325.4C487.5 325.1 488.7 324.3 489.3 323.1C489.9 321.9 489.9 320.5 489.4 319.2C488.68 317.67 482.92 305.43 482.2 303.9C481.2 301.7 478.6 300.8 476.4 301.8C449.2 314 439.5 339.5 436.9 347.9C432.7 346.7 427.9 345.9 422.9 345.9C410.9 345.9 395.3 351 388.8 375.4C381.7 401.9 388.4 438.5 404 458.9C411.5 468.4 420.3 473.5 429.4 473.5C435 473.5 440.5 471.6 446 467.9ZM479.3 318.2C474.8 319.9 468.5 323.4 464.9 329.6C461.8 334.9 461.1 341 462.7 348C458.7 349.2 454.6 350.9 450.2 352.9C449 352.3 447.3 351.5 445.2 350.6C447.1 344.4 454.9 323.1 476.2 311.6C476.82 312.92 478.99 317.54 479.3 318.2ZM423 354.5C435.6 354.5 447.8 361.6 447.9 361.6C449.2 362.4 450.7 362.4 452.1 361.8C462.9 356.5 472.4 353.8 480.2 353.8C490.9 353.8 498.4 358.6 503.3 368.5C515.5 393.3 505.7 441.8 493.2 457.9C487.5 465.3 480.7 469.1 473 469.1C460.3 469.1 449.1 459 449 458.9C448.2 458.1 447.1 457.7 446 457.7C445 457.7 444 458 443.2 458.7C438.5 462.6 433.8 464.5 429.3 464.5C421.3 464.5 414.9 458.3 410.9 453.2C396.9 434.9 390.9 401.6 397.4 377.5C401.5 362 409.9 354.5 423 354.5Z" id="b5J2Xm4lX"></path><path d="M442 469.2C446.8 472.8 457.1 479.3 469 479.3C469 479.3 469 479.3 469 479.3C479.5 479.3 488.6 474.4 496.1 464.7C510.4 446.1 521.1 394.5 507.1 366.1C500.8 353.3 490.1 346.5 476.1 346.5C473.3 346.5 470.3 346.8 467.2 347.4C466.1 342.8 466.5 338.8 468.4 335.6C472.4 328.7 482.2 326.7 482.2 326.7C483.5 326.4 484.7 325.6 485.3 324.4C485.9 323.2 485.9 321.8 485.4 320.5C484.68 318.97 478.92 306.73 478.2 305.2C477.2 303 474.6 302.1 472.4 303.1C445.2 315.3 435.5 340.8 432.9 349.2C428.7 348 423.9 347.2 418.9 347.2C406.9 347.2 391.3 352.3 384.8 376.7C377.7 403.2 384.4 439.8 400 460.2C407.5 469.7 416.3 474.8 425.4 474.8C431 474.8 436.5 472.9 442 469.2ZM475.3 319.6C470.8 321.3 464.5 324.8 460.9 331C457.8 336.3 457.1 342.4 458.7 349.4C454.7 350.6 450.6 352.3 446.2 354.3C445 353.7 443.3 352.9 441.2 352C443.1 345.8 450.9 324.4 472.2 313C472.82 314.32 474.99 318.94 475.3 319.6ZM419 355.8C431.6 355.8 443.8 362.9 443.9 362.9C445.2 363.7 446.7 363.7 448.1 363.1C458.9 357.8 468.4 355.1 476.2 355.1C486.9 355.1 494.4 359.9 499.3 369.8C511.5 394.6 501.7 443.1 489.2 459.2C483.5 466.6 476.7 470.4 469 470.4C456.3 470.4 445.1 460.3 445 460.2C444.2 459.4 443.1 459 442 459C441 459 440 459.3 439.2 460C434.5 463.9 429.8 465.8 425.3 465.8C417.3 465.8 410.9 459.6 406.9 454.5C392.9 436.3 386.9 402.9 393.4 378.8C397.5 363.3 405.9 355.8 419 355.8Z" id="b3L7oT9Ut"></path></defs><g><g><use xlink:href="#b5J2Xm4lX" opacity="1" fill="#f1f2f2" fill-opacity="1"></use><g><use xlink:href="#b5J2Xm4lX" opacity="1" fill-opacity="0" stroke="#000000" stroke-width="1" stroke-opacity="0"></use></g></g><g><use xlink:href="#b3L7oT9Ut" opacity="1" fill="#000000" fill-opacity="1"></use><g><use xlink:href="#b3L7oT9Ut" opacity="1" fill-opacity="0" stroke="#000000" stroke-width="1" stroke-opacity="0"></use></g></g></g></svg>