<?xml version="1.0" encoding="UTF-8" standalone="no"?>
<!DOCTYPE svg PUBLIC "-//W3C//DTD SVG 1.1//EN" "http://www.w3.org/Graphics/SVG/1.1/DTD/svg11.dtd">
<svg version="1.1" xmlns="http://www.w3.org/2000/svg" xmlns:xlink="http://www.w3.org/1999/xlink" preserveAspectRatio="xMidYMid meet" viewBox="54.19379876763331 777.6914691364337 113.31241344507187 131.7057816774104" width="109.31" height="127.71"><defs><path d="M133.95 859.05C134.41 853.33 134.49 847.57 134.33 841.83C134.2 837.05 133.9 832.21 132.88 827.53C132.22 824.55 131.26 821.4 129.26 819.03C128.62 818.28 127.87 817.63 127.02 817.14C124.55 815.74 122.03 814.43 119.54 813.07C114.39 810.27 109.25 807.48 104.1 804.68C106.42 805.94 107.84 808.31 108.77 810.69C110.23 814.4 110.79 818.46 111.15 822.41C111.65 828.04 111.7 833.72 111.53 839.36C111.37 844.64 111.08 849.98 109.98 855.16C109.15 859.09 107.84 863.37 104.74 866.12C101.67 868.84 96.06 870.09 92.33 868.07C94.61 869.31 112.84 879.23 115.12 880.47C118.1 882.1 122.29 881.48 125.23 880.06C127.91 878.74 129.74 876.32 130.92 873.63C131.1 873.23 130.89 873.69 130.92 873.63C132.92 869.09 133.54 863.95 133.95 859.05Z" id="enz53Urdv"></path><path d="M86.58 815.51C92.2 805.25 101.21 797.38 112.36 793.72C122.67 790.33 134.97 789.69 144.75 795.01C138.9 791.83 133.06 788.65 127.21 785.47C124.58 784.04 121.98 782.47 119.21 781.3C116.88 780.33 114.43 779.65 111.94 779.24C100.97 777.44 88.8 780.15 79.44 786.07C59.11 798.94 54.39 825.31 55.3 847.6C55.91 862.82 59.35 881.48 73.74 889.8C73.95 889.92 74.17 890.04 74.38 890.16C76.66 891.4 94.9 901.32 97.18 902.56C82.7 894.69 78.93 876.43 78.15 861.35C77.95 857.37 77.93 853.37 78.11 849.39C78.15 848.46 78.09 849.76 78.11 849.39C78.63 837.73 80.92 825.83 86.58 815.51Z" id="f1JJr2pr5l"></path><path d="M164.51 842.2C164.43 884 146.27 902.32 121.13 905.85C96 909.38 77.91 896.16 77.99 854.36C78.05 819.5 93 795.63 121.35 791.65C149.7 787.66 164.57 807.34 164.51 842.2ZM121.18 881.24C129.66 880.05 134.35 873.4 134.39 846.91C134.44 824.66 130.8 814.92 121.3 816.25C111.81 817.59 108.13 828.36 108.09 850.6C108.04 877.1 112.71 882.44 121.18 881.24" id="gYyssUE1"></path><path d="M122.04 796.6C97.28 800.08 83.05 821.13 82.98 854.37C82.95 873.27 86.72 886.65 94.2 894.14C99.07 899.02 105.44 901.4 113.69 901.4C115.82 901.4 118.09 901.23 120.44 900.9C146.29 897.26 159.44 877.51 159.5 842.19C159.54 824.54 155.56 811.21 148.01 803.65C143.04 798.67 136.42 796.14 128.32 796.14C126.33 796.14 124.21 796.29 122.04 796.6ZM119.14 886.4C115.43 886.4 112.32 885.16 109.9 882.73C105.09 877.91 103.05 868.3 103.09 850.59C103.12 832.38 105.23 813.46 120.6 811.3C125.22 810.65 129.27 811.93 132.27 814.93C137.3 819.97 139.42 829.53 139.39 846.91C139.35 869.65 136.41 884.15 121.88 886.2C120.91 886.33 120.01 886.4 119.14 886.4C119.14 886.4 119.14 886.4 119.14 886.4Z" id="b4924GSkO"></path><linearGradient id="gradienta1bjSaFOq7" gradientUnits="userSpaceOnUse" x1="85.19" y1="885.14" x2="157.35" y2="812.98"><stop style="stop-color: #ffffff;stop-opacity: 0" offset="0%"></stop><stop style="stop-color: #ffffff;stop-opacity: 0.0896" offset="4.4799999999999995%"></stop><stop style="stop-color: #ffffff;stop-opacity: 1" offset="50%"></stop><stop style="stop-color: #ffffff;stop-opacity: 0.0896" offset="95.52000000000001%"></stop><stop style="stop-color: #ffffff;stop-opacity: 0" offset="100%"></stop></linearGradient><path d="M108.4 840.79C105.85 845.27 85.47 881.13 82.93 885.61C88.28 898.72 97.65 905.01 109.46 906.18C110.91 903.62 122.56 883.13 124.01 880.57C123.12 880.88 122.18 881.1 121.18 881.24C112.71 882.44 108.04 877.1 108.09 850.6C108.09 847.04 108.2 843.77 108.4 840.79ZM136.17 791.92C134.79 794.34 123.78 813.73 122.4 816.15C131.08 815.72 134.43 825.54 134.39 846.9C134.38 853.94 134.04 859.57 133.39 864.07C135.21 860.86 144.35 844.78 160.8 815.85C152.35 801.54 144.14 793.57 136.17 791.92Z" id="gAmMZCUmb"></path><linearGradient id="gradientf4OwjaUtIy" gradientUnits="userSpaceOnUse" x1="82.43" y1="889.44" x2="161.64" y2="810.22"><stop style="stop-color: #ffffff;stop-opacity: 1" offset="0%"></stop><stop style="stop-color: #ffffff;stop-opacity: 0" offset="50%"></stop><stop style="stop-color: #ffffff;stop-opacity: 1" offset="100%"></stop></linearGradient></defs><g><g><use xlink:href="#enz53Urdv" opacity="1" fill="#998400" fill-opacity="1"></use><g><use xlink:href="#enz53Urdv" opacity="1" fill-opacity="0" stroke="#000000" stroke-width="1" stroke-opacity="0"></use></g></g><g><use xlink:href="#f1JJr2pr5l" opacity="1" fill="#b69d00" fill-opacity="1"></use><g><use xlink:href="#f1JJr2pr5l" opacity="1" fill-opacity="0" stroke="#000000" stroke-width="1" stroke-opacity="0"></use></g></g><g><use xlink:href="#gYyssUE1" opacity="1" fill="#e5c400" fill-opacity="1"></use><g><use xlink:href="#gYyssUE1" opacity="1" fill-opacity="0" stroke="#000000" stroke-width="1" stroke-opacity="0"></use></g></g><g><use xlink:href="#b4924GSkO" opacity="1" fill="url(#gradienta1bjSaFOq7)"></use><g><use xlink:href="#b4924GSkO" opacity="1" fill-opacity="0" stroke="#000000" stroke-width="1" stroke-opacity="0"></use></g></g><g><use xlink:href="#gAmMZCUmb" opacity="1" fill="url(#gradientf4OwjaUtIy)"></use><g><use xlink:href="#gAmMZCUmb" opacity="1" fill-opacity="0" stroke="#000000" stroke-width="1" stroke-opacity="0"></use></g></g></g></svg>