<?xml version="1.0" encoding="UTF-8" standalone="no"?>
<!DOCTYPE svg PUBLIC "-//W3C//DTD SVG 1.1//EN" "http://www.w3.org/Graphics/SVG/1.1/DTD/svg11.dtd">
<svg version="1.1" xmlns="http://www.w3.org/2000/svg" xmlns:xlink="http://www.w3.org/1999/xlink" preserveAspectRatio="xMidYMid meet" viewBox="184.54847660077695 775.6850656156105 83.5685568973463 131.50563752641426" width="79.57" height="127.51"><defs><path d="M234.95 838.11L212.16 825.71C212.1 856.85 212.07 874.15 212.06 877.61C212.06 880.48 212.45 883.46 213.79 886.04C215.06 888.48 217.01 889.83 219.37 891.12C226.5 895 233.63 898.88 240.76 902.76C236.18 900.26 234.84 894.86 234.85 890.01C234.85 890.01 234.84 896.61 234.85 890.01C234.86 883.09 234.9 865.79 234.95 838.11Z" id="bLW6OXcST"></path><path d="M249.25 790.66C252.56 788.82 257.72 788.36 261.13 790.22C255.29 787.04 249.45 783.86 243.6 780.68C241.26 779.41 238.86 777.68 236.25 777.04C233.6 776.41 230.5 776.63 227.95 777.57C223.65 779.16 220.94 783.37 218.59 787.07C215.58 791.82 212.62 796.46 207.93 799.76C203.42 802.93 198.1 804.11 193.13 806.31C191.06 807.22 189.04 808.45 187.62 810.23C186.2 812.01 185.82 814.27 185.63 816.47C185.43 818.85 185.55 821.46 186.5 823.68C187.46 825.95 189.2 826.94 191.27 828.07C197.11 831.25 202.96 834.43 208.8 837.61C209.97 838.25 211.14 838.88 212.31 839.52C208.29 837.33 208.11 831.99 208.5 827.99C208.71 825.8 209.41 823.65 210.94 822.02C212.66 820.18 215.05 819.02 217.35 818.09C222.25 816.11 227.24 814.83 231.52 811.58C235.89 808.26 238.63 803.75 241.55 799.21C241.65 799.06 241.34 799.55 241.55 799.21C243.6 796.02 245.85 792.54 249.25 790.66Z" id="g1Y6kVKYfd"></path><path d="M265.12 798.7C265.1 807.41 264.97 877.07 264.96 885.78C264.93 896.82 258.65 902.75 249.87 903.98C241.1 905.21 234.83 901.05 234.85 890.01C234.86 886.55 234.89 869.25 234.95 838.11C225.47 839.45 220.21 840.19 219.16 840.33C211.85 841.36 208.35 837.91 208.37 830.65C208.38 822.61 210.87 820.04 222.57 816.2C231.49 813.2 236.02 808.15 239.84 801.94C244.53 794.34 247.46 790.15 253.3 789.33C260.76 788.28 265.13 791.13 265.12 798.7Z" id="b1CyKtm15K"></path><path d="M238.23 834.34C239.33 835.29 239.95 836.67 239.95 838.12C239.94 843.31 239.86 884.83 239.85 890.02C239.85 892.45 240.22 895.72 242.02 897.53C243.46 898.97 245.96 899.48 249.18 899.03C256.31 898.03 259.94 893.56 259.95 885.77C259.97 877.06 260.1 807.4 260.12 798.69C260.12 796.88 259.78 795.54 259.17 794.93C258.51 794.26 257.13 794.12 256.1 794.12C255.46 794.12 254.75 794.17 253.99 794.28C250.64 794.75 248.68 797.14 244.09 804.57C240.38 810.6 235.12 817.26 224.16 820.94C213.38 824.48 213.37 825.79 213.36 830.66C213.36 833.56 214.06 834.57 214.36 834.87C214.88 835.4 215.96 835.51 216.78 835.51C217.29 835.51 217.85 835.47 218.46 835.38C220.04 835.16 232.67 833.38 234.25 833.16C234.48 833.13 234.72 833.11 234.95 833.11C236.15 833.11 237.32 833.55 238.23 834.34Z" id="b2mD4ymQAP"></path><linearGradient id="gradientdlGxtXwcD" gradientUnits="userSpaceOnUse" x1="220.32" y1="875.82" x2="280.19" y2="815.95"><stop style="stop-color: #ffffff;stop-opacity: 0" offset="0%"></stop><stop style="stop-color: #ffffff;stop-opacity: 0.0896" offset="4.4799999999999995%"></stop><stop style="stop-color: #ffffff;stop-opacity: 1" offset="50%"></stop><stop style="stop-color: #ffffff;stop-opacity: 0.0896" offset="95.52000000000001%"></stop><stop style="stop-color: #ffffff;stop-opacity: 0" offset="100%"></stop></linearGradient><path d="M234.04 838.24L234.95 838.11C234.89 869.25 234.86 886.55 234.85 890.01C234.84 894.2 235.75 897.39 237.34 899.68C239.19 896.43 248.41 880.2 265.02 850.98C265.08 819.61 265.11 802.19 265.12 798.7C265.13 794.49 263.77 791.74 261.28 790.31C257.65 796.7 248.57 812.68 234.04 838.24Z" id="b1S1fczXmu"></path><linearGradient id="gradientg5sml4hXI" gradientUnits="userSpaceOnUse" x1="215.98" y1="878.32" x2="282.81" y2="811.5"><stop style="stop-color: #ffffff;stop-opacity: 1" offset="0%"></stop><stop style="stop-color: #ffffff;stop-opacity: 0" offset="50%"></stop><stop style="stop-color: #ffffff;stop-opacity: 1" offset="100%"></stop></linearGradient></defs><g><g><use xlink:href="#bLW6OXcST" opacity="1" fill="#6c8017" fill-opacity="1"></use><g><use xlink:href="#bLW6OXcST" opacity="1" fill-opacity="0" stroke="#000000" stroke-width="1" stroke-opacity="0"></use></g></g><g><use xlink:href="#g1Y6kVKYfd" opacity="1" fill="#859920" fill-opacity="1"></use><g><use xlink:href="#g1Y6kVKYfd" opacity="1" fill-opacity="0" stroke="#000000" stroke-width="1" stroke-opacity="0"></use></g></g><g><use xlink:href="#b1CyKtm15K" opacity="1" fill="#a8bf2a" fill-opacity="1"></use><g><use xlink:href="#b1CyKtm15K" opacity="1" fill-opacity="0" stroke="#000000" stroke-width="1" stroke-opacity="0"></use></g></g><g><use xlink:href="#b2mD4ymQAP" opacity="1" fill="url(#gradientdlGxtXwcD)"></use><g><use xlink:href="#b2mD4ymQAP" opacity="1" fill-opacity="0" stroke="#000000" stroke-width="1" stroke-opacity="0"></use></g></g><g><use xlink:href="#b1S1fczXmu" opacity="1" fill="url(#gradientg5sml4hXI)"></use><g><use xlink:href="#b1S1fczXmu" opacity="1" fill-opacity="0" stroke="#000000" stroke-width="1" stroke-opacity="0"></use></g></g></g></svg>