<?xml version="1.0" encoding="UTF-8" standalone="no"?>
<!DOCTYPE svg PUBLIC "-//W3C//DTD SVG 1.1//EN" "http://www.w3.org/Graphics/SVG/1.1/DTD/svg11.dtd">
<svg version="1.1" xmlns="http://www.w3.org/2000/svg" xmlns:xlink="http://www.w3.org/1999/xlink" preserveAspectRatio="xMidYMid meet" viewBox="296.1447162203002 777.6874868292118 111.31033622340635 133.39826857463913" width="107.31" height="129.4"><defs><path d="M399.89 873.99C394.51 871.06 389.13 868.14 383.76 865.21C381.28 863.87 378.79 862.19 376.16 861.16C373.99 860.32 371.54 860.35 369.26 860.67C366.94 860.97 355.35 862.5 334.48 865.24L357.27 877.64C378.14 874.9 389.74 873.37 392.06 873.07C392.68 872.98 393.31 872.93 393.94 872.89C394.31 872.88 393.81 872.9 393.94 872.89C395.96 872.79 398.08 873.01 399.89 873.99Z" id="a4HOIZ44GX"></path><path d="M367.89 817.6C365.61 816.36 347.38 806.44 345.1 805.2C349.8 807.75 350.59 813.65 349.79 818.46C348.78 824.36 344.56 828.9 340.24 832.73C338.85 833.97 327.73 843.86 326.34 845.09C325.39 845.94 324.48 846.75 323.59 847.55C323.59 847.55 323.59 847.55 323.59 847.55C319.48 851.25 315.41 854.99 311.48 858.88C307.65 862.69 303.77 866.65 300.83 871.22C298.05 875.54 296.72 880.57 297.26 885.72C297.51 888.08 298.37 890.4 299.91 892.22C301.72 894.35 304.47 895.44 306.87 896.75C313.06 900.12 319.26 903.49 325.45 906.86C320.94 904.41 319.8 899.36 320.02 894.62C320.28 889.14 322.64 884.6 325.97 880.35C329.18 876.28 332.89 872.58 336.62 868.99C340.7 865.06 344.9 861.26 349.13 857.49C350.52 856.26 361.64 846.37 363.03 845.13C366.37 842.18 369.67 838.82 371.46 834.66C371.54 834.45 371.39 834.82 371.46 834.66C373.77 829.24 373.77 820.79 367.89 817.6Z" id="e12Rb71eO0"></path><path d="M346.38 859.95C338.79 855.82 331.19 851.68 323.59 847.55C323.87 847.3 326.16 845 326.34 845.1C326.47 845.17 326.59 845.24 326.72 845.3C327.42 845.68 328.12 846.06 328.82 846.45C331.35 847.82 333.89 849.2 336.42 850.58C340.64 852.88 344.86 855.17 349.08 857.47C349.1 857.48 349.11 857.49 349.13 857.49C348.21 858.31 347.3 859.13 346.38 859.95" id="bqN3RxiY7"></path><path d="M339.34 799.52C348.87 793.47 360.54 790.85 371.76 791.11C377.65 791.24 383.65 792.31 388.87 795.15C383.02 791.97 377.18 788.8 371.33 785.62C368.77 784.22 366.24 782.68 363.55 781.54C361.08 780.49 358.47 779.79 355.83 779.34C350.15 778.37 344.33 778.57 338.64 779.34C333.09 780.09 327.61 781.57 322.51 783.9C313.59 787.95 305.71 794.75 301.46 803.7C299.34 808.19 298.21 813.15 298.54 818.13C298.8 822.11 300.09 826.39 303.82 828.42C306.1 829.66 324.33 839.58 326.61 840.82C321.51 838.04 320.9 831.21 321.41 826.05C321.48 825.35 321.4 826.18 321.41 826.05C322.54 814.93 330.13 805.36 339.34 799.52Z" id="cevGLCMj"></path><path d="M402.96 821.71C402.94 834.95 396.78 845.28 383.76 855.94C381.99 857.38 373.17 864.62 357.28 877.64C378.14 874.9 389.74 873.37 392.06 873.07C400.83 871.84 404.47 876.21 404.46 884.57C404.44 892.93 400.78 898.34 392.01 899.57C386.04 900.41 338.34 907.11 332.38 907.95C324.63 909.04 319.96 903.38 319.98 896.61C320 886.82 322.2 881.47 349.13 857.49C350.52 856.26 361.64 846.37 363.03 845.13C370.2 838.77 372.84 833.98 372.86 827.51C372.87 819.78 368.06 815.41 360.16 816.52C343.51 818.86 352.08 839.58 335.57 841.9C325.05 843.38 321.25 837.6 321.27 828.61C321.3 813.47 335.07 795.45 361.09 791.79C392.22 787.41 403 804.19 402.96 821.71Z" id="a20kuiTNjY"></path><path d="M373.43 815.56C376.33 818.47 377.87 822.6 377.86 827.52C377.84 835.55 374.62 841.53 366.35 848.87C364.96 850.11 353.84 859.99 352.45 861.23C326.11 884.68 324.99 889.03 324.98 896.61C324.97 898.67 325.63 900.52 326.79 901.68C327.95 902.84 329.62 903.29 331.68 903C337.64 902.16 385.35 895.46 391.31 894.62C397.16 893.8 399.44 890.98 399.46 884.56C399.46 881.75 398.96 879.7 398.05 878.79C397.19 877.93 395.32 877.66 392.75 878.02C389.27 878.48 361.41 882.14 357.93 882.59C355.71 882.89 353.58 881.67 352.69 879.62C351.8 877.57 352.38 875.19 354.11 873.77C356.76 871.6 377.94 854.24 380.59 852.07C392.75 842.12 397.94 833.04 397.96 821.7C397.97 816.28 396.82 808.67 391.28 803.11C386.62 798.45 379.66 796.09 370.57 796.09C367.83 796.09 364.87 796.31 361.78 796.74C338.75 799.98 326.3 815.58 326.27 828.61C326.27 832.07 326.92 834.56 328.16 835.8C328.49 836.13 329.48 837.13 332.47 837.13C333.21 837.13 334.01 837.06 334.87 836.94C339.88 836.24 341 833.57 343.08 827.61C345.19 821.51 348.09 813.17 359.46 811.57C360.5 811.42 361.52 811.35 362.51 811.35C366.9 811.35 370.68 812.8 373.43 815.56Z" id="b24hunE3t5"></path><linearGradient id="gradientc2v6Wtse3" gradientUnits="userSpaceOnUse" x1="320.98" y1="895.87" x2="402.51" y2="814.35"><stop style="stop-color: #ffffff;stop-opacity: 0" offset="0%"></stop><stop style="stop-color: #ffffff;stop-opacity: 0.0896" offset="4.4799999999999995%"></stop><stop style="stop-color: #ffffff;stop-opacity: 1" offset="50%"></stop><stop style="stop-color: #ffffff;stop-opacity: 0.0896" offset="95.52000000000001%"></stop><stop style="stop-color: #ffffff;stop-opacity: 0" offset="100%"></stop></linearGradient><path d="M376.31 791.41C374.89 793.9 363.54 813.87 362.12 816.37C368.84 816.2 372.87 820.45 372.86 827.51C372.84 833.98 370.2 838.77 363.03 845.13C361.64 846.37 350.52 856.26 349.13 857.49C336.4 868.83 329.2 875.99 325.14 881.44C324.74 882.13 321.59 887.69 321.2 888.38C320.19 891.14 319.98 893.67 319.98 896.61C319.96 903.38 324.63 909.04 332.38 907.95C333.53 907.79 339.3 906.98 349.68 905.52L366.19 876.47L357.27 877.64L372.71 864.99L402.08 813.32C395.32 799.9 386.73 792.6 376.31 791.41Z" id="ajTDJ8fc1"></path><linearGradient id="gradientc1NAKsjuf6" gradientUnits="userSpaceOnUse" x1="314.75" y1="896.71" x2="403.34" y2="808.11"><stop style="stop-color: #ffffff;stop-opacity: 1" offset="0%"></stop><stop style="stop-color: #ffffff;stop-opacity: 0" offset="50%"></stop><stop style="stop-color: #ffffff;stop-opacity: 1" offset="100%"></stop></linearGradient></defs><g><g><use xlink:href="#a4HOIZ44GX" opacity="1" fill="#0085b7" fill-opacity="1"></use><g><use xlink:href="#a4HOIZ44GX" opacity="1" fill-opacity="0" stroke="#000000" stroke-width="1" stroke-opacity="0"></use></g></g><g><use xlink:href="#e12Rb71eO0" opacity="1" fill="#0076a3" fill-opacity="1"></use><g><use xlink:href="#e12Rb71eO0" opacity="1" fill-opacity="0" stroke="#000000" stroke-width="1" stroke-opacity="0"></use></g></g><g><use xlink:href="#bqN3RxiY7" opacity="1" fill="#0079a7" fill-opacity="1"></use><g><use xlink:href="#bqN3RxiY7" opacity="1" fill-opacity="0" stroke="#000000" stroke-width="1" stroke-opacity="0"></use></g></g><g><use xlink:href="#cevGLCMj" opacity="1" fill="#007fae" fill-opacity="1"></use><g><use xlink:href="#cevGLCMj" opacity="1" fill-opacity="0" stroke="#000000" stroke-width="1" stroke-opacity="0"></use></g></g><g><use xlink:href="#a20kuiTNjY" opacity="1" fill="#009bd6" fill-opacity="1"></use><g><use xlink:href="#a20kuiTNjY" opacity="1" fill-opacity="0" stroke="#000000" stroke-width="1" stroke-opacity="0"></use></g></g><g><use xlink:href="#b24hunE3t5" opacity="1" fill="url(#gradientc2v6Wtse3)"></use><g><use xlink:href="#b24hunE3t5" opacity="1" fill-opacity="0" stroke="#000000" stroke-width="1" stroke-opacity="0"></use></g></g><g><use xlink:href="#ajTDJ8fc1" opacity="1" fill="url(#gradientc1NAKsjuf6)"></use><g><use xlink:href="#ajTDJ8fc1" opacity="1" fill-opacity="0" stroke="#000000" stroke-width="1" stroke-opacity="0"></use></g></g></g></svg>