<?xml version="1.0" encoding="UTF-8" standalone="no"?>
<!DOCTYPE svg PUBLIC "-//W3C//DTD SVG 1.1//EN" "http://www.w3.org/Graphics/SVG/1.1/DTD/svg11.dtd">
<svg version="1.1" xmlns="http://www.w3.org/2000/svg" xmlns:xlink="http://www.w3.org/1999/xlink" preserveAspectRatio="xMidYMid meet" viewBox="428.45130967286286 777.5654117406102 109.37675489273204 132.26686051759827" width="105.38" height="128.27"><defs><path d="M524.84 842.29C520.05 839.68 515.26 837.07 510.47 834.47C508.13 833.2 505.79 831.92 503.45 830.65C501.43 829.55 499.43 828.58 497.17 828.06C499.45 829.3 517.69 839.22 519.97 840.46C520.74 840.64 521.51 840.87 522.25 841.14C522.32 841.16 521.76 840.96 522.25 841.14C523.14 841.45 524.01 841.84 524.84 842.29Z" id="c2CMf8brkz"></path><path d="M504.61 863.84C504.36 861.58 503.55 859.24 501.44 858.09C499.16 856.85 480.93 846.93 478.65 845.69C481.16 847.06 481.8 850.05 481.91 852.69C482.07 856.42 481.58 860.51 479.54 863.71C477.47 866.96 473.97 868.77 470.32 869.66C467.01 870.47 463.08 871.19 459.92 869.48C462.2 870.72 480.44 880.64 482.71 881.87C486.32 883.81 491.08 882.76 494.76 881.58C498.79 880.29 502.12 877.62 503.59 873.57C503.63 873.48 503.56 873.67 503.59 873.57C504.7 870.56 504.97 867.01 504.61 863.84Z" id="d1bnJUwKbn"></path><path d="M500.13 816.74C497.85 815.5 479.62 805.58 477.34 804.34C481.38 806.54 481.9 811.82 480.79 815.86C480.12 818.26 478.69 820.41 476.69 821.9C474.7 823.38 472.51 823.89 470.12 824.33C466.08 825.07 462.04 826.94 460.29 830.88C458.49 834.94 458.35 841.03 462.75 843.43C465.03 844.67 483.27 854.59 485.55 855.83C482.32 854.07 481.7 850.6 482.07 847.22C482.45 843.66 484.15 840.53 487.28 838.68C488.68 837.86 490.24 837.31 491.83 836.95C493.59 836.55 495.36 836.41 497.04 835.69C499.92 834.47 502.2 832.13 503.29 829.19C503.34 829.04 503.27 829.23 503.29 829.19C504.81 825.02 504.45 819.09 500.13 816.74Z" id="e4ogJe4VF"></path><path d="M459.27 869.42C462.81 867.06 468.48 865.7 472.43 867.86C470.16 866.62 451.92 856.7 449.64 855.46C445.56 853.25 439.77 854.71 436.17 857.23C431.96 860.2 429.82 865.2 429.49 870.24C429.18 874.99 430.59 879.64 433.45 883.44C436.89 887.98 441.85 890.4 446.73 893.05C452.58 896.23 458.42 899.41 464.27 902.59C456.56 898.4 451.43 890.67 452.38 881.72C452.42 881.34 452.36 881.91 452.38 881.72C452.89 876.88 455.14 872.18 459.27 869.42Z" id="a3RwQFQrI5"></path><path d="M474.53 797.16C479.6 794.83 484.94 793.22 490.42 792.2C496.07 791.15 501.85 790.63 507.59 791.28C511.86 791.77 516.12 792.91 519.91 794.97C517.63 793.73 499.4 783.81 497.12 782.57C487.3 777.23 475.22 778.01 464.69 780.41C454.34 782.77 443.53 787.43 436.86 796.04C433.95 799.79 432.01 804.26 431.78 809.04C431.55 813.58 433.22 818.7 437.43 820.99C439.71 822.23 457.94 832.15 460.22 833.39C455.57 830.86 454.15 825.12 454.67 820.2C454.71 819.8 454.65 820.35 454.67 820.2C455.81 809.36 465.21 801.45 474.53 797.16Z" id="b5tp387r97"></path><path d="M532.43 817.27C532.41 827.84 528.01 836.34 519.96 840.46C529.75 842.72 534.85 851.15 534.83 862.19C534.8 876.55 527.89 901.01 490.48 906.27C467.09 909.56 452.21 897.93 452.24 884.05C452.25 875.22 457.23 868.21 465.71 867.02C481.5 864.8 473.57 884.99 489.64 882.73C499.88 881.29 504.71 876.67 504.73 866.11C504.74 858.22 501.08 856.84 495.09 857.21C485.3 857.8 481.95 854.48 481.96 849.12C481.97 840.76 487.1 837.52 493.97 836.55C498.94 835.85 504.05 831.98 504.07 824.56C504.08 816.52 498.09 814.68 490.5 815.75C484.94 816.53 481.87 818.86 477.62 826.55C474.54 832.02 471.91 833.82 467.38 834.46C458.46 835.71 454.54 828.84 454.55 822.22C454.57 808.66 468.76 795.15 494.2 791.57C516.7 788.41 532.47 798.18 532.43 817.27Z" id="b8Khvnnj2w"></path><path d="M466.4 871.97C459.66 872.92 457.25 878.83 457.24 884.06C457.23 887.97 458.81 891.62 461.81 894.63C466.45 899.27 473.87 901.83 482.7 901.83C484.98 901.83 487.36 901.66 489.78 901.32C525.87 896.25 529.81 872.26 529.83 862.18C529.84 856.84 528.43 847.54 518.84 845.33C516.8 844.86 515.26 843.16 515.01 841.08C514.75 838.99 515.82 836.97 517.69 836.01C523.95 832.8 527.42 826.14 527.43 817.26C527.44 811.2 525.62 806.3 522.02 802.69C517.64 798.3 510.81 795.99 502.27 795.99C499.92 795.99 497.44 796.17 494.9 796.53C470.64 799.93 459.57 812.24 459.55 822.23C459.54 824.7 460.31 826.94 461.59 828.23C462.77 829.41 464.46 829.82 466.68 829.51C469.14 829.16 470.65 828.74 473.26 824.1C478.11 815.32 482.44 811.84 489.8 810.8C496.74 809.83 501.96 811.06 505.34 814.44C507.82 816.93 509.07 820.34 509.07 824.57C509.05 834.82 501.59 840.53 494.67 841.51C488.26 842.41 486.97 845.09 486.96 849.13C486.95 850.1 487.12 850.76 487.46 851.09C487.73 851.37 488.95 852.28 492.95 852.28C493.53 852.28 494.14 852.26 494.79 852.22C495.45 852.18 496.09 852.16 496.7 852.16C498.23 852.16 502.89 852.16 506.19 855.47C508.58 857.86 509.73 861.34 509.72 866.12C509.7 878.8 503.36 885.85 490.33 887.68C489.27 887.83 488.24 887.91 487.27 887.91C477.9 887.91 474.82 881 472.97 876.87C471.01 872.46 470.41 871.85 468 871.85C467.52 871.85 466.98 871.89 466.4 871.97Z" id="c1IlaUOo"></path><linearGradient id="gradientagofkdBST" gradientUnits="userSpaceOnUse" x1="454.23" y1="887.04" x2="530.3" y2="810.97"><stop style="stop-color: #ffffff;stop-opacity: 0" offset="0%"></stop><stop style="stop-color: #ffffff;stop-opacity: 0.0896" offset="4.4799999999999995%"></stop><stop style="stop-color: #ffffff;stop-opacity: 1" offset="50%"></stop><stop style="stop-color: #ffffff;stop-opacity: 0.0896" offset="95.52000000000001%"></stop><stop style="stop-color: #ffffff;stop-opacity: 0" offset="100%"></stop></linearGradient><path d="M452.24 884.05C452.22 893.84 459.62 902.5 472.19 905.61C473.49 903.32 483.89 885 485.19 882.72C475.03 880.84 479.78 865.04 465.71 867.02C457.23 868.21 452.26 875.22 452.24 884.05ZM483.29 818.8C485.36 817 487.59 816.16 490.5 815.75C498.1 814.68 504.08 816.52 504.07 824.56C504.05 831.98 498.94 835.86 493.97 836.55C487.1 837.52 481.97 840.76 481.96 849.12C481.95 854.48 485.3 857.8 495.09 857.21C496.78 857.11 498.28 857.15 499.56 857.43C502.56 852.15 526.57 809.92 529.57 804.64C524.6 795.11 513.5 790.23 499.04 791.09C495.89 796.64 484.87 816.03 483.29 818.8Z" id="dycjYEgRf"></path><linearGradient id="gradientd6FsNavVqk" gradientUnits="userSpaceOnUse" x1="447.04" y1="886.92" x2="530.18" y2="803.79"><stop style="stop-color: #ffffff;stop-opacity: 1" offset="0%"></stop><stop style="stop-color: #ffffff;stop-opacity: 0" offset="50%"></stop><stop style="stop-color: #ffffff;stop-opacity: 1" offset="100%"></stop></linearGradient></defs><g><g><use xlink:href="#c2CMf8brkz" opacity="1" fill="#650663" fill-opacity="1"></use><g><use xlink:href="#c2CMf8brkz" opacity="1" fill-opacity="0" stroke="#000000" stroke-width="1" stroke-opacity="0"></use></g></g><g><use xlink:href="#d1bnJUwKbn" opacity="1" fill="#590057" fill-opacity="1"></use><g><use xlink:href="#d1bnJUwKbn" opacity="1" fill-opacity="0" stroke="#000000" stroke-width="1" stroke-opacity="0"></use></g></g><g><use xlink:href="#e4ogJe4VF" opacity="1" fill="#590057" fill-opacity="1"></use><g><use xlink:href="#e4ogJe4VF" opacity="1" fill-opacity="0" stroke="#000000" stroke-width="1" stroke-opacity="0"></use></g></g><g><use xlink:href="#a3RwQFQrI5" opacity="1" fill="#650663" fill-opacity="1"></use><g><use xlink:href="#a3RwQFQrI5" opacity="1" fill-opacity="0" stroke="#000000" stroke-width="1" stroke-opacity="0"></use></g></g><g><use xlink:href="#b5tp387r97" opacity="1" fill="#690b67" fill-opacity="1"></use><g><use xlink:href="#b5tp387r97" opacity="1" fill-opacity="0" stroke="#000000" stroke-width="1" stroke-opacity="0"></use></g></g><g><use xlink:href="#b8Khvnnj2w" opacity="1" fill="#821d80" fill-opacity="1"></use><g><use xlink:href="#b8Khvnnj2w" opacity="1" fill-opacity="0" stroke="#000000" stroke-width="1" stroke-opacity="0"></use></g></g><g><use xlink:href="#c1IlaUOo" opacity="1" fill="url(#gradientagofkdBST)"></use><g><use xlink:href="#c1IlaUOo" opacity="1" fill-opacity="0" stroke="#000000" stroke-width="1" stroke-opacity="0"></use></g></g><g><use xlink:href="#dycjYEgRf" opacity="1" fill="url(#gradientd6FsNavVqk)"></use><g><use xlink:href="#dycjYEgRf" opacity="1" fill-opacity="0" stroke="#000000" stroke-width="1" stroke-opacity="0"></use></g></g></g></svg>