<?xml version="1.0" encoding="UTF-8" standalone="no"?>
<!DOCTYPE svg PUBLIC "-//W3C//DTD SVG 1.1//EN" "http://www.w3.org/Graphics/SVG/1.1/DTD/svg11.dtd">
<svg version="1.1" xmlns="http://www.w3.org/2000/svg" xmlns:xlink="http://www.w3.org/1999/xlink" preserveAspectRatio="xMidYMid meet" viewBox="558.3266615807435 775.0519274106044 117.42236149782343 131.56135814758034" width="113.42" height="127.56"><defs><path d="M630.35 880.81L607.56 868.41C607.55 872.96 607.54 875.48 607.54 875.99C607.53 882.81 609.53 887.72 613.57 889.92C615.85 891.16 634.09 901.08 636.37 902.32C632.32 900.12 630.33 895.21 630.34 888.39C630.34 888.39 630.33 895.21 630.34 888.39C630.34 887.38 630.34 884.85 630.35 880.81Z" id="c1fmgwDdC8"></path><path d="M618.56 849.77C615.94 848.34 613.31 846.91 610.69 845.48C609.88 845.05 609.08 844.61 608.27 844.17C608.17 844.12 607.6 843.9 607.6 843.77C607.62 833.61 607.64 823.45 607.66 813.29C607.66 812.16 607.66 811.02 607.67 809.89C611.61 812.04 615.56 814.18 619.5 816.33C622.13 817.76 624.75 819.18 627.38 820.61C628.18 821.05 628.99 821.49 629.79 821.92C629.89 821.98 630.46 822.2 630.46 822.33C630.44 832.49 630.42 842.65 630.4 852.81C630.4 853.94 630.4 855.07 630.4 856.21C630.4 856.21 630.4 856.21 630.4 856.21C625.14 853.35 621.19 851.2 618.56 849.77Z" id="fWIz3JEhb"></path><path d="M583.34 847.22C587.91 846.58 592.48 845.93 597.05 845.29C599.84 844.9 602.63 844.51 605.43 844.11C606.3 843.99 607.25 843.61 608.04 844.04C615.49 848.1 622.95 852.15 630.4 856.21C622.31 857.34 614.22 858.48 606.13 859.62C606.13 859.62 606.13 859.62 606.13 859.62C596 854.11 588.41 849.97 583.34 847.22Z" id="abG2sDSCa"></path><path d="M636.27 790.31C638.6 789.1 641.37 788.6 643.97 788.49C646.88 788.36 649.88 788.68 652.49 790.09C646.99 787.11 641.5 784.12 636 781.13C633.41 779.72 630.82 777.98 628.04 776.96C625.66 776.09 623.1 775.93 620.59 776.12C615.96 776.47 611.99 778.21 608.59 781.36C604.78 784.89 601.75 789.25 598.79 793.48C595.72 797.88 571.23 833.11 568.17 837.52C565.24 841.72 562.35 846.15 560.66 851.02C559.01 855.76 558.83 861.26 560.46 866.05C561.1 867.95 562.13 869.77 563.67 871.1C564.57 871.88 565.63 872.4 566.67 872.97C568.07 873.73 569.47 874.49 570.87 875.26C576.6 878.37 582.33 881.49 588.06 884.6C582.76 881.72 581.78 874.42 582.23 869C582.82 861.93 587.02 855.58 590.96 849.92C594.02 845.51 618.52 810.28 621.58 805.88C622.55 804.5 623.53 803.13 624.53 801.77C624.53 801.76 624.11 802.34 624.53 801.77C627.83 797.38 631.3 792.9 636.27 790.31Z" id="h2EI4VlHhX"></path><path d="M672.75 862.55C672.73 872.18 667.32 875.62 658.7 876.83C658.7 877.59 658.69 883.65 658.69 884.4C658.67 894.81 653.98 902.09 644.48 903.43C634.98 904.76 630.32 898.8 630.34 888.39C630.34 887.88 630.34 885.36 630.35 880.81C609.66 883.72 598.16 885.34 595.86 885.66C585.92 887.06 582.13 880.17 582.15 870.71C582.16 864.88 584.51 859.18 590.96 849.92C594.02 845.51 618.52 810.28 621.58 805.88C629.93 793.98 634.17 789.76 641.77 788.69C652.73 787.15 658.86 792.76 658.84 803C658.83 806.28 658.8 822.69 658.75 852.22C668.09 852.8 672.76 856.24 672.75 862.55ZM630.4 856.21L630.46 822.29L630.16 822.33L606.13 859.62L630.4 856.21" id="cW0mIUjpJ"></path><path d="M633.64 877.04C634.73 877.99 635.36 879.37 635.35 880.82C635.35 881.58 635.34 887.64 635.34 888.4C635.33 892.49 636.18 895.61 637.75 897.17C639.01 898.44 641.03 898.86 643.78 898.48C650.34 897.56 653.67 892.82 653.69 884.39C653.69 883.64 653.7 877.58 653.7 876.82C653.71 874.33 655.54 872.22 658.01 871.88C666.23 870.72 667.74 867.83 667.75 862.55C667.76 860.25 667.36 858.59 666.63 857.87C665.84 857.08 664.1 856.91 662.78 856.91C661.81 856.91 660.69 857 659.44 857.17C658.01 857.38 656.56 856.94 655.46 855.99C654.37 855.04 653.74 853.66 653.75 852.21C653.76 847.29 653.83 807.91 653.84 802.99C653.84 800.66 653.44 797.47 651.5 795.53C649.69 793.72 646.56 793.07 642.46 793.64C637.31 794.37 634.16 796.65 625.67 808.75C622.61 813.15 598.13 848.37 595.07 852.77C588.51 862.19 587.16 866.76 587.15 870.72C587.15 874.86 587.99 877.98 589.52 879.51C590.08 880.08 591.11 880.84 593.41 880.84C593.95 880.84 594.54 880.8 595.16 880.71C598.61 880.22 626.21 876.35 629.66 875.86C629.89 875.83 630.12 875.81 630.35 875.81C631.55 875.81 632.72 876.25 633.64 877.04ZM601.92 862.31C600.87 860.66 600.87 858.55 601.93 856.91C604.34 853.18 623.56 823.35 625.96 819.62C626.75 818.4 628.03 817.58 629.47 817.38C629.5 817.38 629.74 817.34 629.77 817.34C631.21 817.14 632.65 817.57 633.75 818.52C634.84 819.47 635.46 820.85 635.46 822.3C635.45 825.69 635.4 852.83 635.4 856.22C635.39 858.71 633.56 860.81 631.09 861.16C628.67 861.5 609.26 864.23 606.83 864.57C606.6 864.6 606.36 864.62 606.13 864.62C604.44 864.62 602.85 863.76 601.92 862.31Z" id="bulev3ARY"></path><linearGradient id="gradientc1ftiXw6Mc" gradientUnits="userSpaceOnUse" x1="599.45" y1="889.46" x2="672.44" y2="816.47"><stop style="stop-color: #ffffff;stop-opacity: 0" offset="0%"></stop><stop style="stop-color: #ffffff;stop-opacity: 0.0896" offset="4.4799999999999995%"></stop><stop style="stop-color: #ffffff;stop-opacity: 1" offset="50%"></stop><stop style="stop-color: #ffffff;stop-opacity: 0.0896" offset="95.52000000000001%"></stop><stop style="stop-color: #ffffff;stop-opacity: 0" offset="100%"></stop></linearGradient><path d="M630.45 829.29L630.4 856.21L613.83 858.54L598.63 885.27L630.35 880.81C630.34 885.36 630.34 887.88 630.34 888.39C630.33 890.96 630.62 893.26 631.19 895.25C633.02 892.01 642.21 875.84 658.76 846.73C658.81 820.49 658.83 805.92 658.84 803C658.85 796.93 656.69 792.51 652.65 790.22C649.69 795.43 642.29 808.45 630.45 829.29Z" id="b5kgULRu58"></path><linearGradient id="gradientdenvoX9tr" gradientUnits="userSpaceOnUse" x1="599.01" y1="885.65" x2="673.83" y2="810.82"><stop style="stop-color: #ffffff;stop-opacity: 1" offset="0%"></stop><stop style="stop-color: #ffffff;stop-opacity: 0" offset="50%"></stop><stop style="stop-color: #ffffff;stop-opacity: 1" offset="100%"></stop></linearGradient></defs><g><g><use xlink:href="#c1fmgwDdC8" opacity="1" fill="#8e0053" fill-opacity="1"></use><g><use xlink:href="#c1fmgwDdC8" opacity="1" fill-opacity="0" stroke="#000000" stroke-width="1" stroke-opacity="0"></use></g></g><g><use xlink:href="#fWIz3JEhb" opacity="1" fill="#8e0053" fill-opacity="1"></use><g><use xlink:href="#fWIz3JEhb" opacity="1" fill-opacity="0" stroke="#000000" stroke-width="1" stroke-opacity="0"></use></g></g><g><use xlink:href="#abG2sDSCa" opacity="1" fill="#b2006a" fill-opacity="1"></use><g><use xlink:href="#abG2sDSCa" opacity="1" fill-opacity="0" stroke="#000000" stroke-width="1" stroke-opacity="0"></use></g></g><g><use xlink:href="#h2EI4VlHhX" opacity="1" fill="#970059" fill-opacity="1"></use><g><use xlink:href="#h2EI4VlHhX" opacity="1" fill-opacity="0" stroke="#000000" stroke-width="1" stroke-opacity="0"></use></g></g><g><use xlink:href="#cW0mIUjpJ" opacity="1" fill="#d1007d" fill-opacity="1"></use><g><use xlink:href="#cW0mIUjpJ" opacity="1" fill-opacity="0" stroke="#000000" stroke-width="1" stroke-opacity="0"></use></g></g><g><use xlink:href="#bulev3ARY" opacity="1" fill="url(#gradientc1ftiXw6Mc)"></use><g><use xlink:href="#bulev3ARY" opacity="1" fill-opacity="0" stroke="#000000" stroke-width="1" stroke-opacity="0"></use></g></g><g><use xlink:href="#b5kgULRu58" opacity="1" fill="url(#gradientdenvoX9tr)"></use><g><use xlink:href="#b5kgULRu58" opacity="1" fill-opacity="0" stroke="#000000" stroke-width="1" stroke-opacity="0"></use></g></g></g></svg>