<?xml version="1.0" encoding="UTF-8" standalone="no"?>
<!DOCTYPE svg PUBLIC "-//W3C//DTD SVG 1.1//EN" "http://www.w3.org/Graphics/SVG/1.1/DTD/svg11.dtd">
<svg version="1.1" xmlns="http://www.w3.org/2000/svg" xmlns:xlink="http://www.w3.org/1999/xlink" preserveAspectRatio="xMidYMid meet" viewBox="695.6655059731673 777.1376316372773 108.10158997443989 133.095173276609" width="104.1" height="129.1"><defs><path d="M763.81 852.43C761.53 851.19 743.3 841.27 741.02 840.03C748.35 844.01 749.25 853.58 745.92 860.48C742.55 867.47 732.56 872.25 725.32 868.31C727.6 869.55 745.83 879.47 748.11 880.71C751.91 882.77 756.59 882.24 760.44 880.61C764.38 878.94 767.5 875.78 769.2 871.86C769.27 871.7 769.08 872.13 769.2 871.86C772.09 865.15 770.65 856.15 763.81 852.43Z" id="ddqpQo6g5"></path><path d="M757.26 831.71C760.58 830.61 764.11 830.01 767.58 829.64C774.28 828.91 781.36 829.58 787.36 832.85C785.08 831.61 766.85 821.69 764.57 820.45C758.05 816.89 750.27 816.41 743.05 817.46C739.3 818 735.58 818.73 732.08 820.22C728.7 821.66 725.61 823.71 722.64 825.85C724.92 827.09 743.15 837.01 745.43 838.25C746.47 837.5 747.52 836.77 748.59 836.07C748.75 835.97 748.11 836.38 748.59 836.07C751.31 834.29 754.17 832.73 757.26 831.71Z" id="jFcGORvKe"></path><path d="M727.28 876.4C731.36 874.2 736.58 873.14 740.84 875.46C738.56 874.22 720.33 864.3 718.05 863.06C717.97 863.02 717.89 862.98 717.81 862.94C717.79 862.93 717.65 862.85 717.63 862.84C713.86 861 709.59 861.77 705.86 863.31C702.11 864.85 698.91 868.13 697.52 871.93C696.19 875.57 696.46 879.87 698.04 883.39C699.53 886.69 702.26 889.21 705.41 890.92C707.69 892.16 725.92 902.08 728.2 903.32C722.3 900.11 718.72 894.09 719.6 887.28C719.64 886.99 719.59 887.42 719.6 887.28C720.2 882.68 723.21 878.59 727.28 876.4Z" id="blA05y8vl"></path><path d="M740.42 875.24C732.83 871.11 725.23 866.97 717.63 862.84C721.55 864.78 725.34 867.02 729.18 869.11C733.07 871.23 736.96 873.34 740.84 875.46C740.7 875.38 740.56 875.31 740.42 875.24" id="a3Fwi6989"></path><path d="M789.85 791.77C784.48 788.85 779.1 785.92 773.72 783C771.21 781.63 768.69 779.94 766.02 778.9C763.75 778.02 761.2 778.01 758.81 778.34C754.86 778.9 723.3 783.33 719.35 783.89C714.51 784.57 709.41 785.94 706.45 790.15C703.85 793.81 703.17 798.54 702.37 802.85C700.75 811.52 699.28 820.25 698.23 829.01C697.52 835.04 696.34 843.22 702.71 846.69C704.99 847.93 723.22 857.85 725.5 859.08C718.31 855.17 720.52 845.08 721.4 838.48C722.54 829.86 723.98 821.26 725.64 812.73C726.41 808.78 727.37 804.33 730.24 801.32C733.38 798.03 737.78 796.9 742.15 796.28C746.09 795.73 777.66 791.29 781.6 790.74C782.25 790.65 782.9 790.6 783.54 790.56C783.91 790.55 783.4 790.57 783.54 790.56C785.69 790.47 787.94 790.73 789.85 791.77Z" id="aQADCAbfh"></path><path d="M794.59 801.69C794.57 809.58 790.18 815.09 781.56 816.3C779.34 816.61 768.23 818.17 748.24 820.98C746.55 831.34 745.62 837.1 745.43 838.25C753.33 832.56 757.42 831.04 766.2 829.81C783.59 827.36 800.81 834.72 800.77 860.12C800.71 888.67 779.94 903.1 754.22 906.71C741.06 908.56 719.45 906.08 719.48 889.05C719.49 881.32 725.78 875.38 733.53 874.3C744.48 872.76 744.46 883.48 755.72 881.9C766.1 880.44 770.64 871.92 770.65 864.98C770.67 856.3 764.25 849.95 756.07 851.1C747.74 852.27 744.51 858.88 734.14 860.34C729.03 861.05 720.4 859.9 720.42 848.86C720.44 842.23 723.84 821.88 725.75 812.15C727.82 801.3 731.77 797.74 742.14 796.28C744.77 795.92 757.93 794.07 781.6 790.74C790.27 792.78 794.6 796.43 794.59 801.69Z" id="a8KJymCcM"></path><path d="M734.22 879.25C729.39 879.93 724.49 883.51 724.48 889.05C724.47 892.16 725.42 894.62 727.38 896.59C730.96 900.18 737.98 902.23 746.62 902.23C748.95 902.23 751.34 902.07 753.52 901.76C769.27 899.55 795.71 891.19 795.77 860.11C795.78 851.39 793.59 844.77 789.25 840.42C784.25 835.41 777.3 834.36 772.35 834.36C770.59 834.36 768.75 834.5 766.89 834.76C759.14 835.85 755.77 836.97 748.35 842.31C746.71 843.49 744.52 843.56 742.8 842.5C741.08 841.43 740.17 839.44 740.5 837.44C740.78 835.72 743.02 821.9 743.31 820.18C743.66 818.01 745.38 816.33 747.55 816.03C750.88 815.56 777.53 811.81 780.86 811.35C786.72 810.52 789.58 807.36 789.59 801.68C789.59 800.05 789.35 797.87 788.18 796.7C787.14 795.65 785.07 795.3 782.3 795.69C778.35 796.25 746.79 800.68 742.84 801.24C734.46 802.41 732.3 804.52 730.67 813.08C728.48 824.18 725.44 843.14 725.43 848.87C725.42 851.26 725.93 852.98 726.94 853.99C728.26 855.31 730.5 855.51 731.71 855.51C732.29 855.51 732.87 855.46 733.44 855.38C737.85 854.77 740.57 853.05 743.72 851.06C746.84 849.09 750.38 846.85 755.38 846.15C760.91 845.37 766.32 847.15 770.15 850.99C773.71 854.56 775.67 859.53 775.66 864.99C775.64 874.22 769.61 885 756.42 886.85C755.43 886.99 754.47 887.06 753.55 887.06C747.49 887.06 743.9 884.09 741.27 881.92C739 880.05 737.81 879.14 735.6 879.14C735.17 879.14 734.71 879.18 734.22 879.25Z" id="b1wE897ht4"></path><linearGradient id="gradientdUnNWk3nm" gradientUnits="userSpaceOnUse" x1="718.29" y1="887.5" x2="798.64" y2="807.15"><stop style="stop-color: #ffffff;stop-opacity: 0" offset="0%"></stop><stop style="stop-color: #ffffff;stop-opacity: 0.0896" offset="4.4799999999999995%"></stop><stop style="stop-color: #ffffff;stop-opacity: 1" offset="50%"></stop><stop style="stop-color: #ffffff;stop-opacity: 0.0896" offset="95.52000000000001%"></stop><stop style="stop-color: #ffffff;stop-opacity: 0" offset="100%"></stop></linearGradient><path d="M719.48 889.05C719.46 900.59 729.38 905.45 739.87 906.8C741.28 904.33 752.53 884.53 753.94 882.05C744.44 882.32 743.87 872.84 733.53 874.3C725.78 875.38 719.49 881.32 719.48 889.05ZM745.43 838.25C745.56 837.45 746.2 833.49 747.37 826.36C735.86 846.61 729.47 857.85 728.19 860.1C730.26 860.61 732.4 860.58 734.14 860.34C744.51 858.88 747.74 852.27 756.07 851.1C761.28 850.37 765.77 852.69 768.35 856.7C769.81 854.13 781.51 833.54 782.97 830.97C777.83 829.28 772.02 828.99 766.2 829.8C757.42 831.04 753.33 832.56 745.43 838.25ZM766.4 792.88L750.61 820.65C769.18 818.04 779.49 816.59 781.56 816.3C790.18 815.09 794.58 809.58 794.59 801.69C794.6 793.81 790.23 789.53 781.6 790.74C779.58 791.03 774.51 791.74 766.4 792.88Z" id="d3QFqGujBe"></path><linearGradient id="gradiente1jIDYIDvN" gradientUnits="userSpaceOnUse" x1="713.35" y1="889.62" x2="800.77" y2="802.21"><stop style="stop-color: #ffffff;stop-opacity: 1" offset="0%"></stop><stop style="stop-color: #ffffff;stop-opacity: 0" offset="50%"></stop><stop style="stop-color: #ffffff;stop-opacity: 1" offset="100%"></stop></linearGradient></defs><g><g><use xlink:href="#ddqpQo6g5" opacity="1" fill="#8f0507" fill-opacity="1"></use><g><use xlink:href="#ddqpQo6g5" opacity="1" fill-opacity="0" stroke="#000000" stroke-width="1" stroke-opacity="0"></use></g></g><g><use xlink:href="#jFcGORvKe" opacity="1" fill="#a10c11" fill-opacity="1"></use><g><use xlink:href="#jFcGORvKe" opacity="1" fill-opacity="0" stroke="#000000" stroke-width="1" stroke-opacity="0"></use></g></g><g><use xlink:href="#blA05y8vl" opacity="1" fill="#a50d12" fill-opacity="1"></use><g><use xlink:href="#blA05y8vl" opacity="1" fill-opacity="0" stroke="#000000" stroke-width="1" stroke-opacity="0"></use></g></g><g><use xlink:href="#a3Fwi6989" opacity="1" fill="#a10c11" fill-opacity="1"></use><g><use xlink:href="#a3Fwi6989" opacity="1" fill-opacity="0" stroke="#000000" stroke-width="1" stroke-opacity="0"></use></g></g><g><use xlink:href="#aQADCAbfh" opacity="1" fill="#a90f14" fill-opacity="1"></use><g><use xlink:href="#aQADCAbfh" opacity="1" fill-opacity="0" stroke="#000000" stroke-width="1" stroke-opacity="0"></use></g></g><g><use xlink:href="#a8KJymCcM" opacity="1" fill="#d2181f" fill-opacity="1"></use><g><use xlink:href="#a8KJymCcM" opacity="1" fill-opacity="0" stroke="#000000" stroke-width="1" stroke-opacity="0"></use></g></g><g><use xlink:href="#b1wE897ht4" opacity="1" fill="url(#gradientdUnNWk3nm)"></use><g><use xlink:href="#b1wE897ht4" opacity="1" fill-opacity="0" stroke="#000000" stroke-width="1" stroke-opacity="0"></use></g></g><g><use xlink:href="#d3QFqGujBe" opacity="1" fill="url(#gradiente1jIDYIDvN)"></use><g><use xlink:href="#d3QFqGujBe" opacity="1" fill-opacity="0" stroke="#000000" stroke-width="1" stroke-opacity="0"></use></g></g></g></svg>