<?xml version="1.0" encoding="UTF-8" standalone="no"?>
<!DOCTYPE svg PUBLIC "-//W3C//DTD SVG 1.1//EN" "http://www.w3.org/Graphics/SVG/1.1/DTD/svg11.dtd">
<svg version="1.1" xmlns="http://www.w3.org/2000/svg" xmlns:xlink="http://www.w3.org/1999/xlink" preserveAspectRatio="xMidYMid meet" viewBox="825.5538974295978 777.2618004945285 113.65519303224983 131.83883919201207" width="109.66" height="127.84"><defs><path d="M901.56 854.71C899.28 853.47 881.05 843.55 878.77 842.31C884.96 845.68 885.22 854.73 882.75 860.49C881.3 863.86 878.72 866.77 875.38 868.36C871.87 870.04 867.36 870.4 863.85 868.5C868.06 870.79 872.27 873.08 876.48 875.37C878.58 876.51 880.69 877.66 882.79 878.8C884.61 879.79 886.43 881.03 888.43 881.65C895.47 883.82 902.76 879.34 905.54 872.89C905.61 872.72 905.44 873.13 905.54 872.89C908.02 867.13 907.75 858.08 901.56 854.71Z" id="aRnCE7SAO"></path><path d="M879.67 802.93C882.35 804.39 884.63 806.48 887.31 807.94C889.59 809.18 907.83 819.1 910.11 820.34C907.4 818.87 905.05 816.74 902.46 815.32C894.86 811.19 905.05 816.74 902.46 815.32C894.86 811.19 887.26 807.06 879.67 802.93Z" id="d2tfnNleF1"></path><path d="M901.26 831.8C908.45 830.85 916.12 831.35 922.6 834.87C920.32 833.63 902.08 823.71 899.8 822.47C892.73 818.63 884.07 818.28 876.3 819.75C868.7 821.18 861.98 824.95 856.76 830.65C859.04 831.89 877.27 841.81 879.55 843.05C880.37 842.16 881.22 841.31 882.11 840.5C882.24 840.39 881.81 840.77 882.11 840.5C887.47 835.65 894.11 832.74 901.26 831.8Z" id="a1x7ktc2Qq"></path><path d="M857.64 817.36C862.81 807.15 871.83 799.04 882.45 794.85C888.95 792.29 895.96 790.75 902.96 790.67C909.48 790.58 916.59 791.36 922.41 794.52C920.13 793.29 901.89 783.37 899.62 782.13C895.03 779.64 889.69 778.72 884.55 778.38C879.23 778.02 873.96 778.51 868.77 779.67C857.64 782.14 847.45 787.75 840.25 796.7C833.22 805.44 829.54 816.33 827.84 827.31C826.13 838.39 826 850.13 828.22 861.16C830.51 872.54 836.05 883.77 846.61 889.51C848.89 890.75 867.12 900.67 869.4 901.91C853.28 893.14 849.4 872.91 849.44 856.11C849.44 854.47 849.48 852.83 849.55 851.19C849.59 850.22 849.54 851.55 849.55 851.19C850.04 839.47 852.32 827.88 857.64 817.36Z" id="d1CYnQMgGv"></path><path d="M936.21 862.05C936.17 884.14 922.4 901.68 894.93 905.54C866.58 909.53 849.37 892.07 849.43 856.11C849.5 822.35 862.7 795.9 896.89 791.09C906.54 789.74 930.21 790.67 930.18 806.92C930.16 814.96 925.03 820.88 917.87 821.89C908.23 823.24 904.45 812.74 895.83 813.95C882.38 815.84 879.58 829.01 879.55 843.05C885.85 836.17 893.02 832.95 900.91 831.84C921.66 828.93 936.25 839.5 936.21 862.05ZM893.94 882.02C902.28 880.85 906.97 873.26 906.98 866C907 857.48 902.18 852.48 894 853.63C885.52 854.82 880.83 862.58 880.82 869.68C880.8 876.94 885.47 883.21 893.94 882.02" id="bUpEXHe1b"></path><path d="M897.59 796.04C862 801.04 854.48 831.47 854.44 856.12C854.4 872.79 858.33 885.55 865.77 893.01C871.13 898.38 878.37 901.1 887.27 901.1C889.49 901.1 891.83 900.93 894.23 900.59C917.69 897.29 931.17 883.24 931.21 862.04C931.23 853.63 928.94 846.88 924.59 842.53C919.52 837.45 911.37 835.42 901.6 836.79C894.13 837.84 888.3 840.9 883.24 846.42C881.85 847.95 879.66 848.46 877.74 847.71C875.81 846.96 874.55 845.1 874.55 843.04C874.57 835.33 874.61 811.88 895.13 809C895.82 808.9 896.51 808.85 897.2 808.85C902.31 808.85 906.08 811.55 909.11 813.71C912.36 816.04 914.36 817.33 917.18 816.94C922.03 816.25 925.17 812.32 925.18 806.91C925.18 804.45 924.44 802.57 922.85 800.97C919.53 797.64 912.37 795.66 903.72 795.66C901.54 795.66 899.36 795.79 897.59 796.04ZM891.92 887.17C887.57 887.17 883.73 885.63 880.82 882.71C877.58 879.47 875.81 874.84 875.82 869.67C875.83 860.68 881.97 850.27 893.3 848.68C898.89 847.89 903.79 849.33 907.19 852.74C910.33 855.89 911.99 860.48 911.98 866.01C911.96 875.22 906 885.38 894.64 886.97C893.72 887.1 892.81 887.17 891.92 887.17C891.92 887.17 891.92 887.17 891.92 887.17Z" id="a8j7l04pbv"></path><linearGradient id="gradientb2jObT6f86" gradientUnits="userSpaceOnUse" x1="858.51" y1="885.74" x2="933.06" y2="811.19"><stop style="stop-color: #ffffff;stop-opacity: 0" offset="0%"></stop><stop style="stop-color: #ffffff;stop-opacity: 0.0896" offset="4.4799999999999995%"></stop><stop style="stop-color: #ffffff;stop-opacity: 1" offset="50%"></stop><stop style="stop-color: #ffffff;stop-opacity: 0.0896" offset="95.52000000000001%"></stop><stop style="stop-color: #ffffff;stop-opacity: 0" offset="100%"></stop></linearGradient><path d="M879.55 843.05C879.56 839.72 879.73 836.44 880.15 833.35C877.44 838.12 855.74 876.29 853.03 881.07C857.49 894.13 865.95 902.25 877.64 905.02C878.94 902.73 889.36 884.39 890.67 882.09C884.28 881.45 880.81 875.94 880.82 869.67C880.83 862.58 885.52 854.82 894 853.63C898.83 852.95 902.47 854.43 904.65 857.49C906.04 855.05 917.13 835.53 918.51 833.09C913.45 831.36 907.49 830.92 900.91 831.84C893.02 832.95 885.85 836.17 879.55 843.05ZM890.2 815.66C891.83 814.84 893.69 814.25 895.83 813.95C904.45 812.74 908.23 823.24 917.87 821.89C925.03 820.88 930.16 814.96 930.18 806.92C930.2 794.05 915.37 790.79 904.41 790.66C901.57 795.66 891.62 813.16 890.2 815.66Z" id="cgcAq7d9V"></path><linearGradient id="gradientbhuRkL3NG" gradientUnits="userSpaceOnUse" x1="852.29" y1="886.58" x2="933.91" y2="804.96"><stop style="stop-color: #ffffff;stop-opacity: 1" offset="0%"></stop><stop style="stop-color: #ffffff;stop-opacity: 0" offset="50%"></stop><stop style="stop-color: #ffffff;stop-opacity: 1" offset="100%"></stop></linearGradient></defs><g><g><use xlink:href="#aRnCE7SAO" opacity="1" fill="#4492a1" fill-opacity="1"></use><g><use xlink:href="#aRnCE7SAO" opacity="1" fill-opacity="0" stroke="#000000" stroke-width="1" stroke-opacity="0"></use></g></g><g><use xlink:href="#d2tfnNleF1" opacity="1" fill="#367b89" fill-opacity="1"></use><g><use xlink:href="#d2tfnNleF1" opacity="1" fill-opacity="0" stroke="#000000" stroke-width="1" stroke-opacity="0"></use></g></g><g><use xlink:href="#a1x7ktc2Qq" opacity="1" fill="#4492a1" fill-opacity="1"></use><g><use xlink:href="#a1x7ktc2Qq" opacity="1" fill-opacity="0" stroke="#000000" stroke-width="1" stroke-opacity="0"></use></g></g><g><use xlink:href="#d1CYnQMgGv" opacity="1" fill="#408b9a" fill-opacity="1"></use><g><use xlink:href="#d1CYnQMgGv" opacity="1" fill-opacity="0" stroke="#000000" stroke-width="1" stroke-opacity="0"></use></g></g><g><use xlink:href="#bUpEXHe1b" opacity="1" fill="#56b4c6" fill-opacity="1"></use><g><use xlink:href="#bUpEXHe1b" opacity="1" fill-opacity="0" stroke="#000000" stroke-width="1" stroke-opacity="0"></use></g></g><g><use xlink:href="#a8j7l04pbv" opacity="1" fill="url(#gradientb2jObT6f86)"></use><g><use xlink:href="#a8j7l04pbv" opacity="1" fill-opacity="0" stroke="#000000" stroke-width="1" stroke-opacity="0"></use></g></g><g><use xlink:href="#cgcAq7d9V" opacity="1" fill="url(#gradientbhuRkL3NG)"></use><g><use xlink:href="#cgcAq7d9V" opacity="1" fill-opacity="0" stroke="#000000" stroke-width="1" stroke-opacity="0"></use></g></g></g></svg>