<?xml version="1.0" encoding="UTF-8" standalone="no"?>
<!DOCTYPE svg PUBLIC "-//W3C//DTD SVG 1.1//EN" "http://www.w3.org/Graphics/SVG/1.1/DTD/svg11.dtd">
<svg version="1.1" xmlns="http://www.w3.org/2000/svg" xmlns:xlink="http://www.w3.org/1999/xlink" preserveAspectRatio="xMidYMid meet" viewBox="952.1225916026453 776.1332122421132 111.3204333300157 134.11150739608286" width="107.32" height="130.11"><defs><path d="M999.02 878.2C1000.61 872.66 1002.63 867.24 1004.81 861.91C1009.33 850.88 1014.67 840.11 1020.86 829.93C1023.46 825.69 1026.18 821.35 1029.59 817.69C1027.31 816.45 1009.08 806.53 1006.8 805.29C1003.13 809.21 1000.23 813.92 997.48 818.5C994.55 823.4 991.85 828.43 989.29 833.54C984.01 844.07 979.29 855.04 976.06 866.38C973.64 874.88 969.99 888.19 979.77 893.51C982.05 894.75 1000.28 904.67 1002.56 905.91C998.87 903.9 996.12 899.77 996.13 894.47C996.13 893.9 996.12 899.77 996.13 894.47C996.14 888.96 997.51 883.47 999.02 878.2Z" id="e2PO7eirMg"></path><path d="M1055.68 790.83C1050.06 787.78 1044.46 784.73 1038.84 781.68C1036.32 780.3 1033.76 778.55 1031.01 777.68C1028.54 776.9 1025.74 777.08 1023.21 777.44C1017.51 778.24 971.91 784.64 966.21 785.45C961.91 786.05 957.65 788.02 955.31 791.83C953 795.6 952.49 800.88 953.92 805.05C954.51 806.8 955.56 808.37 957.08 809.45C959.37 811.08 962.11 812.25 964.58 813.6C969.96 816.52 975.33 819.45 980.71 822.37C975.81 819.71 975.28 812.98 976.49 808.12C978 802.12 983.09 798.67 989.01 797.84C994.71 797.04 1040.3 790.64 1046 789.83C1046.78 789.73 1047.56 789.65 1048.34 789.6C1048.85 789.57 1048.18 789.61 1048.34 789.6C1050.8 789.46 1053.46 789.63 1055.68 790.83Z" id="b18eb8rX1y"></path><path d="M1060.44 801.69C1060.43 807.68 1057.5 813.3 1047.25 826.4C1041.24 834.03 1029.22 859.69 1026.55 882.46C1024.17 902.83 1016.56 906.1 1009.12 907.15C1002.68 908.05 996.12 902.66 996.13 894.47C996.17 873.96 1018.75 829.3 1029.59 817.69C1025.53 818.26 993.02 822.83 988.96 823.4C980.34 824.62 975.96 820.34 975.98 812.45C975.99 804.57 980.38 799.06 989.01 797.85C992.81 797.31 1011.81 794.64 1046 789.84C1055.64 790.9 1060.46 794.85 1060.44 801.69Z" id="a3mEogFls3"></path><path d="M1034.03 815.39C1035 817.26 1034.69 819.56 1033.25 821.1C1023.44 831.61 1001.17 875.43 1001.13 894.47C1001.13 896.8 1001.93 898.88 1003.4 900.35C1004.79 901.74 1006.67 902.44 1008.42 902.19C1013.05 901.54 1019.39 900.65 1021.58 881.88C1024.42 857.67 1037.05 831.28 1043.32 823.31C1053.56 810.22 1055.44 805.75 1055.44 801.68C1055.45 798.76 1054.93 796.7 1053.95 795.72C1052.84 794.6 1050.31 794.28 1046.7 794.79C1041 795.59 995.4 801.99 989.71 802.8C983.84 803.62 980.99 806.78 980.98 812.46C980.97 814.09 981.21 816.28 982.38 817.44C983.42 818.49 985.49 818.84 988.27 818.45C992.33 817.88 1024.83 813.31 1028.9 812.74C1029.13 812.71 1029.36 812.69 1029.59 812.69C1031.44 812.69 1033.16 813.71 1034.03 815.39Z" id="a55Q10F9Mp"></path><linearGradient id="gradientcdkCu7Gya" gradientUnits="userSpaceOnUse" x1="977.45" y1="874.4" x2="1055.04" y2="796.81"><stop style="stop-color: #ffffff;stop-opacity: 0" offset="0%"></stop><stop style="stop-color: #ffffff;stop-opacity: 0.0896" offset="4.4799999999999995%"></stop><stop style="stop-color: #ffffff;stop-opacity: 1" offset="50%"></stop><stop style="stop-color: #ffffff;stop-opacity: 0.0896" offset="95.52000000000001%"></stop><stop style="stop-color: #ffffff;stop-opacity: 0" offset="100%"></stop></linearGradient><path d="M1017.32 793.87L1001.54 821.64C1018.37 819.27 1027.72 817.96 1029.59 817.69C1018.75 829.3 996.17 873.96 996.13 894.47C996.13 895.62 996.27 896.71 996.51 897.74C1002.54 887.13 1050.79 802.22 1056.83 791.61C1054.34 789.63 1050.66 789.18 1046 789.84C1042.18 790.37 1032.62 791.72 1017.32 793.87Z" id="b2JyQiRelg"></path><linearGradient id="gradientgj4rh53oA" gradientUnits="userSpaceOnUse" x1="975.75" y1="876.98" x2="1058.97" y2="793.75"><stop style="stop-color: #ffffff;stop-opacity: 1" offset="0%"></stop><stop style="stop-color: #ffffff;stop-opacity: 0" offset="50%"></stop><stop style="stop-color: #ffffff;stop-opacity: 1" offset="100%"></stop></linearGradient></defs><g><g><use xlink:href="#e2PO7eirMg" opacity="1" fill="#1e7f6a" fill-opacity="1"></use><g><use xlink:href="#e2PO7eirMg" opacity="1" fill-opacity="0" stroke="#000000" stroke-width="1" stroke-opacity="0"></use></g></g><g><use xlink:href="#b18eb8rX1y" opacity="1" fill="#238872" fill-opacity="1"></use><g><use xlink:href="#b18eb8rX1y" opacity="1" fill-opacity="0" stroke="#000000" stroke-width="1" stroke-opacity="0"></use></g></g><g><use xlink:href="#a3mEogFls3" opacity="1" fill="#33a78c" fill-opacity="1"></use><g><use xlink:href="#a3mEogFls3" opacity="1" fill-opacity="0" stroke="#000000" stroke-width="1" stroke-opacity="0"></use></g></g><g><use xlink:href="#a55Q10F9Mp" opacity="1" fill="url(#gradientcdkCu7Gya)"></use><g><use xlink:href="#a55Q10F9Mp" opacity="1" fill-opacity="0" stroke="#000000" stroke-width="1" stroke-opacity="0"></use></g></g><g><use xlink:href="#b2JyQiRelg" opacity="1" fill="url(#gradientgj4rh53oA)"></use><g><use xlink:href="#b2JyQiRelg" opacity="1" fill-opacity="0" stroke="#000000" stroke-width="1" stroke-opacity="0"></use></g></g></g></svg>