<?xml version="1.0" encoding="UTF-8" standalone="no"?>
<!DOCTYPE svg PUBLIC "-//W3C//DTD SVG 1.1//EN" "http://www.w3.org/Graphics/SVG/1.1/DTD/svg11.dtd">
<svg version="1.1" xmlns="http://www.w3.org/2000/svg" xmlns:xlink="http://www.w3.org/1999/xlink" preserveAspectRatio="xMidYMid meet" viewBox="1078.778230396739 777.4716412590342 113.3178493066257 132.15409753245717" width="109.32" height="128.15"><defs><path d="M1178.72 844.54C1173.81 841.87 1168.9 839.2 1163.99 836.53C1159.41 834.04 1154.92 831.3 1149.98 829.57C1152.26 830.81 1170.5 840.73 1172.77 841.97C1173.69 842.29 1174.59 842.64 1175.49 843.01C1176.18 843.3 1175.33 842.95 1175.49 843.01C1176.59 843.47 1177.67 843.97 1178.72 844.54Z" id="b2XzhdMOiR"></path><path d="M1153.28 856.58C1151 855.34 1132.77 845.42 1130.49 844.18C1137.04 847.74 1137.57 857.39 1134.36 863.38C1132.62 866.64 1129.65 868.87 1126.16 869.99C1122.64 871.13 1118.32 871.57 1114.94 869.73C1121.83 873.49 1128.73 877.24 1135.63 880.99C1137.02 881.74 1138.38 882.59 1139.92 882.98C1141.41 883.37 1142.97 883.41 1144.5 883.29C1147.49 883.05 1150.56 882.14 1153.05 880.42C1153.05 880.42 1153.05 880.42 1153.05 880.42C1155.3 878.86 1157 876.6 1157.94 874.03C1157.96 873.99 1157.81 874.38 1157.94 874.03C1160.07 868.13 1159.34 859.87 1153.28 856.58Z" id="cPD1llmif"></path><path d="M1157.68 820.54C1157.39 819.3 1156.9 818.11 1156.12 817.1C1155.18 815.89 1153.89 815.24 1152.56 814.51C1145.43 810.64 1138.3 806.76 1131.17 802.88C1136.54 805.8 1136.17 814.6 1133.31 819.12C1131.5 821.98 1128.45 823.81 1125.19 824.57C1121.99 825.32 1118.28 825.69 1115.28 824.06C1117.56 825.3 1135.79 835.22 1138.07 836.46C1141.33 838.25 1145.65 837.75 1149.05 836.67C1152.72 835.5 1155.85 833.02 1157.2 829.33C1157.2 829.32 1157.18 829.36 1157.2 829.33C1158.21 826.61 1158.33 823.35 1157.68 820.54Z" id="c2w3zkjmop"></path><path d="M1106.87 860.43C1109.92 855.85 1114.39 852.43 1118.99 849.53C1116.71 848.29 1098.48 838.37 1096.2 837.13C1091.77 839.92 1087.46 843.19 1084.42 847.51C1081.33 851.93 1080.02 857.17 1079.81 862.51C1079.46 871.62 1081.96 881.21 1089.22 887.22C1090.51 888.28 1091.9 889.21 1093.36 890.01C1095.64 891.25 1113.87 901.17 1116.15 902.41C1107.51 897.7 1102.55 889.04 1102.58 876.28C1102.58 875.35 1102.55 889.04 1102.58 876.28C1102.59 870.7 1103.75 865.12 1106.87 860.43Z" id="a5kkMpkdlm"></path><path d="M1122.6 799.53C1132.19 793.54 1144.18 790.98 1155.39 790.94C1161.7 790.93 1168.22 791.9 1173.82 794.95C1171.54 793.71 1153.31 783.79 1151.03 782.55C1141.1 777.14 1128.61 777.96 1117.89 780.17C1107.2 782.37 1096.6 787.29 1089.73 796.04C1084.63 802.54 1081.9 810.78 1082.87 819.04C1083.66 825.85 1087 832.46 1093.19 835.83C1095.47 837.07 1113.7 846.99 1115.98 848.23C1108.15 843.97 1104.98 834.67 1105.5 826.17C1105.51 825.92 1105.49 826.29 1105.5 826.17C1106.18 815.04 1113.34 805.3 1122.6 799.53Z" id="d1CFYSqaXG"></path><path d="M1189.1 864.12C1189.05 887.78 1171.94 902.17 1145.63 905.87C1119.61 909.53 1102.53 899.94 1102.57 876.28C1102.6 863.5 1108.02 856.43 1118.99 849.53C1110.67 846.76 1105.42 838.66 1105.44 827.62C1105.46 816.43 1113.69 796.19 1145.84 791.67C1178.28 787.11 1186.43 805.05 1186.41 816.24C1186.39 827.28 1181.12 836.86 1172.78 841.97C1183.72 845.79 1189.12 851.34 1189.1 864.12ZM1145.52 883.18C1153.71 882.03 1158.98 876.87 1159 867.57C1159.01 859.36 1153.47 854.31 1145.73 855.4C1138.27 856.44 1132.71 863.06 1132.69 871.26C1132.67 880.57 1137.93 884.25 1145.52 883.18M1145.8 814.38C1137.61 815.53 1133.81 820.17 1133.79 827.58C1133.78 835.15 1138.3 838.46 1145.76 837.41C1153.5 836.32 1158.04 831.74 1158.05 824.17C1158.06 816.76 1154.27 813.19 1145.8 814.38" id="b7qgNjqzMC"></path><path d="M1146.54 796.62C1111.5 801.54 1110.45 824.98 1110.44 827.63C1110.43 836.26 1114.22 842.67 1120.57 844.79C1122.41 845.4 1123.73 847.01 1123.96 848.93C1124.19 850.85 1123.29 852.73 1121.66 853.76C1111.28 860.29 1107.59 866.19 1107.58 876.29C1107.56 884.21 1109.68 890.35 1113.87 894.55C1118.55 899.24 1125.81 901.63 1135.43 901.63C1138.4 901.63 1141.6 901.39 1144.93 900.92C1159.54 898.87 1184.05 891.36 1184.1 864.11C1184.11 854.36 1180.96 850.13 1171.13 846.69C1169.31 846.06 1168.01 844.43 1167.8 842.51C1167.6 840.59 1168.52 838.72 1170.16 837.71C1177.19 833.4 1181.4 825.37 1181.41 816.23C1181.42 813.81 1180.89 807.64 1175.94 802.68C1171.48 798.21 1164.64 795.94 1155.61 795.94C1152.79 795.94 1149.74 796.17 1146.54 796.62ZM1143.08 888.36C1138.7 888.36 1134.96 886.93 1132.25 884.22C1129.21 881.17 1127.68 876.81 1127.69 871.26C1127.71 860.61 1135 851.85 1145.03 850.44C1150.48 849.68 1155.63 851.26 1159.13 854.78C1162.28 857.93 1164 862.47 1163.99 867.58C1163.97 878.89 1157.33 886.57 1146.21 888.13C1145.14 888.28 1144.09 888.36 1143.08 888.36C1143.08 888.36 1143.08 888.36 1143.08 888.36ZM1143.19 842.6C1137.83 842.6 1134.59 840.49 1132.82 838.71C1130.98 836.87 1128.78 833.43 1128.79 827.57C1128.81 817.49 1134.76 810.88 1145.1 809.43C1151.25 808.56 1155.93 809.76 1159.1 812.94C1161.73 815.57 1163.06 819.35 1163.05 824.18C1163.03 834.11 1156.83 840.91 1146.45 842.36C1145.33 842.52 1144.23 842.6 1143.19 842.6C1143.19 842.6 1143.19 842.6 1143.19 842.6Z" id="a1DQa9Naqy"></path><linearGradient id="gradientbnmUElhk0" gradientUnits="userSpaceOnUse" x1="1107.24" y1="887.93" x2="1184.22" y2="810.95"><stop style="stop-color: #ffffff;stop-opacity: 0" offset="0%"></stop><stop style="stop-color: #ffffff;stop-opacity: 0.0896" offset="4.4799999999999995%"></stop><stop style="stop-color: #ffffff;stop-opacity: 1" offset="50%"></stop><stop style="stop-color: #ffffff;stop-opacity: 0.0896" offset="95.52000000000001%"></stop><stop style="stop-color: #ffffff;stop-opacity: 0" offset="100%"></stop></linearGradient><path d="M1144.82 814.55C1145.14 814.49 1145.46 814.43 1145.8 814.38C1154.27 813.19 1158.06 816.76 1158.05 824.17C1158.04 831.74 1153.5 836.32 1145.76 837.41C1140.18 838.2 1136.25 836.54 1134.62 832.49C1131.55 837.9 1106.94 881.21 1103.86 886.62C1107.19 898.75 1116.88 905.28 1130.82 906.43C1132.14 904.12 1142.64 885.64 1143.95 883.33C1137.22 883.69 1132.67 879.91 1132.69 871.26C1132.7 863.06 1138.27 856.44 1145.72 855.4C1150.75 854.69 1154.83 856.58 1157.08 860.22C1159.94 855.2 1182.76 815.05 1185.61 810.03C1183.37 801.34 1175.97 791.86 1158.2 791.01C1155.52 795.72 1146.16 812.2 1144.82 814.55Z" id="b7ZRwktyeg"></path><linearGradient id="gradienteUYoDX8Ks" gradientUnits="userSpaceOnUse" x1="1102.75" y1="890.49" x2="1186.78" y2="806.46"><stop style="stop-color: #ffffff;stop-opacity: 1" offset="0%"></stop><stop style="stop-color: #ffffff;stop-opacity: 0" offset="50%"></stop><stop style="stop-color: #ffffff;stop-opacity: 1" offset="100%"></stop></linearGradient></defs><g><g><use xlink:href="#b2XzhdMOiR" opacity="1" fill="#a08f5d" fill-opacity="1"></use><g><use xlink:href="#b2XzhdMOiR" opacity="1" fill-opacity="0" stroke="#000000" stroke-width="1" stroke-opacity="0"></use></g></g><g><use xlink:href="#cPD1llmif" opacity="1" fill="#a89662" fill-opacity="1"></use><g><use xlink:href="#cPD1llmif" opacity="1" fill-opacity="0" stroke="#000000" stroke-width="1" stroke-opacity="0"></use></g></g><g><use xlink:href="#c2w3zkjmop" opacity="1" fill="#8d7e52" fill-opacity="1"></use><g><use xlink:href="#c2w3zkjmop" opacity="1" fill-opacity="0" stroke="#000000" stroke-width="1" stroke-opacity="0"></use></g></g><g><use xlink:href="#a5kkMpkdlm" opacity="1" fill="#a49260" fill-opacity="1"></use><g><use xlink:href="#a5kkMpkdlm" opacity="1" fill-opacity="0" stroke="#000000" stroke-width="1" stroke-opacity="0"></use></g></g><g><use xlink:href="#d1CFYSqaXG" opacity="1" fill="#a08f5d" fill-opacity="1"></use><g><use xlink:href="#d1CFYSqaXG" opacity="1" fill-opacity="0" stroke="#000000" stroke-width="1" stroke-opacity="0"></use></g></g><g><use xlink:href="#b7qgNjqzMC" opacity="1" fill="#d2ba7a" fill-opacity="1"></use><g><use xlink:href="#b7qgNjqzMC" opacity="1" fill-opacity="0" stroke="#000000" stroke-width="1" stroke-opacity="0"></use></g></g><g><use xlink:href="#a1DQa9Naqy" opacity="1" fill="url(#gradientbnmUElhk0)"></use><g><use xlink:href="#a1DQa9Naqy" opacity="1" fill-opacity="0" stroke="#000000" stroke-width="1" stroke-opacity="0"></use></g></g><g><use xlink:href="#b7ZRwktyeg" opacity="1" fill="url(#gradienteUYoDX8Ks)"></use><g><use xlink:href="#b7ZRwktyeg" opacity="1" fill-opacity="0" stroke="#000000" stroke-width="1" stroke-opacity="0"></use></g></g></g></svg>