<?xml version="1.0" encoding="UTF-8" standalone="no"?>
<!DOCTYPE svg PUBLIC "-//W3C//DTD SVG 1.1//EN" "http://www.w3.org/Graphics/SVG/1.1/DTD/svg11.dtd">
<svg version="1.1" xmlns="http://www.w3.org/2000/svg" xmlns:xlink="http://www.w3.org/1999/xlink" preserveAspectRatio="xMidYMid meet" viewBox="1211.3007582333205 777.9558729540001 113.66044657495036 131.88525043988318" width="109.66" height="127.89"><defs><path d="M1291.84 854.45C1289.56 853.21 1271.33 843.29 1269.05 842.05C1269.03 849.41 1268.53 857.74 1264.34 864.06C1260.55 869.79 1252.54 873.26 1246.14 869.77C1250.59 872.19 1255.03 874.61 1259.47 877.02C1261.69 878.23 1263.91 879.44 1266.13 880.65C1267.96 881.64 1269.77 882.81 1271.8 883.34C1275.25 884.23 1279.31 883.05 1282.28 881.23C1285.29 879.39 1287.44 876.5 1288.84 873.3C1289.02 872.9 1288.82 873.36 1288.84 873.3C1291.41 867.44 1291.83 860.76 1291.84 854.45Z" id="f6f68nIP95"></path><path d="M1285.47 817.03C1283.7 815.86 1281.71 814.95 1279.84 813.93C1277.85 812.85 1275.87 811.77 1273.88 810.69C1269.91 808.53 1265.93 806.36 1261.96 804.2C1268.39 807.7 1268.99 816.71 1266.12 822.72C1264.5 826.11 1261.8 828.98 1258.3 830.45C1254.84 831.91 1250.42 832.23 1247.04 830.39C1249.32 831.63 1267.55 841.55 1269.83 842.79C1273.37 844.71 1278.05 844.29 1281.6 842.63C1285.02 841.03 1287.65 838.06 1289.14 834.63C1289.21 834.46 1289.03 834.87 1289.14 834.63C1291.61 828.89 1291.13 820.77 1285.47 817.03Z" id="a4rEIeiMFb"></path><path d="M1248.49 877.3C1252.51 875.02 1257.24 874.95 1261.29 877.16C1253.55 872.95 1245.9 868.52 1238.05 864.53C1238.03 864.52 1237.89 864.44 1237.87 864.43C1233.62 862.31 1228.51 862.87 1224.63 865.56C1220.52 868.41 1218.43 873.27 1218.42 878.18C1218.42 882.9 1220.69 886.97 1224.58 889.59C1227.07 891.28 1229.87 892.57 1232.51 894.01C1235.43 895.6 1238.35 897.19 1241.27 898.78C1243.84 900.18 1246.42 901.57 1248.99 902.97C1246.61 901.68 1244.45 899.89 1243.04 897.55C1241.41 894.84 1240.99 891.67 1241.35 888.57C1241.38 888.25 1241.33 888.74 1241.35 888.57C1241.87 883.93 1244.37 879.62 1248.49 877.3Z" id="d9URyKG0i"></path><path d="M1260.66 876.83C1253.06 872.7 1245.47 868.57 1237.87 864.43C1241.86 866.41 1245.72 868.69 1249.63 870.82C1253.52 872.93 1257.4 875.04 1261.29 877.16C1261.08 877.04 1260.87 876.94 1260.66 876.83" id="aF0D44NmQ"></path><path d="M1249.87 803.25C1258.21 796.17 1268.99 792.52 1279.78 791.58C1287.5 790.91 1295.54 791.75 1302.44 795.5C1296.59 792.32 1290.75 789.14 1284.91 785.96C1282.29 784.54 1279.71 783.02 1276.98 781.82C1274.48 780.75 1271.84 780.03 1269.17 779.56C1263.62 778.61 1257.86 778.86 1252.32 779.76C1247.02 780.63 1241.65 782.11 1236.83 784.54C1227.14 789.42 1219.32 797.08 1215.32 807.29C1211.63 816.69 1211.11 828.21 1214.96 837.66C1217.13 842.98 1220.94 847.47 1226.01 850.22C1228.29 851.46 1246.52 861.38 1248.8 862.62C1238.06 856.78 1234.61 844.32 1235.27 832.82C1235.3 832.39 1235.26 833.04 1235.27 832.82C1235.94 821.41 1241.14 810.67 1249.87 803.25Z" id="apNO89kK5"></path><path d="M1321.96 841.39C1321.9 875.14 1308.7 901.6 1274.5 906.41C1264.86 907.76 1241.19 906.83 1241.22 890.58C1241.23 882.54 1246.36 876.62 1253.52 875.61C1263.17 874.25 1266.94 884.76 1275.57 883.55C1289.01 881.66 1291.82 868.49 1291.84 854.45C1285.55 861.33 1278.38 864.54 1270.49 865.65C1249.74 868.57 1235.14 858 1235.19 835.44C1235.23 814.15 1249.88 795.69 1276.47 791.95C1306.14 787.78 1322.03 805.73 1321.96 841.39ZM1277.4 843.87C1285.87 842.68 1290.56 834.92 1290.58 827.82C1290.59 820.56 1285.93 814.28 1277.45 815.47C1269.12 816.64 1264.43 824.24 1264.42 831.5C1264.4 840.02 1269.21 845.02 1277.4 843.87" id="a2To3CY1QO"></path><path d="M1254.22 880.56C1249.37 881.24 1246.23 885.18 1246.22 890.59C1246.21 893.04 1246.95 894.93 1248.55 896.52C1251.87 899.85 1259.02 901.84 1267.68 901.84C1269.86 901.84 1272.03 901.7 1273.81 901.45C1309.39 896.45 1316.92 866.02 1316.96 841.38C1316.99 824.4 1313.15 811.55 1305.84 804.23C1299.26 797.64 1289.54 795.17 1277.17 796.9C1254.74 800.06 1240.22 815.19 1240.19 835.45C1240.17 843.86 1242.46 850.61 1246.81 854.96C1251.88 860.04 1260.03 862.07 1269.79 860.7C1277.28 859.65 1283.11 856.59 1288.15 851.07C1289.54 849.55 1291.73 849.04 1293.66 849.79C1295.58 850.54 1296.85 852.39 1296.84 854.46C1296.83 862.16 1296.78 885.61 1276.27 888.5C1275.58 888.6 1274.88 888.64 1274.2 888.64C1269.09 888.64 1265.32 885.95 1262.29 883.78C1259.43 881.74 1257.56 880.49 1255.22 880.49C1254.9 880.49 1254.56 880.51 1254.22 880.56ZM1275.15 849.03C1270.78 849.03 1267 847.55 1264.21 844.76C1261.06 841.61 1259.41 837.02 1259.42 831.49C1259.43 822.28 1265.39 812.12 1276.75 810.52C1282.19 809.76 1287.07 811.27 1290.58 814.78C1293.81 818.02 1295.59 822.66 1295.58 827.83C1295.56 836.82 1289.43 847.23 1278.09 848.82C1277.09 848.96 1276.1 849.03 1275.15 849.03C1275.15 849.03 1275.15 849.03 1275.15 849.03Z" id="cjLOHrvdW"></path><linearGradient id="gradienta3D9RILikd" gradientUnits="userSpaceOnUse" x1="1238.51" y1="886.48" x2="1313.3" y2="811.69"><stop style="stop-color: #ffffff;stop-opacity: 0" offset="0%"></stop><stop style="stop-color: #ffffff;stop-opacity: 0.0896" offset="4.4799999999999995%"></stop><stop style="stop-color: #ffffff;stop-opacity: 1" offset="50%"></stop><stop style="stop-color: #ffffff;stop-opacity: 0.0896" offset="95.52000000000001%"></stop><stop style="stop-color: #ffffff;stop-opacity: 0" offset="100%"></stop></linearGradient><path d="M1241.22 890.58C1241.2 901.08 1251.07 905.18 1260.67 906.4C1261.96 904.12 1272.32 885.9 1273.62 883.62C1266.31 883.17 1262.41 874.36 1253.52 875.61C1246.36 876.61 1241.23 882.54 1241.22 890.58ZM1273.46 816.64C1274.68 816.08 1276.01 815.68 1277.45 815.47C1285.93 814.28 1290.59 820.56 1290.58 827.82C1290.57 834.92 1285.87 842.68 1277.4 843.87C1269.54 844.97 1264.8 840.4 1264.45 832.49C1262.77 835.44 1249.37 859.03 1247.69 861.98C1253.68 865.65 1261.51 866.92 1270.49 865.65C1276.9 864.75 1282.83 862.46 1288.21 857.95C1290.96 853.11 1312.96 814.4 1315.71 809.56C1310.06 798.56 1300.66 792.35 1287.76 791.48C1284.9 796.51 1274.89 814.12 1273.46 816.64Z" id="bZfXCbNQU"></path><linearGradient id="gradientc42mJMyy7" gradientUnits="userSpaceOnUse" x1="1234.06" y1="889.1" x2="1315.91" y2="807.25"><stop style="stop-color: #ffffff;stop-opacity: 1" offset="0%"></stop><stop style="stop-color: #ffffff;stop-opacity: 0" offset="50%"></stop><stop style="stop-color: #ffffff;stop-opacity: 1" offset="100%"></stop></linearGradient></defs><g><g><use xlink:href="#f6f68nIP95" opacity="1" fill="#116f2a" fill-opacity="1"></use><g><use xlink:href="#f6f68nIP95" opacity="1" fill-opacity="0" stroke="#000000" stroke-width="1" stroke-opacity="0"></use></g></g><g><use xlink:href="#a4rEIeiMFb" opacity="1" fill="#208334" fill-opacity="1"></use><g><use xlink:href="#a4rEIeiMFb" opacity="1" fill-opacity="0" stroke="#000000" stroke-width="1" stroke-opacity="0"></use></g></g><g><use xlink:href="#d9URyKG0i" opacity="1" fill="#1e8033" fill-opacity="1"></use><g><use xlink:href="#d9URyKG0i" opacity="1" fill-opacity="0" stroke="#000000" stroke-width="1" stroke-opacity="0"></use></g></g><g><use xlink:href="#aF0D44NmQ" opacity="1" fill="#1c7e32" fill-opacity="1"></use><g><use xlink:href="#aF0D44NmQ" opacity="1" fill-opacity="0" stroke="#000000" stroke-width="1" stroke-opacity="0"></use></g></g><g><use xlink:href="#apNO89kK5" opacity="1" fill="#208334" fill-opacity="1"></use><g><use xlink:href="#apNO89kK5" opacity="1" fill-opacity="0" stroke="#000000" stroke-width="1" stroke-opacity="0"></use></g></g><g><use xlink:href="#a2To3CY1QO" opacity="1" fill="#32a242" fill-opacity="1"></use><g><use xlink:href="#a2To3CY1QO" opacity="1" fill-opacity="0" stroke="#000000" stroke-width="1" stroke-opacity="0"></use></g></g><g><use xlink:href="#cjLOHrvdW" opacity="1" fill="url(#gradienta3D9RILikd)"></use><g><use xlink:href="#cjLOHrvdW" opacity="1" fill-opacity="0" stroke="#000000" stroke-width="1" stroke-opacity="0"></use></g></g><g><use xlink:href="#bZfXCbNQU" opacity="1" fill="url(#gradientc42mJMyy7)"></use><g><use xlink:href="#bZfXCbNQU" opacity="1" fill-opacity="0" stroke="#000000" stroke-width="1" stroke-opacity="0"></use></g></g></g></svg>