<?xml version="1.0" encoding="UTF-8" standalone="no"?>
<!DOCTYPE svg PUBLIC "-//W3C//DTD SVG 1.1//EN" "http://www.w3.org/Graphics/SVG/1.1/DTD/svg11.dtd">
<svg version="1.1" xmlns="http://www.w3.org/2000/svg" xmlns:xlink="http://www.w3.org/1999/xlink" preserveAspectRatio="xMidYMid meet" viewBox="63.86873519683965 33.604538992750726 124.69228025527784 139.85315468230056" width="120.69" height="135.85"><defs><path d="M154.29 145.76L131.49 133.36C132.89 138.18 133.66 140.85 133.82 141.39C134.58 144.11 136.27 145.95 138.37 147.1C140.65 148.34 158.89 158.26 161.17 159.5C159.06 158.35 157.37 156.51 156.61 153.79C156.3 152.72 155.52 150.04 154.29 145.76Z" id="a10SP2BQNs"></path><path d="M102.31 114.75L125.4 111.51L148.19 123.91L125.11 127.15L102.31 114.75Z" id="c5Ztmrk5E"></path><path d="M125.4 111.51L114.08 71.62L136.87 84.02L148.19 123.91L125.4 111.51Z" id="a2GrhGw8HZ"></path><path d="M127.47 35.94C124.97 34.58 122.03 34.39 119.26 34.78C118.21 34.93 109.79 36.12 108.74 36.26C104.71 36.83 101.05 38.71 98.4 41.82C95.63 45.08 93.95 49.17 92.63 53.19C90.38 60.23 72.4 116.5 70.15 123.53C68.18 129.78 65.91 136.14 65.05 142.67C64.7 145.34 64.79 148.04 65.9 150.55C67 153.03 68.96 155.06 71.34 156.35C73.62 157.59 91.86 167.51 94.14 168.75C89.13 166.03 87.14 160.81 87.81 155.34C88.62 148.72 90.95 142.26 92.94 135.93C95.19 128.9 113.18 72.63 115.43 65.59C116.74 61.56 118.43 57.43 121.24 54.18C123.89 51.09 127.51 49.23 131.53 48.66C132.58 48.51 141 47.33 142.06 47.18C144.83 46.79 147.77 46.99 150.27 48.35C142.68 44.21 135.08 40.08 127.48 35.95C127.48 35.94 135.08 40.08 127.48 35.95C127.48 35.94 127.47 35.94 127.47 35.94Z" id="e4b81aqXxz"></path><path d="M185.56 144.05C185.55 152.56 177.79 159.8 170.19 160.87C164.92 161.61 158.35 160.01 156.61 153.79C156.45 153.25 155.68 150.57 154.29 145.75L118.92 150.72C117.51 155.94 116.72 158.83 116.56 159.41C114.8 166.13 108.23 169.58 102.96 170.31C95.36 171.38 87.63 166.32 87.64 157.81C87.65 152.6 90.45 143.85 92.94 135.93C95.19 128.9 113.18 72.63 115.42 65.59C118.66 55.67 123.05 49.85 131.53 48.66C132.58 48.51 141 47.33 142.05 47.18C150.53 45.99 154.9 50.58 158.1 59.59C159.59 63.87 167 85.22 180.34 123.65C183.83 133.78 185.57 140.58 185.56 144.05ZM125.11 127.15L148.19 123.9L136.87 84.02L136.58 84.07L125.11 127.15" id="d8kG6iJxYd"></path><path d="M142.75 52.13C141.7 52.28 133.28 53.47 132.23 53.61C127.29 54.31 123.55 56.81 120.18 67.15C117.92 74.23 99.81 130.88 97.55 137.96C95.37 144.88 92.65 153.49 92.64 157.82C92.64 159.89 93.33 161.63 94.7 163C96.55 164.85 99.45 165.76 102.27 165.37C105.19 164.96 110.46 162.97 111.73 158.14C111.97 157.27 113.86 150.29 114.1 149.42C114.62 147.49 116.24 146.05 118.23 145.77C121.76 145.28 150.05 141.3 153.59 140.8C156.05 140.46 158.4 141.98 159.09 144.37C159.32 145.17 161.18 151.6 161.41 152.4C162.3 155.57 165.79 156.04 167.79 156.04C168.36 156.04 168.93 156 169.49 155.92C174.71 155.19 180.55 149.95 180.56 144.04C180.57 139.78 178.02 132.32 175.77 125.74C175.76 125.71 175.7 125.55 175.61 125.27C162.27 86.85 154.86 65.5 153.38 61.23C150.35 52.71 147.37 52 144.58 52C144.01 52 143.4 52.04 142.75 52.13ZM121.36 130.47C120.25 129.21 119.84 127.48 120.27 125.86C121.42 121.55 130.6 87.09 131.75 82.78C132.27 80.84 133.9 79.39 135.89 79.11C135.91 79.11 136.15 79.08 136.17 79.07C138.64 78.72 141 80.26 141.68 82.66C142.81 86.65 151.87 118.55 153 122.54C153.4 123.93 153.17 125.42 152.38 126.63C151.59 127.84 150.32 128.65 148.89 128.86C146.58 129.18 128.11 131.78 125.8 132.1C125.57 132.13 125.34 132.15 125.11 132.15C123.69 132.15 122.32 131.54 121.36 130.47Z" id="b3j2qrMcCE"></path><linearGradient id="gradientabTV3HIts" gradientUnits="userSpaceOnUse" x1="93.67" y1="161.97" x2="175.58" y2="80.07"><stop style="stop-color: #ffffff;stop-opacity: 0" offset="0%"></stop><stop style="stop-color: #ffffff;stop-opacity: 0.0896" offset="4.4799999999999995%"></stop><stop style="stop-color: #ffffff;stop-opacity: 1" offset="50%"></stop><stop style="stop-color: #ffffff;stop-opacity: 0.0896" offset="95.52000000000001%"></stop><stop style="stop-color: #ffffff;stop-opacity: 0" offset="100%"></stop></linearGradient><path d="M147.17 120.32L167.05 85.35C161.68 69.9 158.7 61.31 158.11 59.6C156.09 53.93 153.62 50.01 149.95 48.18C143.72 59.15 93.87 146.85 87.64 157.81C87.63 166.33 95.36 171.38 102.96 170.32C108.23 169.58 114.8 166.13 116.57 159.41C116.72 158.84 117.51 155.94 118.92 150.73L130.85 149.05L144.87 124.37L125.11 127.15L136.58 84.06L136.87 84.02L147.17 120.32Z" id="dj4QHx1N2"></path><linearGradient id="gradientbtuhpoXH3" gradientUnits="userSpaceOnUse" x1="81.82" y1="157.19" x2="170.79" y2="68.23"><stop style="stop-color: #ffffff;stop-opacity: 1" offset="0%"></stop><stop style="stop-color: #ffffff;stop-opacity: 0" offset="50%"></stop><stop style="stop-color: #ffffff;stop-opacity: 1" offset="100%"></stop></linearGradient></defs><g><g><use xlink:href="#a10SP2BQNs" opacity="1" fill="#958100" fill-opacity="1"></use><g><use xlink:href="#a10SP2BQNs" opacity="1" fill-opacity="0" stroke="#000000" stroke-width="1" stroke-opacity="0"></use></g></g><g><use xlink:href="#c5Ztmrk5E" opacity="1" fill="#c0a600" fill-opacity="1"></use><g><use xlink:href="#c5Ztmrk5E" opacity="1" fill-opacity="0" stroke="#000000" stroke-width="1" stroke-opacity="0"></use></g></g><g><use xlink:href="#a2GrhGw8HZ" opacity="1" fill="#958100" fill-opacity="1"></use><g><use xlink:href="#a2GrhGw8HZ" opacity="1" fill-opacity="0" stroke="#000000" stroke-width="1" stroke-opacity="0"></use></g></g><g><use xlink:href="#e4b81aqXxz" opacity="1" fill="#b69d00" fill-opacity="1"></use><g><use xlink:href="#e4b81aqXxz" opacity="1" fill-opacity="0" stroke="#000000" stroke-width="1" stroke-opacity="0"></use></g></g><g><use xlink:href="#d8kG6iJxYd" opacity="1" fill="#e5c400" fill-opacity="1"></use><g><use xlink:href="#d8kG6iJxYd" opacity="1" fill-opacity="0" stroke="#000000" stroke-width="1" stroke-opacity="0"></use></g></g><g><use xlink:href="#b3j2qrMcCE" opacity="1" fill="url(#gradientabTV3HIts)"></use><g><use xlink:href="#b3j2qrMcCE" opacity="1" fill-opacity="0" stroke="#000000" stroke-width="1" stroke-opacity="0"></use></g></g><g><use xlink:href="#dj4QHx1N2" opacity="1" fill="url(#gradientbtuhpoXH3)"></use><g><use xlink:href="#dj4QHx1N2" opacity="1" fill-opacity="0" stroke="#000000" stroke-width="1" stroke-opacity="0"></use></g></g></g></svg>