<?xml version="1.0" encoding="UTF-8" standalone="no"?>
<!DOCTYPE svg PUBLIC "-//W3C//DTD SVG 1.1//EN" "http://www.w3.org/Graphics/SVG/1.1/DTD/svg11.dtd">
<svg version="1.1" xmlns="http://www.w3.org/2000/svg" xmlns:xlink="http://www.w3.org/1999/xlink" preserveAspectRatio="xMidYMid meet" viewBox="731.6991629516494 591.0677931322924 131.3078617995791 136.15103447273475" width="127.31" height="132.15"><defs><path d="M805.44 694.44C807.47 696.6 809.56 698.73 811.85 700.62C813.76 702.2 815.85 703.32 818.01 704.5C824.68 708.12 831.34 711.75 838 715.37C834.23 713.32 831.14 709.92 828.23 706.84C828.23 706.84 832.62 711.49 828.23 706.84C823.67 704.36 807.72 695.68 805.44 694.44Z" id="arvMkZqfd"></path><path d="M843.77 658.95C847.01 656.56 851.35 655.53 855.06 657.55C850.03 654.81 845 652.08 839.98 649.34C837.52 648.01 835.07 646.67 832.61 645.34C830.86 644.38 828.99 643.9 826.99 644.11C823.46 644.48 820.86 646.46 818.34 648.81C814.95 652.02 811.89 655.58 808.86 659.11C811.14 660.35 829.37 670.27 831.65 671.51C832.49 670.54 833.33 669.57 834.17 668.62C834.27 668.5 833.87 668.96 834.17 668.62C837.15 665.24 840.16 661.67 843.77 658.95Z" id="a6NLzpraJT"></path><path d="M811.46 690.91C809.18 689.67 790.94 679.75 788.67 678.51C785.56 681.43 782.16 684.17 778.15 685.7C774.58 687.08 770.11 688 766.57 686.08C768.85 687.32 787.09 697.24 789.37 698.48C792.18 700 795.41 699.66 798.4 698.9C801.65 698.07 804.6 696.51 807.27 694.49C807.47 694.34 807.13 694.6 807.27 694.49C808.73 693.38 810.12 692.17 811.46 690.91Z" id="i2dax8yHl"></path><path d="M799.62 684.47C797 683.04 794.37 681.61 791.75 680.19C790.94 679.75 790.14 679.31 789.34 678.87C789.11 678.75 788.81 678.65 788.62 678.47C783.34 673.39 778.05 668.32 772.77 663.24C776.71 665.39 780.66 667.53 784.6 669.68C787.23 671.11 789.85 672.54 792.48 673.96C793.28 674.4 794.09 674.84 794.89 675.28C795.11 675.4 795.41 675.5 795.6 675.68C800.89 680.76 806.17 685.83 811.46 690.91C811.46 690.91 811.46 690.91 811.46 690.91C806.2 688.05 802.25 685.9 799.62 684.47Z" id="dr6ezMRxw"></path><path d="M814.51 628.38C813.3 625.76 810.35 624.73 807.98 623.44C801.67 620.01 795.36 616.57 789.04 613.14C793.16 615.38 792.97 620.71 791.07 624.37C788.9 628.53 785.01 631.77 781.15 634.31C783.43 635.55 801.66 645.47 803.94 646.71C808.11 643.95 812.4 640.35 814.4 635.64C814.46 635.5 814.33 635.79 814.4 635.64C815.36 633.35 815.57 630.68 814.51 628.38Z" id="c2moXb8qm"></path><path d="M777.76 658.75C775.48 657.51 757.25 647.59 754.97 646.35C745.46 651.81 737.33 660.39 734.15 671.06C732.55 676.4 732.39 682.04 733.11 687.54C733.7 692.12 735.03 696.69 737.51 700.62C738.78 702.63 740.35 704.45 742.19 705.97C744.44 707.84 747.1 709.11 749.66 710.51C755.97 713.94 762.28 717.38 768.59 720.81C758.64 715.39 755.47 703.87 755.49 693.25C755.49 692.45 755.47 705.25 755.49 693.25C755.52 678.45 765.35 665.87 777.76 658.75Z" id="e157dXonqJ"></path><path d="M785.87 610.56C790.64 607.94 795.91 606.27 801.27 605.33C806.83 604.35 812.59 604.09 818.17 605.12C821.36 605.71 824.5 606.72 827.36 608.28C821.52 605.1 815.67 601.92 809.83 598.74C807.1 597.26 804.41 595.6 801.51 594.45C799.07 593.49 796.49 592.86 793.89 592.48C788.18 591.66 782.37 592.14 776.74 593.26C771.57 594.3 766.42 596.1 761.89 598.84C753.77 603.75 747.74 611.51 746.03 620.96C745.23 625.35 745.3 629.88 746.68 634.15C748.22 638.91 751.21 643.07 754.97 646.35C757.25 647.59 775.48 657.51 777.76 658.75C771.46 653.24 767.84 645.54 768.37 637.14C768.39 636.83 768.36 637.31 768.37 637.14C769.06 625.71 775.97 616.01 785.87 610.56Z" id="a292R8qPQG"></path><path d="M857.02 700.12C857.01 709.11 849.4 715.54 843.12 716.42C839.61 716.91 836.25 715.34 828.23 706.84C818.27 717.23 804.97 721.78 791.82 723.63C764.78 727.43 755.46 712.34 755.49 693.25C755.52 679.06 764.31 666.47 777.76 658.75C770.91 652.77 768.29 645.56 768.3 639.1C768.33 623.16 779.75 608.31 803.43 604.99C824.92 601.97 839.8 612.18 839.77 630.16C839.74 643.57 833.44 652.65 821.44 662.38C822.46 663.3 830.63 670.6 831.65 671.51C842.93 658.41 845.41 657.12 849.5 656.55C854.91 655.79 860.02 659.95 860.01 666.42C860 672.1 858.1 675.84 848.72 686.78C853.82 690.95 857.03 695.7 857.02 700.12ZM795.51 699.46C801.51 698.62 805.75 696.29 811.46 690.91C809.87 689.38 797.15 677.17 795.56 675.64C786.78 682.71 784.73 686.46 784.72 689.94C784.71 696.09 789.23 700.34 795.51 699.46M803.94 646.71C811.55 641.7 815.21 636.14 815.22 632.03C815.23 626.19 811 623.8 804.71 624.68C797.69 625.67 794.91 629.84 794.91 634.88C794.9 639.3 798.25 643.09 803.94 646.71" id="c1jPOErXnm"></path><path d="M804.13 609.94C781.43 613.13 773.32 627.1 773.3 639.11C773.29 643.26 774.63 649.38 781.05 654.98C782.27 656.04 782.9 657.63 782.74 659.24C782.58 660.84 781.66 662.28 780.25 663.08C767.9 670.18 760.51 681.46 760.49 693.26C760.48 699.49 761.6 708.04 767 713.45C771.99 718.44 780.19 720.21 791.12 718.68C805.77 716.62 816.73 711.62 824.62 703.38C825.56 702.4 826.87 701.84 828.23 701.84C828.24 701.84 828.24 701.84 828.25 701.84C829.62 701.85 830.93 702.41 831.87 703.41C837.01 708.85 840.32 711.5 842 711.5C842.13 711.5 842.27 711.49 842.42 711.47C846.34 710.92 852.02 706.55 852.03 700.11C852.03 697.5 849.61 693.96 845.56 690.65C844.52 689.8 843.86 688.56 843.74 687.22C843.62 685.88 844.05 684.55 844.93 683.52C854.09 672.83 855 670.22 855.01 666.41C855.02 664.46 854.25 663.29 853.61 662.65C852.71 661.74 851.47 661.32 850.2 661.5C848 661.81 846.41 662.03 835.44 674.77C834.57 675.79 833.32 676.41 831.98 676.5C830.64 676.58 829.32 676.13 828.32 675.24C827.3 674.32 819.13 667.02 818.11 666.11C817.02 665.13 816.41 663.73 816.44 662.26C816.48 660.8 817.15 659.42 818.29 658.5C830.13 648.9 834.75 640.95 834.77 630.15C834.78 624.3 832.98 619.53 829.42 615.96C825.17 611.71 818.69 609.46 810.69 609.46C808.59 609.46 806.38 609.62 804.13 609.94ZM783.89 700.56C781.19 697.86 779.71 694.08 779.72 689.93C779.73 684.12 783.17 679.19 792.42 671.75C794.38 670.17 797.21 670.29 799.02 672.04C800.61 673.56 813.33 685.78 814.92 687.3C815.91 688.25 816.47 689.57 816.46 690.94C816.45 692.31 815.88 693.61 814.89 694.55C808.38 700.67 803.15 703.44 796.21 704.41C795.43 704.52 794.65 704.58 793.89 704.58C790.03 704.58 786.47 703.15 783.89 700.56ZM801.26 650.93C798.45 649.14 789.89 643.71 789.91 634.87C789.92 626.63 795.2 620.97 804.01 619.73C805.09 619.58 806.13 619.5 807.13 619.5C812.19 619.5 815.19 621.45 816.83 623.08C818.38 624.64 820.23 627.46 820.22 632.04C820.21 638.36 815.28 645.23 806.69 650.88C805.86 651.43 804.9 651.71 803.94 651.71C803.01 651.71 802.08 651.45 801.26 650.93Z" id="a7wryXyo7"></path><linearGradient id="gradienta1VEUAKDd" gradientUnits="userSpaceOnUse" x1="766.29" y1="712.74" x2="846.24" y2="632.79"><stop style="stop-color: #ffffff;stop-opacity: 0" offset="0%"></stop><stop style="stop-color: #ffffff;stop-opacity: 0.0896" offset="4.4799999999999995%"></stop><stop style="stop-color: #ffffff;stop-opacity: 1" offset="50%"></stop><stop style="stop-color: #ffffff;stop-opacity: 0.0896" offset="95.52000000000001%"></stop><stop style="stop-color: #ffffff;stop-opacity: 0" offset="100%"></stop></linearGradient><path d="M823.85 606.69C822.74 608.64 813.88 624.23 812.77 626.17C814.34 627.42 815.23 629.36 815.22 632.03C815.21 636.13 811.55 641.7 803.94 646.71C803.22 646.25 802.54 645.79 801.89 645.32C797.91 652.33 766.04 708.41 762.06 715.42C767.62 722.15 777.09 725.7 791.82 723.63C793.21 723.43 794.61 723.2 796 722.94C798.1 719.26 808.56 700.85 827.4 667.71C823.82 664.51 821.84 662.74 821.44 662.38C833.44 652.65 839.74 643.57 839.77 630.16C839.79 618.72 833.76 610.43 823.85 606.69ZM784.72 689.94C784.73 686.46 786.78 682.71 795.56 675.64C797.15 677.17 809.87 689.38 811.46 690.91C805.75 696.28 801.51 698.62 795.51 699.46C789.23 700.34 784.71 696.09 784.72 689.94Z" id="f6j1TobR9"></path><linearGradient id="gradienta1eOpSrK0I" gradientUnits="userSpaceOnUse" x1="760.62" y1="714.12" x2="847.63" y2="627.11"><stop style="stop-color: #ffffff;stop-opacity: 1" offset="0%"></stop><stop style="stop-color: #ffffff;stop-opacity: 0" offset="50%"></stop><stop style="stop-color: #ffffff;stop-opacity: 1" offset="100%"></stop></linearGradient></defs><g><g><use xlink:href="#arvMkZqfd" opacity="1" fill="#998400" fill-opacity="1"></use><g><use xlink:href="#arvMkZqfd" opacity="1" fill-opacity="0" stroke="#000000" stroke-width="1" stroke-opacity="0"></use></g></g><g><use xlink:href="#a6NLzpraJT" opacity="1" fill="#ad9600" fill-opacity="1"></use><g><use xlink:href="#a6NLzpraJT" opacity="1" fill-opacity="0" stroke="#000000" stroke-width="1" stroke-opacity="0"></use></g></g><g><use xlink:href="#i2dax8yHl" opacity="1" fill="#b69d00" fill-opacity="1"></use><g><use xlink:href="#i2dax8yHl" opacity="1" fill-opacity="0" stroke="#000000" stroke-width="1" stroke-opacity="0"></use></g></g><g><use xlink:href="#dr6ezMRxw" opacity="1" fill="#958100" fill-opacity="1"></use><g><use xlink:href="#dr6ezMRxw" opacity="1" fill-opacity="0" stroke="#000000" stroke-width="1" stroke-opacity="0"></use></g></g><g><use xlink:href="#c2moXb8qm" opacity="1" fill="#998400" fill-opacity="1"></use><g><use xlink:href="#c2moXb8qm" opacity="1" fill-opacity="0" stroke="#000000" stroke-width="1" stroke-opacity="0"></use></g></g><g><use xlink:href="#e157dXonqJ" opacity="1" fill="#b29a00" fill-opacity="1"></use><g><use xlink:href="#e157dXonqJ" opacity="1" fill-opacity="0" stroke="#000000" stroke-width="1" stroke-opacity="0"></use></g></g><g><use xlink:href="#a292R8qPQG" opacity="1" fill="#ad9600" fill-opacity="1"></use><g><use xlink:href="#a292R8qPQG" opacity="1" fill-opacity="0" stroke="#000000" stroke-width="1" stroke-opacity="0"></use></g></g><g><use xlink:href="#c1jPOErXnm" opacity="1" fill="#e5c400" fill-opacity="1"></use><g><use xlink:href="#c1jPOErXnm" opacity="1" fill-opacity="0" stroke="#000000" stroke-width="1" stroke-opacity="0"></use></g></g><g><use xlink:href="#a7wryXyo7" opacity="1" fill="url(#gradienta1VEUAKDd)"></use><g><use xlink:href="#a7wryXyo7" opacity="1" fill-opacity="0" stroke="#000000" stroke-width="1" stroke-opacity="0"></use></g></g><g><use xlink:href="#f6j1TobR9" opacity="1" fill="url(#gradienta1eOpSrK0I)"></use><g><use xlink:href="#f6j1TobR9" opacity="1" fill-opacity="0" stroke="#000000" stroke-width="1" stroke-opacity="0"></use></g></g></g></svg>