<?xml version="1.0" encoding="UTF-8" standalone="no"?>
<!DOCTYPE svg PUBLIC "-//W3C//DTD SVG 1.1//EN" "http://www.w3.org/Graphics/SVG/1.1/DTD/svg11.dtd">
<svg version="1.1" xmlns="http://www.w3.org/2000/svg" xmlns:xlink="http://www.w3.org/1999/xlink" preserveAspectRatio="xMidYMid meet" viewBox="210.8618791438614 34.90483569097328 122.69319787486054 136.019207805085" width="118.69" height="132.02"><defs><path d="M315.44 98.93C315.75 99.01 316.04 99.11 316.34 99.21C316.71 99.33 317.09 99.45 317.44 99.59C317.73 99.7 318.02 99.83 318.3 99.95C318.75 100.16 319.21 100.36 319.65 100.59C312.05 96.46 304.45 92.33 296.85 88.19C296.63 88.07 296.39 87.95 296.16 87.83C295.95 87.73 295.72 87.65 295.5 87.55C295.22 87.43 294.94 87.3 294.65 87.19C294.29 87.05 293.92 86.93 293.54 86.81C293.24 86.71 292.95 86.61 292.65 86.53C292.55 86.5 292.46 86.47 292.37 86.44C292.01 86.35 291.63 86.28 291.26 86.21C291.03 86.16 290.81 86.11 290.58 86.07C289.86 85.94 289.13 85.84 288.37 85.78C290.65 87.02 308.89 96.94 311.16 98.18C311.92 98.24 312.66 98.34 313.37 98.46C313.61 98.5 313.84 98.56 314.07 98.61C314.53 98.7 314.99 98.8 315.44 98.93Z" id="d1jkNPoBR"></path><path d="M270.94 104.5C273.54 105.92 275.04 108.51 275.03 112.41C275.02 115.64 273.85 118.8 271.49 121.05C268.79 123.62 265.03 124.86 261.41 125.37C260.29 125.53 254.69 126.32 244.61 127.73L267.4 140.13C277.48 138.71 283.09 137.93 284.21 137.77C289.18 137.07 294.45 134.88 296.7 130.08C298.72 125.77 298.31 119.39 293.73 116.9C293.73 116.9 296.34 118.31 293.73 116.9C289.17 114.42 273.22 105.74 270.94 104.5Z" id="e18WPWeGoB"></path><path d="M267.72 63.73C271.47 65.77 272.18 71.38 270.99 75.11C269.55 79.61 265.96 82.94 261.2 83.61C260.1 83.76 254.6 84.54 244.69 85.93L267.48 98.33C277.39 96.94 282.89 96.16 284 96.01C288.4 95.39 292.29 92.29 293.63 88C294.84 84.11 294.54 78.32 290.51 76.13C282.91 71.99 293.09 77.53 290.51 76.13C282.91 71.99 275.31 67.86 267.72 63.73Z" id="a1xKGTmr3X"></path><path d="M266.11 36.71C262.62 37.2 234.67 41.13 231.18 41.62C225.68 42.39 220.09 44.44 216.6 48.97C212.9 53.76 212 60.03 211.99 65.92C211.98 72.96 211.88 129.24 211.86 136.28C211.85 142.1 212.58 149.37 217.71 153.09C219.27 154.22 221.09 155.03 222.78 155.95C224.88 157.1 226.99 158.24 229.09 159.39C233.3 161.67 237.51 163.96 241.71 166.25C235.57 162.91 234.64 154.95 234.66 148.68C234.67 141.64 234.77 85.36 234.79 78.32C234.8 72.55 235.65 66.36 239.2 61.61C242.72 56.93 248.35 54.81 253.97 54.02C257.46 53.53 285.41 49.6 288.91 49.11C297.56 47.89 307.43 47.53 315.34 51.84C307.74 47.71 300.15 43.57 292.55 39.44C292.27 39.29 300.15 43.57 292.55 39.44C284.63 35.14 274.76 35.49 266.11 36.71Z" id="b2Qj0kwj1"></path><path d="M330.56 123.36C330.52 141.98 317.93 158.57 291.03 162.35C287.31 162.88 257.49 167.07 253.76 167.59C240.76 169.42 234.63 163.81 234.66 148.67C234.67 141.64 234.77 85.36 234.79 78.32C234.82 63.18 240.97 55.84 253.97 54.02C257.47 53.53 285.41 49.6 288.91 49.11C317.26 45.12 326.15 57.44 326.12 72.58C326.09 84.41 322.28 93.46 311.17 98.18C324.02 99.22 330.58 109.33 330.56 123.36ZM284.21 137.77C292.39 136.62 297.81 132.23 297.82 124.81C297.83 117.4 292.43 114.69 284.25 115.84C283.13 116 277.53 116.79 267.44 118.2L267.4 140.13L284.21 137.77M267.52 77.66L267.48 98.33C277.39 96.94 282.9 96.16 284 96.01C290.57 95.08 294.23 89.52 294.24 84.32C294.26 78 291.2 74.34 284.04 75.34C282.93 75.5 277.43 76.27 267.52 77.66" id="b5Rvw4GXic"></path><path d="M289.6 54.06C286.11 54.55 258.16 58.48 254.67 58.97C245.75 60.22 239.81 63.99 239.79 78.33C239.77 85.37 239.67 141.65 239.66 148.68C239.64 154.69 240.68 158.78 242.74 160.84C244.65 162.76 248.08 163.34 253.06 162.64C256.79 162.12 286.61 157.92 290.34 157.4C312.35 154.31 325.52 141.58 325.55 123.35C325.57 116.26 323.66 104.2 310.76 103.16C308.47 102.98 306.6 101.25 306.23 98.98C305.86 96.71 307.09 94.48 309.21 93.58C317.53 90.04 321.09 83.76 321.11 72.58C321.12 66.57 319.55 61.93 316.42 58.8C312.82 55.18 306.93 53.35 298.94 53.35C296.09 53.35 292.95 53.59 289.6 54.06ZM264.12 143.9C263.02 142.95 262.4 141.57 262.4 140.12C262.41 137.93 262.44 120.39 262.44 118.2C262.45 115.71 264.28 113.6 266.75 113.25C268.43 113.02 281.87 111.13 283.55 110.89C290.33 109.94 295.6 111.24 299.03 114.67C300.76 116.41 302.83 119.58 302.82 124.82C302.8 134.45 296.1 141.15 284.9 142.72C283.22 142.96 269.78 144.85 268.1 145.08C267.87 145.11 267.63 145.13 267.4 145.13C266.2 145.13 265.03 144.7 264.12 143.9ZM264.2 102.1C263.1 101.15 262.48 99.77 262.48 98.32C262.48 96.25 262.51 79.72 262.52 77.65C262.52 75.17 264.36 73.06 266.82 72.71C268.47 72.48 281.69 70.62 283.34 70.39C284.35 70.25 285.33 70.18 286.26 70.18C291.01 70.18 293.89 72.07 295.48 73.66C297.99 76.17 299.25 79.76 299.24 84.32C299.23 91.57 294.23 99.62 284.69 100.96C283.04 101.19 269.83 103.05 268.17 103.28C267.94 103.31 267.71 103.33 267.48 103.33C266.28 103.33 265.11 102.9 264.2 102.1Z" id="ax75Zb03r"></path><linearGradient id="gradientdYRQllANm" gradientUnits="userSpaceOnUse" x1="233.41" y1="151.52" x2="321.28" y2="63.65"><stop style="stop-color: #ffffff;stop-opacity: 0" offset="0%"></stop><stop style="stop-color: #ffffff;stop-opacity: 0.0896" offset="4.4799999999999995%"></stop><stop style="stop-color: #ffffff;stop-opacity: 1" offset="50%"></stop><stop style="stop-color: #ffffff;stop-opacity: 0.0896" offset="95.52000000000001%"></stop><stop style="stop-color: #ffffff;stop-opacity: 0" offset="100%"></stop></linearGradient><path d="M275.14 76.59C280.48 75.84 283.44 75.43 284.04 75.34C291.2 74.34 294.26 78 294.24 84.31C294.23 89.52 290.57 95.08 284 96.01C282.89 96.16 277.39 96.93 267.48 98.33L267.49 90.05L234.66 147.83C234.66 148.34 234.66 148.62 234.66 148.67C234.63 163.81 240.76 169.42 253.76 167.59C254.33 167.51 257.19 167.11 262.34 166.38L278.11 138.63L267.4 140.13L267.44 118.2C277.53 116.79 283.13 116 284.25 115.84C286.8 115.48 289.08 115.5 291.02 115.92C294.23 110.27 319.9 65.1 323.11 59.45C318.7 51.55 308.96 46.74 290.91 48.86C288.8 52.56 283.55 61.8 275.14 76.59Z" id="av3nIhqmG"></path><linearGradient id="gradientd62Ej3BggM" gradientUnits="userSpaceOnUse" x1="229.53" y1="154.71" x2="324.46" y2="59.78"><stop style="stop-color: #ffffff;stop-opacity: 1" offset="0%"></stop><stop style="stop-color: #ffffff;stop-opacity: 0" offset="50%"></stop><stop style="stop-color: #ffffff;stop-opacity: 1" offset="100%"></stop></linearGradient></defs><g><g><use xlink:href="#d1jkNPoBR" opacity="1" fill="#7e921e" fill-opacity="1"></use><g><use xlink:href="#d1jkNPoBR" opacity="1" fill-opacity="0" stroke="#000000" stroke-width="1" stroke-opacity="0"></use></g></g><g><use xlink:href="#e18WPWeGoB" opacity="1" fill="#8ca222" fill-opacity="1"></use><g><use xlink:href="#e18WPWeGoB" opacity="1" fill-opacity="0" stroke="#000000" stroke-width="1" stroke-opacity="0"></use></g></g><g><use xlink:href="#a1xKGTmr3X" opacity="1" fill="#8ca222" fill-opacity="1"></use><g><use xlink:href="#a1xKGTmr3X" opacity="1" fill-opacity="0" stroke="#000000" stroke-width="1" stroke-opacity="0"></use></g></g><g><use xlink:href="#b2Qj0kwj1" opacity="1" fill="#859920" fill-opacity="1"></use><g><use xlink:href="#b2Qj0kwj1" opacity="1" fill-opacity="0" stroke="#000000" stroke-width="1" stroke-opacity="0"></use></g></g><g><use xlink:href="#b5Rvw4GXic" opacity="1" fill="#a8bf2a" fill-opacity="1"></use><g><use xlink:href="#b5Rvw4GXic" opacity="1" fill-opacity="0" stroke="#000000" stroke-width="1" stroke-opacity="0"></use></g></g><g><use xlink:href="#ax75Zb03r" opacity="1" fill="url(#gradientdYRQllANm)"></use><g><use xlink:href="#ax75Zb03r" opacity="1" fill-opacity="0" stroke="#000000" stroke-width="1" stroke-opacity="0"></use></g></g><g><use xlink:href="#av3nIhqmG" opacity="1" fill="url(#gradientd62Ej3BggM)"></use><g><use xlink:href="#av3nIhqmG" opacity="1" fill-opacity="0" stroke="#000000" stroke-width="1" stroke-opacity="0"></use></g></g></g></svg>