<?xml version="1.0" encoding="UTF-8" standalone="no"?>
<!DOCTYPE svg PUBLIC "-//W3C//DTD SVG 1.1//EN" "http://www.w3.org/Graphics/SVG/1.1/DTD/svg11.dtd">
<svg version="1.1" xmlns="http://www.w3.org/2000/svg" xmlns:xlink="http://www.w3.org/1999/xlink" preserveAspectRatio="xMidYMid meet" viewBox="355.98691303706516 32.564737255563394 125.03312229898836 136.54633318155902" width="121.03" height="132.55"><defs><path d="M434.95 102.71C430.42 105.14 428.03 109.48 425.34 113.63C422.77 117.58 419.81 122.03 415.22 123.76C410.8 125.44 405.21 125.43 401.02 123.14C403.3 124.38 421.53 134.3 423.81 135.54C427.91 137.77 433.23 137.8 437.59 136.31C442.21 134.74 445.21 130.47 447.78 126.56C450.5 122.42 452.83 117.96 457.26 115.37C461.45 112.92 467.13 112.66 471.44 115C469.16 113.76 450.93 103.84 448.65 102.6C448.5 102.52 448.65 102.6 448.65 102.6C444.5 100.36 439.07 100.5 434.95 102.71Z" id="f64FsQuQRa"></path><path d="M444.32 77.24C441.99 75.54 439.19 74.33 436.67 72.96C431.17 69.97 425.68 66.98 420.18 63.99C423.19 65.62 425.06 68.41 426.84 71.23C428.36 73.65 429.99 76.1 432.55 77.5C440.03 81.57 447.51 85.64 454.99 89.71C452.29 88.24 450.57 85.18 449.03 82.65C447.15 79.59 451.37 86.49 449.03 82.65C447.77 80.61 446.27 78.66 444.32 77.24Z" id="cbEkS1hLI"></path><path d="M390.26 75.22C396.76 65.16 405.66 56.99 416.54 51.87C430.88 45.13 449.26 43.18 463.6 50.98C457.76 47.8 451.91 44.63 446.07 41.45C443.33 39.95 440.62 38.34 437.75 37.1C435.3 36.06 432.75 35.26 430.15 34.69C418.71 32.19 406.42 34 395.73 38.58C385.16 43.11 375.9 50.61 369.3 60.03C362.44 69.83 358.84 81.19 357.5 92.99C356.32 103.39 357.12 114.53 360.5 124.47C363.08 132.05 367.43 139.03 373.65 144.14C375.57 145.73 377.64 147.12 379.83 148.31C382.11 149.55 400.34 159.47 402.62 160.71C395.92 157.06 390.49 151.5 386.8 144.84C382.18 136.5 380.3 126.88 379.93 117.43C379.82 114.57 379.86 111.72 380.02 108.87C380.07 108.06 380 109.25 380.02 108.87C380.69 97.13 383.84 85.17 390.26 75.22Z" id="eKz7FcBlq"></path><path d="M477.83 72.46C477.81 81.45 471.37 88.97 461.87 90.31C455.58 91.19 453.54 90.06 449.03 82.65C444.66 75.54 439.84 74.17 432.53 75.19C422.01 76.67 413.51 88.9 413.48 108.94C413.44 127.39 420.14 139.06 434.17 137.09C440.31 136.23 443.38 133.9 450.12 122.87C453.35 117.52 457.44 114.27 462.41 113.57C471.18 112.34 478.04 117.84 478.02 127.31C477.98 147.18 452.82 162.86 434.12 165.49C405.91 169.45 379.79 154.83 379.86 113.66C379.94 73.91 406.43 50.47 434.34 46.55C459.18 43.06 477.86 56.05 477.83 72.46Z" id="gQqoxWMak"></path><path d="M435.04 51.5C410.11 55 384.94 75.58 384.86 113.67C384.83 129.87 388.98 142.25 397.19 150.48C404.13 157.43 413.88 161.11 425.39 161.11C428 161.11 430.7 160.91 433.43 160.53C449.55 158.27 472.99 144.19 473.02 127.3C473.03 124.47 472.21 122.15 470.65 120.59C468.89 118.83 466.2 118.09 463.11 118.52C459.79 118.99 456.94 121.26 454.4 125.46C447.88 136.14 443.72 140.8 434.87 142.04C427.75 143.04 421.51 141.13 416.98 136.59C411.39 131 408.45 121.43 408.48 108.93C408.52 87.75 417.9 72.2 431.84 70.24C433.52 70 435.02 69.89 436.43 69.89C443.68 69.89 449.04 73.11 453.29 80.03C456.65 85.55 457.46 85.57 458.78 85.57C459.42 85.59 460.17 85.5 461.18 85.36C468.02 84.4 472.81 79.09 472.83 72.45C472.84 67.85 470.92 63.5 467.3 59.86C461.66 54.22 452.57 50.98 442.35 50.98C439.97 50.98 437.51 51.16 435.04 51.5Z" id="c8EmfywXSr"></path><linearGradient id="gradientd3x8ddBbd5" gradientUnits="userSpaceOnUse" x1="393.24" y1="146.53" x2="473.6" y2="66.17"><stop style="stop-color: #ffffff;stop-opacity: 0" offset="0%"></stop><stop style="stop-color: #ffffff;stop-opacity: 0.0896" offset="4.4799999999999995%"></stop><stop style="stop-color: #ffffff;stop-opacity: 1" offset="50%"></stop><stop style="stop-color: #ffffff;stop-opacity: 0.0896" offset="95.52000000000001%"></stop><stop style="stop-color: #ffffff;stop-opacity: 0" offset="100%"></stop></linearGradient><path d="M416.34 90.92C413.33 96.22 389.28 138.54 386.28 143.83C392.16 155.11 401.63 161.81 412.7 164.59C414.26 161.84 426.77 139.82 428.34 137.07C418.28 135.39 413.45 124.62 413.48 108.93C413.49 101.94 414.54 95.89 416.34 90.92ZM421.76 81.39C424.82 77.88 428.53 75.75 432.53 75.19C439.84 74.16 444.66 75.54 449.03 82.65C451.45 86.63 453.16 88.78 455.2 89.8C456.97 86.69 471.13 61.78 472.9 58.66C466.84 50.98 455.65 45.87 441.88 45.99C437.85 53.07 423.77 77.85 421.76 81.39Z" id="a521nXPuYO"></path><linearGradient id="gradienta2UEBfORXC" gradientUnits="userSpaceOnUse" x1="386.12" y1="146.45" x2="473.54" y2="59.04"><stop style="stop-color: #ffffff;stop-opacity: 1" offset="0%"></stop><stop style="stop-color: #ffffff;stop-opacity: 0" offset="50%"></stop><stop style="stop-color: #ffffff;stop-opacity: 1" offset="100%"></stop></linearGradient></defs><g><g><use xlink:href="#f64FsQuQRa" opacity="1" fill="#0079a7" fill-opacity="1"></use><g><use xlink:href="#f64FsQuQRa" opacity="1" fill-opacity="0" stroke="#000000" stroke-width="1" stroke-opacity="0"></use></g></g><g><use xlink:href="#cbEkS1hLI" opacity="1" fill="#006b94" fill-opacity="1"></use><g><use xlink:href="#cbEkS1hLI" opacity="1" fill-opacity="0" stroke="#000000" stroke-width="1" stroke-opacity="0"></use></g></g><g><use xlink:href="#eKz7FcBlq" opacity="1" fill="#007fae" fill-opacity="1"></use><g><use xlink:href="#eKz7FcBlq" opacity="1" fill-opacity="0" stroke="#000000" stroke-width="1" stroke-opacity="0"></use></g></g><g><use xlink:href="#gQqoxWMak" opacity="1" fill="#009bd6" fill-opacity="1"></use><g><use xlink:href="#gQqoxWMak" opacity="1" fill-opacity="0" stroke="#000000" stroke-width="1" stroke-opacity="0"></use></g></g><g><use xlink:href="#c8EmfywXSr" opacity="1" fill="url(#gradientd3x8ddBbd5)"></use><g><use xlink:href="#c8EmfywXSr" opacity="1" fill-opacity="0" stroke="#000000" stroke-width="1" stroke-opacity="0"></use></g></g><g><use xlink:href="#a521nXPuYO" opacity="1" fill="url(#gradienta2UEBfORXC)"></use><g><use xlink:href="#a521nXPuYO" opacity="1" fill-opacity="0" stroke="#000000" stroke-width="1" stroke-opacity="0"></use></g></g></g></svg>