<?xml version="1.0" encoding="UTF-8" standalone="no"?>
<!DOCTYPE svg PUBLIC "-//W3C//DTD SVG 1.1//EN" "http://www.w3.org/Graphics/SVG/1.1/DTD/svg11.dtd">
<svg version="1.1" xmlns="http://www.w3.org/2000/svg" xmlns:xlink="http://www.w3.org/1999/xlink" preserveAspectRatio="xMidYMid meet" viewBox="110.48188630178849 672.9491271234258 60.3882092241826 75.0293428919341" width="56.39" height="71.03"><defs><path d="M152.07 717.64C149.79 716.4 131.56 706.48 129.28 705.24C129.27 708.71 128.13 712.1 125.4 714.38C123.94 715.6 122.24 716.42 120.48 717.11C119.73 717.41 118.98 717.73 118.25 718.09C117.53 718.45 116.51 718.84 115.93 719.42C115.93 719.42 115.93 719.42 115.93 719.42C115.26 719.91 114.61 720.43 114.05 721.06C114.05 721.06 114.05 721.06 114.05 721.06C112.63 722.72 112 724.9 112.17 727.08C112.26 728.34 112.7 729.59 113.5 730.57C114.59 731.91 116.38 732.58 117.86 733.39C124.53 737.01 131.19 740.64 137.85 744.26C132.99 741.62 134.74 734.31 138.74 731.81C141.16 730.15 144.04 729.48 146.53 727.96C148.68 726.66 150.44 724.77 151.3 722.38C151.32 722.32 151.28 722.43 151.3 722.38C151.85 720.87 152.07 719.23 152.07 717.64Z" id="ecxJ6jFYU"></path><path d="M143.66 688.86C148.09 685.99 154.44 685.4 159.13 687.95C153.29 684.77 147.45 681.59 141.6 678.41C139.06 677.02 136.5 675.27 133.69 674.48C131.26 673.8 128.65 673.8 126.19 674.34C115.61 676.68 109.45 688.28 112.09 698.54C112.87 701.57 114.55 704.49 117.38 706.03C119.66 707.27 137.89 717.19 140.17 718.43C135.02 715.63 133.8 708.75 134.43 703.43C134.48 703.05 134.41 703.63 134.43 703.43C135.17 697.37 138.57 692.16 143.66 688.86Z" id="b213Q1KTz0"></path><path d="M167.87 709.11C167.83 732.76 151.88 743.53 142.23 744.88C136.97 745.62 134.94 741.96 134.94 738.97C134.95 734.55 137.15 731.87 143.57 729.39C148.7 727.41 152.06 724.1 152.07 717.64C150.61 718.63 149.15 719.15 146.96 719.45C138.33 720.67 134.26 713.83 134.27 705.78C134.29 696.48 140.88 687.82 150.23 686.51C158.86 685.3 167.9 690.49 167.87 709.11Z" id="a2EVlUWhg"></path><path d="M154.41 713.22C156.05 714.09 157.07 715.79 157.07 717.65C157.05 725.54 153.12 731.06 145.38 734.06C139.94 736.15 139.94 737.52 139.94 738.97C139.94 739.35 140.07 739.71 140.19 739.84C140.3 739.94 140.84 740.03 141.54 739.93C149.76 738.77 162.83 729.38 162.87 709.1C162.88 701.86 161.4 696.54 158.57 693.71C156.66 691.79 154 691.03 150.93 691.46C144.4 692.38 139.29 698.67 139.27 705.79C139.27 709.09 140.11 711.82 141.59 713.3C142.7 714.42 144.21 714.79 146.26 714.5C147.88 714.27 148.56 713.97 149.26 713.5C150.1 712.93 151.08 712.64 152.07 712.64C152.87 712.64 153.68 712.83 154.41 713.22Z" id="e8qcBoW7dN"></path><linearGradient id="gradientb9dmOLCleY" gradientUnits="userSpaceOnUse" x1="131.66" y1="731.3" x2="163.91" y2="699.05"><stop style="stop-color: #ffffff;stop-opacity: 0" offset="0%"></stop><stop style="stop-color: #ffffff;stop-opacity: 0.0896" offset="4.4799999999999995%"></stop><stop style="stop-color: #ffffff;stop-opacity: 1" offset="50%"></stop><stop style="stop-color: #ffffff;stop-opacity: 0.0896" offset="95.52000000000001%"></stop><stop style="stop-color: #ffffff;stop-opacity: 0" offset="100%"></stop></linearGradient></defs><g><g><use xlink:href="#ecxJ6jFYU" opacity="1" fill="#834d0b" fill-opacity="1"></use><g><use xlink:href="#ecxJ6jFYU" opacity="1" fill-opacity="0" stroke="#000000" stroke-width="1" stroke-opacity="0"></use></g></g><g><use xlink:href="#b213Q1KTz0" opacity="1" fill="#9c5d16" fill-opacity="1"></use><g><use xlink:href="#b213Q1KTz0" opacity="1" fill-opacity="0" stroke="#000000" stroke-width="1" stroke-opacity="0"></use></g></g><g><use xlink:href="#a2EVlUWhg" opacity="1" fill="#c37422" fill-opacity="1"></use><g><use xlink:href="#a2EVlUWhg" opacity="1" fill-opacity="0" stroke="#000000" stroke-width="1" stroke-opacity="0"></use></g></g><g><use xlink:href="#e8qcBoW7dN" opacity="1" fill="url(#gradientb9dmOLCleY)"></use><g><use xlink:href="#e8qcBoW7dN" opacity="1" fill-opacity="0" stroke="#000000" stroke-width="1" stroke-opacity="0"></use></g></g></g></svg>