<?xml version="1.0" encoding="UTF-8" standalone="no"?>
<!DOCTYPE svg PUBLIC "-//W3C//DTD SVG 1.1//EN" "http://www.w3.org/Graphics/SVG/1.1/DTD/svg11.dtd">
<svg version="1.1" xmlns="http://www.w3.org/2000/svg" xmlns:xlink="http://www.w3.org/1999/xlink" preserveAspectRatio="xMidYMid meet" viewBox="504.7658786671044 36.11078813366561 124.92219034832056 134.96753563139973" width="120.92" height="130.97"><defs><path d="M592.85 110.5C593.19 106.2 593.19 101.81 592.77 97.51C592.17 91.31 590.36 84.43 584.47 81.23C582.19 79.99 563.96 70.07 561.68 68.83C569.64 73.15 570.26 83.87 570.28 91.85C570.28 97.34 569.95 103.03 568.13 108.25C566.38 113.27 563.16 117.43 558.52 120.08C554.69 122.27 550.31 123.38 545.97 123.99C545.47 124.06 542.98 124.41 538.51 125.04L561.3 137.44C565.78 136.81 568.26 136.46 568.76 136.39C573.17 135.77 577.64 134.64 581.51 132.37C585.42 130.09 588.4 126.68 590.19 122.53C590.35 122.15 590.15 122.64 590.19 122.53C591.83 118.73 592.53 114.6 592.85 110.5Z" id="b1I6OJjhto"></path><path d="M605.6 54.2C601.27 51.85 596.95 49.49 592.62 47.14C588.41 44.85 584.24 42.25 579.83 40.36C571.6 36.84 562.33 36.54 553.57 37.77C550.73 38.17 527.93 41.37 525.08 41.77C519.58 42.54 513.99 44.59 510.5 49.12C506.81 53.91 505.91 60.18 505.9 66.08C505.88 73.11 505.78 129.39 505.77 136.43C505.75 142.25 506.48 149.52 511.61 153.24C513.17 154.37 514.99 155.19 516.68 156.11C518.78 157.25 520.89 158.39 522.99 159.54C527.2 161.83 531.41 164.12 535.61 166.41C529.47 163.07 528.55 155.1 528.56 148.83C528.57 141.79 528.68 85.51 528.69 78.48C528.7 72.71 529.54 66.5 533.1 61.77C536.61 57.08 542.25 54.96 547.88 54.17C550.72 53.77 573.52 50.57 576.37 50.17C577.5 50.01 578.63 49.88 579.77 49.78C580.4 49.72 579.52 49.8 579.77 49.78C588.56 48.97 597.74 49.93 605.6 54.2Z" id="a2hsIkiwaS"></path><path d="M626.69 99.87C626.63 131.41 611.09 158.83 576.16 163.74C573.31 164.14 550.51 167.34 547.66 167.74C534.66 169.57 528.53 163.97 528.56 148.83C528.57 141.79 528.68 85.51 528.69 78.48C528.72 63.33 534.87 56 547.88 54.17C549.77 53.9 559.27 52.57 576.37 50.17C609.95 62.27 626.73 78.83 626.69 99.87ZM568.76 136.39C588.19 133.66 593.04 122.57 593.07 104.59C593.1 86.61 588.3 76.88 568.87 79.61C568.37 79.68 565.88 80.03 561.41 80.66L561.3 137.44L568.76 136.39" id="c1Nhgw8YzL"></path><path d="M577.06 55.12C574.21 55.52 551.42 58.72 548.57 59.12C539.66 60.38 533.72 64.15 533.69 78.49C533.68 85.52 533.57 141.8 533.56 148.84C533.55 154.85 534.59 158.94 536.64 161C538.55 162.91 541.98 163.49 546.97 162.79C549.82 162.39 572.61 159.19 575.46 158.79C604.35 154.73 621.63 132.7 621.69 99.86C621.72 83.89 617.65 71.36 609.91 63.61C603.88 57.57 595.63 54.51 585.39 54.51C582.75 54.51 579.95 54.71 577.06 55.12ZM558.02 141.21C556.93 140.26 556.3 138.88 556.3 137.43C556.31 131.75 556.4 86.33 556.41 80.65C556.41 78.16 558.25 76.05 560.71 75.7C561.46 75.6 567.42 74.76 568.17 74.66C570.55 74.32 572.79 74.15 574.84 74.15C581.75 74.15 587.19 76.1 591.01 79.93C597.29 86.23 598.08 96.42 598.07 104.6C598.04 120.79 594.62 137.81 569.46 141.35C568.71 141.45 562.74 142.29 562 142.39C561.77 142.43 561.53 142.44 561.3 142.44C560.1 142.44 558.93 142.01 558.02 141.21Z" id="a1kuw4qPk0"></path><linearGradient id="gradientatzZlb1T" gradientUnits="userSpaceOnUse" x1="525.74" y1="150.1" x2="611.07" y2="64.77"><stop style="stop-color: #ffffff;stop-opacity: 0" offset="0%"></stop><stop style="stop-color: #ffffff;stop-opacity: 0.0896" offset="4.4799999999999995%"></stop><stop style="stop-color: #ffffff;stop-opacity: 1" offset="50%"></stop><stop style="stop-color: #ffffff;stop-opacity: 0.0896" offset="95.52000000000001%"></stop><stop style="stop-color: #ffffff;stop-opacity: 0" offset="100%"></stop></linearGradient><path d="M561.39 89.68L528.56 147.44C528.56 148.27 528.56 148.74 528.56 148.83C528.53 163.97 534.66 169.57 547.67 167.74C548.21 167.67 550.96 167.28 555.91 166.59C566.52 147.92 572.41 137.54 573.59 135.47C572.09 135.84 570.49 136.15 568.76 136.39C568.26 136.46 565.78 136.81 561.3 137.44L561.39 89.68ZM566.96 79.87C568.1 79.71 568.74 79.62 568.87 79.61C587.07 77.05 592.44 85.43 593.01 101.29C595.24 97.37 613.06 66.02 615.29 62.1C608.34 53.97 598.08 49.26 584.2 49.54C581.9 53.58 576.16 63.7 566.96 79.87Z" id="d2nuHPEHh"></path><linearGradient id="gradiental3aFTkDE" gradientUnits="userSpaceOnUse" x1="523.34" y1="154.77" x2="615.73" y2="62.39"><stop style="stop-color: #ffffff;stop-opacity: 1" offset="0%"></stop><stop style="stop-color: #ffffff;stop-opacity: 0" offset="50%"></stop><stop style="stop-color: #ffffff;stop-opacity: 1" offset="100%"></stop></linearGradient></defs><g><g><use xlink:href="#b1I6OJjhto" opacity="1" fill="#590057" fill-opacity="1"></use><g><use xlink:href="#b1I6OJjhto" opacity="1" fill-opacity="0" stroke="#000000" stroke-width="1" stroke-opacity="0"></use></g></g><g><use xlink:href="#a2hsIkiwaS" opacity="1" fill="#690b67" fill-opacity="1"></use><g><use xlink:href="#a2hsIkiwaS" opacity="1" fill-opacity="0" stroke="#000000" stroke-width="1" stroke-opacity="0"></use></g></g><g><use xlink:href="#c1Nhgw8YzL" opacity="1" fill="#821d80" fill-opacity="1"></use><g><use xlink:href="#c1Nhgw8YzL" opacity="1" fill-opacity="0" stroke="#000000" stroke-width="1" stroke-opacity="0"></use></g></g><g><use xlink:href="#a1kuw4qPk0" opacity="1" fill="url(#gradientatzZlb1T)"></use><g><use xlink:href="#a1kuw4qPk0" opacity="1" fill-opacity="0" stroke="#000000" stroke-width="1" stroke-opacity="0"></use></g></g><g><use xlink:href="#d2nuHPEHh" opacity="1" fill="url(#gradiental3aFTkDE)"></use><g><use xlink:href="#d2nuHPEHh" opacity="1" fill-opacity="0" stroke="#000000" stroke-width="1" stroke-opacity="0"></use></g></g></g></svg>