<?xml version="1.0" encoding="UTF-8" standalone="no"?>
<!DOCTYPE svg PUBLIC "-//W3C//DTD SVG 1.1//EN" "http://www.w3.org/Graphics/SVG/1.1/DTD/svg11.dtd">
<svg version="1.1" xmlns="http://www.w3.org/2000/svg" xmlns:xlink="http://www.w3.org/1999/xlink" preserveAspectRatio="xMidYMid meet" viewBox="573.8519430274177 621.8347952229763 59.533094281479066 133.36305310854277" width="55.53" height="129.36"><defs><path d="M610.85 677.28C613.46 676.36 617.22 675.74 619.78 677.12C617.5 675.88 599.26 665.96 596.98 664.72C595 663.65 592.45 663.9 590.31 664.3C588.35 664.66 586.41 665.34 584.94 666.75C583.45 668.18 582.69 670.14 582.18 672.1C581.39 675.13 580.9 678.27 580.33 681.35C578.32 692.13 576.51 702.98 575.6 713.91C575.22 718.38 574.84 723.01 575.37 727.49C575.87 731.73 577.45 736.21 581.41 738.37C583.69 739.61 601.93 749.53 604.21 750.77C596.36 746.5 597.73 734.82 598.3 727.37C599.14 716.59 600.89 705.87 602.84 695.25C603.24 693.09 603.65 690.95 604.07 688.8C604.46 686.81 604.78 684.79 605.46 682.88C605.51 682.75 605.31 683.31 605.46 682.88C606.41 680.24 608.17 678.23 610.85 677.28Z" id="a1c0MDplMn"></path><path d="M606.37 638.52C611.1 635.15 617.56 634.03 622.81 636.88C616.97 633.7 611.12 630.53 605.28 627.35C602.7 625.94 600.11 624.18 597.26 623.36C594.96 622.7 592.45 622.68 590.12 623.19C580.17 625.38 573.45 636.13 575.1 646.05C575.53 648.65 576.57 651.16 578.2 653.24C580.08 655.63 582.61 656.92 585.23 658.35C591.89 661.97 598.55 665.59 605.22 669.22C599.38 666.04 597.03 659.23 597.82 652.89C597.87 652.52 597.79 653.11 597.82 652.89C598.54 647.21 601.69 641.85 606.37 638.52Z" id="m2UIXG2Vhi"></path><path d="M623.31 683.45C627.37 703.06 629.82 719.91 629.79 731.26C629.77 742.62 625.24 750.35 613.83 751.96C602.43 753.56 597.92 747.1 597.94 735.73C597.96 724.38 600.47 706.84 604.6 686.07C605.79 680.23 607.83 677.42 613.97 676.56C620.11 675.69 622.15 677.93 623.31 683.45Z" id="k84p63RxH"></path><path d="M597.65 655.36C597.66 645.57 604.98 636.66 614.04 635.38C623.11 634.11 630.4 640.97 630.38 650.76C630.37 660.53 623.05 669.45 613.98 670.72C604.92 671.99 597.63 665.13 597.65 655.36Z" id="b7lOVpXBuP"></path><path d="M614.66 681.51C611.3 681.98 610.42 682.55 609.51 687.06C605.23 708.56 602.96 725.4 602.94 735.74C602.93 740.47 603.81 743.87 605.5 745.55C605.9 745.96 607.14 747.2 610.57 747.2C611.36 747.2 612.22 747.13 613.13 747.01C618.55 746.24 624.77 743.77 624.8 731.25C624.82 720.92 622.61 704.74 618.41 684.46C617.89 681.99 617.4 681.53 617.38 681.51C617.38 681.51 617.38 681.51 617.38 681.51C617.37 681.51 617.1 681.38 616.3 681.38C615.83 681.38 615.28 681.42 614.66 681.51Z" id="a1bsX6V521"></path><linearGradient id="gradientgBGeIkKZy" gradientUnits="userSpaceOnUse" x1="594.59" y1="734.64" x2="632.55" y2="696.68"><stop style="stop-color: #ffffff;stop-opacity: 0" offset="0%"></stop><stop style="stop-color: #ffffff;stop-opacity: 0.0896" offset="4.4799999999999995%"></stop><stop style="stop-color: #ffffff;stop-opacity: 1" offset="50%"></stop><stop style="stop-color: #ffffff;stop-opacity: 0.0896" offset="95.52000000000001%"></stop><stop style="stop-color: #ffffff;stop-opacity: 0" offset="100%"></stop></linearGradient><path d="M614.74 640.34C608.2 641.26 602.66 648.14 602.65 655.37C602.64 658.58 603.7 661.41 605.63 663.35C607.61 665.32 610.32 666.18 613.28 665.77C619.83 664.85 625.37 657.97 625.38 650.75C625.39 647.53 624.33 644.69 622.4 642.76C620.75 641.11 618.6 640.23 616.2 640.23C615.72 640.23 615.23 640.27 614.74 640.34Z" id="b6C1DJ9w7"></path><linearGradient id="gradientc15nrR5Iww" gradientUnits="userSpaceOnUse" x1="604.68" y1="662.39" x2="623.35" y2="643.72"><stop style="stop-color: #ffffff;stop-opacity: 0" offset="0%"></stop><stop style="stop-color: #ffffff;stop-opacity: 0.0896" offset="4.4799999999999995%"></stop><stop style="stop-color: #ffffff;stop-opacity: 1" offset="50%"></stop><stop style="stop-color: #ffffff;stop-opacity: 0.0896" offset="95.52000000000001%"></stop><stop style="stop-color: #ffffff;stop-opacity: 0" offset="100%"></stop></linearGradient><path d="M630.39 650.76C630.39 646.67 629.11 643.11 626.98 640.42C625.26 643.45 611.49 667.68 609.77 670.7C611.11 670.9 612.52 670.92 613.98 670.72C623.05 669.45 630.37 660.53 630.39 650.76ZM604.61 686.07C600.47 706.84 597.96 724.38 597.94 735.74C597.93 742.33 599.46 747.26 602.96 749.93C605.42 745.61 625.08 711.02 627.53 706.69C626.46 699.58 625.03 691.76 623.31 683.45C622.15 677.93 620.11 675.69 613.97 676.56C607.83 677.42 605.79 680.23 604.61 686.07Z" id="c2drMQO47m"></path><linearGradient id="gradientb2DznRvQFu" gradientUnits="userSpaceOnUse" x1="581.52" y1="728.62" x2="648.35" y2="661.8"><stop style="stop-color: #ffffff;stop-opacity: 1" offset="0%"></stop><stop style="stop-color: #ffffff;stop-opacity: 0" offset="50%"></stop><stop style="stop-color: #ffffff;stop-opacity: 1" offset="100%"></stop></linearGradient></defs><g><g><use xlink:href="#a1c0MDplMn" opacity="1" fill="#b29591" fill-opacity="1"></use><g><use xlink:href="#a1c0MDplMn" opacity="1" fill-opacity="0" stroke="#000000" stroke-width="1" stroke-opacity="0"></use></g></g><g><use xlink:href="#m2UIXG2Vhi" opacity="1" fill="#aa8e8b" fill-opacity="1"></use><g><use xlink:href="#m2UIXG2Vhi" opacity="1" fill-opacity="0" stroke="#000000" stroke-width="1" stroke-opacity="0"></use></g></g><g><use xlink:href="#k84p63RxH" opacity="1" fill="#deb8b2" fill-opacity="1"></use><g><use xlink:href="#k84p63RxH" opacity="1" fill-opacity="0" stroke="#000000" stroke-width="1" stroke-opacity="0"></use></g></g><g><use xlink:href="#b7lOVpXBuP" opacity="1" fill="#deb8b2" fill-opacity="1"></use><g><use xlink:href="#b7lOVpXBuP" opacity="1" fill-opacity="0" stroke="#000000" stroke-width="1" stroke-opacity="0"></use></g></g><g><use xlink:href="#a1bsX6V521" opacity="1" fill="url(#gradientgBGeIkKZy)"></use><g><use xlink:href="#a1bsX6V521" opacity="1" fill-opacity="0" stroke="#000000" stroke-width="1" stroke-opacity="0"></use></g></g><g><use xlink:href="#b6C1DJ9w7" opacity="1" fill="url(#gradientc15nrR5Iww)"></use><g><use xlink:href="#b6C1DJ9w7" opacity="1" fill-opacity="0" stroke="#000000" stroke-width="1" stroke-opacity="0"></use></g></g><g><use xlink:href="#c2drMQO47m" opacity="1" fill="url(#gradientb2DznRvQFu)"></use><g><use xlink:href="#c2drMQO47m" opacity="1" fill-opacity="0" stroke="#000000" stroke-width="1" stroke-opacity="0"></use></g></g></g></svg>