<?xml version="1.0" encoding="UTF-8" standalone="no"?>
<!DOCTYPE svg PUBLIC "-//W3C//DTD SVG 1.1//EN" "http://www.w3.org/Graphics/SVG/1.1/DTD/svg11.dtd">
<svg version="1.1" xmlns="http://www.w3.org/2000/svg" xmlns:xlink="http://www.w3.org/1999/xlink" preserveAspectRatio="xMidYMid meet" viewBox="1230.1771755485972 612.8728755998548 109.56883851115686 112.90920804105053" width="105.57" height="108.91"><defs><path d="M1288.61 695.85C1292.6 692.85 1298.18 691.8 1302.7 694.26C1296.85 691.08 1291.01 687.9 1285.16 684.72C1282.63 683.34 1280.11 681.64 1277.32 680.84C1274.59 680.13 1271.67 680.5 1269.09 681.56C1259.99 685.31 1255.09 698.63 1262.03 706.5C1262.92 707.5 1263.98 708.35 1265.15 709C1267.43 710.24 1285.67 720.16 1287.95 721.39C1283.05 718.73 1281.06 713.01 1281.73 707.7C1281.77 707.38 1281.71 707.88 1281.73 707.7C1282.32 703.04 1284.84 698.67 1288.61 695.85Z" id="gE0lu2SD8"></path><path d="M1332.76 660.62C1327.62 657.82 1322.47 655.02 1317.33 652.23C1314.79 650.85 1312.28 649.35 1309.69 648.08C1307.86 647.19 1305.73 647.08 1303.73 647.36C1297.51 648.23 1247.7 655.23 1241.48 656.11C1237.88 656.61 1234.55 658.51 1232.75 661.73C1230.95 665.01 1230.57 669.59 1232.28 672.99C1233.09 674.61 1234.36 675.6 1235.92 676.44C1238.37 677.78 1240.83 679.12 1243.28 680.45C1248.19 683.12 1253.1 685.79 1258.01 688.46C1254.02 686.29 1253.55 681.16 1254.39 677.16C1255.39 672.35 1259.56 669.17 1264.27 668.51C1270.5 667.63 1320.3 660.63 1326.53 659.76C1326.99 659.69 1327.46 659.66 1327.92 659.64C1328.18 659.63 1327.82 659.64 1327.92 659.64C1329.58 659.57 1331.29 659.82 1332.76 660.62Z" id="e5D1w7d8fl"></path><path d="M1288.74 629.28C1292.74 626.29 1298.29 625.23 1302.82 627.69C1300.54 626.45 1282.3 616.53 1280.03 615.29C1272.69 611.28 1264.12 616.37 1260.74 623.17C1257.55 629.62 1258.43 638.7 1265.28 642.42C1267.55 643.66 1285.79 653.58 1288.07 654.82C1283.17 652.16 1281.18 646.43 1281.85 641.12C1281.89 640.8 1281.83 641.3 1281.85 641.12C1282.45 636.47 1284.97 632.09 1288.74 629.28Z" id="e2D9PRFsnc"></path><path d="M1309.06 705.9C1309.04 714.09 1302.89 721.59 1295.29 722.65C1287.7 723.72 1281.56 717.95 1281.58 709.76C1281.6 701.55 1287.75 694.07 1295.35 693C1302.95 691.93 1309.07 697.69 1309.06 705.9Z" id="b1OaJzotYs"></path><path d="M1336.75 668.73C1336.73 675.35 1332.63 679.71 1326.49 680.58C1320.26 681.45 1270.46 688.45 1264.23 689.33C1258.1 690.19 1254.01 686.98 1254.02 680.35C1254.03 673.73 1258.14 669.37 1264.27 668.51C1268.42 667.92 1289.17 665.01 1326.53 659.76C1333.35 661.32 1336.75 664.31 1336.75 668.73Z" id="a68StiCiP"></path><path d="M1281.71 643.18C1281.72 634.99 1287.88 627.49 1295.47 626.43C1303.07 625.36 1309.2 631.13 1309.18 639.32C1309.17 647.53 1303.02 655.01 1295.42 656.08C1287.82 657.15 1281.69 651.39 1281.71 643.18Z" id="ahIpBIW5"></path><path d="M1296.04 697.95C1290.92 698.67 1286.59 704.08 1286.58 709.77C1286.58 712.24 1287.39 714.42 1288.86 715.89C1290.34 717.38 1292.37 718.02 1294.6 717.71C1299.71 716.99 1304.05 711.57 1304.06 705.89C1304.06 703.41 1303.25 701.23 1301.78 699.76C1300.55 698.52 1298.95 697.87 1297.15 697.87C1296.79 697.87 1296.41 697.9 1296.04 697.95Z" id="c4sJM2bGT6"></path><linearGradient id="gradientavk4tpmDY" gradientUnits="userSpaceOnUse" x1="1288.06" y1="715.09" x2="1302.58" y2="700.56"><stop style="stop-color: #ffffff;stop-opacity: 0" offset="0%"></stop><stop style="stop-color: #ffffff;stop-opacity: 0.0896" offset="4.4799999999999995%"></stop><stop style="stop-color: #ffffff;stop-opacity: 1" offset="50%"></stop><stop style="stop-color: #ffffff;stop-opacity: 0.0896" offset="95.52000000000001%"></stop><stop style="stop-color: #ffffff;stop-opacity: 0" offset="100%"></stop></linearGradient><path d="M1327.23 664.71C1321 665.58 1271.19 672.58 1264.97 673.46C1262.26 673.84 1259.03 675.34 1259.02 680.36C1259.02 681.93 1259.35 683.13 1259.96 683.74C1260.55 684.34 1261.58 684.46 1262.34 684.46C1262.71 684.46 1263.12 684.43 1263.54 684.37C1269.76 683.5 1319.57 676.5 1325.79 675.62C1328.51 675.24 1331.74 673.74 1331.75 668.72C1331.75 667.15 1331.42 665.95 1330.81 665.34C1330.22 664.74 1329.19 664.62 1328.43 664.62C1328.05 664.62 1327.65 664.65 1327.23 664.71Z" id="b2JMLynMic"></path><linearGradient id="gradienteRShAxZJ8" gradientUnits="userSpaceOnUse" x1="1273.07" y1="696.85" x2="1317.7" y2="652.23"><stop style="stop-color: #ffffff;stop-opacity: 0" offset="0%"></stop><stop style="stop-color: #ffffff;stop-opacity: 0.0896" offset="4.4799999999999995%"></stop><stop style="stop-color: #ffffff;stop-opacity: 1" offset="50%"></stop><stop style="stop-color: #ffffff;stop-opacity: 0.0896" offset="95.52000000000001%"></stop><stop style="stop-color: #ffffff;stop-opacity: 0" offset="100%"></stop></linearGradient><path d="M1296.17 631.38C1291.05 632.1 1286.71 637.51 1286.7 643.19C1286.7 645.67 1287.51 647.85 1288.98 649.32C1290.46 650.8 1292.49 651.44 1294.72 651.13C1299.84 650.41 1304.17 645 1304.18 639.31C1304.19 636.84 1303.38 634.66 1301.91 633.19C1300.67 631.95 1299.07 631.3 1297.27 631.3C1296.91 631.3 1296.54 631.33 1296.17 631.38Z" id="bXvKC5Elr"></path><linearGradient id="gradienta1bXs8L1jg" gradientUnits="userSpaceOnUse" x1="1288.18" y1="648.52" x2="1302.71" y2="633.99"><stop style="stop-color: #ffffff;stop-opacity: 0" offset="0%"></stop><stop style="stop-color: #ffffff;stop-opacity: 0.0896" offset="4.4799999999999995%"></stop><stop style="stop-color: #ffffff;stop-opacity: 1" offset="50%"></stop><stop style="stop-color: #ffffff;stop-opacity: 0.0896" offset="95.52000000000001%"></stop><stop style="stop-color: #ffffff;stop-opacity: 0" offset="100%"></stop></linearGradient><path d="M1271.66 688.28L1313.2 682.44L1326.05 659.82L1284.51 665.66L1271.66 688.28ZM1309.18 639.32C1309.19 635.2 1307.64 631.7 1305.14 629.37C1303.64 632 1291.67 653.06 1290.18 655.7C1291.79 656.19 1293.56 656.34 1295.42 656.08C1303.02 655.01 1309.17 647.53 1309.18 639.32ZM1281.58 709.76C1281.57 716.13 1285.28 721.02 1290.5 722.38C1291.98 719.77 1303.86 698.88 1305.34 696.27C1302.84 693.75 1299.3 692.44 1295.35 693C1287.75 694.07 1281.6 701.55 1281.58 709.76Z" id="a1UtTYeB7u"></path><linearGradient id="gradientdc1HoHF3i" gradientUnits="userSpaceOnUse" x1="1269.8" y1="703.89" x2="1324.74" y2="648.96"><stop style="stop-color: #ffffff;stop-opacity: 1" offset="0%"></stop><stop style="stop-color: #ffffff;stop-opacity: 0" offset="50%"></stop><stop style="stop-color: #ffffff;stop-opacity: 1" offset="100%"></stop></linearGradient></defs><g><g><use xlink:href="#gE0lu2SD8" opacity="1" fill="#a90065" fill-opacity="1"></use><g><use xlink:href="#gE0lu2SD8" opacity="1" fill-opacity="0" stroke="#000000" stroke-width="1" stroke-opacity="0"></use></g></g><g><use xlink:href="#e5D1w7d8fl" opacity="1" fill="#a90065" fill-opacity="1"></use><g><use xlink:href="#e5D1w7d8fl" opacity="1" fill-opacity="0" stroke="#000000" stroke-width="1" stroke-opacity="0"></use></g></g><g><use xlink:href="#e2D9PRFsnc" opacity="1" fill="#a20060" fill-opacity="1"></use><g><use xlink:href="#e2D9PRFsnc" opacity="1" fill-opacity="0" stroke="#000000" stroke-width="1" stroke-opacity="0"></use></g></g><g><use xlink:href="#b1OaJzotYs" opacity="1" fill="#d1007d" fill-opacity="1"></use><g><use xlink:href="#b1OaJzotYs" opacity="1" fill-opacity="0" stroke="#000000" stroke-width="1" stroke-opacity="0"></use></g></g><g><use xlink:href="#a68StiCiP" opacity="1" fill="#d1007d" fill-opacity="1"></use><g><use xlink:href="#a68StiCiP" opacity="1" fill-opacity="0" stroke="#000000" stroke-width="1" stroke-opacity="0"></use></g></g><g><use xlink:href="#ahIpBIW5" opacity="1" fill="#d1007d" fill-opacity="1"></use><g><use xlink:href="#ahIpBIW5" opacity="1" fill-opacity="0" stroke="#000000" stroke-width="1" stroke-opacity="0"></use></g></g><g><use xlink:href="#c4sJM2bGT6" opacity="1" fill="url(#gradientavk4tpmDY)"></use><g><use xlink:href="#c4sJM2bGT6" opacity="1" fill-opacity="0" stroke="#000000" stroke-width="1" stroke-opacity="0"></use></g></g><g><use xlink:href="#b2JMLynMic" opacity="1" fill="url(#gradienteRShAxZJ8)"></use><g><use xlink:href="#b2JMLynMic" opacity="1" fill-opacity="0" stroke="#000000" stroke-width="1" stroke-opacity="0"></use></g></g><g><use xlink:href="#bXvKC5Elr" opacity="1" fill="url(#gradienta1bXs8L1jg)"></use><g><use xlink:href="#bXvKC5Elr" opacity="1" fill-opacity="0" stroke="#000000" stroke-width="1" stroke-opacity="0"></use></g></g><g><use xlink:href="#a1UtTYeB7u" opacity="1" fill="url(#gradientdc1HoHF3i)"></use><g><use xlink:href="#a1UtTYeB7u" opacity="1" fill-opacity="0" stroke="#000000" stroke-width="1" stroke-opacity="0"></use></g></g></g></svg>