<?xml version="1.0" encoding="UTF-8" standalone="no"?>
<!DOCTYPE svg PUBLIC "-//W3C//DTD SVG 1.1//EN" "http://www.w3.org/Graphics/SVG/1.1/DTD/svg11.dtd">
<svg version="1.1" xmlns="http://www.w3.org/2000/svg" xmlns:xlink="http://www.w3.org/1999/xlink" preserveAspectRatio="xMidYMid meet" viewBox="339.84341528376774 621.5302949342132 107.06261834563054 134.6318473130824" width="103.06" height="130.63"><defs><path d="M427.12 709.33C430.84 708.17 435.48 707.85 439.01 709.76C436.73 708.52 418.49 698.6 416.21 697.36C412.61 695.41 407.67 695.72 403.9 697.07C400.18 698.39 397.94 701.76 395.98 705C393.81 708.59 391.59 712.03 387.91 714.26C384.39 716.39 378.89 717.72 375.06 715.63C377.33 716.87 395.57 726.79 397.85 728.03C400.26 729.34 403.39 729.14 405.99 728.57C408.72 727.95 411.24 726.58 413.32 724.71C413.32 724.71 413.32 724.71 413.32 724.71C415.95 722.34 417.54 719.34 419.4 716.38C419.49 716.24 419.23 716.65 419.4 716.38C421.29 713.36 423.58 710.42 427.12 709.33Z" id="bkmMlxdXV"></path><path d="M404.12 675.67C407.57 674.7 411.92 673.94 415.24 675.75C412.96 674.51 394.72 664.59 392.44 663.35C389.48 661.73 385.85 662.26 382.7 662.93C381.11 663.27 379.56 663.78 378.11 664.52C376.98 665.1 375.56 666.01 374.85 667.08C374.85 667.08 374.85 667.08 374.85 667.08C373.17 668.98 372.53 671.27 371.29 673.41C369.89 675.8 367.73 677.68 365.57 679.36C361.13 682.8 356.21 685.67 352.09 689.51C348.04 693.15 345.01 697.36 342.9 702.37C340.9 707.13 340.46 712.93 341.15 718C342.22 725.94 346.89 732.76 353.93 736.59C356.21 737.83 374.45 747.75 376.73 748.99C367.97 744.23 363.35 735.11 363.7 725.27C363.89 719.88 365.23 714.61 368.04 709.97C370.93 705.23 375.08 701.47 379.49 698.17C382.81 695.7 386.34 693.48 389.52 690.83C390.91 689.68 392.23 688.44 393.29 686.98C394.38 685.51 394.92 683.8 395.78 682.19C395.8 682.16 395.64 682.46 395.78 682.19C397.6 678.83 400.46 676.7 404.12 675.67Z" id="eb8YiOsXp"></path><path d="M398.54 638.21C403.27 634.85 409.73 633.72 414.98 636.58C409.14 633.4 403.29 630.22 397.45 627.04C394.87 625.64 392.28 623.88 389.43 623.06C387.13 622.4 384.62 622.37 382.29 622.89C372.34 625.08 365.62 635.82 367.27 645.74C368.01 650.2 370.57 654.33 374.6 656.51C376.88 657.75 395.11 667.67 397.39 668.91C391.57 665.75 389.22 658.97 389.99 652.65C390.04 652.25 389.96 652.85 389.99 652.65C390.69 646.94 393.85 641.56 398.54 638.21Z" id="c1xgHm03DR"></path><path d="M443.91 719.51C443.89 729.92 431.43 748.71 404.54 752.49C377.06 756.35 363.64 743.09 363.67 726.37C363.72 699.72 390.18 695.84 394.73 684.48C397.38 677.79 401.32 675.82 408.19 674.86C416.52 673.68 419.73 678.6 419.71 685.7C419.7 694.85 413.84 701.19 406.08 706.54C396.73 713.06 394.67 715.39 394.66 721.55C394.65 728.02 399.18 729.58 404.73 728.8C408.97 728.21 413.94 725.77 417.9 718.91C422.44 710.86 424.93 709.4 430.48 708.62C438.23 707.53 443.92 711 443.91 719.51Z" id="adEQZdZt1"></path><path d="M389.82 655.05C389.84 645.26 397.16 636.35 406.22 635.08C415.28 633.81 422.57 640.66 422.56 650.45C422.54 660.23 415.21 669.14 406.15 670.41C397.09 671.69 389.8 664.83 389.82 655.05Z" id="b48cCi625"></path><path d="M408.89 679.81C402.99 680.64 401.12 681.91 399.38 686.32C397.2 691.76 392.04 695.39 386.58 699.23C377.79 705.42 368.7 711.82 368.67 726.38C368.66 732.26 370.62 737.34 374.34 741.07C380.33 747.07 390.79 749.37 403.85 747.54C428.29 744.1 438.89 727.31 438.91 719.5C438.91 718.01 438.67 715.98 437.49 714.8C436.36 713.67 434.51 713.43 433.15 713.43C432.53 713.43 431.87 713.48 431.18 713.57C427.6 714.08 426.26 714.27 422.25 721.37C417.04 730.39 410.23 733.08 405.42 733.75C404.33 733.91 403.26 733.99 402.26 733.99C397.41 733.99 394.54 732.14 392.99 730.58C390.77 728.36 389.65 725.32 389.66 721.54C389.68 712.75 393.6 709.14 403.23 702.43C411.27 696.88 414.7 691.88 414.71 685.69C414.72 683.27 414.23 681.39 413.37 680.53C413.16 680.32 412.52 679.68 410.53 679.68C410.02 679.68 409.47 679.72 408.89 679.81Z" id="a15DN7RgXn"></path><linearGradient id="gradientcw4deOs7u" gradientUnits="userSpaceOnUse" x1="379" y1="745.73" x2="428.78" y2="695.94"><stop style="stop-color: #ffffff;stop-opacity: 0" offset="0%"></stop><stop style="stop-color: #ffffff;stop-opacity: 0.0896" offset="4.4799999999999995%"></stop><stop style="stop-color: #ffffff;stop-opacity: 1" offset="50%"></stop><stop style="stop-color: #ffffff;stop-opacity: 0.0896" offset="95.52000000000001%"></stop><stop style="stop-color: #ffffff;stop-opacity: 0" offset="100%"></stop></linearGradient><path d="M406.91 640.03C400.37 640.95 394.83 647.83 394.82 655.06C394.81 658.27 395.87 661.1 397.81 663.04C399.78 665.02 402.49 665.88 405.45 665.46C412 664.54 417.54 657.66 417.56 650.44C417.56 647.23 416.5 644.39 414.57 642.45C412.92 640.8 410.77 639.93 408.36 639.93C407.89 639.93 407.4 639.96 406.91 640.03Z" id="b20gO7Hr4n"></path><linearGradient id="gradientc1H8BPyg0" gradientUnits="userSpaceOnUse" x1="396.85" y1="662.08" x2="415.52" y2="643.41"><stop style="stop-color: #ffffff;stop-opacity: 0" offset="0%"></stop><stop style="stop-color: #ffffff;stop-opacity: 0.0896" offset="4.4799999999999995%"></stop><stop style="stop-color: #ffffff;stop-opacity: 1" offset="50%"></stop><stop style="stop-color: #ffffff;stop-opacity: 0.0896" offset="95.52000000000001%"></stop><stop style="stop-color: #ffffff;stop-opacity: 0" offset="100%"></stop></linearGradient><path d="M422.56 650.45C422.57 644.89 420.21 640.28 416.51 637.56C414.7 640.75 400.22 666.23 398.41 669.41C400.71 670.42 403.35 670.81 406.15 670.41C415.21 669.14 422.54 660.23 422.56 650.45ZM394.73 684.48C393.12 688.49 388.78 691.57 383.84 695.05C381.85 698.55 365.9 726.61 363.91 730.12C365.36 741.66 373.73 750.89 389.25 752.79C390.6 750.41 401.43 731.36 402.78 728.98C398.16 729.14 394.65 727.24 394.66 721.55C394.67 715.39 396.73 713.06 406.08 706.54C413.84 701.19 419.7 694.85 419.71 685.7C419.73 678.6 416.52 673.68 408.19 674.86C401.32 675.82 397.38 677.79 394.73 684.48Z" id="cxlOlWweE"></path><linearGradient id="gradientdu3WhaU5p" gradientUnits="userSpaceOnUse" x1="362.14" y1="735.92" x2="438.62" y2="659.44"><stop style="stop-color: #ffffff;stop-opacity: 1" offset="0%"></stop><stop style="stop-color: #ffffff;stop-opacity: 0" offset="50%"></stop><stop style="stop-color: #ffffff;stop-opacity: 1" offset="100%"></stop></linearGradient></defs><g><g><use xlink:href="#bkmMlxdXV" opacity="1" fill="#b28309" fill-opacity="1"></use><g><use xlink:href="#bkmMlxdXV" opacity="1" fill-opacity="0" stroke="#000000" stroke-width="1" stroke-opacity="0"></use></g></g><g><use xlink:href="#eb8YiOsXp" opacity="1" fill="#aa7d06" fill-opacity="1"></use><g><use xlink:href="#eb8YiOsXp" opacity="1" fill-opacity="0" stroke="#000000" stroke-width="1" stroke-opacity="0"></use></g></g><g><use xlink:href="#c1xgHm03DR" opacity="1" fill="#aa7d06" fill-opacity="1"></use><g><use xlink:href="#c1xgHm03DR" opacity="1" fill-opacity="0" stroke="#000000" stroke-width="1" stroke-opacity="0"></use></g></g><g><use xlink:href="#adEQZdZt1" opacity="1" fill="#dfa412" fill-opacity="1"></use><g><use xlink:href="#adEQZdZt1" opacity="1" fill-opacity="0" stroke="#000000" stroke-width="1" stroke-opacity="0"></use></g></g><g><use xlink:href="#b48cCi625" opacity="1" fill="#dfa412" fill-opacity="1"></use><g><use xlink:href="#b48cCi625" opacity="1" fill-opacity="0" stroke="#000000" stroke-width="1" stroke-opacity="0"></use></g></g><g><use xlink:href="#a15DN7RgXn" opacity="1" fill="url(#gradientcw4deOs7u)"></use><g><use xlink:href="#a15DN7RgXn" opacity="1" fill-opacity="0" stroke="#000000" stroke-width="1" stroke-opacity="0"></use></g></g><g><use xlink:href="#b20gO7Hr4n" opacity="1" fill="url(#gradientc1H8BPyg0)"></use><g><use xlink:href="#b20gO7Hr4n" opacity="1" fill-opacity="0" stroke="#000000" stroke-width="1" stroke-opacity="0"></use></g></g><g><use xlink:href="#cxlOlWweE" opacity="1" fill="url(#gradientdu3WhaU5p)"></use><g><use xlink:href="#cxlOlWweE" opacity="1" fill-opacity="0" stroke="#000000" stroke-width="1" stroke-opacity="0"></use></g></g></g></svg>