<?xml version="1.0" encoding="UTF-8" standalone="no"?>
<!DOCTYPE svg PUBLIC "-//W3C//DTD SVG 1.1//EN" "http://www.w3.org/Graphics/SVG/1.1/DTD/svg11.dtd">
<svg version="1.1" xmlns="http://www.w3.org/2000/svg" xmlns:xlink="http://www.w3.org/1999/xlink" preserveAspectRatio="xMidYMid meet" viewBox="657.0708786671046 32.360424865537645 115.62915857162352 138.07189889952764" width="111.63" height="134.07"><defs><path d="M764.76 133.99C759.03 130.87 753.3 127.76 747.58 124.64C745.08 123.28 742.54 121.5 739.78 120.73C737.37 120.05 734.78 120.11 732.32 120.45C729.61 120.83 716.07 122.74 691.69 126.16L714.49 138.56C738.86 135.14 752.41 133.23 755.11 132.85C755.89 132.74 756.67 132.68 757.45 132.64C757.9 132.62 757.28 132.65 757.45 132.64C759.92 132.52 762.55 132.78 764.76 133.99Z" id="b1aGcvYw6"></path><path d="M755.49 90.67C753.21 89.43 734.98 79.51 732.7 78.27C729.79 76.69 726.24 76.68 723.05 77.13C720.96 77.42 710.54 78.89 691.78 81.53L714.57 93.92C733.33 91.29 743.76 89.82 745.84 89.53C746.61 89.42 747.39 89.35 748.17 89.32C748.63 89.29 748.01 89.32 748.17 89.32C750.65 89.2 753.27 89.46 755.49 90.67Z" id="aAq7JTHR3"></path><path d="M763.31 47.15C757.58 44.03 751.86 40.91 746.13 37.8C743.63 36.44 741.09 34.66 738.33 33.88C735.92 33.21 733.33 33.26 730.87 33.61C725.52 34.36 682.74 40.38 677.39 41.13C671.89 41.9 666.29 43.94 662.8 48.47C659.11 53.27 658.21 59.54 658.2 65.43C658.19 72.47 658.08 128.75 658.07 135.78C658.06 141.61 658.79 148.87 663.91 152.6C665.47 153.73 667.3 154.54 668.98 155.46C671.09 156.61 673.19 157.75 675.3 158.89C679.5 161.18 683.71 163.47 687.92 165.76C681.78 162.42 680.85 154.46 680.86 148.18C680.88 141.15 680.98 84.87 681 77.83C681.01 72.06 681.85 65.86 685.41 61.12C688.92 56.44 694.55 54.32 700.18 53.53C705.53 52.78 748.32 46.76 753.67 46.01C754.44 45.9 755.22 45.83 756 45.79C756.45 45.77 755.83 45.8 756 45.79C758.48 45.68 761.1 45.94 763.31 47.15Z" id="ab9O084b4d"></path><path d="M768.26 57.21C768.25 65.09 763.7 71.09 753.62 72.51C751.01 72.87 738.01 74.7 714.6 77.99L714.57 93.93C733.33 91.29 743.76 89.82 745.84 89.53C755.93 88.11 760.45 92.84 760.44 100.72C760.42 108.62 755.88 114.61 745.79 116.03C743.71 116.32 733.28 117.79 714.52 120.43L714.49 138.57C738.86 135.14 752.41 133.24 755.11 132.86C765.2 131.44 769.72 136.16 769.7 144.06C769.69 151.94 765.15 157.94 755.06 159.36C749.55 160.13 705.48 166.32 699.97 167.1C686.96 168.93 680.84 163.32 680.86 148.18C680.88 141.15 680.98 84.87 680.99 77.83C681.02 62.68 687.17 55.35 700.18 53.53C703.74 53.02 721.57 50.52 753.67 46.01C763.41 48.22 768.27 51.95 768.26 57.21Z" id="a2bjrzLonq"></path><path d="M754.36 50.96C749.01 51.71 706.22 57.72 700.88 58.48C691.96 59.73 686.02 63.5 685.99 77.84C685.98 84.87 685.88 141.16 685.86 148.19C685.85 154.2 686.89 158.29 688.95 160.35C690.86 162.27 694.29 162.85 699.27 162.15C704.78 161.37 748.86 155.18 754.37 154.4C761.31 153.43 764.69 150.04 764.7 144.05C764.7 142.43 764.45 140.24 763.23 139.02C761.95 137.73 759.34 137.31 755.81 137.81C751.75 138.38 719.24 142.94 715.18 143.52C713.75 143.72 712.29 143.29 711.2 142.33C710.11 141.38 709.48 140 709.49 138.55C709.49 136.74 709.52 122.23 709.52 120.42C709.53 117.93 711.36 115.82 713.82 115.47C716.95 115.03 741.97 111.52 745.1 111.08C752.04 110.1 755.43 106.71 755.44 100.71C755.44 99.1 755.19 96.92 753.96 95.69C752.68 94.41 750.08 93.98 746.54 94.48C743.41 94.92 718.39 98.44 715.27 98.87C713.83 99.08 712.38 98.65 711.29 97.69C710.19 96.74 709.57 95.36 709.57 93.91C709.57 92.32 709.6 79.57 709.6 77.98C709.6 75.49 711.44 73.38 713.9 73.04C717.8 72.49 749.02 68.1 752.92 67.55C759.87 66.58 763.25 63.19 763.26 57.2C763.26 55.58 763.01 53.4 761.79 52.17C760.85 51.23 759.25 50.76 757.02 50.76C756.21 50.76 755.31 50.83 754.36 50.96Z" id="b30N8IMhqU"></path><linearGradient id="gradientb1PEDSYLNt" gradientUnits="userSpaceOnUse" x1="680.94" y1="152.35" x2="771.45" y2="61.84"><stop style="stop-color: #ffffff;stop-opacity: 0" offset="0%"></stop><stop style="stop-color: #ffffff;stop-opacity: 0.0896" offset="4.4799999999999995%"></stop><stop style="stop-color: #ffffff;stop-opacity: 1" offset="50%"></stop><stop style="stop-color: #ffffff;stop-opacity: 0.0896" offset="95.52000000000001%"></stop><stop style="stop-color: #ffffff;stop-opacity: 0" offset="100%"></stop></linearGradient><path d="M763.92 47.52C761.54 45.97 758.16 45.38 753.67 46.01C751.7 46.28 741.88 47.66 724.2 50.15L680.91 126.33C680.88 139.44 680.87 146.72 680.86 148.18C680.84 161.58 685.65 167.5 695.77 167.42C697.02 165.22 703.26 154.24 714.49 134.48L714.52 120.43L723.17 119.21L739.54 90.42L714.57 93.93L714.6 77.99L749.38 73.1C758.1 57.75 762.95 49.22 763.92 47.52Z" id="b3QsxIQLWT"></path><linearGradient id="gradientj1vm1zkhFZ" gradientUnits="userSpaceOnUse" x1="670.15" y1="148.62" x2="767.59" y2="51.18"><stop style="stop-color: #ffffff;stop-opacity: 1" offset="0%"></stop><stop style="stop-color: #ffffff;stop-opacity: 0" offset="50%"></stop><stop style="stop-color: #ffffff;stop-opacity: 1" offset="100%"></stop></linearGradient></defs><g><g><use xlink:href="#b1aGcvYw6" opacity="1" fill="#b2006a" fill-opacity="1"></use><g><use xlink:href="#b1aGcvYw6" opacity="1" fill-opacity="0" stroke="#000000" stroke-width="1" stroke-opacity="0"></use></g></g><g><use xlink:href="#aAq7JTHR3" opacity="1" fill="#b2006a" fill-opacity="1"></use><g><use xlink:href="#aAq7JTHR3" opacity="1" fill-opacity="0" stroke="#000000" stroke-width="1" stroke-opacity="0"></use></g></g><g><use xlink:href="#ab9O084b4d" opacity="1" fill="#a90065" fill-opacity="1"></use><g><use xlink:href="#ab9O084b4d" opacity="1" fill-opacity="0" stroke="#000000" stroke-width="1" stroke-opacity="0"></use></g></g><g><use xlink:href="#a2bjrzLonq" opacity="1" fill="#d1007d" fill-opacity="1"></use><g><use xlink:href="#a2bjrzLonq" opacity="1" fill-opacity="0" stroke="#000000" stroke-width="1" stroke-opacity="0"></use></g></g><g><use xlink:href="#b30N8IMhqU" opacity="1" fill="url(#gradientb1PEDSYLNt)"></use><g><use xlink:href="#b30N8IMhqU" opacity="1" fill-opacity="0" stroke="#000000" stroke-width="1" stroke-opacity="0"></use></g></g><g><use xlink:href="#b3QsxIQLWT" opacity="1" fill="url(#gradientj1vm1zkhFZ)"></use><g><use xlink:href="#b3QsxIQLWT" opacity="1" fill-opacity="0" stroke="#000000" stroke-width="1" stroke-opacity="0"></use></g></g></g></svg>