<?xml version="1.0" encoding="UTF-8" standalone="no"?>
<!DOCTYPE svg PUBLIC "-//W3C//DTD SVG 1.1//EN" "http://www.w3.org/Graphics/SVG/1.1/DTD/svg11.dtd">
<svg version="1.1" xmlns="http://www.w3.org/2000/svg" xmlns:xlink="http://www.w3.org/1999/xlink" preserveAspectRatio="xMidYMid meet" viewBox="647.6155397486526 589.3884525331707 59.509493508380274 133.37364161053495" width="55.51" height="129.37"><defs><path d="M680.11 687.41C684.84 684.05 691.3 682.91 696.55 685.77C691.99 683.29 687.44 680.81 682.88 678.33C680.54 677.06 678.2 675.79 675.86 674.52C674.02 673.52 672.24 672.5 670.18 672.05C662.36 670.35 654.71 675.41 651.09 682.11C651.09 682.11 651.09 682.11 651.09 682.11C647.46 688.87 647.5 698.2 653.39 703.7C654.83 705.05 656.55 705.92 658.27 706.85C660.61 708.13 662.95 709.4 665.29 710.67C669.85 713.15 674.4 715.63 678.96 718.11C673.15 714.95 670.76 708.14 671.56 701.83C671.6 701.43 671.53 702.03 671.56 701.83C672.26 696.13 675.42 690.75 680.11 687.41Z" id="cWvEWa2qs"></path><path d="M680.74 605.31C685.6 602.85 692.52 601.48 697.56 604.23C691.72 601.05 685.87 597.87 680.03 594.69C677.54 593.34 675.01 591.56 672.24 590.84C669.75 590.2 667.02 590.31 664.5 590.74C659.44 591.59 654.94 593.98 652.2 598.41C649.45 602.85 649.09 608.33 649.21 613.42C649.39 621.75 650.5 630.05 651.81 638.27C652.61 643.32 653.52 648.36 654.51 653.39C655.01 655.94 655.39 658.57 656.15 661.05C656.68 662.8 657.53 664.56 659.2 665.47C661.48 666.71 679.71 676.63 681.99 677.87C680.23 676.91 679.38 675 678.85 673.16C678.03 670.26 677.58 667.23 677.01 664.28C675.94 658.75 674.97 653.21 674.14 647.64C673.43 642.88 672.82 638.1 672.42 633.31C672.06 629.1 671.77 624.81 672.12 620.59C672.17 620.03 672.1 620.83 672.12 620.59C672.63 614.59 675.03 608.18 680.74 605.31Z" id="b4YVzBnCmM"></path><path d="M704.13 699.64C704.11 709.42 696.79 718.34 687.73 719.61C678.66 720.88 671.37 714.02 671.39 704.24C671.4 694.46 678.72 685.55 687.79 684.27C696.85 683 704.14 689.86 704.13 699.64Z" id="e23SlOhdZf"></path><path d="M678.46 671.55C674.41 651.93 671.95 635.09 671.98 623.73C672 612.37 676.54 604.64 687.94 603.04C699.34 601.43 703.85 607.9 703.83 619.26C703.81 630.61 701.3 648.16 697.17 668.92C695.99 674.76 693.94 677.58 687.8 678.44C681.66 679.3 679.62 677.06 678.46 671.55Z" id="a4oKENryW0"></path><path d="M688.49 689.23C681.94 690.15 676.4 697.03 676.39 704.25C676.38 707.46 677.44 710.3 679.38 712.23C681.35 714.21 684.06 715.07 687.03 714.66C693.57 713.74 699.11 706.86 699.12 699.63C699.13 696.42 698.07 693.58 696.14 691.65C694.49 689.99 692.35 689.12 689.94 689.12C689.46 689.12 688.98 689.16 688.49 689.23Z" id="iyHcg0o1Z"></path><linearGradient id="gradientb1kD0MsQG" gradientUnits="userSpaceOnUse" x1="678.42" y1="711.28" x2="697.09" y2="692.6"><stop style="stop-color: #ffffff;stop-opacity: 0" offset="0%"></stop><stop style="stop-color: #ffffff;stop-opacity: 0.0896" offset="4.4799999999999995%"></stop><stop style="stop-color: #ffffff;stop-opacity: 1" offset="50%"></stop><stop style="stop-color: #ffffff;stop-opacity: 0.0896" offset="95.52000000000001%"></stop><stop style="stop-color: #ffffff;stop-opacity: 0" offset="100%"></stop></linearGradient><path d="M685.48 673.62C685.94 673.62 686.49 673.57 687.11 673.49C690.47 673.01 691.35 672.44 692.26 667.93C696.54 646.43 698.81 629.59 698.83 619.25C698.84 614.52 697.96 611.13 696.27 609.44C695.87 609.03 694.63 607.79 691.2 607.79C690.41 607.79 689.55 607.86 688.64 607.99C683.22 608.75 677 611.23 676.98 623.74C676.96 634.07 679.16 650.25 683.36 670.53C683.88 673.01 684.37 673.47 684.39 673.49C684.39 673.49 684.39 673.49 684.39 673.49C684.58 673.57 684.94 673.62 685.48 673.62Z" id="c8E1WzYj2B"></path><linearGradient id="gradienti3TnDu3bB" gradientUnits="userSpaceOnUse" x1="669.22" y1="658.32" x2="707.18" y2="620.35"><stop style="stop-color: #ffffff;stop-opacity: 0" offset="0%"></stop><stop style="stop-color: #ffffff;stop-opacity: 0.0896" offset="4.4799999999999995%"></stop><stop style="stop-color: #ffffff;stop-opacity: 1" offset="50%"></stop><stop style="stop-color: #ffffff;stop-opacity: 0.0896" offset="95.52000000000001%"></stop><stop style="stop-color: #ffffff;stop-opacity: 0" offset="100%"></stop></linearGradient><path d="M671.39 704.24C671.37 710.58 674.45 715.68 679.08 718.15C680.89 714.95 695.42 689.39 697.24 686.19C694.57 684.53 691.32 683.78 687.79 684.27C678.72 685.55 671.4 694.46 671.39 704.24ZM697.17 668.92C701.3 648.15 703.81 630.61 703.83 619.26C703.84 615.6 703.37 612.46 702.36 609.93C699.69 614.63 678.32 652.22 675.65 656.92C676.47 661.58 677.41 666.47 678.46 671.55C679.62 677.06 681.66 679.3 687.8 678.44C693.94 677.58 695.99 674.76 697.17 668.92Z" id="cJanzmKzX"></path><linearGradient id="gradientd2de6sViHu" gradientUnits="userSpaceOnUse" x1="657.42" y1="697.33" x2="723.59" y2="631.16"><stop style="stop-color: #ffffff;stop-opacity: 1" offset="0%"></stop><stop style="stop-color: #ffffff;stop-opacity: 0" offset="50%"></stop><stop style="stop-color: #ffffff;stop-opacity: 1" offset="100%"></stop></linearGradient></defs><g><g><use xlink:href="#cWvEWa2qs" opacity="1" fill="#af690e" fill-opacity="1"></use><g><use xlink:href="#cWvEWa2qs" opacity="1" fill-opacity="0" stroke="#000000" stroke-width="1" stroke-opacity="0"></use></g></g><g><use xlink:href="#b4YVzBnCmM" opacity="1" fill="#a7640b" fill-opacity="1"></use><g><use xlink:href="#b4YVzBnCmM" opacity="1" fill-opacity="0" stroke="#000000" stroke-width="1" stroke-opacity="0"></use></g></g><g><use xlink:href="#e23SlOhdZf" opacity="1" fill="#db831a" fill-opacity="1"></use><g><use xlink:href="#e23SlOhdZf" opacity="1" fill-opacity="0" stroke="#000000" stroke-width="1" stroke-opacity="0"></use></g></g><g><use xlink:href="#a4oKENryW0" opacity="1" fill="#db831a" fill-opacity="1"></use><g><use xlink:href="#a4oKENryW0" opacity="1" fill-opacity="0" stroke="#000000" stroke-width="1" stroke-opacity="0"></use></g></g><g><use xlink:href="#iyHcg0o1Z" opacity="1" fill="url(#gradientb1kD0MsQG)"></use><g><use xlink:href="#iyHcg0o1Z" opacity="1" fill-opacity="0" stroke="#000000" stroke-width="1" stroke-opacity="0"></use></g></g><g><use xlink:href="#c8E1WzYj2B" opacity="1" fill="url(#gradienti3TnDu3bB)"></use><g><use xlink:href="#c8E1WzYj2B" opacity="1" fill-opacity="0" stroke="#000000" stroke-width="1" stroke-opacity="0"></use></g></g><g><use xlink:href="#cJanzmKzX" opacity="1" fill="url(#gradientd2de6sViHu)"></use><g><use xlink:href="#cJanzmKzX" opacity="1" fill-opacity="0" stroke="#000000" stroke-width="1" stroke-opacity="0"></use></g></g></g></svg>