<?xml version="1.0" encoding="UTF-8" standalone="no"?>
<!DOCTYPE svg PUBLIC "-//W3C//DTD SVG 1.1//EN" "http://www.w3.org/Graphics/SVG/1.1/DTD/svg11.dtd">
<svg version="1.1" xmlns="http://www.w3.org/2000/svg" xmlns:xlink="http://www.w3.org/1999/xlink" preserveAspectRatio="xMidYMid meet" viewBox="798.2729421820394 32.682774110601514 110.39107011870112 139.6564493527494" width="106.39" height="135.66"><defs><path d="M892.83 94.11C887.81 91.38 882.78 88.64 877.75 85.91C875.18 84.51 872.61 83.11 870.04 81.71C868.01 80.61 865.63 80.39 863.38 80.7C861.35 80.99 851.22 82.41 832.98 84.97L855.77 97.37C874.01 94.81 884.14 93.39 886.17 93.1C886.66 93.03 887.15 93 887.64 92.98C887.9 92.97 887.53 92.98 887.64 92.98C889.43 92.92 891.25 93.24 892.83 94.11Z" id="bnj0iTb38"></path><path d="M900.49 47.57C896.63 45.47 892.77 43.38 888.91 41.28C885.07 39.18 881.26 36.92 877.33 34.99C877.33 34.99 877.32 34.98 877.32 34.98C874.16 33.42 870.37 33.51 866.96 33.99C862.13 34.67 823.43 40.11 818.6 40.79C813.1 41.56 807.5 43.6 804.01 48.13C800.32 52.93 799.42 59.2 799.41 65.09C799.4 72.54 799.29 132.1 799.27 139.54C799.26 145.34 800.82 151.95 806.15 155.13C809.82 157.32 813.67 159.23 817.42 161.27C821.4 163.43 825.37 165.6 829.35 167.76C823.72 164.7 822.06 157.89 822.07 151.94C822.08 144.5 822.19 84.94 822.2 77.49C822.21 71.72 823.06 65.53 826.62 60.78C830.14 56.1 835.76 53.98 841.39 53.19C846.23 52.51 884.92 47.07 889.76 46.39C890.41 46.3 891.06 46.23 891.71 46.18C892.14 46.15 891.58 46.19 891.71 46.18C894.66 45.95 897.84 46.13 900.49 47.57Z" id="cherPcoEy"></path><path d="M905.66 58.35C905.65 65.6 902.27 73.02 889.71 74.78C887.45 75.1 876.15 76.69 855.81 79.55L855.77 97.37C874.01 94.81 884.14 93.39 886.17 93.1C894.21 91.97 898.29 98.02 898.27 105.12C898.26 112.22 894.16 119.42 886.12 120.55C884.09 120.83 873.96 122.25 855.72 124.82C855.7 138.26 855.68 145.73 855.68 147.22C855.66 159.37 849.21 167.68 838.84 169.14C828.46 170.6 822.05 164.09 822.07 151.94C822.08 144.5 822.19 84.94 822.21 77.49C822.23 62.34 828.38 55.01 841.39 53.19C844.62 52.73 860.74 50.47 889.76 46.39C900.37 49.52 905.67 53.51 905.66 58.35Z" id="b5L3cAcNR3"></path><path d="M890.45 51.34C885.62 52.02 846.92 57.46 842.09 58.14C833.17 59.39 827.23 63.16 827.21 77.5C827.19 84.95 827.08 144.51 827.07 151.95C827.06 156.61 828.13 160.15 830.18 162.2C831.97 164 834.7 164.67 838.14 164.18C846.09 163.07 850.66 156.88 850.68 147.21C850.68 144.97 850.72 127.05 850.72 124.81C850.72 122.32 852.56 120.21 855.02 119.86C858.06 119.44 882.38 116.02 885.42 115.59C890.83 114.83 893.26 109.78 893.27 105.11C893.28 102.57 892.58 100.41 891.35 99.19C890.31 98.14 888.82 97.78 886.87 98.05C883.83 98.48 859.51 101.9 856.47 102.32C855.03 102.53 853.58 102.1 852.49 101.14C851.4 100.19 850.77 98.81 850.77 97.36C850.78 95.58 850.8 81.32 850.81 79.54C850.81 77.05 852.64 74.94 855.11 74.59C858.5 74.12 885.62 70.31 889.01 69.83C899.32 68.38 900.65 62.93 900.66 58.33C900.67 56.49 900.39 54.01 899.03 52.66C898 51.62 896.2 51.09 893.67 51.09C892.7 51.09 891.61 51.18 890.45 51.34Z" id="a3vt2MmBJ"></path><linearGradient id="gradientg14iHMuBWP" gradientUnits="userSpaceOnUse" x1="809.17" y1="141.19" x2="898.36" y2="51.99"><stop style="stop-color: #ffffff;stop-opacity: 0" offset="0%"></stop><stop style="stop-color: #ffffff;stop-opacity: 0.0896" offset="4.4799999999999995%"></stop><stop style="stop-color: #ffffff;stop-opacity: 1" offset="50%"></stop><stop style="stop-color: #ffffff;stop-opacity: 0.0896" offset="95.52000000000001%"></stop><stop style="stop-color: #ffffff;stop-opacity: 0" offset="100%"></stop></linearGradient><path d="M866.85 49.61L822.11 128.32C822.09 142.49 822.07 150.37 822.07 151.94C822.05 163.37 827.72 169.8 837.04 169.31C838.29 167.12 844.51 156.17 855.7 136.48L855.72 124.82L862.9 123.81L879.85 93.99L855.77 97.37L855.8 79.54C876.14 76.69 887.44 75.1 889.7 74.78C890.11 74.72 890.49 74.64 890.88 74.57C892.2 72.24 902.8 53.59 904.13 51.26C902.12 47.55 897.87 45.25 889.76 46.39C886.7 46.82 879.07 47.89 866.85 49.61Z" id="c1dcXo7AHj"></path><linearGradient id="gradientadBRnsOLU" gradientUnits="userSpaceOnUse" x1="811.16" y1="150.25" x2="907.42" y2="53.99"><stop style="stop-color: #ffffff;stop-opacity: 1" offset="0%"></stop><stop style="stop-color: #ffffff;stop-opacity: 0" offset="50%"></stop><stop style="stop-color: #ffffff;stop-opacity: 1" offset="100%"></stop></linearGradient></defs><g><g><use xlink:href="#bnj0iTb38" opacity="1" fill="#b21117" fill-opacity="1"></use><g><use xlink:href="#bnj0iTb38" opacity="1" fill-opacity="0" stroke="#000000" stroke-width="1" stroke-opacity="0"></use></g></g><g><use xlink:href="#cherPcoEy" opacity="1" fill="#a90f14" fill-opacity="1"></use><g><use xlink:href="#cherPcoEy" opacity="1" fill-opacity="0" stroke="#000000" stroke-width="1" stroke-opacity="0"></use></g></g><g><use xlink:href="#b5L3cAcNR3" opacity="1" fill="#d2181f" fill-opacity="1"></use><g><use xlink:href="#b5L3cAcNR3" opacity="1" fill-opacity="0" stroke="#000000" stroke-width="1" stroke-opacity="0"></use></g></g><g><use xlink:href="#a3vt2MmBJ" opacity="1" fill="url(#gradientg14iHMuBWP)"></use><g><use xlink:href="#a3vt2MmBJ" opacity="1" fill-opacity="0" stroke="#000000" stroke-width="1" stroke-opacity="0"></use></g></g><g><use xlink:href="#c1dcXo7AHj" opacity="1" fill="url(#gradientadBRnsOLU)"></use><g><use xlink:href="#c1dcXo7AHj" opacity="1" fill-opacity="0" stroke="#000000" stroke-width="1" stroke-opacity="0"></use></g></g></g></svg>