<?xml version="1.0" encoding="UTF-8" standalone="no"?>
<!DOCTYPE svg PUBLIC "-//W3C//DTD SVG 1.1//EN" "http://www.w3.org/Graphics/SVG/1.1/DTD/svg11.dtd">
<svg version="1.1" xmlns="http://www.w3.org/2000/svg" xmlns:xlink="http://www.w3.org/1999/xlink" preserveAspectRatio="xMidYMid meet" viewBox="927.2131785048251 32.97634270547409 131.28385855180215 136.9653617107989" width="127.28" height="132.97"><defs><path d="M1032.63 147.73L1009.84 135.33C1009.83 137.23 1009.83 138.28 1009.83 138.49C1009.82 142.28 1011.52 145.52 1014.5 147.14C1016.78 148.38 1035.01 158.3 1037.29 159.54C1034.31 157.92 1032.62 154.68 1032.62 150.89C1032.62 150.89 1032.62 154.68 1032.62 150.89C1032.62 150.47 1032.63 149.42 1032.63 147.73Z" id="dYfIRfBZA"></path><path d="M1024.12 124.78C1024.12 124.78 1024.11 124.77 1024.11 124.77C1024.42 123.94 1024.7 123.07 1024.93 122.17C1022.65 120.93 1004.42 111.01 1002.14 109.77C1000.5 116.05 996.61 121.45 990.54 124.04C984.78 126.5 976.89 127.51 971.18 124.4C973.46 125.64 991.69 135.56 993.97 136.8C999.13 139.61 1005.88 138.92 1011.28 137.21C1016.97 135.41 1021.35 131.35 1023.68 125.87C1023.79 125.61 1023.57 126.11 1023.68 125.87C1023.83 125.51 1023.98 125.15 1024.12 124.78Z" id="a1pOZLQ7eH"></path><path d="M1024.12 124.78C1020.17 122.63 1016.23 120.49 1012.28 118.34C1009.66 116.91 1007.03 115.49 1004.41 114.06C1003.6 113.62 1002.8 113.18 1001.99 112.75C1001.81 112.64 1001.62 112.54 1001.44 112.44C1001.14 112.28 1001.77 111.07 1001.86 110.77C1001.96 110.44 1002.05 110.1 1002.14 109.77C1006.08 111.91 1010.03 114.06 1013.97 116.21C1016.6 117.64 1019.22 119.06 1021.85 120.49C1022.65 120.93 1023.46 121.37 1024.26 121.8C1024.45 121.91 1024.64 122.01 1024.82 122.11C1025.15 122.29 1024.55 123.52 1024.45 123.83C1024.35 124.14 1024.23 124.46 1024.12 124.78" id="bxt0PurjJ"></path><path d="M1048.67 97.77C1043.06 94.72 1037.45 91.67 1031.84 88.61C1029.34 87.25 1026.84 85.57 1024.15 84.61C1021.85 83.8 1019.34 83.69 1016.95 84.03C1014.78 84.33 997.48 86.76 995.32 87.07C990.04 87.81 985.97 91.32 984.61 96.49C983.37 101.26 983.93 107.4 988.71 110C990.99 111.24 1009.23 121.16 1011.51 122.4C1006.88 119.88 1006.25 114.11 1007.28 109.44C1008.47 104.03 1012.63 100.24 1018.11 99.47C1020.27 99.16 1037.58 96.73 1039.74 96.43C1040.39 96.34 1041.04 96.29 1041.7 96.27C1042.04 96.25 1041.55 96.27 1041.7 96.27C1044.1 96.19 1046.54 96.61 1048.67 97.77Z" id="b6qVofDY6U"></path><path d="M991.87 64.48C995.9 66.67 998.31 70.89 1002.31 73.06C1004.59 74.3 1022.82 84.22 1025.1 85.46C1021.41 83.46 1018.98 79.22 1014.67 76.88C1007.07 72.75 1018.98 79.22 1014.67 76.88C1007.07 72.75 999.47 68.61 991.87 64.48Z" id="b5V85PgALa"></path><path d="M961.56 75.03C967.78 65.18 976.73 57.4 987.19 52.34C994.75 48.68 1002.98 46.93 1011.34 46.48C1019.44 46.04 1028.06 46.82 1035.31 50.76C1029.47 47.58 1023.62 44.4 1017.78 41.22C1015.19 39.81 1012.63 38.26 1009.91 37.11C1007.57 36.11 1005.11 35.41 1002.61 34.91C997.08 33.82 991.38 33.79 985.79 34.29C980.06 34.79 974.47 35.92 969.07 37.95C958.59 41.91 949.24 48.74 942.33 57.56C934.99 66.93 930.87 78.07 929.07 89.76C928.16 95.64 928.06 101.7 928.38 107.63C928.66 112.7 929.33 117.76 930.6 122.67C932.56 130.24 936.01 137.51 941.52 143.13C944.01 145.68 946.89 147.84 950.02 149.55C952.3 150.79 970.53 160.71 972.81 161.95C958.06 153.92 952.35 137.24 951.26 121.36C950.97 117.23 950.95 113.1 951.19 108.97C951.24 108.15 951.17 109.4 951.19 108.97C951.89 97.02 955.13 85.2 961.56 75.03Z" id="hstfKW33D"></path><path d="M1047.1 68.27C1047.08 75.52 1041.52 84.98 1030.99 86.46C1020.18 87.98 1019.91 73.35 1005.15 75.43C993.9 77.01 984.68 87.29 984.63 110.01C984.6 129.25 989.4 140.72 1006.35 138.34C1016.73 136.88 1022.59 131.17 1024.93 122.17C1024.12 122.28 1017.57 123.2 1016.75 123.32C1011.64 124.03 1006.82 120.29 1006.83 113.51C1006.85 105.94 1010.81 100.49 1018.11 99.47C1020.27 99.16 1037.58 96.73 1039.74 96.43C1049.68 95.03 1055.51 101.78 1055.5 111.4C1055.49 114.65 1055.44 140.65 1055.44 143.9C1055.42 151.15 1053.07 159.21 1043.71 160.52C1036.85 161.49 1032.61 156.88 1032.62 150.89C1032.62 150.57 1032.63 148.05 1032.63 147.73C1027.06 157.82 1013.76 164.73 1002.21 166.36C978.68 169.66 950.94 159.84 951.02 114.1C951.1 71.2 980.36 50.53 1004.03 47.2C1037.94 42.43 1047.11 59.43 1047.1 68.27Z" id="a7LMtxAS"></path><path d="M1004.73 52.15C986.68 54.69 956.1 70.59 956.02 114.11C955.99 131.36 960.05 144.19 968.1 152.25C976.1 160.26 986.6 161.94 994 161.94C996.45 161.94 998.98 161.76 1001.52 161.41C1011.14 160.05 1023.41 154.09 1028.25 145.32C1029.36 143.32 1031.67 142.32 1033.88 142.89C1036.09 143.46 1037.63 145.46 1037.63 147.74C1037.63 148.06 1037.62 150.58 1037.62 150.9C1037.62 152.43 1038.08 153.74 1038.9 154.56C1039.82 155.48 1041.24 155.82 1043.02 155.57C1045.04 155.29 1050.42 154.53 1050.44 143.89C1050.44 140.64 1050.49 114.65 1050.5 111.4C1050.5 107.93 1049.55 105.05 1047.8 103.3C1046.09 101.59 1043.57 100.94 1040.44 101.38C1038.27 101.68 1020.97 104.12 1018.81 104.42C1013.06 105.23 1011.84 109.81 1011.84 113.52C1011.83 115.22 1012.29 116.58 1013.15 117.45C1013.9 118.2 1014.94 118.52 1016.06 118.37C1016.88 118.25 1023.42 117.33 1024.24 117.22C1025.9 116.98 1027.56 117.59 1028.67 118.84C1029.78 120.09 1030.19 121.81 1029.77 123.43C1026.82 134.75 1018.96 141.62 1007.04 143.29C998.62 144.47 992.05 142.71 987.42 138.07C982.08 132.73 979.61 123.81 979.63 110C979.69 77.47 997.01 71.52 1004.46 70.48C1005.64 70.31 1006.8 70.23 1007.91 70.23C1016.09 70.23 1020.57 74.69 1023.83 77.94C1026.86 80.96 1027.97 81.84 1030.29 81.51C1038.33 80.38 1042.09 72.94 1042.1 68.26C1042.1 65.77 1040.92 61.93 1037.6 58.6C1032.88 53.87 1025.11 51.37 1015.14 51.37C1011.91 51.37 1008.41 51.63 1004.73 52.15Z" id="h1cLvDysGb"></path><linearGradient id="gradienti1LuN9bU50" gradientUnits="userSpaceOnUse" x1="968.55" y1="152.7" x2="1050.12" y2="71.12"><stop style="stop-color: #ffffff;stop-opacity: 0" offset="0%"></stop><stop style="stop-color: #ffffff;stop-opacity: 0.0896" offset="4.4799999999999995%"></stop><stop style="stop-color: #ffffff;stop-opacity: 1" offset="50%"></stop><stop style="stop-color: #ffffff;stop-opacity: 0.0896" offset="95.52000000000001%"></stop><stop style="stop-color: #ffffff;stop-opacity: 0" offset="100%"></stop></linearGradient><path d="M986.3 95.17C983.41 100.24 960.35 140.82 957.47 145.89C963.63 157.88 973.54 163.89 984.25 166.02C985.82 163.27 998.31 141.28 999.88 138.53C988.15 137.32 984.6 126.53 984.63 110.01C984.65 104.29 985.24 99.37 986.3 95.17ZM994.92 79.99C997.94 77.43 1001.43 75.95 1005.15 75.43C1019.16 73.46 1020.12 86.51 1029.41 86.57C1030.93 83.88 1043.15 62.39 1044.67 59.71C1040.81 52.88 1031.81 46.1 1014.02 46.39C1010.2 53.11 996.83 76.63 994.92 79.99ZM1009.77 121.12C1010.61 119.64 1014.83 112.22 1022.42 98.86C1019.83 99.23 1018.4 99.43 1018.11 99.47C1010.81 100.49 1006.85 105.94 1006.83 113.51C1006.83 116.84 1007.99 119.43 1009.77 121.12Z" id="a9LL3qQEFX"></path><linearGradient id="gradientb3vkSIDPAE" gradientUnits="userSpaceOnUse" x1="957.07" y1="148.27" x2="1045.7" y2="59.64"><stop style="stop-color: #ffffff;stop-opacity: 1" offset="0%"></stop><stop style="stop-color: #ffffff;stop-opacity: 0" offset="50%"></stop><stop style="stop-color: #ffffff;stop-opacity: 1" offset="100%"></stop></linearGradient></defs><g><g><use xlink:href="#dYfIRfBZA" opacity="1" fill="#357a87" fill-opacity="1"></use><g><use xlink:href="#dYfIRfBZA" opacity="1" fill-opacity="0" stroke="#000000" stroke-width="1" stroke-opacity="0"></use></g></g><g><use xlink:href="#a1pOZLQ7eH" opacity="1" fill="#387f8c" fill-opacity="1"></use><g><use xlink:href="#a1pOZLQ7eH" opacity="1" fill-opacity="0" stroke="#000000" stroke-width="1" stroke-opacity="0"></use></g></g><g><use xlink:href="#bxt0PurjJ" opacity="1" fill="#367b89" fill-opacity="1"></use><g><use xlink:href="#bxt0PurjJ" opacity="1" fill-opacity="0" stroke="#000000" stroke-width="1" stroke-opacity="0"></use></g></g><g><use xlink:href="#b6qVofDY6U" opacity="1" fill="#4492a1" fill-opacity="1"></use><g><use xlink:href="#b6qVofDY6U" opacity="1" fill-opacity="0" stroke="#000000" stroke-width="1" stroke-opacity="0"></use></g></g><g><use xlink:href="#b5V85PgALa" opacity="1" fill="#367b89" fill-opacity="1"></use><g><use xlink:href="#b5V85PgALa" opacity="1" fill-opacity="0" stroke="#000000" stroke-width="1" stroke-opacity="0"></use></g></g><g><use xlink:href="#hstfKW33D" opacity="1" fill="#4492a1" fill-opacity="1"></use><g><use xlink:href="#hstfKW33D" opacity="1" fill-opacity="0" stroke="#000000" stroke-width="1" stroke-opacity="0"></use></g></g><g><use xlink:href="#a7LMtxAS" opacity="1" fill="#56b4c6" fill-opacity="1"></use><g><use xlink:href="#a7LMtxAS" opacity="1" fill-opacity="0" stroke="#000000" stroke-width="1" stroke-opacity="0"></use></g></g><g><use xlink:href="#h1cLvDysGb" opacity="1" fill="url(#gradienti1LuN9bU50)"></use><g><use xlink:href="#h1cLvDysGb" opacity="1" fill-opacity="0" stroke="#000000" stroke-width="1" stroke-opacity="0"></use></g></g><g><use xlink:href="#a9LL3qQEFX" opacity="1" fill="url(#gradientb3vkSIDPAE)"></use><g><use xlink:href="#a9LL3qQEFX" opacity="1" fill-opacity="0" stroke="#000000" stroke-width="1" stroke-opacity="0"></use></g></g></g></svg>