<?xml version="1.0" encoding="UTF-8" standalone="no"?>
<!DOCTYPE svg PUBLIC "-//W3C//DTD SVG 1.1//EN" "http://www.w3.org/Graphics/SVG/1.1/DTD/svg11.dtd">
<svg version="1.1" xmlns="http://www.w3.org/2000/svg" xmlns:xlink="http://www.w3.org/1999/xlink" preserveAspectRatio="xMidYMid meet" viewBox="1090.2639422919017 29.652251062486847 127.05311408694274 143.81599666363476" width="123.05" height="139.82"><defs><path d="M1180.61 117.22L1157.82 104.83C1157.79 120.73 1157.77 129.56 1157.77 131.33C1157.75 139.14 1160.4 144.61 1165.05 147.14C1167.32 148.38 1185.56 158.3 1187.84 159.54C1183.19 157.01 1180.54 151.53 1180.56 143.72C1180.56 143.72 1180.54 151.53 1180.56 143.72C1180.57 140.19 1180.58 131.36 1180.61 117.22Z" id="d5E5OLWis"></path><path d="M1190.23 45.77C1195.03 42.89 1201.96 41.87 1207.03 44.63C1201.42 41.58 1195.81 38.52 1190.2 35.47C1187.68 34.1 1185.14 32.38 1182.42 31.44C1179.98 30.58 1177.3 30.49 1174.75 30.85C1169.64 31.57 1164.93 34.22 1161.95 38.48C1159.06 42.6 1157.92 47.8 1157.91 52.77C1157.91 54.2 1157.9 61.35 1157.87 74.23L1180.66 86.63C1180.69 73.75 1180.7 66.6 1180.7 65.17C1180.71 63.59 1180.83 62 1181.08 60.43C1181.12 60.15 1181 60.94 1181.08 60.43C1181.99 54.52 1185 48.9 1190.23 45.77Z" id="aaSeA3X2s"></path><path d="M1124.99 78.85C1134.81 77.47 1144.63 76.09 1154.45 74.71C1155.29 74.59 1156.12 74.47 1156.95 74.36C1157.21 74.32 1157.61 74.18 1157.87 74.23C1158.2 74.29 1158.61 74.63 1158.9 74.79C1159.8 75.28 1160.7 75.77 1161.6 76.26C1166.93 79.15 1172.26 82.05 1177.58 84.95C1178.61 85.51 1179.64 86.07 1180.67 86.63C1170.84 88.01 1161.02 89.39 1151.2 90.77C1150.06 90.93 1148.92 91.09 1147.78 91.25C1147.78 91.25 1147.78 91.25 1147.78 91.25C1137.65 85.74 1130.05 81.61 1124.99 78.85Z" id="bRwG1Ij8U"></path><path d="M1122.92 55.63C1127.8 52.33 1135.18 51.06 1140.54 53.97C1138.26 52.73 1120.02 42.81 1117.74 41.57C1111.89 38.39 1103.75 40.16 1098.79 44.23C1093.52 48.56 1091.42 55.5 1091.41 62.12C1091.4 69.97 1091.28 132.82 1091.26 140.67C1091.25 146.47 1092.81 153.08 1098.15 156.26C1101.81 158.44 1105.67 160.36 1109.42 162.4C1113.39 164.56 1117.36 166.72 1121.34 168.88C1115.71 165.82 1114.05 159.02 1114.06 153.07C1114.07 145.22 1114.19 82.37 1114.2 74.51C1114.2 73.69 1114.24 72.88 1114.3 72.09C1114.32 71.84 1114.24 72.88 1114.3 72.09C1114.79 65.7 1117.47 59.32 1122.92 55.63Z" id="aS21HWsNB"></path><path d="M1214.32 60.44C1214.3 68.3 1214.19 131.15 1214.17 139C1214.15 151.15 1207.7 159.46 1197.33 160.92C1186.95 162.38 1180.54 155.87 1180.56 143.72C1180.56 141.96 1180.58 133.12 1180.61 117.22L1147.72 121.85C1147.7 137.75 1147.68 146.58 1147.68 148.35C1147.65 160.49 1141.21 168.81 1130.83 170.27C1120.45 171.72 1114.03 165.22 1114.06 153.07C1114.07 145.22 1114.19 82.37 1114.2 74.51C1114.22 62.38 1120.67 54.05 1131.05 52.59C1141.43 51.14 1147.85 57.65 1147.82 69.79C1147.82 71.22 1147.81 78.37 1147.78 91.25L1180.67 86.63C1180.69 73.75 1180.7 66.6 1180.71 65.17C1180.73 53.03 1187.17 44.71 1197.55 43.25C1207.92 41.79 1214.34 48.31 1214.32 60.44Z" id="bHIQ6BglG"></path><path d="M1131.75 57.54C1123.79 58.66 1119.22 64.85 1119.2 74.52C1119.19 82.38 1119.07 145.23 1119.06 153.08C1119.05 157.73 1120.12 161.28 1122.17 163.32C1123.97 165.13 1126.7 165.79 1130.14 165.31C1138.09 164.2 1142.66 158.01 1142.68 148.34C1142.68 145.69 1142.72 124.49 1142.72 121.84C1142.73 119.35 1144.56 117.24 1147.03 116.9C1150.32 116.43 1176.62 112.74 1179.91 112.27C1181.35 112.07 1182.8 112.5 1183.89 113.45C1184.98 114.41 1185.61 115.79 1185.61 117.23C1185.6 119.88 1185.56 141.08 1185.56 143.73C1185.55 148.39 1186.62 151.93 1188.67 153.98C1190.46 155.78 1193.19 156.45 1196.63 155.97C1204.58 154.85 1209.15 148.66 1209.17 138.99C1209.18 131.14 1209.3 68.29 1209.32 60.44C1209.32 55.78 1208.25 52.24 1206.2 50.19C1204.41 48.39 1201.68 47.72 1198.24 48.2C1190.29 49.32 1185.72 55.51 1185.7 65.18C1185.7 67.32 1185.67 84.49 1185.66 86.64C1185.66 89.13 1183.82 91.23 1181.36 91.58C1178.07 92.04 1151.77 95.74 1148.48 96.2C1147.04 96.41 1145.59 95.97 1144.5 95.02C1143.41 94.07 1142.78 92.69 1142.78 91.24C1142.79 89.1 1142.82 71.93 1142.82 69.78C1142.83 65.13 1141.75 61.59 1139.71 59.54C1138.29 58.11 1136.31 57.39 1133.83 57.39C1133.17 57.39 1132.47 57.44 1131.75 57.54Z" id="c3H1amM1V"></path><linearGradient id="gradientcxMG11jwy" gradientUnits="userSpaceOnUse" x1="1114.9" y1="156.05" x2="1213.48" y2="57.47"><stop style="stop-color: #ffffff;stop-opacity: 0" offset="0%"></stop><stop style="stop-color: #ffffff;stop-opacity: 0.0896" offset="4.4799999999999995%"></stop><stop style="stop-color: #ffffff;stop-opacity: 1" offset="50%"></stop><stop style="stop-color: #ffffff;stop-opacity: 0.0896" offset="95.52000000000001%"></stop><stop style="stop-color: #ffffff;stop-opacity: 0" offset="100%"></stop></linearGradient><path d="M1180.71 65.17C1180.7 66.6 1180.69 73.75 1180.67 86.63L1153.31 90.47C1130.07 131.36 1117.16 154.07 1114.58 158.61C1116.28 167.14 1122.17 171.48 1130.83 170.26C1141.21 168.81 1147.65 160.49 1147.68 148.35C1147.68 146.58 1147.7 137.75 1147.72 121.85L1175.95 117.88C1198.28 78.6 1210.68 56.78 1213.16 52.41C1210.87 45.54 1205.32 42.16 1197.55 43.25C1187.17 44.71 1180.73 53.03 1180.71 65.17Z" id="e3vtspv7g"></path><linearGradient id="gradientb2piJ1Wj5Z" gradientUnits="userSpaceOnUse" x1="1111.37" y1="159.58" x2="1217.02" y2="53.93"><stop style="stop-color: #ffffff;stop-opacity: 1" offset="0%"></stop><stop style="stop-color: #ffffff;stop-opacity: 0" offset="50%"></stop><stop style="stop-color: #ffffff;stop-opacity: 1" offset="100%"></stop></linearGradient></defs><g><g><use xlink:href="#d5E5OLWis" opacity="1" fill="#15725f" fill-opacity="1"></use><g><use xlink:href="#d5E5OLWis" opacity="1" fill-opacity="0" stroke="#000000" stroke-width="1" stroke-opacity="0"></use></g></g><g><use xlink:href="#aaSeA3X2s" opacity="1" fill="#238872" fill-opacity="1"></use><g><use xlink:href="#aaSeA3X2s" opacity="1" fill-opacity="0" stroke="#000000" stroke-width="1" stroke-opacity="0"></use></g></g><g><use xlink:href="#bRwG1Ij8U" opacity="1" fill="#278f78" fill-opacity="1"></use><g><use xlink:href="#bRwG1Ij8U" opacity="1" fill-opacity="0" stroke="#000000" stroke-width="1" stroke-opacity="0"></use></g></g><g><use xlink:href="#aS21HWsNB" opacity="1" fill="#20826d" fill-opacity="1"></use><g><use xlink:href="#aS21HWsNB" opacity="1" fill-opacity="0" stroke="#000000" stroke-width="1" stroke-opacity="0"></use></g></g><g><use xlink:href="#bHIQ6BglG" opacity="1" fill="#33a78c" fill-opacity="1"></use><g><use xlink:href="#bHIQ6BglG" opacity="1" fill-opacity="0" stroke="#000000" stroke-width="1" stroke-opacity="0"></use></g></g><g><use xlink:href="#c3H1amM1V" opacity="1" fill="url(#gradientcxMG11jwy)"></use><g><use xlink:href="#c3H1amM1V" opacity="1" fill-opacity="0" stroke="#000000" stroke-width="1" stroke-opacity="0"></use></g></g><g><use xlink:href="#e3vtspv7g" opacity="1" fill="url(#gradientb2piJ1Wj5Z)"></use><g><use xlink:href="#e3vtspv7g" opacity="1" fill-opacity="0" stroke="#000000" stroke-width="1" stroke-opacity="0"></use></g></g></g></svg>