<?xml version="1.0" encoding="UTF-8" standalone="no"?>
<!DOCTYPE svg PUBLIC "-//W3C//DTD SVG 1.1//EN" "http://www.w3.org/Graphics/SVG/1.1/DTD/svg11.dtd">
<svg version="1.1" xmlns="http://www.w3.org/2000/svg" xmlns:xlink="http://www.w3.org/1999/xlink" preserveAspectRatio="xMidYMid meet" viewBox="1246.7519522397527 34.265648765986434 60.55110413909165 134.52932208652257" width="56.55" height="130.53"><defs><path d="M1279.38 50.98C1284.26 47.66 1291.65 46.38 1297.02 49.3C1294.74 48.06 1276.5 38.14 1274.22 36.9C1268.38 33.72 1260.23 35.49 1255.28 39.56C1250.01 43.88 1247.91 50.82 1247.9 57.44C1247.88 65.3 1247.77 128.14 1247.75 136C1247.74 141.8 1249.3 148.41 1254.64 151.59C1258.3 153.77 1262.16 155.69 1265.91 157.73C1269.88 159.89 1273.85 162.05 1277.83 164.21C1272.2 161.15 1270.53 154.35 1270.55 148.4C1270.56 140.54 1270.68 77.7 1270.69 69.84C1270.69 69.02 1270.73 68.21 1270.79 67.42C1270.81 67.16 1270.73 68.21 1270.79 67.42C1271.28 61.05 1273.93 54.66 1279.38 50.98Z" id="a4mkQYqse"></path><path d="M1304.3 65.12C1304.29 72.97 1304.17 135.82 1304.16 143.67C1304.14 155.82 1297.69 164.13 1287.31 165.59C1276.94 167.05 1270.52 160.54 1270.54 148.4C1270.56 140.54 1270.68 77.7 1270.69 69.84C1270.71 57.7 1277.16 49.38 1287.53 47.92C1297.91 46.46 1304.32 52.98 1304.3 65.12Z" id="b9azXfuCP"></path><path d="M1288.23 52.87C1280.28 53.99 1275.71 60.18 1275.69 69.85C1275.68 77.71 1275.56 140.55 1275.55 148.41C1275.54 153.06 1276.61 156.6 1278.66 158.65C1280.45 160.45 1283.18 161.12 1286.62 160.64C1294.57 159.52 1299.14 153.34 1299.16 143.66C1299.17 135.81 1299.29 72.96 1299.3 65.11C1299.31 60.45 1298.23 56.91 1296.19 54.86C1294.77 53.44 1292.79 52.72 1290.31 52.72C1289.65 52.72 1288.95 52.77 1288.23 52.87Z" id="aQXnXr6xI"></path><linearGradient id="gradientcw3QvQKBH" gradientUnits="userSpaceOnUse" x1="1257.09" y1="137.09" x2="1317.75" y2="76.43"><stop style="stop-color: #ffffff;stop-opacity: 0" offset="0%"></stop><stop style="stop-color: #ffffff;stop-opacity: 0.0896" offset="4.4799999999999995%"></stop><stop style="stop-color: #ffffff;stop-opacity: 1" offset="50%"></stop><stop style="stop-color: #ffffff;stop-opacity: 0.0896" offset="95.52000000000001%"></stop><stop style="stop-color: #ffffff;stop-opacity: 0" offset="100%"></stop></linearGradient><path d="M1270.62 106.35C1270.58 131.58 1270.55 145.59 1270.55 148.4C1270.53 155.4 1272.67 160.52 1276.47 163.32C1278.32 160.07 1287.56 143.8 1304.21 114.51C1304.27 84.87 1304.3 68.41 1304.3 65.12C1304.31 59.95 1303.15 55.82 1301.02 52.87C1296.96 60 1286.83 77.83 1270.62 106.35Z" id="c1f8Ro0sIw"></path><linearGradient id="gradienta1b6GZDju" gradientUnits="userSpaceOnUse" x1="1254.9" y1="141.94" x2="1322.49" y2="74.35"><stop style="stop-color: #ffffff;stop-opacity: 1" offset="0%"></stop><stop style="stop-color: #ffffff;stop-opacity: 0" offset="50%"></stop><stop style="stop-color: #ffffff;stop-opacity: 1" offset="100%"></stop></linearGradient></defs><g><g><use xlink:href="#a4mkQYqse" opacity="1" fill="#208334" fill-opacity="1"></use><g><use xlink:href="#a4mkQYqse" opacity="1" fill-opacity="0" stroke="#000000" stroke-width="1" stroke-opacity="0"></use></g></g><g><use xlink:href="#b9azXfuCP" opacity="1" fill="#32a242" fill-opacity="1"></use><g><use xlink:href="#b9azXfuCP" opacity="1" fill-opacity="0" stroke="#000000" stroke-width="1" stroke-opacity="0"></use></g></g><g><use xlink:href="#aQXnXr6xI" opacity="1" fill="url(#gradientcw3QvQKBH)"></use><g><use xlink:href="#aQXnXr6xI" opacity="1" fill-opacity="0" stroke="#000000" stroke-width="1" stroke-opacity="0"></use></g></g><g><use xlink:href="#c1f8Ro0sIw" opacity="1" fill="url(#gradienta1b6GZDju)"></use><g><use xlink:href="#c1f8Ro0sIw" opacity="1" fill-opacity="0" stroke="#000000" stroke-width="1" stroke-opacity="0"></use></g></g></g></svg>