<?xml version="1.0" encoding="UTF-8" standalone="no"?>
<!DOCTYPE svg PUBLIC "-//W3C//DTD SVG 1.1//EN" "http://www.w3.org/Graphics/SVG/1.1/DTD/svg11.dtd">
<svg version="1.1" xmlns="http://www.w3.org/2000/svg" xmlns:xlink="http://www.w3.org/1999/xlink" preserveAspectRatio="xMidYMid meet" viewBox="87.43861324385075 216.1216936098528 106.98043438485543 138.83060636168773" width="102.98" height="134.83"><defs><path d="M167.32 232.24C172.13 229.36 179.06 228.33 184.14 231.1C178.52 228.04 172.91 224.99 167.3 221.94C164.78 220.57 162.25 218.86 159.53 217.9C157.08 217.05 154.41 216.96 151.85 217.32C146.84 218.02 142.27 220.56 139.27 224.67C136.22 228.84 135.02 234.13 135.01 239.24C135 244.68 134.92 288.21 134.91 293.65C134.9 298.04 134.78 302.91 132.89 306.95C131.95 308.95 130.46 310.54 128.35 311.27C126.38 311.95 123.96 312.1 122.08 311.08C126.63 313.56 131.19 316.04 135.75 318.52C137.97 319.72 140.19 320.93 142.41 322.14C144.22 323.12 145.86 324.19 147.98 324.19C157.26 324.19 157.69 312.88 157.7 306.05C157.71 300.61 157.79 257.08 157.81 251.64C157.81 250.05 157.93 248.47 158.18 246.9C158.22 246.61 158.1 247.41 158.18 246.9C159.1 241 162.08 235.37 167.32 232.24Z" id="am7pzePLJ"></path><path d="M118.73 305.47C123.31 302.25 130.51 300.77 135.62 303.55C133.34 302.31 115.11 292.39 112.83 291.15C112.03 290.72 111.17 290.39 110.27 290.16C110.27 290.16 110.24 290.14 110.24 290.14C105.11 288.81 98.8 290.56 94.81 293.94C90.9 297.26 89.17 302.3 88.64 307.26C87.6 316.99 90.59 326.85 98.51 332.99C102.19 335.84 106.61 337.8 110.68 340.01C115.47 342.62 120.26 345.23 125.05 347.84C120.47 345.34 116.65 341.58 114.25 336.93C111.62 331.83 110.87 326.04 111.36 320.37C111.41 319.78 111.34 320.61 111.36 320.37C111.86 314.66 113.87 308.89 118.73 305.47Z" id="b7TjwEnU"></path><path d="M133.03 302.54C125.43 298.41 117.83 294.27 110.23 290.14C112.05 290.61 113.63 291.6 115.27 292.49C117.86 293.9 120.45 295.31 123.04 296.72C127.1 298.93 131.16 301.14 135.22 303.34C135.22 303.34 135.22 303.35 135.23 303.35C134.52 303 133.78 302.73 133.03 302.54" id="d6reQCg9Z"></path><path d="M135.23 303.35C127.63 299.21 120.03 295.08 112.43 290.95C116.35 292.86 120.13 295.13 123.96 297.21C127.85 299.32 131.73 301.44 135.62 303.55C135.49 303.48 135.36 303.41 135.23 303.35" id="a3IYCWkiQ"></path><path d="M191.42 246.91C191.41 253.07 191.32 302.28 191.3 308.43C191.26 334.46 170.48 348.58 150.31 351.41C126.78 354.72 111.17 342.56 111.21 323.63C111.23 311.8 116.07 303.87 127.32 302.29C134.63 301.26 141.34 305.04 141.32 314.82C141.3 322.4 144.81 324.74 149.34 324.1C154.6 323.36 157.68 319.31 157.7 306.06C157.71 300.61 157.79 257.08 157.8 251.64C157.83 239.49 164.27 231.18 174.65 229.72C185.02 228.26 191.44 234.77 191.42 246.91Z" id="k3A5KjISVM"></path><path d="M128.02 307.24C122.96 307.95 116.23 310.42 116.21 323.64C116.2 330.08 118.33 335.63 122.37 339.68C127.12 344.44 134.19 346.95 142.82 346.95C145 346.95 147.29 346.78 149.61 346.46C166.51 344.08 186.26 332.69 186.3 308.42C186.31 302.27 186.41 253.05 186.42 246.9C186.43 242.25 185.35 238.7 183.31 236.66C181.51 234.86 178.79 234.19 175.34 234.67C167.39 235.79 162.82 241.97 162.81 251.64C162.8 257.09 162.72 300.62 162.7 306.06C162.69 315.94 161.23 327.48 150.04 329.05C149.34 329.15 148.64 329.2 147.98 329.2C147.98 329.2 147.98 329.2 147.98 329.2C144.86 329.2 142.13 328.12 140.1 326.08C137.58 323.56 136.31 319.77 136.32 314.81C136.32 312.95 136 310.4 134.41 308.82C133.01 307.42 131.02 307.12 129.6 307.12C129.09 307.12 128.56 307.16 128.02 307.24Z" id="d1qA6PepUc"></path><linearGradient id="gradientdiHjh6xyf" gradientUnits="userSpaceOnUse" x1="120.32" y1="337.63" x2="202.3" y2="255.65"><stop style="stop-color: #ffffff;stop-opacity: 0" offset="0%"></stop><stop style="stop-color: #ffffff;stop-opacity: 0.0896" offset="4.4799999999999995%"></stop><stop style="stop-color: #ffffff;stop-opacity: 1" offset="50%"></stop><stop style="stop-color: #ffffff;stop-opacity: 0.0896" offset="95.52000000000001%"></stop><stop style="stop-color: #ffffff;stop-opacity: 0" offset="100%"></stop></linearGradient><path d="M157.79 259.95C157.74 287.61 157.71 302.98 157.7 306.05C157.68 319.31 154.6 323.36 149.34 324.1C144.81 324.74 141.31 322.4 141.32 314.82C141.33 307.95 138.01 304.05 133.51 302.69C131.57 306.09 116.09 333.33 114.16 336.73C119.01 346.35 129.56 352.2 143.74 351.94C146.91 346.35 162.79 318.41 191.38 268.11C191.4 255.39 191.42 248.33 191.42 246.91C191.44 234.9 185.16 228.42 174.99 229.69C172.7 233.72 166.96 243.81 157.79 259.95Z" id="b6QAKOjOm"></path><linearGradient id="gradienta8ln8dIhRO" gradientUnits="userSpaceOnUse" x1="112.9" y1="337.28" x2="201.94" y2="248.24"><stop style="stop-color: #ffffff;stop-opacity: 1" offset="0%"></stop><stop style="stop-color: #ffffff;stop-opacity: 0" offset="50%"></stop><stop style="stop-color: #ffffff;stop-opacity: 1" offset="100%"></stop></linearGradient></defs><g><g><use xlink:href="#am7pzePLJ" opacity="1" fill="#846d47" fill-opacity="1"></use><g><use xlink:href="#am7pzePLJ" opacity="1" fill-opacity="0" stroke="#000000" stroke-width="1" stroke-opacity="0"></use></g></g><g><use xlink:href="#b7TjwEnU" opacity="1" fill="#846d47" fill-opacity="1"></use><g><use xlink:href="#b7TjwEnU" opacity="1" fill-opacity="0" stroke="#000000" stroke-width="1" stroke-opacity="0"></use></g></g><g><use xlink:href="#d6reQCg9Z" opacity="1" fill="#816a45" fill-opacity="1"></use><g><use xlink:href="#d6reQCg9Z" opacity="1" fill-opacity="0" stroke="#000000" stroke-width="1" stroke-opacity="0"></use></g></g><g><use xlink:href="#a3IYCWkiQ" opacity="1" fill="#7d6843" fill-opacity="1"></use><g><use xlink:href="#a3IYCWkiQ" opacity="1" fill-opacity="0" stroke="#000000" stroke-width="1" stroke-opacity="0"></use></g></g><g><use xlink:href="#k3A5KjISVM" opacity="1" fill="#a58759" fill-opacity="1"></use><g><use xlink:href="#k3A5KjISVM" opacity="1" fill-opacity="0" stroke="#000000" stroke-width="1" stroke-opacity="0"></use></g></g><g><use xlink:href="#d1qA6PepUc" opacity="1" fill="url(#gradientdiHjh6xyf)"></use><g><use xlink:href="#d1qA6PepUc" opacity="1" fill-opacity="0" stroke="#000000" stroke-width="1" stroke-opacity="0"></use></g></g><g><use xlink:href="#b6QAKOjOm" opacity="1" fill="url(#gradienta8ln8dIhRO)"></use><g><use xlink:href="#b6QAKOjOm" opacity="1" fill-opacity="0" stroke="#000000" stroke-width="1" stroke-opacity="0"></use></g></g></g></svg>