<?xml version="1.0" encoding="UTF-8" standalone="no"?>
<!DOCTYPE svg PUBLIC "-//W3C//DTD SVG 1.1//EN" "http://www.w3.org/Graphics/SVG/1.1/DTD/svg11.dtd">
<svg version="1.1" xmlns="http://www.w3.org/2000/svg" xmlns:xlink="http://www.w3.org/1999/xlink" preserveAspectRatio="xMidYMid meet" viewBox="229.3209366168221 215.65569635861442 123.82809628089632 142.6462744938945" width="119.83" height="138.65"><defs><path d="M296.28 305.02L273.48 292.63C287.21 313.69 294.83 325.4 296.36 327.74C297.87 330.1 299.54 331.67 301.34 332.65C303.62 333.89 321.86 343.81 324.14 345.04C322.33 344.07 320.66 342.5 319.15 340.14C319.15 340.14 320.66 342.5 319.15 340.14C316.1 335.46 308.47 323.75 296.28 305.02Z" id="bhS4UUYj2"></path><path d="M324.93 230.3C328.55 228.59 333.05 228.61 336.59 230.54C334.31 229.3 316.07 219.38 313.79 218.14C309.81 215.96 304.68 216.23 300.85 218.61C296.61 221.23 293.52 225.77 290.55 229.67C288.78 232 279.94 243.65 264.04 264.63L286.83 277.02C302.74 256.05 311.57 244.4 313.34 242.07C314.18 240.96 315.03 239.86 315.9 238.77C316.05 238.59 315.62 239.12 315.9 238.77C318.43 235.59 321.18 232.08 324.93 230.3Z" id="cjGZhIFeZ"></path><path d="M261.71 240.64C266.63 237.21 274.14 235.84 279.59 238.81C273.98 235.76 268.37 232.7 262.76 229.65C260.24 228.28 257.7 226.56 254.98 225.62C252.53 224.76 249.86 224.67 247.31 225.03C242.3 225.73 237.73 228.27 234.73 232.37C231.68 236.55 230.48 241.84 230.47 246.95C230.45 254.8 230.34 317.65 230.32 325.51C230.31 333.31 232.95 338.79 237.6 341.32C239.88 342.56 258.12 352.48 260.4 353.72C255.75 351.19 253.1 345.71 253.11 337.9C253.13 330.05 253.25 267.2 253.26 259.35C253.26 258.52 253.3 257.71 253.36 256.92C253.38 256.67 253.3 257.71 253.36 256.92C253.83 250.65 256.42 244.34 261.71 240.64Z" id="asav25ePb"></path><path d="M343.59 242.39C343.58 247.6 341.53 250.88 337.13 256.39C336.08 257.79 330.8 264.79 321.32 277.38C336.61 301.06 345.11 314.22 346.81 316.85C348.71 319.9 350.16 323.16 350.15 327.1C350.13 336.57 341.79 344.99 333.02 346.23C327.76 346.97 322.94 346.07 319.15 340.14C317.62 337.8 310 326.09 296.28 305.03L286.76 317.57C286.74 326.94 286.73 332.14 286.73 333.18C286.71 345.33 280.26 353.64 269.89 355.1C259.51 356.56 253.09 350.05 253.12 337.9C253.13 330.05 253.25 267.2 253.26 259.35C253.28 247.2 259.73 238.89 270.1 237.43C280.48 235.97 286.9 242.48 286.87 254.62C286.87 256.12 286.86 263.59 286.83 277.03C302.74 256.05 311.57 244.4 313.34 242.07C319.93 233.42 323.16 229.97 328.71 229.19C337.77 227.92 343.6 235.61 343.59 242.39Z" id="bfjuJxIPH"></path><path d="M270.8 242.38C262.85 243.5 258.28 249.68 258.26 259.36C258.25 267.21 258.13 330.06 258.11 337.91C258.11 342.57 259.18 346.11 261.22 348.16C263.02 349.96 265.75 350.63 269.19 350.15C277.14 349.03 281.71 342.84 281.73 333.17C281.73 331.61 281.75 319.12 281.76 317.56C281.76 316.47 282.11 315.41 282.77 314.54C283.73 313.29 291.34 303.26 292.29 302C293.28 300.71 294.83 299.96 296.46 300.03C298.08 300.09 299.58 300.93 300.47 302.3C302.75 305.81 321.05 333.9 323.34 337.41C325.48 340.77 327.59 341.45 330.09 341.45C330.77 341.45 331.5 341.39 332.33 341.27C338.37 340.42 345.14 334.18 345.15 327.09C345.15 324.69 344.38 322.41 342.57 319.49C340.02 315.55 319.66 284.03 317.11 280.09C315.98 278.33 316.06 276.05 317.32 274.37C318.9 272.27 331.55 255.48 333.14 253.38C333.16 253.35 333.19 253.31 333.22 253.27C337.53 247.88 338.58 245.74 338.59 242.38C338.59 240.23 337.59 237.89 335.98 236.27C334.22 234.51 331.99 233.78 329.4 234.14C326 234.62 323.74 236.67 317.32 245.1C314.67 248.59 293.47 276.55 290.81 280.04C289.52 281.76 287.27 282.45 285.23 281.76C283.2 281.07 281.83 279.16 281.83 277.01C281.84 274.77 281.87 256.85 281.87 254.61C281.88 249.96 280.81 246.42 278.76 244.37C277.34 242.95 275.37 242.23 272.89 242.23C272.23 242.23 271.52 242.28 270.8 242.38Z" id="dyq56Ew2O"></path><linearGradient id="gradientj6PjxEXmyK" gradientUnits="userSpaceOnUse" x1="253.17" y1="340.1" x2="346.49" y2="246.78"><stop style="stop-color: #ffffff;stop-opacity: 0" offset="0%"></stop><stop style="stop-color: #ffffff;stop-opacity: 0.0896" offset="4.4799999999999995%"></stop><stop style="stop-color: #ffffff;stop-opacity: 1" offset="50%"></stop><stop style="stop-color: #ffffff;stop-opacity: 0.0896" offset="95.52000000000001%"></stop><stop style="stop-color: #ffffff;stop-opacity: 0" offset="100%"></stop></linearGradient><path d="M313.34 242.07C311.69 244.24 303.45 255.11 288.62 274.66L253.12 337.14C253.12 337.6 253.12 337.85 253.12 337.9C253.09 350.05 259.51 356.56 269.89 355.1C280.26 353.64 286.71 345.33 286.73 333.18C286.73 332.14 286.74 326.93 286.76 317.57L296.28 305.02L303.39 315.94L323.44 280.66L321.32 277.38C330.8 264.79 336.08 257.79 337.13 256.39C337.26 256.23 337.36 256.09 337.49 255.94C338.06 254.93 342.64 246.86 343.22 245.85C343.46 244.77 343.58 243.64 343.59 242.39C343.6 235.61 337.77 227.92 328.71 229.19C323.16 229.97 319.93 233.42 313.34 242.07Z" id="d58vyphxbu"></path><linearGradient id="gradientc5gJF6ogkq" gradientUnits="userSpaceOnUse" x1="249.14" y1="343.14" x2="349.53" y2="242.75"><stop style="stop-color: #ffffff;stop-opacity: 1" offset="0%"></stop><stop style="stop-color: #ffffff;stop-opacity: 0" offset="50%"></stop><stop style="stop-color: #ffffff;stop-opacity: 1" offset="100%"></stop></linearGradient></defs><g><g><use xlink:href="#bhS4UUYj2" opacity="1" fill="#804b09" fill-opacity="1"></use><g><use xlink:href="#bhS4UUYj2" opacity="1" fill-opacity="0" stroke="#000000" stroke-width="1" stroke-opacity="0"></use></g></g><g><use xlink:href="#cjGZhIFeZ" opacity="1" fill="#965914" fill-opacity="1"></use><g><use xlink:href="#cjGZhIFeZ" opacity="1" fill-opacity="0" stroke="#000000" stroke-width="1" stroke-opacity="0"></use></g></g><g><use xlink:href="#asav25ePb" opacity="1" fill="#955813" fill-opacity="1"></use><g><use xlink:href="#asav25ePb" opacity="1" fill-opacity="0" stroke="#000000" stroke-width="1" stroke-opacity="0"></use></g></g><g><use xlink:href="#bfjuJxIPH" opacity="1" fill="#c37422" fill-opacity="1"></use><g><use xlink:href="#bfjuJxIPH" opacity="1" fill-opacity="0" stroke="#000000" stroke-width="1" stroke-opacity="0"></use></g></g><g><use xlink:href="#dyq56Ew2O" opacity="1" fill="url(#gradientj6PjxEXmyK)"></use><g><use xlink:href="#dyq56Ew2O" opacity="1" fill-opacity="0" stroke="#000000" stroke-width="1" stroke-opacity="0"></use></g></g><g><use xlink:href="#d58vyphxbu" opacity="1" fill="url(#gradientc5gJF6ogkq)"></use><g><use xlink:href="#d58vyphxbu" opacity="1" fill-opacity="0" stroke="#000000" stroke-width="1" stroke-opacity="0"></use></g></g></g></svg>