<?xml version="1.0" encoding="UTF-8" standalone="no"?>
<!DOCTYPE svg PUBLIC "-//W3C//DTD SVG 1.1//EN" "http://www.w3.org/Graphics/SVG/1.1/DTD/svg11.dtd">
<svg version="1.1" xmlns="http://www.w3.org/2000/svg" xmlns:xlink="http://www.w3.org/1999/xlink" preserveAspectRatio="xMidYMid meet" viewBox="376.0978785081468 222.82340523693372 110.08016299892427 132.22522327926865" width="106.08" height="128.23"><defs><path d="M477.52 316.62C471.91 313.56 466.3 310.51 460.69 307.46C458.23 306.12 455.74 304.42 453.08 303.51C450.8 302.72 448.32 302.65 445.95 302.99C443.6 303.32 431.86 304.97 410.72 307.94L433.52 320.34C454.65 317.37 466.39 315.72 468.74 315.39C469.39 315.3 470.04 315.24 470.69 315.22C471.05 315.2 470.54 315.22 470.69 315.22C473.03 315.13 475.44 315.48 477.52 316.62Z" id="bSdlltfI7"></path><path d="M408.74 239.46C413.63 236.15 421 234.89 426.36 237.8C420.75 234.75 415.14 231.7 409.53 228.64C407 227.27 404.47 225.56 401.75 224.61C399.3 223.75 396.63 223.66 394.08 224.02C389.07 224.73 384.5 227.26 381.5 231.37C378.44 235.53 377.25 240.84 377.24 245.94C377.22 253.38 377.11 312.94 377.1 320.39C377.09 326.21 377.81 333.49 382.94 337.21C384.5 338.34 386.32 339.16 388.01 340.07C390.12 341.22 392.22 342.36 394.32 343.51C398.53 345.8 402.74 348.09 406.95 350.38C400.8 347.03 399.88 339.06 399.89 332.79C399.9 325.34 400.02 265.78 400.03 258.34C400.03 257.51 400.07 256.71 400.13 255.92C400.15 255.66 400.07 256.71 400.13 255.92C400.62 249.52 403.29 243.14 408.74 239.46Z" id="aJaMCrdmR"></path><path d="M433.64 253.62C433.63 258.06 433.59 280.3 433.52 320.34C454.65 317.37 466.39 315.72 468.74 315.39C477.36 314.18 483.2 318.72 483.18 328.03C483.16 337.34 477.3 343.52 468.68 344.73C463.72 345.43 423.96 351.02 418.99 351.71C405.99 353.54 399.86 347.94 399.89 332.79C399.9 325.35 400.02 265.79 400.03 258.34C400.05 246.19 406.5 237.88 416.87 236.42C427.25 234.96 433.66 241.47 433.64 253.62Z" id="c6hH6Udp4i"></path><path d="M417.57 241.37C409.62 242.49 405.05 248.68 405.03 258.35C405.02 265.79 404.9 325.35 404.89 332.8C404.88 338.81 405.92 342.91 407.98 344.97C409.89 346.88 413.31 347.46 418.3 346.76C423.27 346.06 463.02 340.48 467.99 339.78C474.45 338.87 478.17 334.58 478.18 328.01C478.18 326.08 477.85 323.44 476.25 321.84C474.85 320.43 472.46 319.91 469.43 320.34C465.91 320.83 437.73 324.79 434.21 325.29C432.78 325.49 431.33 325.06 430.23 324.11C429.14 323.15 428.51 321.77 428.52 320.33C428.53 313.65 428.63 260.28 428.64 253.6C428.65 248.95 427.58 245.41 425.53 243.36C424.11 241.94 422.13 241.22 419.66 241.22C418.99 241.22 418.29 241.27 417.57 241.37Z" id="bxVEJDSqT"></path><linearGradient id="gradientg1mboinB7T" gradientUnits="userSpaceOnUse" x1="398.09" y1="335.08" x2="457.67" y2="275.5"><stop style="stop-color: #ffffff;stop-opacity: 0" offset="0%"></stop><stop style="stop-color: #ffffff;stop-opacity: 0.0896" offset="4.4799999999999995%"></stop><stop style="stop-color: #ffffff;stop-opacity: 1" offset="50%"></stop><stop style="stop-color: #ffffff;stop-opacity: 0.0896" offset="95.52000000000001%"></stop><stop style="stop-color: #ffffff;stop-opacity: 0" offset="100%"></stop></linearGradient><path d="M399.94 308.43C399.91 323.04 399.89 331.16 399.89 332.79C399.87 345.56 404.24 351.52 413.4 351.99C414.74 349.63 421.45 337.83 433.52 316.58C433.59 278.8 433.63 257.81 433.64 253.62C433.64 252.19 433.55 250.85 433.38 249.58C428.92 257.43 417.77 277.04 399.94 308.43Z" id="bkzTPNZ29"></path><linearGradient id="gradientb1coTIXUBr" gradientUnits="userSpaceOnUse" x1="390.07" y1="334.11" x2="453.99" y2="270.19"><stop style="stop-color: #ffffff;stop-opacity: 1" offset="0%"></stop><stop style="stop-color: #ffffff;stop-opacity: 0" offset="50%"></stop><stop style="stop-color: #ffffff;stop-opacity: 1" offset="100%"></stop></linearGradient></defs><g><g><use xlink:href="#bSdlltfI7" opacity="1" fill="#84a9a8" fill-opacity="1"></use><g><use xlink:href="#bSdlltfI7" opacity="1" fill-opacity="0" stroke="#000000" stroke-width="1" stroke-opacity="0"></use></g></g><g><use xlink:href="#aJaMCrdmR" opacity="1" fill="#7da0a0" fill-opacity="1"></use><g><use xlink:href="#aJaMCrdmR" opacity="1" fill-opacity="0" stroke="#000000" stroke-width="1" stroke-opacity="0"></use></g></g><g><use xlink:href="#c6hH6Udp4i" opacity="1" fill="#9cc6c4" fill-opacity="1"></use><g><use xlink:href="#c6hH6Udp4i" opacity="1" fill-opacity="0" stroke="#000000" stroke-width="1" stroke-opacity="0"></use></g></g><g><use xlink:href="#bxVEJDSqT" opacity="1" fill="url(#gradientg1mboinB7T)"></use><g><use xlink:href="#bxVEJDSqT" opacity="1" fill-opacity="0" stroke="#000000" stroke-width="1" stroke-opacity="0"></use></g></g><g><use xlink:href="#bkzTPNZ29" opacity="1" fill="url(#gradientb1coTIXUBr)"></use><g><use xlink:href="#bkzTPNZ29" opacity="1" fill-opacity="0" stroke="#000000" stroke-width="1" stroke-opacity="0"></use></g></g></g></svg>