<?xml version="1.0" encoding="UTF-8" standalone="no"?>
<!DOCTYPE svg PUBLIC "-//W3C//DTD SVG 1.1//EN" "http://www.w3.org/Graphics/SVG/1.1/DTD/svg11.dtd">
<svg version="1.1" xmlns="http://www.w3.org/2000/svg" xmlns:xlink="http://www.w3.org/1999/xlink" preserveAspectRatio="xMidYMid meet" viewBox="187.6262669772739 589.1776578536166 63.771766963958925 162.00508154673082" width="59.77" height="158.01"><defs><path d="M223.85 614.92C225 612.04 226.36 609.11 228.42 606.75C231.92 602.65 238.82 601.26 243.61 603.86C239.29 601.51 234.96 599.16 230.64 596.8C228.53 595.66 226.43 594.51 224.32 593.37C222.49 592.37 220.65 591.13 218.61 590.6C218.61 590.61 218.62 590.61 218.64 590.62L218.64 590.62C218.62 590.61 218.61 590.61 218.61 590.6C213.2 589.22 207.69 591.27 204.52 595.78C204.52 595.78 204.52 595.78 204.52 595.78L204.52 595.78C204.52 595.78 204.52 595.78 204.52 595.78C201.56 600.08 199.92 605.25 198.4 610.19C196.52 616.28 194.92 622.45 193.54 628.67C191.17 639.41 189.37 650.36 188.81 661.36C188.31 671.25 188.85 681.31 190.32 691.1C191.21 696.99 192.46 702.82 193.94 708.58C195.35 714.05 196.87 719.55 199.04 724.77C200.57 728.44 202.59 732.82 206.26 734.82C213.86 738.95 221.46 743.08 229.05 747.21C226.87 746.03 225.31 743.92 224.09 741.82C222.04 738.28 220.66 734.35 219.42 730.46C215.93 719.49 213.41 708.07 212.25 696.61C211.27 686.97 211.15 677.19 212.06 667.53C213.17 655.83 215.38 644.21 218.31 632.83C219.09 629.77 219.94 626.73 220.85 623.72C220.89 623.57 220.63 624.45 220.85 623.72C221.74 620.75 222.69 617.79 223.85 614.92Z" id="bviZId6BV"></path><path d="M248.4 613.49C248.38 623.75 239.87 644.5 239.81 674.78C239.76 703.17 247.02 723.61 247.01 732.28C246.99 740.8 242.6 746.94 234.56 748.07C227.11 749.11 222.44 743.3 216.64 720.62C212.43 704.03 211.44 692.5 211.46 678.77C211.49 666.31 214.29 646.36 220.18 625.97C225.03 609.21 228.55 603.83 235.85 602.8C243.46 601.73 248.41 605.61 248.4 613.49Z" id="a2Co1C0uVj"></path><path d="M236.55 607.75C232.84 608.27 230.03 609.92 224.98 627.36C218.73 649.02 216.48 668.12 216.46 678.77C216.44 691.52 217.27 702.76 221.49 719.39C226.94 740.71 230.66 743.18 232.98 743.18C233.25 743.18 233.55 743.16 233.86 743.11C240.58 742.17 242 736.69 242.01 732.27C242.01 729.68 241.09 725.06 240.01 719.7C237.8 708.67 234.78 693.56 234.81 674.77C234.85 655.08 238.34 639.39 240.89 627.93C242.29 621.66 243.39 616.71 243.4 613.48C243.4 612 243.16 609.99 242 608.83C241.2 608.03 239.94 607.63 238.25 607.63C237.71 607.63 237.14 607.67 236.55 607.75Z" id="bascubHxY"></path><linearGradient id="gradienthvrbduf7M" gradientUnits="userSpaceOnUse" x1="199.71" y1="711.29" x2="272.09" y2="638.92"><stop style="stop-color: #ffffff;stop-opacity: 0" offset="0%"></stop><stop style="stop-color: #ffffff;stop-opacity: 0.0896" offset="4.4799999999999995%"></stop><stop style="stop-color: #ffffff;stop-opacity: 1" offset="50%"></stop><stop style="stop-color: #ffffff;stop-opacity: 0.0896" offset="95.52000000000001%"></stop><stop style="stop-color: #ffffff;stop-opacity: 0" offset="100%"></stop></linearGradient><path d="M211.47 680.24C211.52 693.33 212.58 704.62 216.64 720.62C217.81 725.21 218.94 729.09 220.05 732.38C222.15 728.69 238.93 699.17 241.03 695.48C240.29 689.17 239.8 682.26 239.81 674.78C239.86 646.27 247.41 626.22 248.31 615.41C240.94 628.38 215.15 673.75 211.47 680.24Z" id="b5xVM8ol2s"></path><linearGradient id="gradientegrUE9Z6J" gradientUnits="userSpaceOnUse" x1="197.87" y1="710.21" x2="270.49" y2="637.59"><stop style="stop-color: #ffffff;stop-opacity: 1" offset="0%"></stop><stop style="stop-color: #ffffff;stop-opacity: 0" offset="50%"></stop><stop style="stop-color: #ffffff;stop-opacity: 1" offset="100%"></stop></linearGradient></defs><g><g><use xlink:href="#bviZId6BV" opacity="1" fill="#7da0a0" fill-opacity="1"></use><g><use xlink:href="#bviZId6BV" opacity="1" fill-opacity="0" stroke="#000000" stroke-width="1" stroke-opacity="0"></use></g></g><g><use xlink:href="#a2Co1C0uVj" opacity="1" fill="#9cc6c4" fill-opacity="1"></use><g><use xlink:href="#a2Co1C0uVj" opacity="1" fill-opacity="0" stroke="#000000" stroke-width="1" stroke-opacity="0"></use></g></g><g><use xlink:href="#bascubHxY" opacity="1" fill="url(#gradienthvrbduf7M)"></use><g><use xlink:href="#bascubHxY" opacity="1" fill-opacity="0" stroke="#000000" stroke-width="1" stroke-opacity="0"></use></g></g><g><use xlink:href="#b5xVM8ol2s" opacity="1" fill="url(#gradientegrUE9Z6J)"></use><g><use xlink:href="#b5xVM8ol2s" opacity="1" fill-opacity="0" stroke="#000000" stroke-width="1" stroke-opacity="0"></use></g></g></g></svg>