<?xml version="1.0" encoding="UTF-8" standalone="no"?>
<!DOCTYPE svg PUBLIC "-//W3C//DTD SVG 1.1//EN" "http://www.w3.org/Graphics/SVG/1.1/DTD/svg11.dtd">
<svg version="1.1" xmlns="http://www.w3.org/2000/svg" xmlns:xlink="http://www.w3.org/1999/xlink" preserveAspectRatio="xMidYMid meet" viewBox="508.59095114026684 213.54002700232382 144.73707645065792 146.47205245988306" width="140.74" height="142.47"><defs><path d="M620.18 275.14L597.38 262.74C597.32 295.87 597.29 314.27 597.28 317.95C597.28 320.8 597.66 323.76 598.95 326.34C600.14 328.73 601.97 330.18 604.28 331.44C611.52 335.38 618.77 339.32 626.02 343.26C621.39 340.74 620.06 335.25 620.07 330.35C620.07 330.35 620.06 336.96 620.07 330.35C620.09 322.99 620.12 304.58 620.18 275.14Z" id="a2lvjLezYN"></path><path d="M643.01 228.58C637.28 225.46 631.55 222.34 625.82 219.23C623.29 217.85 620.73 216.09 617.96 215.24C615.4 214.45 612.68 214.39 610.04 214.76C609.09 214.89 601.49 215.96 600.54 216.09C596.03 216.73 591.47 218.12 588.29 221.54C585.19 224.87 583.72 229.4 582.68 233.74C581.72 237.63 576.97 257.06 568.4 292.04L591.19 304.44C599.76 269.46 604.52 250.03 605.47 246.14C606.54 241.7 608.06 237.06 611.3 233.7C614.46 230.44 618.95 229.11 623.33 228.49C624.28 228.36 631.88 227.29 632.83 227.16C633.59 227.05 634.36 226.99 635.13 226.96C635.54 226.94 634.96 226.97 635.13 226.96C637.83 226.85 640.6 227.27 643.01 228.58Z" id="b1Xuw2F9UF"></path><path d="M562.89 283.19L540.09 270.79C549.15 306.32 554.18 326.06 555.18 330.01C556.17 333.91 557.55 336.29 559.8 337.51C562.08 338.75 580.31 348.67 582.59 349.91C580.35 348.69 578.96 346.31 577.98 342.41C577.98 342.41 578.96 346.31 577.98 342.41C575.96 334.52 570.93 314.77 562.89 283.19Z" id="agz5sirwJ"></path><path d="M570.46 238.51C564.5 235.27 558.54 232.03 552.58 228.78C550.22 227.5 547.85 225.85 545.22 225.17C542.5 224.47 539.57 224.66 536.81 225.05C535.86 225.18 528.27 226.25 527.32 226.38C524.14 226.83 520.98 227.92 518.33 229.75C518.33 229.75 518.34 229.76 518.34 229.76L518.34 229.76C518.34 229.76 518.33 229.75 518.33 229.75C512.25 233.97 509.76 241.41 509.74 248.56C509.73 256.73 509.61 322.1 509.59 330.27C509.58 336.88 511.78 341.14 515.54 343.19C517.81 344.43 536.05 354.35 538.33 355.59C534.57 353.54 532.37 349.28 532.38 342.67C532.4 334.5 532.52 269.13 532.54 260.96C532.54 255.79 533.78 250.36 536.96 246.19C540.17 241.98 544.92 239.51 550.12 238.78C551.06 238.65 558.66 237.58 559.61 237.45C560.25 237.36 560.9 237.29 561.54 237.23C561.93 237.19 561.41 237.24 561.54 237.23C564.53 236.96 567.76 237.05 570.46 238.51Z" id="aPvdHoa24"></path><path d="M650.33 244.41C650.31 252.58 650.19 317.95 650.18 326.12C650.16 337 644.15 343.2 635.09 344.48C626.03 345.75 620.05 341.23 620.07 330.35C620.08 326.67 620.11 308.26 620.18 275.14C610.81 313.26 605.61 334.44 604.57 338.67C602.66 346.67 599.29 349.51 591.26 350.64C583.21 351.77 579.86 349.87 577.98 342.41C576.97 338.46 571.94 318.72 562.89 283.19C562.65 316.34 562.52 334.76 562.5 338.44C562.48 349.33 556.47 355.53 547.41 356.8C538.35 358.08 532.36 353.56 532.38 342.67C532.4 334.5 532.52 269.13 532.54 260.96C532.56 249.29 538.56 240.41 550.12 238.78C551.07 238.65 558.66 237.58 559.61 237.45C570.28 235.95 574.66 239.27 577.41 250.08C578.33 253.7 582.93 271.82 591.2 304.44C599.76 269.46 604.52 250.02 605.47 246.14C608.27 234.55 612.66 229.99 623.33 228.49C623.96 228.4 627.13 227.96 632.83 227.16C644.51 230.88 650.34 236.62 650.33 244.41Z" id="a8K0xrD9MD"></path><path d="M560.3 242.4C559.35 242.53 551.76 243.6 550.81 243.73C539.29 245.35 537.55 255.23 537.54 260.97C537.52 269.14 537.4 334.51 537.38 342.68C537.38 346.25 538.14 348.9 539.6 350.36C541.03 351.79 543.5 352.3 546.71 351.85C553.85 350.85 557.48 346.33 557.5 338.43C557.54 332.9 557.85 288.68 557.89 283.15C557.91 280.64 559.79 278.53 562.28 278.22C564.78 277.92 567.11 279.52 567.73 281.95C569.24 287.88 581.31 335.25 582.82 341.18C584.03 345.94 585.18 345.94 587.47 345.94C588.34 345.94 589.35 345.86 590.56 345.69C596.68 344.83 598.31 343.38 599.71 337.51C601.27 331.15 613.76 280.3 615.32 273.94C615.92 271.49 618.26 269.87 620.78 270.17C623.29 270.48 625.18 272.62 625.18 275.15C625.17 280.67 625.08 324.84 625.07 330.36C625.07 333.92 625.83 336.58 627.29 338.04C628.72 339.47 631.19 339.98 634.4 339.53C641.54 338.53 645.16 334.01 645.18 326.11C645.19 317.94 645.31 252.57 645.33 244.4C645.34 239.75 644.26 236.21 642.21 234.16C640.71 232.66 638.66 231.93 635.94 231.93C635.18 231.93 634.37 231.99 633.53 232.11C632.58 232.24 624.98 233.31 624.03 233.45C616.12 234.56 612.87 236.82 610.33 247.31C608.9 253.15 597.48 299.8 596.05 305.63C595.51 307.86 593.51 309.43 591.22 309.44C591.21 309.44 591.2 309.44 591.2 309.44C588.91 309.44 586.91 307.89 586.35 305.67C584.97 300.24 573.94 256.75 572.56 251.31C570.38 242.73 567.86 242.11 563.98 242.11C562.92 242.11 561.68 242.21 560.3 242.4Z" id="n4JhYczDy"></path><linearGradient id="gradientb2w3YjpKgT" gradientUnits="userSpaceOnUse" x1="536.58" y1="347.34" x2="645.99" y2="237.94"><stop style="stop-color: #ffffff;stop-opacity: 0" offset="0%"></stop><stop style="stop-color: #ffffff;stop-opacity: 0.0896" offset="4.4799999999999995%"></stop><stop style="stop-color: #ffffff;stop-opacity: 1" offset="50%"></stop><stop style="stop-color: #ffffff;stop-opacity: 0.0896" offset="95.52000000000001%"></stop><stop style="stop-color: #ffffff;stop-opacity: 0" offset="100%"></stop></linearGradient><path d="M562.5 338.44C562.51 336.71 562.57 328.02 562.68 312.39C547.98 338.25 539.82 352.61 538.19 355.49C540.64 356.88 543.77 357.31 547.41 356.8C556.47 355.53 562.48 349.33 562.5 338.44ZM632.83 227.16C631.88 227.29 624.28 228.36 623.33 228.49C612.66 229.99 608.27 234.55 605.47 246.14C604.52 250.03 599.76 269.46 591.2 304.44L583.79 275.24L567.96 303.1C573.97 326.69 577.31 339.79 577.98 342.41C578.62 344.96 579.44 346.85 580.55 348.2C583.1 343.72 595.83 321.33 618.73 281.02L620.18 275.14L620.17 278.49L646.73 231.76C641.69 228.1 637.06 226.56 632.83 227.16Z" id="bztKVjODj"></path><linearGradient id="gradientb3fW4iZO5O" gradientUnits="userSpaceOnUse" x1="534.78" y1="352.08" x2="650.98" y2="235.88"><stop style="stop-color: #ffffff;stop-opacity: 1" offset="0%"></stop><stop style="stop-color: #ffffff;stop-opacity: 0" offset="50%"></stop><stop style="stop-color: #ffffff;stop-opacity: 1" offset="100%"></stop></linearGradient></defs><g><g><use xlink:href="#a2lvjLezYN" opacity="1" fill="#8b7d51" fill-opacity="1"></use><g><use xlink:href="#a2lvjLezYN" opacity="1" fill-opacity="0" stroke="#000000" stroke-width="1" stroke-opacity="0"></use></g></g><g><use xlink:href="#b1Xuw2F9UF" opacity="1" fill="#a89662" fill-opacity="1"></use><g><use xlink:href="#b1Xuw2F9UF" opacity="1" fill-opacity="0" stroke="#000000" stroke-width="1" stroke-opacity="0"></use></g></g><g><use xlink:href="#agz5sirwJ" opacity="1" fill="#897b50" fill-opacity="1"></use><g><use xlink:href="#agz5sirwJ" opacity="1" fill-opacity="0" stroke="#000000" stroke-width="1" stroke-opacity="0"></use></g></g><g><use xlink:href="#aPvdHoa24" opacity="1" fill="#a89662" fill-opacity="1"></use><g><use xlink:href="#aPvdHoa24" opacity="1" fill-opacity="0" stroke="#000000" stroke-width="1" stroke-opacity="0"></use></g></g><g><use xlink:href="#a8K0xrD9MD" opacity="1" fill="#d2ba7a" fill-opacity="1"></use><g><use xlink:href="#a8K0xrD9MD" opacity="1" fill-opacity="0" stroke="#000000" stroke-width="1" stroke-opacity="0"></use></g></g><g><use xlink:href="#n4JhYczDy" opacity="1" fill="url(#gradientb2w3YjpKgT)"></use><g><use xlink:href="#n4JhYczDy" opacity="1" fill-opacity="0" stroke="#000000" stroke-width="1" stroke-opacity="0"></use></g></g><g><use xlink:href="#bztKVjODj" opacity="1" fill="url(#gradientb3fW4iZO5O)"></use><g><use xlink:href="#bztKVjODj" opacity="1" fill-opacity="0" stroke="#000000" stroke-width="1" stroke-opacity="0"></use></g></g></g></svg>