<?xml version="1.0" encoding="UTF-8" standalone="no"?>
<!DOCTYPE svg PUBLIC "-//W3C//DTD SVG 1.1//EN" "http://www.w3.org/Graphics/SVG/1.1/DTD/svg11.dtd">
<svg version="1.1" xmlns="http://www.w3.org/2000/svg" xmlns:xlink="http://www.w3.org/1999/xlink" preserveAspectRatio="xMidYMid meet" viewBox="1001.645004669482 645.9498525567459 97.003006521938 46.77868040327962" width="93" height="42.78"><defs><path d="M1091.42 660.54C1085.93 657.55 1080.44 654.56 1074.94 651.57C1073.54 650.81 1072.14 650.04 1070.73 649.28C1069.59 648.66 1068.47 647.96 1067.23 647.55C1064.94 646.78 1062.39 646.86 1060.01 647.19C1055.57 647.82 1020.03 652.81 1015.59 653.44C1011.57 654 1007.38 655.52 1004.96 658.97C1002.56 662.38 1002.09 667.46 1003.26 671.41C1003.8 673.22 1004.86 674.85 1006.48 675.88C1008.85 677.4 1011.47 678.62 1013.95 679.96C1019.21 682.82 1024.47 685.69 1029.73 688.55C1025.22 686.1 1024.85 679.71 1026 675.28C1027.53 669.41 1032.73 666.63 1038.38 665.84C1042.82 665.21 1078.36 660.22 1082.81 659.59C1083.52 659.49 1084.24 659.43 1084.96 659.39C1085.38 659.37 1084.81 659.4 1084.96 659.39C1087.14 659.28 1089.47 659.47 1091.42 660.54Z" id="g31cH8wM7H"></path><path d="M1095.65 669.61C1095.64 676.4 1092.41 681.89 1082.76 683.25C1078.32 683.87 1042.78 688.87 1038.34 689.49C1028.69 690.85 1025.49 686.26 1025.5 679.47C1025.51 672.68 1028.74 667.19 1038.38 665.84C1041.34 665.42 1056.15 663.34 1082.81 659.59C1091.38 661.75 1095.66 665.09 1095.65 669.61Z" id="oAA2nj4DZ"></path><path d="M1083.5 664.54C1079.06 665.17 1043.52 670.16 1039.08 670.79C1031.55 671.84 1030.51 675.59 1030.5 679.48C1030.5 681.54 1030.89 683.06 1031.59 683.77C1032.38 684.56 1033.98 684.73 1035.18 684.73C1035.92 684.73 1036.75 684.66 1037.64 684.54C1042.08 683.91 1077.62 678.92 1082.07 678.3C1089.6 677.24 1090.64 673.49 1090.65 669.6C1090.65 667.54 1090.26 666.02 1089.56 665.31C1088.77 664.52 1087.17 664.35 1085.97 664.35C1085.23 664.35 1084.4 664.42 1083.5 664.54Z" id="a1R9V4XDTm"></path><linearGradient id="gradienta1DRZ5SFED" gradientUnits="userSpaceOnUse" x1="1041.47" y1="693.65" x2="1079.68" y2="655.44"><stop style="stop-color: #ffffff;stop-opacity: 0" offset="0%"></stop><stop style="stop-color: #ffffff;stop-opacity: 0.0896" offset="4.4799999999999995%"></stop><stop style="stop-color: #ffffff;stop-opacity: 1" offset="50%"></stop><stop style="stop-color: #ffffff;stop-opacity: 0.0896" offset="95.52000000000001%"></stop><stop style="stop-color: #ffffff;stop-opacity: 0" offset="100%"></stop></linearGradient><path d="M1045.81 664.79C1037.44 679.52 1032.79 687.71 1031.86 689.34C1033.59 689.78 1035.72 689.86 1038.34 689.49C1040.63 689.17 1052.1 687.56 1072.75 684.65C1081.36 669.5 1086.14 661.09 1087.1 659.4C1085.83 659.32 1084.41 659.37 1082.81 659.59C1077.87 660.29 1065.54 662.02 1045.81 664.79Z" id="aboqI3h8i"></path><linearGradient id="gradientb5sJvGhBFK" gradientUnits="userSpaceOnUse" x1="1038.26" y1="695.74" x2="1080.85" y2="653.16"><stop style="stop-color: #ffffff;stop-opacity: 1" offset="0%"></stop><stop style="stop-color: #ffffff;stop-opacity: 0" offset="50%"></stop><stop style="stop-color: #ffffff;stop-opacity: 1" offset="100%"></stop></linearGradient></defs><g><g><use xlink:href="#g31cH8wM7H" opacity="1" fill="#007fae" fill-opacity="1"></use><g><use xlink:href="#g31cH8wM7H" opacity="1" fill-opacity="0" stroke="#000000" stroke-width="1" stroke-opacity="0"></use></g></g><g><use xlink:href="#oAA2nj4DZ" opacity="1" fill="#009bd6" fill-opacity="1"></use><g><use xlink:href="#oAA2nj4DZ" opacity="1" fill-opacity="0" stroke="#000000" stroke-width="1" stroke-opacity="0"></use></g></g><g><use xlink:href="#a1R9V4XDTm" opacity="1" fill="url(#gradienta1DRZ5SFED)"></use><g><use xlink:href="#a1R9V4XDTm" opacity="1" fill-opacity="0" stroke="#000000" stroke-width="1" stroke-opacity="0"></use></g></g><g><use xlink:href="#aboqI3h8i" opacity="1" fill="url(#gradientb5sJvGhBFK)"></use><g><use xlink:href="#aboqI3h8i" opacity="1" fill-opacity="0" stroke="#000000" stroke-width="1" stroke-opacity="0"></use></g></g></g></svg>