<?xml version="1.0" encoding="UTF-8" standalone="no"?>
<!DOCTYPE svg PUBLIC "-//W3C//DTD SVG 1.1//EN" "http://www.w3.org/Graphics/SVG/1.1/DTD/svg11.dtd">
<svg version="1.1" xmlns="http://www.w3.org/2000/svg" xmlns:xlink="http://www.w3.org/1999/xlink" preserveAspectRatio="xMidYMid meet" viewBox="1113.9336503069374 618.6329061551584 99.0913639510859 101.54718886868852" width="95.09" height="97.55"><defs><path d="M1173.85 688.74L1151.05 676.34C1163.13 687.7 1169.84 694.02 1171.18 695.28C1171.76 695.82 1172.43 696.32 1173.15 696.72C1175.43 697.96 1193.66 707.88 1195.94 709.11C1195.22 708.72 1194.55 708.22 1193.97 707.68C1193.97 707.68 1194.55 708.22 1193.97 707.68C1191.29 705.15 1184.58 698.84 1173.85 688.74Z" id="c28Wks5N7"></path><path d="M1204.47 633.02C1198.27 629.65 1192.08 626.28 1185.88 622.91C1183.32 621.52 1180.58 619.43 1177.52 619.65C1174.97 619.83 1172.87 621.62 1171.31 623.51C1169.97 625.14 1163.23 633.28 1151.1 647.95L1173.9 660.35C1186.02 645.68 1192.76 637.54 1194.11 635.91C1194.48 635.45 1194.89 635.01 1195.31 634.6C1195.39 634.52 1195.17 634.73 1195.31 634.6C1197.86 632.12 1201.24 631.26 1204.47 633.02Z" id="amDhNC7Ld"></path><path d="M1140.52 701C1141.86 699.36 1148.6 691.16 1160.72 676.39L1137.93 663.99C1125.8 678.76 1119.07 686.96 1117.72 688.6C1115.92 690.8 1114.57 693.55 1115.02 696.46C1115.53 699.74 1117.9 702.34 1120.72 703.88C1128.21 707.95 1135.69 712.02 1143.17 716.09C1140.16 714.45 1137.72 711.21 1137.72 707.69C1137.72 707.41 1137.72 711.14 1137.72 707.69C1137.73 705.18 1138.96 702.89 1140.52 701Z" id="fSsa1xlDa"></path><path d="M1137.89 651.08C1138.13 648.86 1139.15 646.71 1140.41 644.9C1142.85 641.38 1147.43 637.74 1151.82 640.13C1147.15 637.58 1142.47 635.04 1137.79 632.5C1135.46 631.23 1133.12 629.95 1130.78 628.68C1128.86 627.64 1127.07 626.6 1124.81 627.05C1121.21 627.79 1118.48 630.95 1116.71 633.96C1115.77 635.55 1115.12 637.46 1115.04 639.3C1114.94 641.59 1116.18 643.69 1117.8 645.21C1119.14 646.47 1125.85 652.73 1137.92 663.99L1160.72 676.39C1148.64 665.12 1141.94 658.86 1140.6 657.61C1139.13 656.24 1140.6 657.61 1140.6 657.61C1138.77 655.91 1137.6 653.61 1137.89 651.08Z" id="f2j6Qekf5G"></path><path d="M1210.03 641.86C1210.02 644.08 1208.7 646.47 1207.23 648.25C1205.89 649.88 1199.15 658.03 1187.02 672.7C1199.1 684.06 1205.81 690.37 1207.15 691.63C1208.9 693.28 1209.93 695.18 1209.92 697.54C1209.91 702.76 1204.34 709.21 1199.52 709.89C1197.48 710.17 1195.43 709.05 1193.97 707.68C1192.63 706.41 1185.92 700.1 1173.85 688.74C1161.72 703.5 1154.99 711.7 1153.64 713.34C1152.17 715.12 1150.13 716.83 1148.08 717.12C1143.26 717.79 1137.72 712.9 1137.72 707.69C1137.73 705.33 1138.76 703.14 1140.52 701C1141.86 699.36 1148.6 691.16 1160.72 676.39C1148.64 665.12 1141.94 658.86 1140.6 657.61C1139.13 656.24 1137.82 654.22 1137.83 652.01C1137.84 646.8 1143.11 640.07 1147.93 639.4C1150.12 639.09 1152.02 639.93 1153.78 641.57C1155.12 642.83 1161.82 649.08 1173.9 660.35C1186.02 645.68 1192.76 637.54 1194.11 635.91C1195.87 633.77 1197.77 632.39 1199.96 632.08C1204.78 631.41 1210.04 636.66 1210.03 641.86Z" id="fEBRKZcep"></path><path d="M1148.63 644.35C1146.48 644.65 1142.83 649.06 1142.83 652.02C1142.83 652.43 1143.23 653.23 1144.01 653.96C1146.02 655.84 1162.12 670.86 1164.13 672.74C1166.06 674.54 1166.26 677.53 1164.58 679.57C1162.56 682.03 1146.4 701.71 1144.38 704.17C1142.73 706.18 1142.72 707.32 1142.72 707.7C1142.72 708.63 1143.27 709.74 1144.19 710.67C1145.19 711.66 1146.43 712.29 1147.38 712.17C1147.67 712.1 1148.66 711.52 1149.79 710.16C1151.81 707.7 1167.96 688.03 1169.98 685.57C1170.86 684.5 1172.14 683.84 1173.52 683.75C1174.91 683.66 1176.26 684.15 1177.27 685.1C1179.28 686.99 1195.39 702.14 1197.4 704.03C1198.09 704.68 1198.7 704.92 1198.88 704.93C1201.08 704.62 1204.92 700.36 1204.92 697.53C1204.92 696.94 1204.78 696.26 1203.73 695.27C1201.72 693.38 1185.61 678.23 1183.6 676.34C1181.68 674.53 1181.49 671.54 1183.17 669.51C1185.19 667.07 1201.36 647.51 1203.38 645.06C1204.58 643.6 1205.02 642.34 1205.02 641.85C1205.03 640.77 1204.37 639.4 1203.35 638.38C1202.35 637.38 1201.36 637.03 1200.82 637.03C1200.76 637.03 1200.71 637.03 1200.66 637.04C1199.72 637.17 1198.68 638.22 1197.97 639.08C1195.95 641.53 1179.77 661.09 1177.75 663.53C1176.87 664.6 1175.6 665.25 1174.22 665.34C1172.84 665.42 1171.49 664.94 1170.49 664C1168.47 662.13 1152.38 647.11 1150.36 645.23C1149.73 644.63 1149.21 644.33 1148.82 644.33C1148.76 644.33 1148.69 644.34 1148.63 644.35Z" id="aQBfTO8M"></path><linearGradient id="gradientaRSWpWo28" gradientUnits="userSpaceOnUse" x1="1141" y1="707.47" x2="1206.72" y2="641.75"><stop style="stop-color: #ffffff;stop-opacity: 0" offset="0%"></stop><stop style="stop-color: #ffffff;stop-opacity: 0.0896" offset="4.4799999999999995%"></stop><stop style="stop-color: #ffffff;stop-opacity: 1" offset="50%"></stop><stop style="stop-color: #ffffff;stop-opacity: 0.0896" offset="95.52000000000001%"></stop><stop style="stop-color: #ffffff;stop-opacity: 0" offset="100%"></stop></linearGradient><path d="M1199.96 632.08C1197.77 632.39 1195.87 633.77 1194.11 635.91C1192.76 637.54 1186.02 645.68 1173.9 660.35L1166.54 653.48L1156.02 672L1160.72 676.39C1148.6 691.16 1141.86 699.36 1140.51 701C1138.76 703.14 1137.73 705.33 1137.72 707.69C1137.71 712.9 1143.25 717.79 1148.08 717.12C1150.13 716.83 1152.17 715.12 1153.64 713.34C1154.99 711.7 1161.72 703.5 1173.84 688.74L1180.94 695.41L1191.47 676.88L1187.02 672.69C1199.15 658.02 1205.89 649.87 1207.23 648.24C1208.7 646.47 1210.02 644.08 1210.03 641.86C1210.04 636.66 1204.78 631.41 1199.96 632.08Z" id="a5SoBZD7xd"></path><linearGradient id="gradientgerCL1shB" gradientUnits="userSpaceOnUse" x1="1137.32" y1="710.87" x2="1210.11" y2="638.08"><stop style="stop-color: #ffffff;stop-opacity: 1" offset="0%"></stop><stop style="stop-color: #ffffff;stop-opacity: 0" offset="50%"></stop><stop style="stop-color: #ffffff;stop-opacity: 1" offset="100%"></stop></linearGradient></defs><g><g><use xlink:href="#c28Wks5N7" opacity="1" fill="#570054" fill-opacity="1"></use><g><use xlink:href="#c28Wks5N7" opacity="1" fill-opacity="0" stroke="#000000" stroke-width="1" stroke-opacity="0"></use></g></g><g><use xlink:href="#amDhNC7Ld" opacity="1" fill="#660864" fill-opacity="1"></use><g><use xlink:href="#amDhNC7Ld" opacity="1" fill-opacity="0" stroke="#000000" stroke-width="1" stroke-opacity="0"></use></g></g><g><use xlink:href="#fSsa1xlDa" opacity="1" fill="#60025e" fill-opacity="1"></use><g><use xlink:href="#fSsa1xlDa" opacity="1" fill-opacity="0" stroke="#000000" stroke-width="1" stroke-opacity="0"></use></g></g><g><use xlink:href="#f2j6Qekf5G" opacity="1" fill="#650663" fill-opacity="1"></use><g><use xlink:href="#f2j6Qekf5G" opacity="1" fill-opacity="0" stroke="#000000" stroke-width="1" stroke-opacity="0"></use></g></g><g><use xlink:href="#fEBRKZcep" opacity="1" fill="#821d80" fill-opacity="1"></use><g><use xlink:href="#fEBRKZcep" opacity="1" fill-opacity="0" stroke="#000000" stroke-width="1" stroke-opacity="0"></use></g></g><g><use xlink:href="#aQBfTO8M" opacity="1" fill="url(#gradientaRSWpWo28)"></use><g><use xlink:href="#aQBfTO8M" opacity="1" fill-opacity="0" stroke="#000000" stroke-width="1" stroke-opacity="0"></use></g></g><g><use xlink:href="#a5SoBZD7xd" opacity="1" fill="url(#gradientgerCL1shB)"></use><g><use xlink:href="#a5SoBZD7xd" opacity="1" fill-opacity="0" stroke="#000000" stroke-width="1" stroke-opacity="0"></use></g></g></g></svg>