<?xml version="1.0" encoding="UTF-8" standalone="no"?>
<!DOCTYPE svg PUBLIC "-//W3C//DTD SVG 1.1//EN" "http://www.w3.org/Graphics/SVG/1.1/DTD/svg11.dtd">
<svg version="1.1" xmlns="http://www.w3.org/2000/svg" xmlns:xlink="http://www.w3.org/1999/xlink" preserveAspectRatio="xMidYMid meet" viewBox="686.3229420619821 213.96939220693483 127.05110678288236 145.2581652544948" width="123.05" height="141.26"><defs><path d="M787.16 229.92C791.87 227.23 798.41 226.31 803.33 228.98C801.05 227.74 782.82 217.82 780.54 216.58C774.97 213.56 767.37 215.07 762.5 218.77C757.3 222.72 754.86 229.25 754.85 235.64C754.83 238.81 754.7 254.65 754.47 283.16L777.26 295.56C777.49 267.05 777.62 251.21 777.65 248.04C777.65 246.68 777.76 245.3 777.98 243.95C778.02 243.7 777.91 244.4 777.98 243.95C778.91 238.23 782.06 232.86 787.16 229.92Z" id="c2ZbiNtoif"></path><path d="M743.22 289.94L720.43 277.54C737.13 304.9 746.4 320.11 748.26 323.15C751.44 328.41 754.22 331.56 757.31 333.24C759.59 334.48 777.83 344.4 780.11 345.63C777.02 343.95 774.23 340.81 771.05 335.55C771.05 335.55 774.23 340.81 771.05 335.55C767.34 329.46 758.06 314.26 743.22 289.94Z" id="a2wTOc6OvQ"></path><path d="M720.78 239.38C726.69 236.28 735.02 234.97 741.11 238.28C733.45 234.11 725.83 229.82 718.09 225.77C718.06 225.76 717.82 225.62 717.79 225.6C714.68 224.09 711.19 223.81 707.79 224.15C703.93 224.53 699.96 225.65 696.66 227.74C690.21 231.82 687.49 238.96 687.47 246.38C687.46 254.44 687.34 318.92 687.32 326.98C687.31 332.58 688.59 339.19 693.88 342.21C701.45 346.53 709.21 350.55 716.87 354.72C711.44 351.76 710.11 345.06 710.12 339.38C710.13 331.32 710.25 266.84 710.27 258.78C710.27 257.97 710.3 257.18 710.36 256.41C710.38 256.16 710.3 257.18 710.36 256.41C710.89 249.27 714.31 242.79 720.78 239.38Z" id="a67ZVGnVQx"></path><path d="M740.58 238C732.98 233.87 725.38 229.74 717.78 225.6C721.74 227.56 725.57 229.83 729.45 231.94C733.34 234.05 737.23 236.17 741.11 238.28C740.94 238.18 740.76 238.09 740.58 238" id="a6liVDmSPY"></path><path d="M810.37 243.44C810.36 251.79 810.23 318.54 810.22 326.89C810.2 339.34 801.86 345.41 791.2 346.91C782.28 348.16 777.46 346.16 771.05 335.54C769.2 332.5 759.92 317.3 743.23 289.94C743 316.84 742.88 331.79 742.86 334.78C742.83 346.93 736.97 354.53 726.45 356.01C715.93 357.48 710.09 351.53 710.12 339.38C710.13 331.32 710.25 266.84 710.27 258.77C710.29 246.47 716.88 238.45 729.59 236.66C737.63 235.53 743.62 238 747.84 245.14C749.8 248.5 759.61 265.31 777.26 295.56C777.49 267.05 777.62 251.21 777.64 248.04C777.66 237.47 783.81 229.04 794.04 227.61C804.27 226.17 810.39 232.87 810.37 243.44Z" id="imHPsdwxl"></path><path d="M730.29 241.61C720.34 243.01 715.28 248.79 715.27 258.78C715.25 266.85 715.13 331.33 715.12 339.39C715.11 344.04 716.08 347.48 717.93 349.34C719.2 350.61 721 351.23 723.43 351.23C724.15 351.23 724.94 351.17 725.75 351.06C733.77 349.93 737.84 344.45 737.86 334.77C737.89 330.28 738.19 294.38 738.23 289.9C738.25 287.66 739.74 285.71 741.89 285.12C744.04 284.52 746.33 285.43 747.49 287.33C750.28 291.89 772.54 328.38 775.32 332.94C780.52 341.55 783.56 342.24 787 342.24C788.01 342.24 789.15 342.15 790.5 341.96C800.25 340.58 805.2 335.51 805.22 326.88C805.23 318.53 805.36 251.78 805.37 243.43C805.38 239.56 804.36 236.4 802.5 234.54C800.73 232.76 798.07 232.09 794.74 232.56C787.29 233.6 782.66 239.54 782.64 248.05C782.61 252.81 782.3 290.85 782.26 295.6C782.24 297.85 780.72 299.81 778.55 300.39C776.37 300.97 774.08 300.03 772.94 298.08C770 293.04 746.47 252.7 743.52 247.66C740.93 243.28 737.83 241.4 733.15 241.4C732.26 241.4 731.3 241.47 730.29 241.61Z" id="csovkTnPp"></path><linearGradient id="gradientd4jt0v0qdx" gradientUnits="userSpaceOnUse" x1="710.46" y1="341.86" x2="810.14" y2="242.18"><stop style="stop-color: #ffffff;stop-opacity: 0" offset="0%"></stop><stop style="stop-color: #ffffff;stop-opacity: 0.0896" offset="4.4799999999999995%"></stop><stop style="stop-color: #ffffff;stop-opacity: 1" offset="50%"></stop><stop style="stop-color: #ffffff;stop-opacity: 0.0896" offset="95.52000000000001%"></stop><stop style="stop-color: #ffffff;stop-opacity: 0" offset="100%"></stop></linearGradient><path d="M726.45 356.01C736.97 354.53 742.83 346.93 742.86 334.78C742.88 331.79 743 316.84 743.23 289.94L761.13 319.28L775.91 293.26L756.55 260.07L710.19 341.65C714.47 352.14 719.89 356.93 726.45 356.01ZM777.64 248.04C777.62 250.9 777.51 265.15 777.3 290.82C796.23 257.5 806.75 238.99 808.86 235.29C806.45 229.66 801.28 226.59 794.04 227.61C783.81 229.04 777.66 237.47 777.64 248.04Z" id="b1VI4DXTLT"></path><linearGradient id="gradientbqG6KgTtV" gradientUnits="userSpaceOnUse" x1="706.86" y1="345.34" x2="813.6" y2="238.59"><stop style="stop-color: #ffffff;stop-opacity: 1" offset="0%"></stop><stop style="stop-color: #ffffff;stop-opacity: 0" offset="50%"></stop><stop style="stop-color: #ffffff;stop-opacity: 1" offset="100%"></stop></linearGradient></defs><g><g><use xlink:href="#c2ZbiNtoif" opacity="1" fill="#b28309" fill-opacity="1"></use><g><use xlink:href="#c2ZbiNtoif" opacity="1" fill-opacity="0" stroke="#000000" stroke-width="1" stroke-opacity="0"></use></g></g><g><use xlink:href="#a2wTOc6OvQ" opacity="1" fill="#926b00" fill-opacity="1"></use><g><use xlink:href="#a2wTOc6OvQ" opacity="1" fill-opacity="0" stroke="#000000" stroke-width="1" stroke-opacity="0"></use></g></g><g><use xlink:href="#a67ZVGnVQx" opacity="1" fill="#ae8008" fill-opacity="1"></use><g><use xlink:href="#a67ZVGnVQx" opacity="1" fill-opacity="0" stroke="#000000" stroke-width="1" stroke-opacity="0"></use></g></g><g><use xlink:href="#a6liVDmSPY" opacity="1" fill="#aa7d06" fill-opacity="1"></use><g><use xlink:href="#a6liVDmSPY" opacity="1" fill-opacity="0" stroke="#000000" stroke-width="1" stroke-opacity="0"></use></g></g><g><use xlink:href="#imHPsdwxl" opacity="1" fill="#dfa412" fill-opacity="1"></use><g><use xlink:href="#imHPsdwxl" opacity="1" fill-opacity="0" stroke="#000000" stroke-width="1" stroke-opacity="0"></use></g></g><g><use xlink:href="#csovkTnPp" opacity="1" fill="url(#gradientd4jt0v0qdx)"></use><g><use xlink:href="#csovkTnPp" opacity="1" fill-opacity="0" stroke="#000000" stroke-width="1" stroke-opacity="0"></use></g></g><g><use xlink:href="#b1VI4DXTLT" opacity="1" fill="url(#gradientbqG6KgTtV)"></use><g><use xlink:href="#b1VI4DXTLT" opacity="1" fill-opacity="0" stroke="#000000" stroke-width="1" stroke-opacity="0"></use></g></g></g></svg>