<?xml version="1.0" encoding="UTF-8" standalone="no"?>
<!DOCTYPE svg PUBLIC "-//W3C//DTD SVG 1.1//EN" "http://www.w3.org/Graphics/SVG/1.1/DTD/svg11.dtd">
<svg version="1.1" xmlns="http://www.w3.org/2000/svg" xmlns:xlink="http://www.w3.org/1999/xlink" preserveAspectRatio="xMidYMid meet" viewBox="841.8018502016156 218.35509576985962 135.50030487108563 136.54272356874955" width="131.5" height="132.54"><defs><path d="M940.23 280.95C939.36 273.99 936.95 265.88 930.34 262.28C928.06 261.04 909.83 251.12 907.55 249.88C915.33 254.11 917.32 264.35 917.78 272.4C918.37 282.68 917.23 294.97 910.3 303.16C904.85 309.6 894.57 313.2 886.73 308.93C891.99 311.79 897.25 314.65 902.51 317.51C907.05 319.98 911.39 323.04 916.73 323.08C921.21 323.12 925.82 321.76 929.42 319.05C932.85 316.46 935.34 312.93 937.06 309.02C937.33 308.4 937 309.14 937.06 309.02C940.81 300.42 941.38 290.17 940.23 280.95Z" id="f4sFvSI1K5"></path><path d="M876.13 260.76C882.57 250.57 891.93 242.36 902.9 237.35C917.78 230.57 936.2 229.26 950.89 237.26C945.05 234.08 939.2 230.9 933.36 227.72C928.3 224.96 923.39 222.29 917.77 220.86C906.48 218.03 894.22 219.32 883.44 223.56C872.33 227.92 862.62 235.34 855.6 245.01C848.7 254.51 844.51 266.02 843.32 277.7C841.47 295.84 844.14 316.96 858.84 329.5C860.91 331.26 863.15 332.8 865.53 334.09C867.05 334.92 874.65 339.05 888.33 346.49C888.32 346.49 888.32 346.49 888.33 346.49C879.94 341.93 873.72 334.42 870.12 325.64C866.13 315.91 865.12 305.05 865.73 294.63C865.77 293.83 865.7 295.02 865.73 294.63C866.41 282.69 869.72 270.91 876.13 260.76Z" id="dm4neUkIJ"></path><path d="M974.3 284.17C974.23 325.34 948.03 347.31 919.83 351.27C891.62 355.24 865.49 340.62 865.57 299.45C865.64 259.69 892.13 236.26 920.05 232.34C947.95 228.42 974.38 244.41 974.3 284.17ZM919.88 322.88C933.9 320.91 940.65 307.34 940.68 288.89C940.72 270.43 934.02 258.76 919.99 260.73C905.96 262.71 899.22 276.26 899.18 294.72C899.15 313.17 905.84 324.85 919.88 322.88" id="c1qNioLdDw"></path><path d="M920.74 237.29C895.82 240.79 870.64 261.37 870.57 299.46C870.54 315.66 874.69 328.04 882.89 336.26C889.84 343.22 899.59 346.9 911.09 346.9C913.71 346.9 916.41 346.7 919.13 346.32C942.23 343.07 969.23 324.85 969.3 284.16C969.33 268.64 964.99 256.07 956.74 247.8C949.53 240.58 939.64 236.76 928.15 236.76C925.72 236.76 923.23 236.94 920.74 237.29ZM916.9 328.1C911.33 328.1 906.42 326.12 902.69 322.38C897.1 316.78 894.16 307.21 894.18 294.71C894.22 272.54 903.61 257.99 919.3 255.78C926.41 254.78 932.65 256.69 937.18 261.23C942.77 266.83 945.71 276.4 945.68 288.9C945.64 311.07 936.26 325.63 920.57 327.83C919.32 328.01 918.09 328.1 916.9 328.1C916.9 328.1 916.9 328.1 916.9 328.1Z" id="b28Cd6rfzm"></path><linearGradient id="gradientdhhBjzw7u" gradientUnits="userSpaceOnUse" x1="879.27" y1="332.64" x2="960.42" y2="251.48"><stop style="stop-color: #ffffff;stop-opacity: 0" offset="0%"></stop><stop style="stop-color: #ffffff;stop-opacity: 0.0896" offset="4.4799999999999995%"></stop><stop style="stop-color: #ffffff;stop-opacity: 1" offset="50%"></stop><stop style="stop-color: #ffffff;stop-opacity: 0.0896" offset="95.52000000000001%"></stop><stop style="stop-color: #ffffff;stop-opacity: 0" offset="100%"></stop></linearGradient><path d="M899.42 289.09C896.9 293.52 876.74 329 874.22 333.43C880.91 343.62 890.94 349.32 902.34 351.19C903.94 348.38 916.75 325.85 918.35 323.04C905.36 323.97 899.15 312.49 899.18 294.72C899.18 292.79 899.27 290.91 899.42 289.09ZM914.73 262.15C916.35 261.48 918.1 261 919.99 260.73C932.74 258.94 939.43 268.42 940.52 284.02C942.67 280.23 959.88 249.96 962.03 246.17C954.29 237.38 943.58 232.72 931.91 231.91C928.48 237.96 916.45 259.12 914.73 262.15Z" id="atpmbr2xY"></path><linearGradient id="gradientfebeCf5YV" gradientUnits="userSpaceOnUse" x1="874.13" y1="334.55" x2="962.33" y2="246.35"><stop style="stop-color: #ffffff;stop-opacity: 1" offset="0%"></stop><stop style="stop-color: #ffffff;stop-opacity: 0" offset="50%"></stop><stop style="stop-color: #ffffff;stop-opacity: 1" offset="100%"></stop></linearGradient></defs><g><g><use xlink:href="#f4sFvSI1K5" opacity="1" fill="#53436f" fill-opacity="1"></use><g><use xlink:href="#f4sFvSI1K5" opacity="1" fill-opacity="0" stroke="#000000" stroke-width="1" stroke-opacity="0"></use></g></g><g><use xlink:href="#dm4neUkIJ" opacity="1" fill="#635283" fill-opacity="1"></use><g><use xlink:href="#dm4neUkIJ" opacity="1" fill-opacity="0" stroke="#000000" stroke-width="1" stroke-opacity="0"></use></g></g><g><use xlink:href="#c1qNioLdDw" opacity="1" fill="#7a66a1" fill-opacity="1"></use><g><use xlink:href="#c1qNioLdDw" opacity="1" fill-opacity="0" stroke="#000000" stroke-width="1" stroke-opacity="0"></use></g></g><g><use xlink:href="#b28Cd6rfzm" opacity="1" fill="url(#gradientdhhBjzw7u)"></use><g><use xlink:href="#b28Cd6rfzm" opacity="1" fill-opacity="0" stroke="#000000" stroke-width="1" stroke-opacity="0"></use></g></g><g><use xlink:href="#atpmbr2xY" opacity="1" fill="url(#gradientfebeCf5YV)"></use><g><use xlink:href="#atpmbr2xY" opacity="1" fill-opacity="0" stroke="#000000" stroke-width="1" stroke-opacity="0"></use></g></g></g></svg>