<?xml version="1.0" encoding="UTF-8" standalone="no"?>
<!DOCTYPE svg PUBLIC "-//W3C//DTD SVG 1.1//EN" "http://www.w3.org/Graphics/SVG/1.1/DTD/svg11.dtd">
<svg version="1.1" xmlns="http://www.w3.org/2000/svg" xmlns:xlink="http://www.w3.org/1999/xlink" preserveAspectRatio="xMidYMid meet" viewBox="1006.7239420619819 220.4067076284578 122.33712867147756 137.90587796386586" width="118.34" height="133.91"><defs><path d="M1088.76 263.29C1086.48 262.05 1068.25 252.13 1065.97 250.89C1070.37 253.29 1071.2 258.97 1070.09 263.45C1068.83 268.54 1064.25 272.39 1059.11 273.11C1057.87 273.28 1051.69 274.15 1040.55 275.72L1063.34 288.12C1074.48 286.55 1080.66 285.68 1081.9 285.51C1086.62 284.85 1090.87 281.56 1092.52 277.07C1092.56 276.95 1092.49 277.14 1092.52 277.07C1094.21 272.41 1093.51 265.87 1088.76 263.29Z" id="e3LVIZmQBe"></path><path d="M1112.14 237.94C1107.65 235.5 1103.16 233.06 1098.67 230.62C1094.28 228.23 1089.91 225.37 1085.17 223.71C1076.36 220.62 1066.56 221.13 1057.45 222.41C1054.41 222.83 1030.09 226.25 1027.05 226.68C1021.55 227.45 1015.95 229.49 1012.47 234.02C1008.78 238.82 1007.87 245.08 1007.86 250.97C1007.85 258.48 1007.74 318.56 1007.72 326.06C1007.71 331.66 1008.99 338.27 1014.28 341.29C1021.85 345.61 1029.61 349.63 1037.27 353.8C1031.84 350.85 1030.51 344.14 1030.52 338.46C1030.53 330.96 1030.64 270.88 1030.66 263.37C1030.67 257.61 1031.51 251.41 1035.07 246.67C1038.58 241.99 1044.22 239.87 1049.84 239.08C1052.88 238.65 1077.2 235.23 1080.24 234.81C1081.51 234.63 1082.79 234.48 1084.06 234.34C1085 234.24 1083.8 234.37 1084.06 234.34C1093.37 233.37 1103.7 233.35 1112.14 237.94Z" id="d20fDiDyuo"></path><path d="M1126.06 267.63C1126 298.23 1105.82 309.58 1080.1 313.2C1078.98 313.36 1073.37 314.14 1063.29 315.56C1063.27 326.54 1063.26 332.64 1063.26 333.86C1063.23 346.01 1057.37 353.61 1046.85 355.09C1036.33 356.57 1030.5 350.61 1030.52 338.47C1030.53 330.96 1030.64 270.89 1030.66 263.38C1030.69 248.24 1036.83 240.91 1049.84 239.08C1051.87 238.8 1062 237.37 1080.24 234.81C1110.83 236.18 1126.1 247.13 1126.06 267.63ZM1081.9 285.51C1087.45 284.73 1093.31 280.12 1093.32 272.39C1093.34 264.82 1088.52 261.08 1080.34 262.23C1079.21 262.39 1073.56 263.18 1063.39 264.61L1063.34 288.12L1081.9 285.51" id="ah1aKrgr4"></path><path d="M1080.94 239.76C1077.9 240.18 1053.58 243.6 1050.54 244.03C1041.63 245.28 1035.68 249.05 1035.66 263.38C1035.64 270.89 1035.53 330.96 1035.52 338.47C1035.51 343.12 1036.48 346.56 1038.33 348.42C1039.98 350.07 1042.6 350.63 1046.15 350.14C1054.17 349.01 1058.24 343.53 1058.26 333.85C1058.26 332.02 1058.29 317.38 1058.29 315.55C1058.3 313.06 1060.13 310.95 1062.59 310.61C1064.28 310.37 1077.72 308.48 1079.4 308.24C1107.78 304.26 1121.02 291.35 1121.06 267.62C1121.08 257.62 1118.76 250.22 1114.18 245.62C1109.63 241.06 1102.63 238.85 1092.8 238.85C1089.23 238.85 1085.24 239.15 1080.94 239.76ZM1060.06 291.89C1058.96 290.94 1058.34 289.56 1058.34 288.11C1058.35 285.76 1058.38 266.95 1058.39 264.6C1058.39 262.11 1060.23 260 1062.69 259.66C1064.39 259.42 1077.95 257.52 1079.64 257.28C1085.73 256.42 1090.82 257.79 1094.18 261.15C1096.07 263.06 1098.33 266.55 1098.32 272.4C1098.3 282.81 1090.4 289.37 1082.6 290.46C1080.74 290.72 1065.89 292.81 1064.04 293.07C1063.81 293.1 1063.57 293.12 1063.34 293.12C1062.14 293.12 1060.97 292.69 1060.06 291.89Z" id="b1zdQjcHbE"></path><linearGradient id="gradientb1oa5OQK" gradientUnits="userSpaceOnUse" x1="1018.64" y1="328.73" x2="1107.96" y2="239.41"><stop style="stop-color: #ffffff;stop-opacity: 0" offset="0%"></stop><stop style="stop-color: #ffffff;stop-opacity: 0.0896" offset="4.4799999999999995%"></stop><stop style="stop-color: #ffffff;stop-opacity: 1" offset="50%"></stop><stop style="stop-color: #ffffff;stop-opacity: 0.0896" offset="95.52000000000001%"></stop><stop style="stop-color: #ffffff;stop-opacity: 0" offset="100%"></stop></linearGradient><path d="M1080.09 234.83L1030.55 322C1030.53 331.88 1030.52 337.37 1030.52 338.46C1030.5 350.61 1036.33 356.57 1046.85 355.09C1048.11 354.91 1049.29 354.64 1050.42 354.29C1051.27 352.79 1055.56 345.25 1063.26 331.7L1063.29 315.56L1073.22 314.16C1098.5 269.69 1112.54 244.98 1115.35 240.04C1107.01 233.66 1094.48 232.8 1080.24 234.81C1080.22 234.81 1080.17 234.82 1080.09 234.83ZM1063.34 288.12L1063.39 264.61C1073.56 263.18 1079.21 262.39 1080.34 262.23C1088.52 261.08 1093.34 264.82 1093.32 272.39C1093.31 280.12 1087.45 284.73 1081.9 285.51C1079.43 285.86 1073.24 286.73 1063.34 288.12Z" id="fcw51YJV"></path><linearGradient id="gradienta1eVqspKuT" gradientUnits="userSpaceOnUse" x1="1021.33" y1="338.49" x2="1117.56" y2="242.25"><stop style="stop-color: #ffffff;stop-opacity: 1" offset="0%"></stop><stop style="stop-color: #ffffff;stop-opacity: 0" offset="50%"></stop><stop style="stop-color: #ffffff;stop-opacity: 1" offset="100%"></stop></linearGradient></defs><g><g><use xlink:href="#e3LVIZmQBe" opacity="1" fill="#bc9d99" fill-opacity="1"></use><g><use xlink:href="#e3LVIZmQBe" opacity="1" fill-opacity="0" stroke="#000000" stroke-width="1" stroke-opacity="0"></use></g></g><g><use xlink:href="#d20fDiDyuo" opacity="1" fill="#b29591" fill-opacity="1"></use><g><use xlink:href="#d20fDiDyuo" opacity="1" fill-opacity="0" stroke="#000000" stroke-width="1" stroke-opacity="0"></use></g></g><g><use xlink:href="#ah1aKrgr4" opacity="1" fill="#deb8b2" fill-opacity="1"></use><g><use xlink:href="#ah1aKrgr4" opacity="1" fill-opacity="0" stroke="#000000" stroke-width="1" stroke-opacity="0"></use></g></g><g><use xlink:href="#b1zdQjcHbE" opacity="1" fill="url(#gradientb1oa5OQK)"></use><g><use xlink:href="#b1zdQjcHbE" opacity="1" fill-opacity="0" stroke="#000000" stroke-width="1" stroke-opacity="0"></use></g></g><g><use xlink:href="#fcw51YJV" opacity="1" fill="url(#gradienta1eVqspKuT)"></use><g><use xlink:href="#fcw51YJV" opacity="1" fill-opacity="0" stroke="#000000" stroke-width="1" stroke-opacity="0"></use></g></g></g></svg>