<?xml version="1.0" encoding="UTF-8" standalone="no"?>
<!DOCTYPE svg PUBLIC "-//W3C//DTD SVG 1.1//EN" "http://www.w3.org/Graphics/SVG/1.1/DTD/svg11.dtd">
<svg version="1.1" xmlns="http://www.w3.org/2000/svg" xmlns:xlink="http://www.w3.org/1999/xlink" preserveAspectRatio="xMidYMid meet" viewBox="42.42648357651166 672.4095718375432 59.52354968052116 52.016522306162415" width="55.52" height="48.02"><defs><path d="M74.94 689.07C79.66 685.71 86.13 684.58 91.38 687.44C86.68 684.88 81.97 682.32 77.27 679.76C76.4 679.29 69.45 675.51 68.58 675.04C64.49 672.81 59.55 672.99 55.35 674.83C51.3 676.6 48.23 679.85 46.02 683.6C41.52 691.23 42.69 702.86 50.99 707.37C53.27 708.61 71.51 718.53 73.79 719.77C67.97 716.61 65.6 709.82 66.38 703.5C66.43 703.1 66.36 703.7 66.38 703.5C67.09 697.8 70.24 692.41 74.94 689.07Z" id="a1WwfdCzJF"></path><path d="M98.95 701.3C98.93 711.08 91.61 720 82.55 721.27C73.48 722.55 66.19 715.68 66.21 705.9C66.23 696.12 73.55 687.21 82.62 685.94C91.68 684.66 98.97 691.52 98.95 701.3Z" id="b3hDLSU8RW"></path><path d="M83.31 690.89C76.77 691.81 71.22 698.69 71.21 705.91C71.2 709.12 72.27 711.96 74.2 713.9C76.18 715.88 78.89 716.74 81.85 716.32C88.4 715.4 93.94 708.52 93.95 701.29C93.95 698.08 92.89 695.25 90.96 693.31C89.31 691.66 87.17 690.78 84.76 690.78C84.29 690.78 83.8 690.82 83.31 690.89Z" id="f2oFDpEoEy"></path><linearGradient id="gradientb3DNVm6jaK" gradientUnits="userSpaceOnUse" x1="73.25" y1="712.94" x2="91.92" y2="694.27"><stop style="stop-color: #ffffff;stop-opacity: 0" offset="0%"></stop><stop style="stop-color: #ffffff;stop-opacity: 0.0896" offset="4.4799999999999995%"></stop><stop style="stop-color: #ffffff;stop-opacity: 1" offset="50%"></stop><stop style="stop-color: #ffffff;stop-opacity: 0.0896" offset="95.52000000000001%"></stop><stop style="stop-color: #ffffff;stop-opacity: 0" offset="100%"></stop></linearGradient></defs><g><g><use xlink:href="#a1WwfdCzJF" opacity="1" fill="#846d47" fill-opacity="1"></use><g><use xlink:href="#a1WwfdCzJF" opacity="1" fill-opacity="0" stroke="#000000" stroke-width="1" stroke-opacity="0"></use></g></g><g><use xlink:href="#b3hDLSU8RW" opacity="1" fill="#a58759" fill-opacity="1"></use><g><use xlink:href="#b3hDLSU8RW" opacity="1" fill-opacity="0" stroke="#000000" stroke-width="1" stroke-opacity="0"></use></g></g><g><use xlink:href="#f2oFDpEoEy" opacity="1" fill="url(#gradientb3DNVm6jaK)"></use><g><use xlink:href="#f2oFDpEoEy" opacity="1" fill-opacity="0" stroke="#000000" stroke-width="1" stroke-opacity="0"></use></g></g></g></svg>