<?xml version="1.0" encoding="UTF-8" standalone="no"?>
<!DOCTYPE svg PUBLIC "-//W3C//DTD SVG 1.1//EN" "http://www.w3.org/Graphics/SVG/1.1/DTD/svg11.dtd">
<svg version="1.1" xmlns="http://www.w3.org/2000/svg" xmlns:xlink="http://www.w3.org/1999/xlink" preserveAspectRatio="xMidYMid meet" viewBox="882.0652682189098 616.348148164844 109.56975814181578 105.94980123349592" width="105.57" height="101.95"><defs><path d="M984.65 660.62C979.5 657.82 974.36 655.02 969.22 652.23C966.68 650.85 964.17 649.36 961.58 648.08C959.75 647.19 957.62 647.08 955.62 647.36C954.19 647.56 947.03 648.57 934.14 650.38L956.93 662.78C969.82 660.96 976.98 659.96 978.42 659.76C978.88 659.69 979.34 659.66 979.81 659.64C980.07 659.63 979.71 659.64 979.81 659.64C981.47 659.57 983.18 659.82 984.65 660.62Z" id="bXnfX17Ae"></path><path d="M937.61 686.31L914.81 673.91C914.79 687.82 914.77 695.55 914.77 697.1C914.76 701.37 916.22 704.53 918.91 705.99C921.19 707.23 939.42 717.15 941.7 718.39C939.01 716.93 937.55 713.77 937.56 709.49C937.56 709.49 937.55 713.77 937.56 709.49C937.57 706.4 937.58 698.67 937.61 686.31Z" id="c1KtLSmBWX"></path><path d="M942.66 631.65C945.49 629.76 949.74 629.01 952.84 630.69C950.56 629.45 932.33 619.53 930.05 618.29C926.63 616.44 921.87 617.5 918.99 619.91C916.09 622.34 914.9 626.21 914.9 629.9C914.89 631.45 914.88 639.18 914.85 653.09L937.65 665.49C937.67 651.57 937.69 643.84 937.69 642.3C937.69 641.42 937.76 640.55 937.89 639.68C937.92 639.53 937.85 639.97 937.89 639.68C938.39 636.5 939.94 633.47 942.66 631.65Z" id="j1jj1yCaE2"></path><path d="M916.16 668.51C917.59 668.31 924.75 667.3 937.64 665.49L914.85 653.09C901.96 654.9 894.8 655.91 893.37 656.11C889.77 656.61 886.44 658.51 884.64 661.73C882.83 665.01 882.46 669.6 884.17 672.99C884.98 674.61 886.25 675.6 887.81 676.45C890.26 677.78 892.72 679.12 895.17 680.45C900.08 683.12 904.99 685.79 909.9 688.46C906.43 686.57 905.61 682.34 906.01 678.71C906.04 678.45 906 678.85 906.01 678.71C906.64 673.2 910.73 669.27 916.16 668.51Z" id="fCFpq6gnK"></path><path d="M956.98 639.59C956.97 641.13 956.96 648.86 956.93 662.78C969.82 660.96 976.98 659.96 978.42 659.76C984.56 658.89 988.65 662.1 988.64 668.73C988.62 675.35 984.52 679.71 978.38 680.58C976.95 680.78 969.78 681.78 956.89 683.6C956.87 697.51 956.85 705.24 956.85 706.78C956.84 713.41 953.33 718.32 947.19 719.18C941.05 720.04 937.55 716.12 937.56 709.49C937.56 707.95 937.58 700.22 937.61 686.31C924.71 688.12 917.55 689.12 916.12 689.33C909.99 690.19 905.9 686.98 905.91 680.35C905.92 673.73 910.02 669.37 916.16 668.51C917.59 668.31 924.75 667.3 937.64 665.49C937.67 651.57 937.68 643.84 937.69 642.3C937.7 635.68 941.22 630.76 947.35 629.9C953.5 629.04 956.99 632.96 956.98 639.59Z" id="a7fZViYID"></path><path d="M940.89 682.53C941.98 683.49 942.61 684.87 942.61 686.31C942.6 688.63 942.57 707.18 942.56 709.5C942.56 711.45 942.97 712.97 943.69 713.7C943.95 713.95 944.42 714.3 945.56 714.3C945.85 714.3 946.16 714.27 946.49 714.23C951.14 713.57 951.85 709.28 951.85 706.77C951.85 704.46 951.89 685.9 951.89 683.59C951.9 681.1 953.73 678.99 956.2 678.64C958.35 678.34 975.53 675.93 977.68 675.62C980.39 675.24 983.62 673.74 983.63 668.72C983.64 667.15 983.31 665.95 982.7 665.34C982.1 664.74 981.07 664.62 980.31 664.62C979.94 664.62 979.53 664.65 979.11 664.71C976.96 665.01 959.78 667.42 957.63 667.73C956.19 667.93 954.74 667.5 953.65 666.54C952.56 665.59 951.93 664.21 951.93 662.76C951.94 660.45 951.97 641.9 951.98 639.58C951.98 637.63 951.57 636.1 950.85 635.38C950.69 635.22 950.25 634.78 948.98 634.78C948.69 634.78 948.38 634.8 948.05 634.85C943.39 635.5 942.69 639.8 942.69 642.31C942.68 644.62 942.65 663.18 942.64 665.49C942.64 667.98 940.8 670.09 938.34 670.44C936.19 670.74 919 673.15 916.86 673.46C914.15 673.84 910.92 675.34 910.91 680.36C910.91 681.93 911.24 683.13 911.84 683.74C912.44 684.34 913.47 684.46 914.23 684.46C914.6 684.46 915 684.43 915.42 684.37C917.57 684.07 934.76 681.65 936.91 681.35C937.14 681.32 937.38 681.31 937.61 681.31C938.8 681.31 939.97 681.74 940.89 682.53Z" id="aDNeIifgP"></path><linearGradient id="gradientbbQi5zn1a" gradientUnits="userSpaceOnUse" x1="924.96" y1="696.85" x2="969.59" y2="652.23"><stop style="stop-color: #ffffff;stop-opacity: 0" offset="0%"></stop><stop style="stop-color: #ffffff;stop-opacity: 0.0896" offset="4.4799999999999995%"></stop><stop style="stop-color: #ffffff;stop-opacity: 1" offset="50%"></stop><stop style="stop-color: #ffffff;stop-opacity: 0.0896" offset="95.52000000000001%"></stop><stop style="stop-color: #ffffff;stop-opacity: 0" offset="100%"></stop></linearGradient><path d="M956.93 662.78C956.96 648.86 956.97 641.13 956.98 639.59C956.98 637.05 956.47 634.91 955.49 633.29C954.3 635.38 948.35 645.85 937.65 664.69L937.65 665.49L937.15 665.56L924.3 688.18L937.61 686.31C937.58 700.22 937.57 707.95 937.56 709.49C937.55 715.22 940.18 718.93 944.85 719.27C945.65 717.86 949.66 710.81 956.87 698.12L956.9 683.6L965.84 682.34C973.55 668.77 977.83 661.24 978.69 659.73C978.6 659.74 978.51 659.74 978.42 659.76C975.55 660.16 968.39 661.17 956.93 662.78Z" id="a3eRhfKqCE"></path><linearGradient id="gradientaeu8RkyWY" gradientUnits="userSpaceOnUse" x1="924.69" y1="701.76" x2="974.33" y2="652.12"><stop style="stop-color: #ffffff;stop-opacity: 1" offset="0%"></stop><stop style="stop-color: #ffffff;stop-opacity: 0" offset="50%"></stop><stop style="stop-color: #ffffff;stop-opacity: 1" offset="100%"></stop></linearGradient></defs><g><g><use xlink:href="#bXnfX17Ae" opacity="1" fill="#8ca222" fill-opacity="1"></use><g><use xlink:href="#bXnfX17Ae" opacity="1" fill-opacity="0" stroke="#000000" stroke-width="1" stroke-opacity="0"></use></g></g><g><use xlink:href="#c1KtLSmBWX" opacity="1" fill="#6c8017" fill-opacity="1"></use><g><use xlink:href="#c1KtLSmBWX" opacity="1" fill-opacity="0" stroke="#000000" stroke-width="1" stroke-opacity="0"></use></g></g><g><use xlink:href="#j1jj1yCaE2" opacity="1" fill="#859920" fill-opacity="1"></use><g><use xlink:href="#j1jj1yCaE2" opacity="1" fill-opacity="0" stroke="#000000" stroke-width="1" stroke-opacity="0"></use></g></g><g><use xlink:href="#fCFpq6gnK" opacity="1" fill="#859920" fill-opacity="1"></use><g><use xlink:href="#fCFpq6gnK" opacity="1" fill-opacity="0" stroke="#000000" stroke-width="1" stroke-opacity="0"></use></g></g><g><use xlink:href="#a7fZViYID" opacity="1" fill="#a8bf2a" fill-opacity="1"></use><g><use xlink:href="#a7fZViYID" opacity="1" fill-opacity="0" stroke="#000000" stroke-width="1" stroke-opacity="0"></use></g></g><g><use xlink:href="#aDNeIifgP" opacity="1" fill="url(#gradientbbQi5zn1a)"></use><g><use xlink:href="#aDNeIifgP" opacity="1" fill-opacity="0" stroke="#000000" stroke-width="1" stroke-opacity="0"></use></g></g><g><use xlink:href="#a3eRhfKqCE" opacity="1" fill="url(#gradientaeu8RkyWY)"></use><g><use xlink:href="#a3eRhfKqCE" opacity="1" fill-opacity="0" stroke="#000000" stroke-width="1" stroke-opacity="0"></use></g></g></g></svg>