<?xml version="1.0" encoding="UTF-8" standalone="no"?>
<!DOCTYPE svg PUBLIC "-//W3C//DTD SVG 1.1//EN" "http://www.w3.org/Graphics/SVG/1.1/DTD/svg11.dtd">
<svg version="1.1" xmlns="http://www.w3.org/2000/svg" xmlns:xlink="http://www.w3.org/1999/xlink" preserveAspectRatio="xMidYMid meet" viewBox="1152.081496095976 218.44231577831843 135.56566323920947 137.67038379856828" width="131.57" height="133.67"><defs><path d="M1255.61 342.17L1232.82 329.77C1236.32 333.25 1238.27 335.19 1238.66 335.57C1240.21 337.1 1241.87 338.61 1243.8 339.65C1246.37 341.05 1248.94 342.45 1251.52 343.85C1256.54 346.59 1261.57 349.32 1266.59 352.05C1264.67 351.01 1263.01 349.49 1261.45 347.97C1261.45 347.97 1263.43 349.91 1261.45 347.97C1260.67 347.2 1258.73 345.26 1255.61 342.17Z" id="n5MNyzKaR"></path><path d="M1234.9 321.74C1232.62 320.5 1214.39 310.58 1212.11 309.34C1207.6 311.45 1201.48 311.48 1197.08 309.08C1202.93 312.26 1208.77 315.44 1214.62 318.62C1217.15 320 1219.7 321.73 1222.48 322.56C1224.99 323.3 1227.64 323.39 1230.22 323.03C1231.83 322.8 1229.63 323.11 1230.22 323.03C1231.83 322.81 1233.44 322.42 1234.9 321.74Z" id="a1kRiWSJCr"></path><path d="M1249.55 302.49C1245.61 300.34 1241.66 298.2 1237.72 296.05C1235.09 294.62 1232.47 293.2 1229.84 291.77C1229.04 291.33 1228.23 290.89 1227.43 290.46C1227.24 290.35 1227.06 290.25 1226.87 290.15C1226.57 289.98 1227.07 288.82 1227.14 288.51C1228.04 284.28 1228.29 279.91 1228.24 275.59C1228.19 271.8 1227.86 267.99 1227.02 264.29C1225.76 258.72 1223.14 252.88 1217.9 250.03C1221.85 252.18 1225.79 254.33 1229.74 256.47C1232.36 257.9 1234.99 259.33 1237.62 260.76C1238.95 261.48 1240.34 262.15 1241.61 262.98C1246.61 266.22 1248.95 272.21 1250.06 277.82C1250.81 281.64 1251.06 285.54 1251.03 289.43C1251.01 293.8 1250.66 298.24 1249.55 302.49" id="aZWyVWARy"></path><path d="M1243.85 297.53C1238.36 294.54 1232.86 291.55 1227.37 288.56C1222.88 286.12 1218.2 282.51 1212.85 284.37C1208.81 285.78 1205.83 289.32 1204.52 293.32C1202.84 298.41 1205.65 302.93 1209.19 306.44C1209.39 306.64 1210.36 307.6 1212.11 309.34L1234.9 321.74C1233.15 320 1232.18 319.04 1231.98 318.84C1229.08 315.96 1226.3 312.12 1226.86 307.83C1226.89 307.57 1226.84 307.95 1226.86 307.83C1227.86 300.05 1236.3 293.42 1243.85 297.53Z" id="e2oRYYPtqU"></path><path d="M1186.67 260.61C1193.08 250.56 1202.39 242.45 1213.24 237.51C1228.13 230.72 1246.54 229.42 1261.24 237.41C1258.96 236.17 1240.73 226.25 1238.45 225.01C1217.89 213.84 1190.97 220.53 1174.35 235.75C1156.83 251.74 1150.56 276.57 1153.98 299.57C1155.26 308.23 1158.2 316.78 1163.59 323.76C1165.88 326.73 1168.58 329.37 1171.62 331.57C1175.87 334.64 1180.75 336.9 1185.35 339.4C1189.79 341.81 1194.23 344.23 1198.67 346.65C1191.98 343 1186.54 337.44 1182.85 330.79C1178.23 322.44 1176.35 312.83 1175.98 303.37C1175.87 300.49 1175.91 297.61 1176.08 294.73C1176.12 293.95 1176.05 295.14 1176.08 294.73C1176.77 282.68 1180.15 270.82 1186.67 260.61Z" id="cKbw21KIE"></path><path d="M1276.68 329.12C1281.34 333.67 1283.09 336.26 1283.09 339.41C1283.08 344.14 1278.97 351.97 1271.37 353.04C1268.45 353.45 1265.68 352.11 1261.45 347.97C1260.87 347.39 1256.2 342.75 1255.61 342.17C1247.86 347.04 1239.09 350.17 1230.17 351.42C1201.96 355.39 1175.84 340.77 1175.91 299.6C1175.99 259.84 1202.48 236.41 1230.39 232.49C1258.31 228.57 1284.72 244.56 1284.65 284.32C1284.62 301.35 1280.07 315.08 1272.89 325.39C1273.64 326.14 1276.3 328.75 1276.68 329.12ZM1249.55 302.49C1250.58 298.57 1251.03 293.93 1251.04 289.04C1251.07 270.58 1244.37 258.91 1230.34 260.88C1216.31 262.85 1209.57 276.41 1209.53 294.87C1209.5 313.32 1216.2 325 1230.22 323.03C1231.83 322.8 1233.44 322.42 1234.9 321.74C1234.61 321.45 1232.28 319.13 1231.98 318.84C1228.78 315.66 1226.74 312.01 1226.75 309.33C1226.76 303.01 1231.88 297.09 1237.58 296.29C1240.21 295.92 1243.72 296.69 1246.78 299.73C1246.96 299.92 1247.89 300.84 1249.55 302.49" id="fbSJISnBZ"></path><path d="M1259.14 338.62C1259.72 339.2 1264.39 343.84 1264.97 344.42C1267.46 346.86 1269.29 348.11 1270.38 348.11C1270.47 348.11 1270.57 348.11 1270.67 348.09C1275.46 347.42 1278.08 342 1278.09 339.41C1278.09 338.22 1277.27 336.68 1273.19 332.7C1272.8 332.33 1269.76 329.33 1269.38 328.96C1267.64 327.25 1267.39 324.54 1268.78 322.54C1275.86 312.37 1279.62 299.15 1279.65 284.31C1279.67 268.79 1275.33 256.21 1267.08 247.95C1259.88 240.73 1249.99 236.92 1238.49 236.92C1236.07 236.92 1233.57 237.09 1231.08 237.44C1206.16 240.95 1180.98 261.53 1180.91 299.61C1180.88 315.81 1185.03 328.19 1193.24 336.42C1200.18 343.37 1209.93 347.05 1221.44 347.05C1224.05 347.05 1226.75 346.86 1229.47 346.47C1237.82 345.3 1245.93 342.35 1252.95 337.94C1253.77 337.42 1254.7 337.17 1255.61 337.17C1256.9 337.17 1258.17 337.67 1259.14 338.62ZM1213.04 322.53C1207.45 316.93 1204.51 307.37 1204.53 294.87C1204.58 272.69 1213.96 258.14 1229.64 255.93C1236.76 254.93 1243 256.85 1247.53 261.38C1253.12 266.98 1256.06 276.55 1256.04 289.05C1256.03 294.67 1255.47 299.62 1254.39 303.76C1253.94 305.49 1252.6 306.84 1250.87 307.32C1249.14 307.79 1247.3 307.3 1246.03 306.04C1245.75 305.76 1243.53 303.56 1243.26 303.28C1241.44 301.48 1239.7 301.21 1238.83 301.21C1238.64 301.21 1238.45 301.22 1238.28 301.24C1235.27 301.67 1231.76 305.3 1231.75 309.34C1231.75 310.04 1232.69 312.5 1235.51 315.3C1235.8 315.59 1238.13 317.91 1238.43 318.2C1239.59 319.35 1240.11 321 1239.83 322.61C1239.54 324.22 1238.49 325.59 1237.01 326.28C1235.25 327.1 1233.26 327.66 1230.92 327.99C1229.67 328.16 1228.43 328.25 1227.25 328.25C1221.69 328.25 1216.77 326.27 1213.04 322.53Z" id="a1UZuIEZGA"></path><linearGradient id="gradientb6uEJR6cTy" gradientUnits="userSpaceOnUse" x1="1196.66" y1="339.84" x2="1277.82" y2="258.68"><stop style="stop-color: #ffffff;stop-opacity: 0" offset="0%"></stop><stop style="stop-color: #ffffff;stop-opacity: 0.0896" offset="4.4799999999999995%"></stop><stop style="stop-color: #ffffff;stop-opacity: 1" offset="50%"></stop><stop style="stop-color: #ffffff;stop-opacity: 0.0896" offset="95.52000000000001%"></stop><stop style="stop-color: #ffffff;stop-opacity: 0" offset="100%"></stop></linearGradient><path d="M1226.75 309.33C1226.74 312.01 1228.78 315.66 1231.99 318.84C1232.16 319.02 1233.05 319.9 1234.65 321.5L1246.93 299.89C1246.84 299.8 1246.79 299.75 1246.78 299.74C1243.72 296.69 1240.21 295.92 1237.58 296.29C1231.88 297.09 1226.76 303.02 1226.75 309.33ZM1187.39 337.4C1194.95 346.44 1205.61 351.05 1217.37 351.9C1219.07 348.91 1232.69 324.95 1234.39 321.95C1233.07 322.49 1231.65 322.83 1230.22 323.03C1217.09 324.88 1210.38 314.75 1209.61 298.31C1205.16 306.13 1189.61 333.5 1187.39 337.4ZM1246.95 232.6C1245.34 235.43 1232.52 258 1230.91 260.82C1244.55 259.25 1251.07 270.84 1251.04 289.04C1251.03 290.33 1251 291.6 1250.93 292.85C1252.55 290 1260.67 275.72 1275.28 250.01C1263.95 239.64 1254.5 233.84 1246.95 232.6Z" id="a4B2Rk8E2X"></path><linearGradient id="gradiente3jq6IEHY" gradientUnits="userSpaceOnUse" x1="1187.09" y1="337.32" x2="1275.3" y2="249.12"><stop style="stop-color: #ffffff;stop-opacity: 1" offset="0%"></stop><stop style="stop-color: #ffffff;stop-opacity: 0" offset="50%"></stop><stop style="stop-color: #ffffff;stop-opacity: 1" offset="100%"></stop></linearGradient></defs><g><g><use xlink:href="#n5MNyzKaR" opacity="1" fill="#905501" fill-opacity="1"></use><g><use xlink:href="#n5MNyzKaR" opacity="1" fill-opacity="0" stroke="#000000" stroke-width="1" stroke-opacity="0"></use></g></g><g><use xlink:href="#a1kRiWSJCr" opacity="1" fill="#af690e" fill-opacity="1"></use><g><use xlink:href="#a1kRiWSJCr" opacity="1" fill-opacity="0" stroke="#000000" stroke-width="1" stroke-opacity="0"></use></g></g><g><use xlink:href="#aZWyVWARy" opacity="1" fill="#935703" fill-opacity="1"></use><g><use xlink:href="#aZWyVWARy" opacity="1" fill-opacity="0" stroke="#000000" stroke-width="1" stroke-opacity="0"></use></g></g><g><use xlink:href="#e2oRYYPtqU" opacity="1" fill="#a7640b" fill-opacity="1"></use><g><use xlink:href="#e2oRYYPtqU" opacity="1" fill-opacity="0" stroke="#000000" stroke-width="1" stroke-opacity="0"></use></g></g><g><use xlink:href="#cKbw21KIE" opacity="1" fill="#a7640b" fill-opacity="1"></use><g><use xlink:href="#cKbw21KIE" opacity="1" fill-opacity="0" stroke="#000000" stroke-width="1" stroke-opacity="0"></use></g></g><g><use xlink:href="#fbSJISnBZ" opacity="1" fill="#db831a" fill-opacity="1"></use><g><use xlink:href="#fbSJISnBZ" opacity="1" fill-opacity="0" stroke="#000000" stroke-width="1" stroke-opacity="0"></use></g></g><g><use xlink:href="#a1UZuIEZGA" opacity="1" fill="url(#gradientb6uEJR6cTy)"></use><g><use xlink:href="#a1UZuIEZGA" opacity="1" fill-opacity="0" stroke="#000000" stroke-width="1" stroke-opacity="0"></use></g></g><g><use xlink:href="#a4B2Rk8E2X" opacity="1" fill="url(#gradiente3jq6IEHY)"></use><g><use xlink:href="#a4B2Rk8E2X" opacity="1" fill-opacity="0" stroke="#000000" stroke-width="1" stroke-opacity="0"></use></g></g></g></svg>