<?xml version="1.0" encoding="UTF-8" standalone="no"?>
<!DOCTYPE svg PUBLIC "-//W3C//DTD SVG 1.1//EN" "http://www.w3.org/Graphics/SVG/1.1/DTD/svg11.dtd">
<svg version="1.1" xmlns="http://www.w3.org/2000/svg" xmlns:xlink="http://www.w3.org/1999/xlink" preserveAspectRatio="xMidYMid meet" viewBox="445.57603879306487 588.4329517747626 107.01801478540608 134.63492031910016" width="103.02" height="130.63"><defs><path d="M499.44 687.71C504.17 684.35 510.63 683.22 515.88 686.08C510.04 682.9 504.19 679.72 498.35 676.54C495.77 675.14 493.18 673.38 490.33 672.56C488.03 671.9 485.52 671.87 483.19 672.39C473.06 674.62 466.25 685.75 468.28 695.83C469.14 700.06 471.67 703.93 475.51 706.02C477.78 707.26 496.02 717.18 498.3 718.42C492.5 715.26 490.1 708.47 490.89 702.17C490.94 701.76 490.86 702.36 490.89 702.17C491.58 696.46 494.74 691.06 499.44 687.71Z" id="aHH49rTdl"></path><path d="M515.42 626.96C513.14 625.72 494.91 615.8 492.63 614.56C496.71 616.78 496.52 623.25 494.62 626.86C492.15 631.5 486.79 634.16 482.76 637.23C478.7 640.31 474.97 643.76 472.7 648.39C470.54 652.78 469.81 658.89 472.03 663.41C472.9 665.19 474.24 666.3 475.94 667.23C478.4 668.56 480.85 669.9 483.31 671.23C488.22 673.9 493.13 676.57 498.04 679.24C494.28 677.2 493.42 672.51 493.57 668.59C493.75 663.81 495.7 659.42 498.77 655.8C501.91 652.08 505.9 649.43 509.81 646.59C512.9 644.36 516.53 641.84 517.92 638.13C517.95 638.05 517.91 638.16 517.92 638.13C519.21 634.58 519.18 629.01 515.42 626.96Z" id="b4zl5sXx9"></path><path d="M476.57 619.13C480.33 614.67 485.02 611.05 490.17 608.34C500.22 603.06 512.39 600.88 523.65 602.15C528.12 602.66 532.58 603.84 536.55 606C530.7 602.82 524.86 599.64 519.01 596.46C516.44 595.06 513.89 593.51 511.19 592.37C508.78 591.34 506.24 590.64 503.66 590.17C497.82 589.11 491.79 589.28 485.93 590.11C480.52 590.87 475.18 592.32 470.19 594.57C460.47 598.95 451.21 606.8 447.68 617.16C446.19 621.55 445.81 627.23 449.1 630.95C450.81 632.89 453.45 633.91 455.68 635.12C458.6 636.71 461.52 638.3 464.44 639.88C467.72 641.67 470.99 643.45 474.26 645.23C470.19 643.01 468.97 638.14 469.48 633.81C469.53 633.39 469.47 633.93 469.48 633.81C470.11 628.36 473.09 623.25 476.57 619.13Z" id="b4rk63TCpX"></path><path d="M523.45 699.94C523.43 709.72 516.11 718.64 507.05 719.92C497.99 721.19 490.7 714.32 490.72 704.54C490.74 694.76 498.06 685.85 507.12 684.58C516.18 683.31 523.47 690.16 523.45 699.94Z" id="dP0UrALHn"></path><path d="M549.59 628.62C549.54 655.28 523.09 659.15 518.54 670.52C515.9 677.19 511.95 679.17 505.08 680.14C496.75 681.31 493.54 676.39 493.56 669.29C493.57 660.15 499.43 653.8 507.19 648.46C516.55 641.94 518.6 639.6 518.61 633.45C518.62 626.98 514.09 625.41 508.54 626.19C504.3 626.79 499.33 629.21 495.37 636.08C490.83 644.13 488.34 645.58 482.79 646.36C475.04 647.45 469.35 644 469.37 635.48C469.39 625.06 481.84 606.29 508.73 602.51C536.2 598.65 549.63 611.89 549.59 628.62Z" id="cKXxbhuB"></path><path d="M507.81 689.53C501.27 690.45 495.73 697.33 495.72 704.55C495.71 707.77 496.78 710.6 498.71 712.54C500.69 714.52 503.39 715.38 506.36 714.96C512.9 714.04 518.44 707.16 518.45 699.93C518.46 696.72 517.4 693.89 515.46 691.95C513.81 690.3 511.67 689.43 509.27 689.43C508.79 689.43 508.3 689.46 507.81 689.53Z" id="a3OX59LORm"></path><linearGradient id="gradientbvkqDsZ1W" gradientUnits="userSpaceOnUse" x1="497.75" y1="711.58" x2="516.42" y2="692.91"><stop style="stop-color: #ffffff;stop-opacity: 0" offset="0%"></stop><stop style="stop-color: #ffffff;stop-opacity: 0.0896" offset="4.4799999999999995%"></stop><stop style="stop-color: #ffffff;stop-opacity: 1" offset="50%"></stop><stop style="stop-color: #ffffff;stop-opacity: 0.0896" offset="95.52000000000001%"></stop><stop style="stop-color: #ffffff;stop-opacity: 0" offset="100%"></stop></linearGradient><path d="M520.28 624.41C522.5 626.63 523.62 629.68 523.61 633.46C523.59 642.25 519.67 645.86 510.04 652.56C502 658.1 498.57 663.11 498.56 669.3C498.55 671.72 499.04 673.6 499.9 674.46C500.11 674.67 500.75 675.31 502.75 675.31C503.25 675.31 503.81 675.27 504.39 675.19C510.22 674.37 512.17 673.03 513.89 668.68C516.07 663.23 521.23 659.61 526.69 655.76C535.48 649.58 544.57 643.18 544.6 628.61C544.61 622.73 542.65 617.65 538.93 613.92C532.95 607.93 522.49 605.62 509.43 607.46C484.99 610.89 474.39 627.68 474.37 635.49C474.37 636.99 474.61 639.01 475.79 640.19C476.91 641.32 478.76 641.56 480.12 641.56C480.74 641.56 481.4 641.51 482.09 641.41C485.68 640.91 487.02 640.72 491.02 633.62C496.22 624.6 503.04 621.92 507.85 621.24C508.94 621.09 510.01 621.01 511.01 621.01C515.86 621.01 518.73 622.86 520.28 624.41Z" id="aR2k76CPd"></path><linearGradient id="gradientf27nVZxEx5" gradientUnits="userSpaceOnUse" x1="484.49" y1="659.05" x2="534.27" y2="609.27"><stop style="stop-color: #ffffff;stop-opacity: 0" offset="0%"></stop><stop style="stop-color: #ffffff;stop-opacity: 0.0896" offset="4.4799999999999995%"></stop><stop style="stop-color: #ffffff;stop-opacity: 1" offset="50%"></stop><stop style="stop-color: #ffffff;stop-opacity: 0.0896" offset="95.52000000000001%"></stop><stop style="stop-color: #ffffff;stop-opacity: 0" offset="100%"></stop></linearGradient><path d="M503.12 628.01C504.97 626.99 506.81 626.43 508.54 626.19C514.09 625.41 518.62 626.98 518.61 633.45C518.6 639.6 516.55 641.94 507.18 648.46C499.43 653.8 493.57 660.15 493.56 669.29C493.54 676.39 496.75 681.31 505.08 680.14C508.39 679.67 511.01 678.97 513.15 677.62C516.56 671.61 543.91 623.5 547.32 617.48C543.22 608.29 533.5 601.87 517.99 601.84C515.02 607.07 504.6 625.4 503.12 628.01ZM492.95 713.15C494.58 710.28 507.64 687.32 509.27 684.45C508.56 684.45 507.85 684.48 507.12 684.58C498.06 685.85 490.74 694.76 490.72 704.54C490.71 707.81 491.54 710.73 492.95 713.15Z" id="nW79dg3ky"></path><linearGradient id="gradientakkmDdVFR" gradientUnits="userSpaceOnUse" x1="471.38" y1="691.59" x2="547.51" y2="615.45"><stop style="stop-color: #ffffff;stop-opacity: 1" offset="0%"></stop><stop style="stop-color: #ffffff;stop-opacity: 0" offset="50%"></stop><stop style="stop-color: #ffffff;stop-opacity: 1" offset="100%"></stop></linearGradient></defs><g><g><use xlink:href="#aHH49rTdl" opacity="1" fill="#635283" fill-opacity="1"></use><g><use xlink:href="#aHH49rTdl" opacity="1" fill-opacity="0" stroke="#000000" stroke-width="1" stroke-opacity="0"></use></g></g><g><use xlink:href="#b4zl5sXx9" opacity="1" fill="#53436f" fill-opacity="1"></use><g><use xlink:href="#b4zl5sXx9" opacity="1" fill-opacity="0" stroke="#000000" stroke-width="1" stroke-opacity="0"></use></g></g><g><use xlink:href="#b4rk63TCpX" opacity="1" fill="#635283" fill-opacity="1"></use><g><use xlink:href="#b4rk63TCpX" opacity="1" fill-opacity="0" stroke="#000000" stroke-width="1" stroke-opacity="0"></use></g></g><g><use xlink:href="#dP0UrALHn" opacity="1" fill="#7a66a1" fill-opacity="1"></use><g><use xlink:href="#dP0UrALHn" opacity="1" fill-opacity="0" stroke="#000000" stroke-width="1" stroke-opacity="0"></use></g></g><g><use xlink:href="#cKXxbhuB" opacity="1" fill="#7a66a1" fill-opacity="1"></use><g><use xlink:href="#cKXxbhuB" opacity="1" fill-opacity="0" stroke="#000000" stroke-width="1" stroke-opacity="0"></use></g></g><g><use xlink:href="#a3OX59LORm" opacity="1" fill="url(#gradientbvkqDsZ1W)"></use><g><use xlink:href="#a3OX59LORm" opacity="1" fill-opacity="0" stroke="#000000" stroke-width="1" stroke-opacity="0"></use></g></g><g><use xlink:href="#aR2k76CPd" opacity="1" fill="url(#gradientf27nVZxEx5)"></use><g><use xlink:href="#aR2k76CPd" opacity="1" fill-opacity="0" stroke="#000000" stroke-width="1" stroke-opacity="0"></use></g></g><g><use xlink:href="#nW79dg3ky" opacity="1" fill="url(#gradientakkmDdVFR)"></use><g><use xlink:href="#nW79dg3ky" opacity="1" fill-opacity="0" stroke="#000000" stroke-width="1" stroke-opacity="0"></use></g></g></g></svg>