<?xml version="1.0" encoding="UTF-8" standalone="no"?>
<!DOCTYPE svg PUBLIC "-//W3C//DTD SVG 1.1//EN" "http://www.w3.org/Graphics/SVG/1.1/DTD/svg11.dtd">
<svg version="1.1" xmlns="http://www.w3.org/2000/svg" xmlns:xlink="http://www.w3.org/1999/xlink" preserveAspectRatio="xMidYMid meet" viewBox="46.65894215100578 404.7051540492629 122.65211386559173 138.68717760105437" width="118.65" height="134.69"><defs><path d="M156.67 477.88C151.76 475.21 146.85 472.54 141.94 469.87C137.61 467.51 133.29 464.49 128.33 463.7C128.33 463.7 128.33 463.7 128.33 463.7C126.09 463.35 123.79 463.29 121.53 463.38C123.81 464.62 142.04 474.54 144.32 475.78C145.24 475.74 146.17 475.74 147.09 475.76C147.6 475.78 146.88 475.76 147.09 475.76C150.35 475.85 153.75 476.3 156.67 477.88Z" id="a1EBNstGDs"></path><path d="M131.12 503.34C130.61 498.77 128.86 496.04 126.22 494.6C123.94 493.37 105.71 483.45 103.43 482.21C106.07 483.64 107.82 486.37 108.33 490.94C108.49 492.42 109.75 504.22 109.91 505.7C110.2 508.46 110.94 511.25 112.52 513.57C114.09 515.87 116.29 517.08 118.68 518.38C125.57 522.13 132.47 525.88 139.36 529.63C135.1 527.31 133.19 522.73 132.7 518.1C132.7 518.1 133.31 523.97 132.7 518.1C132.39 515.14 131.28 504.81 131.12 503.34Z" id="cNn6GcmrS"></path><path d="M133.78 454.83C133.61 452.73 133.02 450.56 131.43 449.08C130.55 448.26 129.41 447.76 128.37 447.19C126.85 446.36 125.33 445.53 123.81 444.71C121.01 443.18 118.21 441.66 115.42 440.14C114.61 439.7 108.13 436.18 107.32 435.74C111.75 438.15 111.59 444.67 110.36 448.85C108.69 454.45 102.43 456.29 97.29 457.01C96.17 457.17 90.57 457.95 80.48 459.37L103.28 471.77C113.36 470.35 118.96 469.57 120.08 469.41C125.2 468.69 131.09 466.95 133.03 461.61C133.04 461.6 133.01 461.68 133.03 461.61C133.82 459.48 133.96 457.07 133.78 454.83Z" id="b3wO3EulrC"></path><path d="M152.99 421.77C148.9 419.55 144.81 417.32 140.72 415.1C136.71 412.92 132.75 410.44 128.59 408.58C121.45 405.38 113.35 405.23 105.71 406.3C101.99 406.83 72.17 411.02 68.44 411.54C62.61 412.36 56.2 414.33 52.47 419.2C48.78 424.04 47.81 430.09 47.8 436.06C47.79 443.56 47.67 503.63 47.66 511.14C47.65 516.74 48.93 523.36 54.22 526.37C61.79 530.7 69.55 534.72 77.21 538.88C71.77 535.92 70.44 529.21 70.45 523.53C70.47 516.03 70.58 455.96 70.59 448.45C70.6 442.49 71.57 436.43 75.27 431.6C78.99 426.72 85.42 424.76 91.23 423.94C94.96 423.42 124.78 419.23 128.51 418.71C129.5 418.57 130.5 418.45 131.5 418.36C132.07 418.31 131.28 418.38 131.5 418.36C138.75 417.68 146.48 418.23 152.99 421.77Z" id="dcbg783YX"></path><path d="M166.31 515.11C166.3 523.79 158.4 530.1 151.23 531.11C141.44 532.49 133.85 529.14 132.7 518.1C132.54 516.62 131.28 504.82 131.12 503.34C130.12 494.34 124.28 492.48 116.39 493.59C115.51 493.71 111.13 494.33 103.23 495.43C103.21 509.53 103.19 517.37 103.19 518.93C103.17 531.08 97.31 538.69 86.78 540.17C76.26 541.65 70.43 535.68 70.45 523.54C70.47 516.03 70.58 455.96 70.59 448.45C70.62 433.32 76.77 425.98 91.23 423.94C94.96 423.42 124.78 419.23 128.51 418.71C154.23 415.09 165.74 428.3 165.71 445.65C165.68 460.48 157.33 471.27 144.32 475.78C154.99 475.39 162.29 478.3 163.73 490.09C163.81 490.71 164.19 493.81 164.88 499.39C165.84 506.72 166.32 511.96 166.31 515.11ZM120.08 469.41C129.87 468.03 133.83 464.17 133.84 456.44C133.86 448.71 129.91 445.95 120.13 447.33C119 447.48 113.4 448.27 103.32 449.69L103.28 471.77L120.08 469.41" id="h6bmnyHrui"></path><path d="M129.2 423.66C125.48 424.18 95.66 428.37 91.93 428.89C79.89 430.59 75.62 435.71 75.59 448.46C75.58 455.97 75.47 516.04 75.45 523.54C75.44 528.2 76.42 531.64 78.27 533.5C79.54 534.77 81.34 535.39 83.76 535.39C84.49 535.39 85.27 535.33 86.09 535.22C94.1 534.09 98.17 528.61 98.19 518.93C98.2 516.58 98.23 497.78 98.23 495.43C98.24 492.94 100.07 490.83 102.54 490.48C103.85 490.3 114.38 488.82 115.69 488.63C117.3 488.41 118.76 488.3 120.16 488.3C129.39 488.3 135.05 493.44 136.09 502.79C136.25 504.27 137.52 516.09 137.67 517.56C138.32 523.77 141.19 526.4 147.28 526.4C148.29 526.4 149.39 526.32 150.54 526.16C155.05 525.53 161.3 521.33 161.31 515.1C161.32 510.62 160.6 504.99 159.93 500.07C159.81 499.13 158.89 491.64 158.77 490.7C157.86 483.26 154.66 480.74 146.1 480.74C145.58 480.74 145.05 480.76 144.51 480.78C142.02 480.86 139.86 479.13 139.41 476.7C138.95 474.27 140.34 471.87 142.68 471.05C154.12 467.09 160.69 457.83 160.71 445.64C160.72 438.82 158.7 433.18 154.86 429.33C150.74 425.2 144.6 423.11 136.63 423.11C134.3 423.11 131.8 423.29 129.2 423.66ZM99.99 475.54C98.9 474.59 98.28 473.21 98.28 471.76C98.28 469.55 98.31 451.89 98.32 449.68C98.32 447.19 100.16 445.08 102.62 444.74C104.3 444.5 117.75 442.61 119.43 442.38C121.29 442.11 122.94 441.99 124.47 441.99C129.15 441.99 132.64 443.2 135.14 445.7C137.64 448.21 138.85 451.73 138.84 456.44C138.81 471.82 125.24 473.73 120.78 474.36C119.1 474.6 105.65 476.48 103.97 476.72C103.74 476.75 103.51 476.77 103.28 476.77C102.08 476.77 100.91 476.34 99.99 475.54Z" id="d2BjYo5R6f"></path><linearGradient id="gradientaL1Crqwyw" gradientUnits="userSpaceOnUse" x1="70.91" y1="526.13" x2="161.29" y2="435.76"><stop style="stop-color: #ffffff;stop-opacity: 0" offset="0%"></stop><stop style="stop-color: #ffffff;stop-opacity: 0.0896" offset="4.4799999999999995%"></stop><stop style="stop-color: #ffffff;stop-opacity: 1" offset="50%"></stop><stop style="stop-color: #ffffff;stop-opacity: 0.0896" offset="95.52000000000001%"></stop><stop style="stop-color: #ffffff;stop-opacity: 0" offset="100%"></stop></linearGradient><path d="M115.34 448C118.21 447.6 119.81 447.37 120.13 447.33C129.91 445.95 133.86 448.71 133.84 456.44C133.83 464.17 129.87 468.03 120.08 469.41C118.96 469.57 113.36 470.35 103.28 471.77L103.28 469.21C83.68 503.71 72.79 522.87 70.61 526.7C71.56 536.69 77.23 541.51 86.78 540.17C97.31 538.69 103.17 531.08 103.19 518.93C103.19 517.37 103.21 509.53 103.23 495.43C111.13 494.32 115.51 493.71 116.39 493.58C120.6 492.99 124.23 493.26 126.85 495C130.44 488.69 159.14 438.18 162.73 431.86C158.17 422.72 148.25 417 132.22 418.3C129.97 422.26 124.34 432.16 115.34 448Z" id="d3GrkhqPfQ"></path><linearGradient id="gradientb11ddYUWWB" gradientUnits="userSpaceOnUse" x1="64.66" y1="526.94" x2="162.09" y2="429.5"><stop style="stop-color: #ffffff;stop-opacity: 1" offset="0%"></stop><stop style="stop-color: #ffffff;stop-opacity: 0" offset="50%"></stop><stop style="stop-color: #ffffff;stop-opacity: 1" offset="100%"></stop></linearGradient></defs><g><g><use xlink:href="#a1EBNstGDs" opacity="1" fill="#ad9600" fill-opacity="1"></use><g><use xlink:href="#a1EBNstGDs" opacity="1" fill-opacity="0" stroke="#000000" stroke-width="1" stroke-opacity="0"></use></g></g><g><use xlink:href="#cNn6GcmrS" opacity="1" fill="#998400" fill-opacity="1"></use><g><use xlink:href="#cNn6GcmrS" opacity="1" fill-opacity="0" stroke="#000000" stroke-width="1" stroke-opacity="0"></use></g></g><g><use xlink:href="#b3wO3EulrC" opacity="1" fill="#c0a600" fill-opacity="1"></use><g><use xlink:href="#b3wO3EulrC" opacity="1" fill-opacity="0" stroke="#000000" stroke-width="1" stroke-opacity="0"></use></g></g><g><use xlink:href="#dcbg783YX" opacity="1" fill="#b69d00" fill-opacity="1"></use><g><use xlink:href="#dcbg783YX" opacity="1" fill-opacity="0" stroke="#000000" stroke-width="1" stroke-opacity="0"></use></g></g><g><use xlink:href="#h6bmnyHrui" opacity="1" fill="#e5c400" fill-opacity="1"></use><g><use xlink:href="#h6bmnyHrui" opacity="1" fill-opacity="0" stroke="#000000" stroke-width="1" stroke-opacity="0"></use></g></g><g><use xlink:href="#d2BjYo5R6f" opacity="1" fill="url(#gradientaL1Crqwyw)"></use><g><use xlink:href="#d2BjYo5R6f" opacity="1" fill-opacity="0" stroke="#000000" stroke-width="1" stroke-opacity="0"></use></g></g><g><use xlink:href="#d3GrkhqPfQ" opacity="1" fill="url(#gradientb11ddYUWWB)"></use><g><use xlink:href="#d3GrkhqPfQ" opacity="1" fill-opacity="0" stroke="#000000" stroke-width="1" stroke-opacity="0"></use></g></g></g></svg>