<?xml version="1.0" encoding="UTF-8" standalone="no"?>
<!DOCTYPE svg PUBLIC "-//W3C//DTD SVG 1.1//EN" "http://www.w3.org/Graphics/SVG/1.1/DTD/svg11.dtd">
<svg version="1.1" xmlns="http://www.w3.org/2000/svg" xmlns:xlink="http://www.w3.org/1999/xlink" preserveAspectRatio="xMidYMid meet" viewBox="258.50862956063736 590.7779680285955 63.71678767362124 161.9612544784568" width="59.72" height="157.96"><defs><path d="M289.97 606.55C293.2 604.41 298.06 603.21 301.63 605.15C295.78 601.97 289.94 598.79 284.09 595.61C282.69 594.85 281.29 594.09 279.89 593.32C278.86 592.76 277.85 592.21 276.7 591.97C274.4 591.48 271.87 591.99 269.71 592.84C264.89 594.74 262.09 599.06 261.19 604.02C260.62 607.16 260.96 610.28 261.47 613.39C262.8 621.37 264.66 629.24 265.88 637.25C267.65 648.84 268.44 660.58 267.91 672.31C267.43 682.85 265.87 693.28 263.71 703.6C262.29 710.38 260.3 717.18 259.62 724.1C259.18 728.58 259.94 733.75 264.28 736.11C266.56 737.35 284.79 747.27 287.07 748.51C280.28 744.82 282.32 735.56 283.58 729.43C285.3 721.1 287.32 712.85 288.65 704.45C290.5 692.83 291.23 681.06 290.68 669.3C290.19 658.88 288.68 648.57 286.69 638.34C285.96 634.57 285.16 630.81 284.48 627.03C283.94 623.98 283.49 620.94 283.79 617.84C283.83 617.46 283.78 618.02 283.79 617.84C284.24 613.41 286.16 609.07 289.97 606.55Z" id="agsKwss7Y"></path><path d="M314.04 631.74C318.25 648.34 319.25 659.87 319.22 673.59C319.2 686.06 316.39 706.01 310.5 726.38C305.65 743.15 302.13 748.54 294.83 749.56C287.22 750.63 282.27 746.76 282.28 738.87C282.3 728.62 290.81 707.86 290.87 677.57C290.92 649.18 283.65 628.76 283.67 620.09C283.69 611.57 288.08 605.43 296.12 604.3C303.57 603.25 308.24 609.06 314.04 631.74Z" id="c18hCcYRtZ"></path><path d="M296.82 609.25C290.1 610.19 288.68 615.67 288.67 620.1C288.66 622.68 289.59 627.31 290.66 632.66C292.87 643.69 295.9 658.8 295.87 677.58C295.83 697.28 292.34 712.97 289.79 724.43C288.39 730.7 287.29 735.66 287.28 738.88C287.28 740.36 287.52 742.37 288.67 743.53C289.73 744.59 291.65 744.96 294.13 744.61C297.84 744.09 300.65 742.45 305.7 724.99C311.95 703.33 314.21 684.23 314.22 673.58C314.25 660.86 313.41 649.63 309.19 632.97C303.74 611.65 300.02 609.18 297.7 609.18C297.43 609.18 297.13 609.21 296.82 609.25Z" id="a1Ft1vX986"></path><linearGradient id="gradientg2ynt7ytbH" gradientUnits="userSpaceOnUse" x1="258.59" y1="713.45" x2="330.96" y2="641.08"><stop style="stop-color: #ffffff;stop-opacity: 0" offset="0%"></stop><stop style="stop-color: #ffffff;stop-opacity: 0.0896" offset="4.4799999999999995%"></stop><stop style="stop-color: #ffffff;stop-opacity: 1" offset="50%"></stop><stop style="stop-color: #ffffff;stop-opacity: 0.0896" offset="95.52000000000001%"></stop><stop style="stop-color: #ffffff;stop-opacity: 0" offset="100%"></stop></linearGradient><path d="M311.71 623.37C309.55 627.17 292.28 657.56 290.12 661.36C290.59 666.42 290.88 671.83 290.87 677.57C290.81 707.86 282.3 728.62 282.28 738.87C282.28 739.97 282.38 740.97 282.56 741.91C286.22 735.48 315.47 684.01 319.13 677.58C319.18 676.18 319.22 674.84 319.23 673.59C319.25 659.87 318.25 648.34 314.04 631.74C313.25 628.64 312.47 625.86 311.71 623.37Z" id="a4kSOrXiJW"></path><linearGradient id="gradientg2SV9TiCg4" gradientUnits="userSpaceOnUse" x1="260.21" y1="719.56" x2="334.06" y2="645.71"><stop style="stop-color: #ffffff;stop-opacity: 1" offset="0%"></stop><stop style="stop-color: #ffffff;stop-opacity: 0" offset="50%"></stop><stop style="stop-color: #ffffff;stop-opacity: 1" offset="100%"></stop></linearGradient></defs><g><g><use xlink:href="#agsKwss7Y" opacity="1" fill="#a89662" fill-opacity="1"></use><g><use xlink:href="#agsKwss7Y" opacity="1" fill-opacity="0" stroke="#000000" stroke-width="1" stroke-opacity="0"></use></g></g><g><use xlink:href="#c18hCcYRtZ" opacity="1" fill="#d2ba7a" fill-opacity="1"></use><g><use xlink:href="#c18hCcYRtZ" opacity="1" fill-opacity="0" stroke="#000000" stroke-width="1" stroke-opacity="0"></use></g></g><g><use xlink:href="#a1Ft1vX986" opacity="1" fill="url(#gradientg2ynt7ytbH)"></use><g><use xlink:href="#a1Ft1vX986" opacity="1" fill-opacity="0" stroke="#000000" stroke-width="1" stroke-opacity="0"></use></g></g><g><use xlink:href="#a4kSOrXiJW" opacity="1" fill="url(#gradientg2SV9TiCg4)"></use><g><use xlink:href="#a4kSOrXiJW" opacity="1" fill-opacity="0" stroke="#000000" stroke-width="1" stroke-opacity="0"></use></g></g></g></svg>