<?xml version="1.0" encoding="UTF-8" standalone="no"?>
<!DOCTYPE svg PUBLIC "-//W3C//DTD SVG 1.1//EN" "http://www.w3.org/Graphics/SVG/1.1/DTD/svg11.dtd">
<svg version="1.1" xmlns="http://www.w3.org/2000/svg" xmlns:xlink="http://www.w3.org/1999/xlink" preserveAspectRatio="xMidYMid meet" viewBox="194.38264028141802 403.52407024933416 117.02644419939728 136.54849837611096" width="113.03" height="132.55"><defs><path d="M274.74 496.04C274.13 495.15 273.27 494.58 272.34 494.08C270.82 493.25 269.3 492.43 267.78 491.6C261.82 488.36 255.86 485.11 249.9 481.87C252.55 483.31 253.19 486.04 252.73 488.87C252.23 491.92 250.28 494.32 247.67 495.88C242.16 499.16 234.39 499.76 228.69 496.67C230.97 497.91 249.21 507.83 251.49 509.07C255.87 511.45 260.99 511.48 265.72 510.22C269.56 509.21 273.7 506.99 275.08 503C275.19 502.71 275.08 503.02 275.08 503C275.86 500.87 276.07 498 274.74 496.04Z" id="a2CNBwTlQP"></path><path d="M250.12 431.66C253.62 433.56 256.12 436.83 259.61 438.72C261.89 439.96 280.12 449.88 282.4 451.12C279.17 449.36 276.75 446.15 272.91 444.06C265.31 439.93 276.75 446.15 272.91 444.06C265.31 439.93 257.72 435.79 250.12 431.66Z" id="f6hxT5ac3U"></path><path d="M295.3 466.81C288.41 463.06 281.51 459.31 274.61 455.55C271.7 453.97 268.8 452.59 265.64 451.56C262.47 450.53 259.16 449.86 255.86 449.36C254.13 449.1 240.22 447.02 238.48 446.76C235.82 446.37 232.96 445.92 230.57 444.62C236.06 447.61 241.55 450.59 247.05 453.58C249.48 454.91 251.9 456.46 254.46 457.53C256.62 458.42 258.98 458.82 261.28 459.16C263.02 459.42 276.92 461.5 278.66 461.75C279.99 461.96 281.31 462.2 282.63 462.47C283.67 462.69 282.39 462.42 282.63 462.47C287 463.37 291.37 464.67 295.3 466.81Z" id="dsqvUbDbL"></path><path d="M225.72 501.18C229.71 498.46 235.17 497.32 239.56 499.71C237.28 498.48 219.04 488.56 216.77 487.32C212.37 484.92 206.92 486.06 202.93 488.78C198.76 491.6 196.53 496.04 195.83 500.92C195.26 504.89 196.48 509.04 198.65 512.37C201.67 517.02 206.29 519.53 211.04 522.11C217.35 525.55 223.67 528.98 229.98 532.41C222.91 528.57 217.63 521.37 218.66 513.05C218.7 512.73 218.63 513.26 218.66 513.05C219.24 508.31 221.74 503.88 225.72 501.18Z" id="bw9B76dB7"></path><path d="M232.34 429.08C241.23 421.51 252.74 418.49 264.13 417.39C269.44 416.88 274.79 416.74 280.11 417.22C285.16 417.69 290.36 418.7 294.86 421.14C290.09 418.55 285.32 415.95 280.55 413.36C279.7 412.9 272.91 409.21 272.06 408.75C267.13 406.06 261.35 405.08 255.81 404.7C250.03 404.3 244.2 404.6 238.46 405.3C227.44 406.64 216.51 410.21 208.22 417.86C200.1 425.36 195.69 435.99 195.4 446.98C195.27 451.79 195.94 456.7 197.99 461.09C199.83 465.02 202.75 468.32 206.35 470.74C210.05 473.24 214.22 475.17 218.14 477.31C222.58 479.72 227.03 482.14 231.47 484.55C227.09 482.17 223.4 478.65 221.13 474.19C218.6 469.22 217.94 463.54 218.25 458.04C218.28 457.63 218.24 458.24 218.25 458.04C218.87 446.88 223.79 436.36 232.34 429.08Z" id="g31jBVStvV"></path><path d="M303.69 435.85C303.68 444.68 297.38 451.09 289.05 452.26C277.79 453.84 277.67 439.98 261.01 442.32C255.32 443.12 250.05 446.22 250.04 451.43C250.03 456.48 254.12 458.11 261.28 459.16C263.01 459.42 276.92 461.5 278.66 461.75C296.33 464.48 308.45 471.61 308.41 491.33C308.36 518.3 286.85 532.99 264.64 536.12C229.27 541.09 218.48 525.57 218.5 515.31C218.52 506.48 224.52 499.64 232.71 498.49C244.69 496.81 246.13 513.17 262.64 510.85C269.51 509.88 275.65 506.49 275.66 499.55C275.67 494.98 272.61 493.51 266.48 492.48C264.24 492.1 246.36 489.07 244.12 488.69C227.33 485.85 218.14 476.41 218.17 460.48C218.21 441.55 229.93 422.08 259.16 417.98C278.6 415.24 303.73 416.76 303.69 435.85Z" id="a2B0Xm9r8P"></path><path d="M233.41 503.44C227.59 504.26 223.52 509.14 223.51 515.32C223.5 516.84 223.91 520.78 227.71 524.59C231.12 528.01 238.07 532.07 251.86 532.07C255.59 532.07 259.66 531.77 263.95 531.16C282.12 528.61 303.36 516.64 303.41 491.32C303.44 476.44 296.28 469.54 277.9 466.7C276.16 466.44 262.27 464.36 260.54 464.1C255.9 463.42 245.02 461.83 245.04 451.42C245.05 444.19 251.05 438.67 260.32 437.37C261.81 437.16 263.26 437.06 264.63 437.06C273.2 437.06 277.9 441.12 281.34 444.09C284.32 446.67 285.67 447.68 288.35 447.31C294.52 446.44 298.68 441.83 298.69 435.84C298.7 432.52 297.72 429.92 295.69 427.89C291.85 424.04 283.94 421.93 273.4 421.93C269.14 421.93 264.58 422.26 259.85 422.93C225.87 427.7 223.19 452.89 223.17 460.49C223.15 473.67 230.27 481.28 244.96 483.76C247.19 484.14 265.08 487.18 267.31 487.55C271.31 488.23 280.68 489.8 280.67 499.56C280.65 508.2 274.17 514.27 263.33 515.8C262.04 515.98 260.76 516.07 259.54 516.07C259.54 516.07 259.54 516.07 259.54 516.07C250.66 516.07 245.45 511.24 241.65 507.71C238.66 504.94 236.85 503.37 234.4 503.37C234.09 503.37 233.75 503.39 233.41 503.44Z" id="b5jdpCYLsd"></path><linearGradient id="gradiente8XQuhOGF" gradientUnits="userSpaceOnUse" x1="221.22" y1="518.11" x2="303.57" y2="435.77"><stop style="stop-color: #ffffff;stop-opacity: 0" offset="0%"></stop><stop style="stop-color: #ffffff;stop-opacity: 0.0896" offset="4.4799999999999995%"></stop><stop style="stop-color: #ffffff;stop-opacity: 1" offset="50%"></stop><stop style="stop-color: #ffffff;stop-opacity: 0.0896" offset="95.52000000000001%"></stop><stop style="stop-color: #ffffff;stop-opacity: 0" offset="100%"></stop></linearGradient><path d="M260.44 442.42C260.63 442.39 260.82 442.35 261.01 442.32C277.67 439.98 277.79 453.84 289.05 452.26C290.74 452.02 292.35 451.55 293.83 450.91C294.81 449.19 302.6 435.48 303.58 433.76C302.29 421.28 289.18 417.21 274.91 416.95C272.02 422.04 261.88 439.87 260.44 442.42ZM227.68 500.05C226.77 501.66 219.45 514.54 218.53 516.15C218.97 524.12 225.81 534.71 245.06 536.73C246.52 534.16 258.18 513.64 259.64 511.07C245.9 511.14 243.93 496.92 232.71 498.49C230.91 498.74 229.23 499.29 227.68 500.05ZM252.46 456.45C250.76 459.44 237.15 483.39 235.45 486.38C238.06 487.39 240.96 488.16 244.13 488.69C246.36 489.07 264.24 492.11 266.48 492.48C267.71 492.69 268.82 492.92 269.81 493.19C271.5 490.21 285.02 466.42 286.71 463.45C284.19 462.75 281.5 462.19 278.66 461.76C277.5 461.58 271.71 460.72 261.28 459.16C256.68 458.27 253.74 457.37 252.46 456.45Z" id="admEttBCE"></path><linearGradient id="gradientb3fW3NlGoa" gradientUnits="userSpaceOnUse" x1="216.44" y1="520.39" x2="305.84" y2="430.99"><stop style="stop-color: #ffffff;stop-opacity: 1" offset="0%"></stop><stop style="stop-color: #ffffff;stop-opacity: 0" offset="50%"></stop><stop style="stop-color: #ffffff;stop-opacity: 1" offset="100%"></stop></linearGradient></defs><g><g><use xlink:href="#a2CNBwTlQP" opacity="1" fill="#6e8117" fill-opacity="1"></use><g><use xlink:href="#a2CNBwTlQP" opacity="1" fill-opacity="0" stroke="#000000" stroke-width="1" stroke-opacity="0"></use></g></g><g><use xlink:href="#f6hxT5ac3U" opacity="1" fill="#6e8117" fill-opacity="1"></use><g><use xlink:href="#f6hxT5ac3U" opacity="1" fill-opacity="0" stroke="#000000" stroke-width="1" stroke-opacity="0"></use></g></g><g><use xlink:href="#dsqvUbDbL" opacity="1" fill="#859920" fill-opacity="1"></use><g><use xlink:href="#dsqvUbDbL" opacity="1" fill-opacity="0" stroke="#000000" stroke-width="1" stroke-opacity="0"></use></g></g><g><use xlink:href="#bw9B76dB7" opacity="1" fill="#7e921e" fill-opacity="1"></use><g><use xlink:href="#bw9B76dB7" opacity="1" fill-opacity="0" stroke="#000000" stroke-width="1" stroke-opacity="0"></use></g></g><g><use xlink:href="#g31jBVStvV" opacity="1" fill="#859920" fill-opacity="1"></use><g><use xlink:href="#g31jBVStvV" opacity="1" fill-opacity="0" stroke="#000000" stroke-width="1" stroke-opacity="0"></use></g></g><g><use xlink:href="#a2B0Xm9r8P" opacity="1" fill="#a8bf2a" fill-opacity="1"></use><g><use xlink:href="#a2B0Xm9r8P" opacity="1" fill-opacity="0" stroke="#000000" stroke-width="1" stroke-opacity="0"></use></g></g><g><use xlink:href="#b5jdpCYLsd" opacity="1" fill="url(#gradiente8XQuhOGF)"></use><g><use xlink:href="#b5jdpCYLsd" opacity="1" fill-opacity="0" stroke="#000000" stroke-width="1" stroke-opacity="0"></use></g></g><g><use xlink:href="#admEttBCE" opacity="1" fill="url(#gradientb3fW3NlGoa)"></use><g><use xlink:href="#admEttBCE" opacity="1" fill-opacity="0" stroke="#000000" stroke-width="1" stroke-opacity="0"></use></g></g></g></svg>