<?xml version="1.0" encoding="UTF-8" standalone="no"?>
<!DOCTYPE svg PUBLIC "-//W3C//DTD SVG 1.1//EN" "http://www.w3.org/Graphics/SVG/1.1/DTD/svg11.dtd">
<svg version="1.1" xmlns="http://www.w3.org/2000/svg" xmlns:xlink="http://www.w3.org/1999/xlink" preserveAspectRatio="xMidYMid meet" viewBox="330.19276605852025 401.4008985126861 128.57525110886172 137.53387785072346" width="124.58" height="133.53"><defs><path d="M388.08 451.81L365.28 439.41C365.21 479.44 365.17 501.68 365.16 506.13C365.15 513.94 367.79 519.42 372.45 521.95C374.73 523.19 392.96 533.11 395.24 534.35C390.59 531.82 387.94 526.34 387.95 518.53C387.95 518.53 387.94 526.34 387.95 518.53C387.97 509.63 388.01 487.39 388.08 451.81Z" id="btbNeWith"></path><path d="M450.48 416.18C444.75 413.07 439.02 409.95 433.29 406.84C430.88 405.52 428.43 403.82 425.79 403C423.32 402.24 420.63 402.29 418.09 402.65C410.9 403.66 353.38 411.75 346.19 412.76C341.25 413.45 336.26 415.6 333.62 420.05C331.07 424.34 330.58 430.14 331.92 434.91C332.47 436.86 333.45 438.72 334.99 440.07C335.89 440.86 336.95 441.38 338 441.95C339.4 442.71 340.8 443.48 342.2 444.24C347.93 447.36 353.66 450.47 359.39 453.59C353.91 450.61 353.41 443 354.48 437.57C355.14 434.21 356.79 431.11 359.47 428.94C362.18 426.75 365.58 425.64 368.99 425.16C376.18 424.15 433.7 416.06 440.89 415.05C441.66 414.94 442.43 414.87 443.21 414.84C443.65 414.81 443.04 414.84 443.21 414.84C445.67 414.72 448.28 414.98 450.48 416.18Z" id="d1S7wanHII"></path><path d="M455.77 427.63C455.75 436.31 451.5 442.89 442 444.23C440.65 444.42 433.88 445.37 421.69 447.08C421.61 487.12 421.57 509.36 421.56 513.8C421.54 525.95 415.1 534.27 404.72 535.73C394.35 537.19 387.93 530.68 387.95 518.53C387.96 514.08 388 491.84 388.08 451.81C375.89 453.52 369.12 454.47 367.76 454.66C358.26 456 354.04 450.6 354.05 441.92C354.07 433.25 358.32 426.65 368.99 425.15C373.78 424.48 397.75 421.11 440.89 415.05C450.82 417.65 455.78 421.85 455.77 427.63Z" id="ckTJcElk"></path><path d="M391.36 448.04C392.45 448.99 393.08 450.37 393.08 451.82C393.06 458.49 392.97 511.87 392.95 518.54C392.94 523.2 394.02 526.74 396.07 528.79C397.86 530.59 400.6 531.26 404.03 530.78C411.98 529.66 416.55 523.47 416.56 513.79C416.58 507.12 416.68 453.75 416.69 447.07C416.69 444.59 418.53 442.48 420.99 442.13C423.02 441.85 439.27 439.56 441.31 439.28C447.66 438.38 450.75 434.57 450.77 427.62C450.77 425.53 450.47 422.72 448.99 421.25C447.68 419.93 445.1 419.51 441.58 420C434.39 421.01 376.87 429.09 369.68 430.1C362.34 431.14 359.06 434.78 359.05 441.93C359.05 444.99 359.7 447.34 360.91 448.54C361.23 448.87 362.22 449.86 365.02 449.86C365.65 449.86 366.34 449.81 367.07 449.71C369.1 449.43 385.35 447.14 387.38 446.86C387.61 446.82 387.85 446.81 388.08 446.81C389.28 446.81 390.45 447.24 391.36 448.04Z" id="a4d1OAjVCP"></path><linearGradient id="gradientb4rrYL4ljA" gradientUnits="userSpaceOnUse" x1="367.21" y1="499.94" x2="447.45" y2="419.7"><stop style="stop-color: #ffffff;stop-opacity: 0" offset="0%"></stop><stop style="stop-color: #ffffff;stop-opacity: 0.0896" offset="4.4799999999999995%"></stop><stop style="stop-color: #ffffff;stop-opacity: 1" offset="50%"></stop><stop style="stop-color: #ffffff;stop-opacity: 0.0896" offset="95.52000000000001%"></stop><stop style="stop-color: #ffffff;stop-opacity: 0" offset="100%"></stop></linearGradient><path d="M402.82 420.4L384.7 452.28L388.08 451.81L387.96 513.8L421.67 454.48L421.69 447.08L426.24 446.44C437.03 427.47 443.02 416.92 444.22 414.81C443.18 414.81 442.08 414.88 440.89 415.05C435.81 415.76 423.12 417.55 402.82 420.4Z" id="b1MCN0Yz8e"></path><linearGradient id="gradientc9U1FfNDA" gradientUnits="userSpaceOnUse" x1="368.33" y1="494.16" x2="445.95" y2="416.54"><stop style="stop-color: #ffffff;stop-opacity: 1" offset="0%"></stop><stop style="stop-color: #ffffff;stop-opacity: 0" offset="50%"></stop><stop style="stop-color: #ffffff;stop-opacity: 1" offset="100%"></stop></linearGradient></defs><g><g><use xlink:href="#btbNeWith" opacity="1" fill="#006a93" fill-opacity="1"></use><g><use xlink:href="#btbNeWith" opacity="1" fill-opacity="0" stroke="#000000" stroke-width="1" stroke-opacity="0"></use></g></g><g><use xlink:href="#d1S7wanHII" opacity="1" fill="#007fae" fill-opacity="1"></use><g><use xlink:href="#d1S7wanHII" opacity="1" fill-opacity="0" stroke="#000000" stroke-width="1" stroke-opacity="0"></use></g></g><g><use xlink:href="#ckTJcElk" opacity="1" fill="#009bd6" fill-opacity="1"></use><g><use xlink:href="#ckTJcElk" opacity="1" fill-opacity="0" stroke="#000000" stroke-width="1" stroke-opacity="0"></use></g></g><g><use xlink:href="#a4d1OAjVCP" opacity="1" fill="url(#gradientb4rrYL4ljA)"></use><g><use xlink:href="#a4d1OAjVCP" opacity="1" fill-opacity="0" stroke="#000000" stroke-width="1" stroke-opacity="0"></use></g></g><g><use xlink:href="#b1MCN0Yz8e" opacity="1" fill="url(#gradientc9U1FfNDA)"></use><g><use xlink:href="#b1MCN0Yz8e" opacity="1" fill-opacity="0" stroke="#000000" stroke-width="1" stroke-opacity="0"></use></g></g></g></svg>