<?xml version="1.0" encoding="UTF-8" standalone="no"?>
<!DOCTYPE svg PUBLIC "-//W3C//DTD SVG 1.1//EN" "http://www.w3.org/Graphics/SVG/1.1/DTD/svg11.dtd">
<svg version="1.1" xmlns="http://www.w3.org/2000/svg" xmlns:xlink="http://www.w3.org/1999/xlink" preserveAspectRatio="xMidYMid meet" viewBox="481.02085476775915 399.64894189314896 128.02320161108537 140.5781385298285" width="124.02" height="136.58"><defs><path d="M595.89 413.54C588.29 409.41 580.69 405.27 573.1 401.14C575 401.63 576.64 402.64 578.35 403.57C580.94 404.98 583.54 406.39 586.13 407.8C590.19 410.01 594.24 412.22 598.3 414.42C598.31 414.43 598.31 414.43 598.31 414.43C597.54 414.05 596.72 413.75 595.89 413.54" id="biDr4uYqN"></path><path d="M598.31 414.43C590.71 410.29 583.11 406.16 575.52 402.03C579.45 403.95 583.25 406.22 587.1 408.32C590.98 410.43 594.87 412.55 598.76 414.66C598.61 414.58 598.46 414.5 598.31 414.43" id="e1haHEoaYK"></path><path d="M581.68 415.96C586.51 412.94 593.6 411.85 598.76 414.66C594.43 412.31 590.11 409.95 585.78 407.6C583.68 406.46 581.57 405.31 579.47 404.17C577.42 403.05 575.41 401.75 573.13 401.16C573.13 401.16 573.1 401.14 573.09 401.14C567.21 399.65 560.42 401.65 556.06 405.77C551.46 410.15 549.65 416.6 549.64 422.81C549.63 427.98 549.55 469.37 549.54 474.54C549.53 481.49 547.58 488.93 541.61 493.12C538.85 495.05 535.5 496.13 532.17 496.53C528.92 496.93 525.42 496.78 522.48 495.18C528.21 498.3 533.94 501.41 539.66 504.53C542.15 505.88 544.67 507.62 547.39 508.46C549.84 509.21 552.44 509.24 554.96 508.93C560.08 508.31 564.77 506.11 568.01 502.05C571.34 497.88 572.33 492.14 572.34 486.94C572.35 481.77 572.42 440.38 572.43 435.21C572.43 433.62 572.56 432.03 572.8 430.47C572.85 430.18 572.72 430.98 572.8 430.47C573.71 424.66 576.61 419.14 581.68 415.96Z" id="c95gH0l7kU"></path><path d="M513.32 426.01C518.23 422.55 525.78 421.17 531.24 424.15C525.63 421.1 520.02 418.04 514.41 414.99C511.88 413.62 509.35 411.91 506.63 410.95C504.18 410.1 501.51 410.01 498.96 410.37C493.85 411.09 489.13 413.74 486.16 418C483.26 422.12 482.13 427.33 482.12 432.3C482.11 437.5 482.03 479.14 482.02 484.34C482 493.53 483.48 503.25 488.77 510.98C490.87 514.04 493.55 516.68 496.65 518.74C498.82 520.18 501.19 521.34 503.48 522.58C506.4 524.17 509.32 525.76 512.24 527.35C515.4 529.07 518.55 530.78 521.71 532.5C516.31 529.56 512.03 525.01 509.3 519.51C505.83 512.49 504.8 504.49 504.82 496.74C504.83 491.54 504.9 449.9 504.91 444.7C504.91 443.87 504.95 443.06 505.01 442.27C505.03 442.02 504.95 443.06 505.01 442.27C505.49 436.02 508.05 429.71 513.32 426.01Z" id="f1B7kwp3oM"></path><path d="M606.04 430.48C606.03 435.69 605.96 477.33 605.95 482.53C605.88 516.92 584.23 532.27 555.29 536.33C526.36 540.4 504.75 531.14 504.81 496.74C504.82 491.54 504.9 449.9 504.91 444.7C504.93 432.55 511.38 424.23 521.75 422.77C532.13 421.31 538.55 427.83 538.52 439.97C538.51 445.15 538.44 486.54 538.43 491.71C538.41 503.54 543.51 510.55 555.34 508.89C567.18 507.22 572.31 498.77 572.34 486.94C572.35 481.77 572.42 440.38 572.43 435.21C572.46 423.06 578.9 414.74 589.27 413.28C599.65 411.82 606.07 418.34 606.04 430.48Z" id="ahQf2LGeg"></path><path d="M522.45 427.72C514.5 428.84 509.93 435.03 509.91 444.71C509.9 449.91 509.82 491.55 509.81 496.75C509.79 509 512.71 518.15 518.5 523.95C523.98 529.44 532.34 532.23 543.33 532.23C543.33 532.23 543.33 532.23 543.34 532.23C546.83 532.23 550.61 531.94 554.59 531.38C585.3 527.07 600.89 510.63 600.95 482.52C600.96 477.32 601.03 435.68 601.04 430.47C601.05 425.82 599.98 422.27 597.93 420.22C596.13 418.42 593.41 417.75 589.97 418.23C582.02 419.35 577.45 425.54 577.43 435.22C577.42 440.39 577.35 481.78 577.34 486.95C577.31 502.14 569.54 511.94 556.04 513.84C554.66 514.03 553.32 514.13 552.06 514.13C552.06 514.13 552.06 514.13 552.06 514.13C546.79 514.13 542.48 512.49 539.25 509.26C535.37 505.37 533.41 499.46 533.43 491.7C533.44 486.53 533.52 445.14 533.52 439.96C533.53 435.31 532.46 431.76 530.41 429.71C528.99 428.29 527.01 427.57 524.54 427.57C523.88 427.57 523.17 427.62 522.45 427.72Z" id="c1b0leH4Q3"></path><linearGradient id="gradientanR3O0TLR" gradientUnits="userSpaceOnUse" x1="510.07" y1="515.51" x2="601.64" y2="423.94"><stop style="stop-color: #ffffff;stop-opacity: 0" offset="0%"></stop><stop style="stop-color: #ffffff;stop-opacity: 0.0896" offset="4.4799999999999995%"></stop><stop style="stop-color: #ffffff;stop-opacity: 1" offset="50%"></stop><stop style="stop-color: #ffffff;stop-opacity: 0.0896" offset="95.52000000000001%"></stop><stop style="stop-color: #ffffff;stop-opacity: 0" offset="100%"></stop></linearGradient><path d="M538.45 477.92C522.68 505.68 513.91 521.1 512.16 524.19C518.86 533.3 529.73 537.15 542.97 537.22C544.64 534.28 557.98 510.82 559.65 507.88C558.32 508.33 556.89 508.67 555.34 508.88C543.51 510.55 538.41 503.54 538.43 491.71C538.43 489.87 538.44 485.27 538.45 477.92ZM572.43 435.21C572.43 438.56 572.39 455.34 572.34 485.55C592.42 450.22 603.57 430.59 605.81 426.67C604.58 417 598.5 411.98 589.27 413.28C578.9 414.74 572.46 423.06 572.43 435.21Z" id="a9yZdNP4T"></path><linearGradient id="gradienta3kbzD7b1C" gradientUnits="userSpaceOnUse" x1="513.05" y1="525.55" x2="611.68" y2="426.91"><stop style="stop-color: #ffffff;stop-opacity: 1" offset="0%"></stop><stop style="stop-color: #ffffff;stop-opacity: 0" offset="50%"></stop><stop style="stop-color: #ffffff;stop-opacity: 1" offset="100%"></stop></linearGradient></defs><g><g><use xlink:href="#biDr4uYqN" opacity="1" fill="#670965" fill-opacity="1"></use><g><use xlink:href="#biDr4uYqN" opacity="1" fill-opacity="0" stroke="#000000" stroke-width="1" stroke-opacity="0"></use></g></g><g><use xlink:href="#e1haHEoaYK" opacity="1" fill="#650663" fill-opacity="1"></use><g><use xlink:href="#e1haHEoaYK" opacity="1" fill-opacity="0" stroke="#000000" stroke-width="1" stroke-opacity="0"></use></g></g><g><use xlink:href="#c95gH0l7kU" opacity="1" fill="#690b67" fill-opacity="1"></use><g><use xlink:href="#c95gH0l7kU" opacity="1" fill-opacity="0" stroke="#000000" stroke-width="1" stroke-opacity="0"></use></g></g><g><use xlink:href="#f1B7kwp3oM" opacity="1" fill="#650663" fill-opacity="1"></use><g><use xlink:href="#f1B7kwp3oM" opacity="1" fill-opacity="0" stroke="#000000" stroke-width="1" stroke-opacity="0"></use></g></g><g><use xlink:href="#ahQf2LGeg" opacity="1" fill="#821d80" fill-opacity="1"></use><g><use xlink:href="#ahQf2LGeg" opacity="1" fill-opacity="0" stroke="#000000" stroke-width="1" stroke-opacity="0"></use></g></g><g><use xlink:href="#c1b0leH4Q3" opacity="1" fill="url(#gradientanR3O0TLR)"></use><g><use xlink:href="#c1b0leH4Q3" opacity="1" fill-opacity="0" stroke="#000000" stroke-width="1" stroke-opacity="0"></use></g></g><g><use xlink:href="#a9yZdNP4T" opacity="1" fill="url(#gradienta3kbzD7b1C)"></use><g><use xlink:href="#a9yZdNP4T" opacity="1" fill-opacity="0" stroke="#000000" stroke-width="1" stroke-opacity="0"></use></g></g></g></svg>