<?xml version="1.0" encoding="UTF-8" standalone="no"?>
<!DOCTYPE svg PUBLIC "-//W3C//DTD SVG 1.1//EN" "http://www.w3.org/Graphics/SVG/1.1/DTD/svg11.dtd">
<svg version="1.1" xmlns="http://www.w3.org/2000/svg" xmlns:xlink="http://www.w3.org/1999/xlink" preserveAspectRatio="xMidYMid meet" viewBox="634.6199621186801 399.9889779710076 122.08506638439917 139.2588069363091" width="118.09" height="135.26"><defs><path d="M743.94 413.87C736.35 409.74 728.75 405.61 721.15 401.47C723.11 401.98 724.78 402.98 726.53 403.94C729.11 405.33 731.68 406.73 734.25 408.13C738.37 410.37 742.48 412.61 746.6 414.85C746.6 414.85 746.61 414.85 746.61 414.86C745.76 414.44 744.86 414.11 743.94 413.87" id="aVCk4EpuF"></path><path d="M746.61 414.86C739.01 410.72 731.42 406.59 723.82 402.46C727.77 404.39 731.59 406.67 735.45 408.77C739.34 410.89 743.22 413 747.11 415.12C746.95 415.03 746.78 414.94 746.61 414.86" id="cvqwa2IDm"></path><path d="M747.11 415.12C742.79 412.76 738.46 410.41 734.14 408.06C731.92 406.85 729.69 405.64 727.47 404.43C725.43 403.32 723.43 402.07 721.16 401.48C721.16 401.48 721.15 401.47 721.15 401.47C716.33 400.2 710.96 401.52 706.89 404.28C702.92 407.01 700.28 411.16 699.2 415.84C698.12 420.35 692.72 442.87 683.01 483.4L705.8 495.8C715.52 455.26 720.92 432.74 722 428.24C722.24 427.2 722.56 426.17 722.95 425.18C723.02 425 722.82 425.51 722.95 425.18C726.5 416.16 738.05 410.18 747.11 415.12Z" id="a6NQAYC6a"></path><path d="M660.59 451.53C659.44 447.95 658.47 444.38 658.42 440.59C658.36 436.33 659.86 432.3 662.62 429.06C667.6 423.23 676.74 420.08 683.84 423.94C681.56 422.71 663.32 412.79 661.04 411.55C653.96 407.69 644.79 410.82 639.83 416.66C637.23 419.71 635.63 423.58 635.62 427.61C635.61 431.61 636.58 435.35 637.79 439.13C640.22 446.38 659.63 504.33 662.06 511.58C662.93 514.21 663.99 516.86 665.66 519.09C667.29 521.27 669.43 522.4 671.78 523.68C678.56 527.37 685.34 531.05 692.11 534.74C688.14 532.58 686.2 528.06 684.85 523.98C684.85 523.98 686.75 529.73 684.85 523.98C680 509.49 663.01 458.77 660.59 451.53Z" id="e2vO1ueC1F"></path><path d="M753.71 426.62C753.7 430.56 753.11 433.32 751.49 438.75C749.03 446.68 729.39 510.13 726.94 518.06C722.97 531.07 717.56 534.05 705.87 535.69C694.17 537.33 688.77 535.88 684.85 523.98C682.43 516.73 663.01 458.77 660.59 451.53C658.99 446.55 658.41 443.95 658.41 440.01C658.43 431.02 666.04 423.64 674.38 422.47C680.51 421.61 687.96 423.71 690.13 432.72C691.18 436.92 696.4 457.95 705.8 495.8C715.52 455.27 720.92 432.75 722 428.24C724.2 418.62 731.67 414.42 737.8 413.55C746.13 412.38 753.72 417.63 753.71 426.62Z" id="acO99ImDE"></path><path d="M675.07 427.42C669.47 428.21 663.43 433.25 663.41 440.02C663.41 443.15 663.81 445.21 665.35 450C667.77 457.24 687.17 515.15 689.6 522.39C692.22 530.38 694.66 531.25 699.24 531.25C700.82 531.25 702.7 531.09 705.17 530.74C715.43 529.3 718.9 527.27 722.16 516.6C724.61 508.67 744.26 445.21 746.71 437.27C748.29 432 748.7 429.79 748.71 426.61C748.71 424.27 747.95 422.28 746.51 420.83C744.61 418.93 741.63 418.06 738.5 418.5C736.28 418.82 728.9 420.52 726.87 429.36C725.25 436.12 712.28 490.21 710.66 496.97C710.13 499.21 708.13 500.79 705.82 500.8C705.81 500.8 705.81 500.8 705.8 500.8C703.5 500.8 701.5 499.24 700.95 497.01C699.38 490.7 686.85 440.23 685.28 433.92C684.22 429.51 681.4 427.29 676.89 427.29C676.29 427.29 675.68 427.33 675.07 427.42Z" id="c36d3fvKbb"></path><linearGradient id="gradientezHPcnyz1" gradientUnits="userSpaceOnUse" x1="667.45" y1="503.63" x2="748.37" y2="422.7"><stop style="stop-color: #ffffff;stop-opacity: 0" offset="0%"></stop><stop style="stop-color: #ffffff;stop-opacity: 0.0896" offset="4.4799999999999995%"></stop><stop style="stop-color: #ffffff;stop-opacity: 1" offset="50%"></stop><stop style="stop-color: #ffffff;stop-opacity: 0.0896" offset="95.52000000000001%"></stop><stop style="stop-color: #ffffff;stop-opacity: 0" offset="100%"></stop></linearGradient><path d="M722 428.24C720.92 432.74 715.52 455.26 705.8 495.8L695.76 455.39L674.44 492.9C680.69 511.55 684.16 521.91 684.85 523.98C686.25 528.23 687.84 531.14 689.84 533.06C696.15 521.96 746.65 433.11 752.96 422C750.87 415.9 744.58 412.6 737.8 413.55C731.67 414.42 724.2 418.62 722 428.24Z" id="h2vHmJjH4M"></path><linearGradient id="gradientd1BHUV2Tmn" gradientUnits="userSpaceOnUse" x1="670.59" y1="513.81" x2="758.57" y2="425.83"><stop style="stop-color: #ffffff;stop-opacity: 1" offset="0%"></stop><stop style="stop-color: #ffffff;stop-opacity: 0" offset="50%"></stop><stop style="stop-color: #ffffff;stop-opacity: 1" offset="100%"></stop></linearGradient></defs><g><g><use xlink:href="#aVCk4EpuF" opacity="1" fill="#a60062" fill-opacity="1"></use><g><use xlink:href="#aVCk4EpuF" opacity="1" fill-opacity="0" stroke="#000000" stroke-width="1" stroke-opacity="0"></use></g></g><g><use xlink:href="#cvqwa2IDm" opacity="1" fill="#a20060" fill-opacity="1"></use><g><use xlink:href="#cvqwa2IDm" opacity="1" fill-opacity="0" stroke="#000000" stroke-width="1" stroke-opacity="0"></use></g></g><g><use xlink:href="#a6NQAYC6a" opacity="1" fill="#a90065" fill-opacity="1"></use><g><use xlink:href="#a6NQAYC6a" opacity="1" fill-opacity="0" stroke="#000000" stroke-width="1" stroke-opacity="0"></use></g></g><g><use xlink:href="#e2vO1ueC1F" opacity="1" fill="#a20060" fill-opacity="1"></use><g><use xlink:href="#e2vO1ueC1F" opacity="1" fill-opacity="0" stroke="#000000" stroke-width="1" stroke-opacity="0"></use></g></g><g><use xlink:href="#acO99ImDE" opacity="1" fill="#d1007d" fill-opacity="1"></use><g><use xlink:href="#acO99ImDE" opacity="1" fill-opacity="0" stroke="#000000" stroke-width="1" stroke-opacity="0"></use></g></g><g><use xlink:href="#c36d3fvKbb" opacity="1" fill="url(#gradientezHPcnyz1)"></use><g><use xlink:href="#c36d3fvKbb" opacity="1" fill-opacity="0" stroke="#000000" stroke-width="1" stroke-opacity="0"></use></g></g><g><use xlink:href="#h2vHmJjH4M" opacity="1" fill="url(#gradientd1BHUV2Tmn)"></use><g><use xlink:href="#h2vHmJjH4M" opacity="1" fill-opacity="0" stroke="#000000" stroke-width="1" stroke-opacity="0"></use></g></g></g></svg>