<?xml version="1.0" encoding="UTF-8" standalone="no"?>
<!DOCTYPE svg PUBLIC "-//W3C//DTD SVG 1.1//EN" "http://www.w3.org/Graphics/SVG/1.1/DTD/svg11.dtd">
<svg version="1.1" xmlns="http://www.w3.org/2000/svg" xmlns:xlink="http://www.w3.org/1999/xlink" preserveAspectRatio="xMidYMid meet" viewBox="776.7735928983464 397.20201791554115 160.32044155369283 146.03881245678843" width="156.32" height="142.04"><defs><path d="M913.09 412.4C917.54 410.39 923.21 409.71 927.65 412.12C922.5 409.32 917.36 406.52 912.22 403.72C907.84 401.34 903.5 398.14 898.33 398.2C893.8 398.26 889.07 399.88 885.76 403.02C882.44 406.17 880.81 410.67 880.18 415.12C879.53 419.33 876.33 440.38 870.56 478.29L893.35 490.69C899.12 452.78 902.33 431.73 902.97 427.51C903.15 426.29 903.4 425.06 903.74 423.87C903.77 423.75 903.61 424.3 903.74 423.87C905.14 418.84 908.26 414.57 913.09 412.4Z" id="eeLBfYLE6"></path><path d="M867.39 466.26L844.59 453.86C850.06 484.7 853.1 501.83 853.71 505.26C854.24 508.32 855.05 511.44 856.63 514.14C858.28 516.95 860.64 518.33 863.43 519.85C870.21 523.53 876.99 527.22 883.77 530.91C879.05 528.34 877.36 522.58 876.5 517.65C876.5 517.65 877.67 524.34 876.5 517.65C875.28 510.8 872.25 493.67 867.39 466.26Z" id="bd2sApQxS"></path><path d="M860.75 419.73C863.45 418.64 866.28 418.06 869.18 417.8C871.97 417.56 875 417.64 877.53 419.01C871.92 415.96 866.31 412.9 860.7 409.85C858.16 408.47 855.6 406.71 852.84 405.84C850.42 405.09 847.75 405.23 845.28 405.52C840.46 406.08 835.38 407.58 832.31 411.58C829.29 415.52 828.28 420.7 827.56 425.5C826.92 429.51 823.71 449.57 817.95 485.68L840.74 498.08C846.5 461.97 849.71 441.91 850.35 437.9C850.59 436.34 850.86 434.79 851.21 433.25C851.27 432.97 851.1 433.73 851.21 433.25C852.47 427.6 855.05 422.02 860.75 419.73Z" id="a3IOku7QY7"></path><path d="M804.13 463.64C802.99 458.72 801.77 453.8 801.01 448.81C800.37 444.61 800.21 440.36 801.79 436.33C803.51 431.92 806.96 428.31 811.33 426.48C815.54 424.72 821.13 424.25 825.26 426.49C819.41 423.31 813.57 420.13 807.72 416.95C805.21 415.58 802.66 413.8 799.87 413.08C797.29 412.41 794.41 412.52 791.81 413.06C786.96 414.08 782.69 417.11 780.21 421.41C777.73 425.72 777.42 430.51 778.06 435.33C778.78 440.7 780.11 445.98 781.34 451.24C782.8 457.5 794.51 507.58 795.98 513.84C797.38 519.84 799.91 524.13 803.85 526.28C806.13 527.52 824.37 537.44 826.65 538.68C822.7 536.53 820.17 532.24 818.77 526.24C818.77 526.24 820.17 532.24 818.77 526.24C815.84 513.72 805.6 469.9 804.13 463.64Z" id="f5iSMkeZv"></path><path d="M934.09 424.4C934.08 429.29 932.46 436.61 930.4 445.89C928.91 452.57 917.01 505.97 915.52 512.65C913.16 523.22 907.74 529.98 897.95 531.36C897.44 531.43 893.35 532 892.83 532.08C883.05 533.45 878.38 528.43 876.5 517.65C875.89 514.23 872.86 497.1 867.39 466.26C861.63 498.68 858.43 516.68 857.79 520.28C855.87 531.59 851.18 537.93 841.39 539.31C840.88 539.38 836.79 539.95 836.28 540.02C826.49 541.4 821.09 536.16 818.77 526.24C817.31 519.98 805.6 469.9 804.14 463.64C802.1 454.93 800.51 448.06 800.51 443.18C800.53 434.03 806.83 426.52 815.75 425.26C823.49 424.17 830.06 426.72 831.64 437.54C832.25 441.58 835.28 461.76 840.74 498.08C846.51 461.97 849.71 441.91 850.35 437.9C852.27 425.18 855.79 419.63 867.33 418.01C878.88 416.39 882.37 420.95 884.25 433.14C884.86 436.97 887.89 456.16 893.35 490.69C899.12 452.78 902.33 431.73 902.97 427.52C904.59 416.25 911.17 411.85 918.92 410.76C927.84 409.51 934.11 415.26 934.09 424.4Z" id="fozditW3n"></path><path d="M816.44 430.21C810.02 431.12 805.52 436.45 805.51 443.19C805.5 447.53 807.13 454.47 809 462.5C810.47 468.76 822.17 518.85 823.64 525.11C825.73 534.04 829.71 535.24 833.32 535.24C834.03 535.24 834.79 535.18 835.59 535.07C836.1 535 840.19 534.43 840.7 534.35C846.62 533.52 850.96 530.67 852.86 519.45C853.82 514.04 861.5 470.79 862.46 465.39C862.89 463 864.96 461.26 867.39 461.26C867.39 461.26 867.39 461.26 867.39 461.26C869.81 461.26 871.89 463 872.31 465.39C873.22 470.53 880.51 511.64 881.42 516.78C883.12 526.49 886.51 527.3 889.84 527.3C890.54 527.3 891.32 527.24 892.14 527.12C892.65 527.05 896.75 526.48 897.26 526.41C901.72 525.78 907.96 523.56 910.64 511.56C912.13 504.88 924.03 451.48 925.52 444.8C927.44 436.19 929.09 428.75 929.1 424.39C929.1 421.51 928.29 419.17 926.75 417.62C925.1 415.97 922.58 415.3 919.62 415.71C912.63 416.7 909.02 420.56 907.92 428.23C906.95 434.55 899.26 485.12 898.3 491.44C897.93 493.88 895.83 495.68 893.37 495.69C893.36 495.69 893.36 495.69 893.35 495.69C890.89 495.69 888.8 493.9 888.42 491.47C887.5 485.71 880.22 439.67 879.31 433.92C877.67 423.22 875.36 422.7 871.42 422.7C870.43 422.7 869.29 422.79 868.03 422.96C860.08 424.08 857.13 426.51 855.3 438.65C854.33 444.67 846.64 492.85 845.68 498.87C845.29 501.3 843.2 503.08 840.74 503.08C840.73 503.08 840.73 503.08 840.72 503.08C838.25 503.07 836.16 501.26 835.8 498.82C834.89 492.77 827.61 444.34 826.7 438.28C825.64 431.03 822.31 430.03 818.87 430.03C818.12 430.03 817.3 430.09 816.44 430.21Z" id="fQH6CoOp"></path><linearGradient id="gradientb9hfCf8kj" gradientUnits="userSpaceOnUse" x1="814.9" y1="520.57" x2="922.3" y2="413.17"><stop style="stop-color: #ffffff;stop-opacity: 0" offset="0%"></stop><stop style="stop-color: #ffffff;stop-opacity: 0.0896" offset="4.4799999999999995%"></stop><stop style="stop-color: #ffffff;stop-opacity: 1" offset="50%"></stop><stop style="stop-color: #ffffff;stop-opacity: 0.0896" offset="95.52000000000001%"></stop><stop style="stop-color: #ffffff;stop-opacity: 0" offset="100%"></stop></linearGradient><path d="M821.78 533.93C824.78 538.73 829.46 540.98 836.28 540.02C836.79 539.95 840.88 539.38 841.39 539.31C851.18 537.93 855.87 531.59 857.79 520.28C858.43 516.68 861.63 498.68 867.39 466.26L874.78 507.93L891.44 478.61C887.13 451.33 884.73 436.17 884.25 433.14C883.86 430.61 883.39 428.43 882.81 426.54C870.6 448.02 827.88 523.19 821.78 533.93ZM902.97 427.52C902.54 430.32 900.41 444.35 896.56 469.59C915.91 435.55 926.66 416.63 928.81 412.85C926.23 411.01 922.83 410.21 918.92 410.76C911.17 411.85 904.59 416.25 902.97 427.52Z" id="a17hRiSLPG"></path><linearGradient id="gradientc3VkAc3U9o" gradientUnits="userSpaceOnUse" x1="817.52" y1="530.23" x2="931.86" y2="415.89"><stop style="stop-color: #ffffff;stop-opacity: 1" offset="0%"></stop><stop style="stop-color: #ffffff;stop-opacity: 0" offset="50%"></stop><stop style="stop-color: #ffffff;stop-opacity: 1" offset="100%"></stop></linearGradient></defs><g><g><use xlink:href="#eeLBfYLE6" opacity="1" fill="#a90f14" fill-opacity="1"></use><g><use xlink:href="#eeLBfYLE6" opacity="1" fill-opacity="0" stroke="#000000" stroke-width="1" stroke-opacity="0"></use></g></g><g><use xlink:href="#bd2sApQxS" opacity="1" fill="#8b0305" fill-opacity="1"></use><g><use xlink:href="#bd2sApQxS" opacity="1" fill-opacity="0" stroke="#000000" stroke-width="1" stroke-opacity="0"></use></g></g><g><use xlink:href="#a3IOku7QY7" opacity="1" fill="#a10c11" fill-opacity="1"></use><g><use xlink:href="#a3IOku7QY7" opacity="1" fill-opacity="0" stroke="#000000" stroke-width="1" stroke-opacity="0"></use></g></g><g><use xlink:href="#f5iSMkeZv" opacity="1" fill="#a10c11" fill-opacity="1"></use><g><use xlink:href="#f5iSMkeZv" opacity="1" fill-opacity="0" stroke="#000000" stroke-width="1" stroke-opacity="0"></use></g></g><g><use xlink:href="#fozditW3n" opacity="1" fill="#d2181f" fill-opacity="1"></use><g><use xlink:href="#fozditW3n" opacity="1" fill-opacity="0" stroke="#000000" stroke-width="1" stroke-opacity="0"></use></g></g><g><use xlink:href="#fQH6CoOp" opacity="1" fill="url(#gradientb9hfCf8kj)"></use><g><use xlink:href="#fQH6CoOp" opacity="1" fill-opacity="0" stroke="#000000" stroke-width="1" stroke-opacity="0"></use></g></g><g><use xlink:href="#a17hRiSLPG" opacity="1" fill="url(#gradientc3VkAc3U9o)"></use><g><use xlink:href="#a17hRiSLPG" opacity="1" fill-opacity="0" stroke="#000000" stroke-width="1" stroke-opacity="0"></use></g></g></g></svg>