<?xml version="1.0" encoding="UTF-8" standalone="no"?>
<!DOCTYPE svg PUBLIC "-//W3C//DTD SVG 1.1//EN" "http://www.w3.org/Graphics/SVG/1.1/DTD/svg11.dtd">
<svg version="1.1" xmlns="http://www.w3.org/2000/svg" xmlns:xlink="http://www.w3.org/1999/xlink" preserveAspectRatio="xMidYMid meet" viewBox="953.1959423456861 400.8426483558783 114.49008498917999 141.87871309130696" width="110.49" height="137.88"><defs><path d="M1020.87 501.14L998.08 488.74C1005.77 502.42 1010.04 510.02 1010.9 511.54C1012.56 514.44 1014.69 516.61 1017.17 517.96C1019.44 519.2 1037.68 529.12 1039.96 530.36C1037.48 529.01 1035.35 526.84 1033.69 523.94C1033.69 523.94 1035.35 526.84 1033.69 523.94C1031.98 520.9 1027.71 513.3 1020.87 501.14Z" id="d16W5tVNj"></path><path d="M1055.29 415.85C1050.73 413.37 1046.17 410.89 1041.61 408.41C1039.39 407.2 1037.17 405.99 1034.95 404.79C1033.24 403.86 1031.46 402.67 1029.52 402.28C1021.94 400.33 1013.59 405.06 1010.35 411.96C1009.54 413.66 1005.48 422.17 998.17 437.48L1020.97 449.88C1028.27 434.57 1032.33 426.06 1033.15 424.36C1033.59 423.42 1034.13 422.52 1034.73 421.68C1035.06 421.21 1034.66 421.77 1034.73 421.68C1039.17 415.5 1048.26 412.02 1055.29 415.85Z" id="a5f1CMCJFc"></path><path d="M980.97 514.32C982.33 511.88 989.17 499.67 1001.49 477.69L978.69 465.29C966.38 487.27 959.54 499.48 958.17 501.92C956.32 505.24 954.45 508.78 954.22 512.64C954.01 516.41 955.03 520.39 957.67 523.18C958.86 524.42 960.27 525.26 961.77 526.07C964.23 527.41 966.68 528.74 969.14 530.08C973.93 532.68 978.72 535.29 983.51 537.9C979.02 535.45 976.99 530.73 977 525.76C977 525.28 976.98 532.14 977 525.76C977 521.63 979 517.83 980.97 514.32Z" id="g1SmA8rifL"></path><path d="M988.08 424.49C992.73 421.31 999.14 420.32 1004.23 423.09C998.38 419.91 992.54 416.74 986.69 413.56C984.15 412.17 981.59 410.43 978.78 409.63C976.31 408.93 973.64 408.91 971.14 409.49C961.21 411.79 954.31 423.43 957.91 433.2C958.44 434.65 959.19 436.02 960.05 437.32C961.29 439.18 967.51 448.51 978.69 465.29L1001.49 477.69C990.3 460.91 984.08 451.58 982.84 449.71C980.65 446.4 979.78 443.53 979.78 440.37C979.78 439.75 979.78 443.53 979.78 440.37C979.79 434.1 982.9 428.04 988.08 424.49Z" id="a2CDJQK6ta"></path><path d="M1062.21 428.78C1062.2 431.94 1061.32 435.06 1059.12 438.99C1057.87 441.21 1051.62 452.29 1040.36 472.23C1052.6 490.76 1059.4 501.05 1060.76 503.11C1062.95 506.42 1064.69 509.5 1064.69 513.44C1064.66 525.27 1054.72 530.92 1048.44 531.81C1042.29 532.67 1037.04 529.78 1033.69 523.94C1032.84 522.42 1028.56 514.82 1020.87 501.14C1013.13 516.99 1008.83 525.79 1007.97 527.55C1004.59 534.34 999.32 538.71 993.19 539.57C986.91 540.46 976.97 537.59 977 525.76C977 521.82 978.76 518.25 980.97 514.32C982.33 511.88 989.17 499.67 1001.49 477.69C990.3 460.91 984.08 451.58 982.84 449.72C980.65 446.4 979.78 443.53 979.78 440.37C979.8 430.27 987.27 422.76 995.31 421.63C1000.42 420.91 1006.11 422.63 1008.88 427.77C1009.69 429.24 1013.72 436.61 1020.97 449.88C1028.28 434.57 1032.34 426.06 1033.15 424.36C1035.93 418.44 1041.64 415.12 1046.75 414.4C1054.79 413.27 1062.23 418.69 1062.21 428.78Z" id="b1QNBDAWwC"></path><path d="M996 426.58C990.5 427.35 984.8 432.72 984.78 440.38C984.78 442.65 985.42 444.55 987.01 446.96C988.88 449.76 1003.78 472.13 1005.65 474.92C1006.69 476.48 1006.77 478.5 1005.85 480.14C1003.8 483.8 987.38 513.1 985.33 516.77C983.17 520.62 982 523.19 982 525.77C981.99 528.6 982.73 530.78 984.21 532.25C985.75 533.8 988.29 534.72 991.01 534.72C991.52 534.72 992.02 534.69 992.49 534.62C996.91 534 1000.82 530.7 1003.49 525.33C1004.78 522.69 1015.09 501.59 1016.38 498.95C1017.19 497.28 1018.87 496.2 1020.73 496.14C1022.58 496.08 1024.32 497.07 1025.23 498.69C1026.51 500.97 1036.77 519.21 1038.05 521.49C1039.47 523.97 1042.07 526.96 1046.33 526.96C1046.78 526.96 1047.26 526.92 1047.74 526.86C1050.83 526.42 1059.67 523.02 1059.68 513.43C1059.69 511.01 1058.64 508.98 1056.58 505.86C1054.54 502.78 1038.23 478.07 1036.19 474.99C1035.15 473.42 1035.08 471.41 1036 469.77C1037.88 466.45 1052.89 439.86 1054.77 436.54C1056.47 433.5 1057.2 431.17 1057.21 428.78C1057.21 425.73 1056.32 423.23 1054.63 421.54C1052.86 419.76 1050.21 418.96 1047.44 419.35C1044.27 419.79 1039.81 421.93 1037.67 426.48C1036.45 429.04 1026.7 449.48 1025.48 452.03C1024.67 453.73 1022.98 454.83 1021.1 454.88C1019.22 454.94 1017.48 453.93 1016.58 452.28C1015.37 450.07 1005.7 432.38 1004.49 430.16C1002.7 426.83 999.02 426.47 997.53 426.47C997.02 426.47 996.51 426.51 996 426.58Z" id="a5PMnbczw2"></path><linearGradient id="gradientb12kAQrG0E" gradientUnits="userSpaceOnUse" x1="975.42" y1="523.46" x2="1065.99" y2="432.89"><stop style="stop-color: #ffffff;stop-opacity: 0" offset="0%"></stop><stop style="stop-color: #ffffff;stop-opacity: 0.0896" offset="4.4799999999999995%"></stop><stop style="stop-color: #ffffff;stop-opacity: 1" offset="50%"></stop><stop style="stop-color: #ffffff;stop-opacity: 0.0896" offset="95.52000000000001%"></stop><stop style="stop-color: #ffffff;stop-opacity: 0" offset="100%"></stop></linearGradient><path d="M1033.15 424.35C1032.33 426.06 1028.27 434.56 1020.97 449.88L1010.99 431.63L992.49 464.19L1001.49 477.69C989.17 499.67 982.33 511.88 980.97 514.32C978.76 518.25 977 521.82 977 525.76C976.98 534.6 982.52 538.43 987.95 539.44C994.89 527.22 1050.43 429.49 1057.37 417.28C1054.52 414.88 1050.71 413.84 1046.75 414.4C1041.64 415.11 1035.93 418.44 1033.15 424.35Z" id="a2ctxP6SKj"></path><linearGradient id="gradientg5Djef7TMs" gradientUnits="userSpaceOnUse" x1="964.94" y1="520.06" x2="1062.55" y2="422.46"><stop style="stop-color: #ffffff;stop-opacity: 1" offset="0%"></stop><stop style="stop-color: #ffffff;stop-opacity: 0" offset="50%"></stop><stop style="stop-color: #ffffff;stop-opacity: 1" offset="100%"></stop></linearGradient></defs><g><g><use xlink:href="#d16W5tVNj" opacity="1" fill="#347885" fill-opacity="1"></use><g><use xlink:href="#d16W5tVNj" opacity="1" fill-opacity="0" stroke="#000000" stroke-width="1" stroke-opacity="0"></use></g></g><g><use xlink:href="#a5f1CMCJFc" opacity="1" fill="#4492a1" fill-opacity="1"></use><g><use xlink:href="#a5f1CMCJFc" opacity="1" fill-opacity="0" stroke="#000000" stroke-width="1" stroke-opacity="0"></use></g></g><g><use xlink:href="#g1SmA8rifL" opacity="1" fill="#3a8290" fill-opacity="1"></use><g><use xlink:href="#g1SmA8rifL" opacity="1" fill-opacity="0" stroke="#000000" stroke-width="1" stroke-opacity="0"></use></g></g><g><use xlink:href="#a2CDJQK6ta" opacity="1" fill="#408b9a" fill-opacity="1"></use><g><use xlink:href="#a2CDJQK6ta" opacity="1" fill-opacity="0" stroke="#000000" stroke-width="1" stroke-opacity="0"></use></g></g><g><use xlink:href="#b1QNBDAWwC" opacity="1" fill="#56b4c6" fill-opacity="1"></use><g><use xlink:href="#b1QNBDAWwC" opacity="1" fill-opacity="0" stroke="#000000" stroke-width="1" stroke-opacity="0"></use></g></g><g><use xlink:href="#a5PMnbczw2" opacity="1" fill="url(#gradientb12kAQrG0E)"></use><g><use xlink:href="#a5PMnbczw2" opacity="1" fill-opacity="0" stroke="#000000" stroke-width="1" stroke-opacity="0"></use></g></g><g><use xlink:href="#a2ctxP6SKj" opacity="1" fill="url(#gradientg5Djef7TMs)"></use><g><use xlink:href="#a2ctxP6SKj" opacity="1" fill-opacity="0" stroke="#000000" stroke-width="1" stroke-opacity="0"></use></g></g></g></svg>