<?xml version="1.0" encoding="UTF-8" standalone="no"?>
<!DOCTYPE svg PUBLIC "-//W3C//DTD SVG 1.1//EN" "http://www.w3.org/Graphics/SVG/1.1/DTD/svg11.dtd">
<svg version="1.1" xmlns="http://www.w3.org/2000/svg" xmlns:xlink="http://www.w3.org/1999/xlink" preserveAspectRatio="xMidYMid meet" viewBox="1081.2588518943585 400.35788911975163 117.4341796781921 138.53488724365792" width="113.43" height="134.53"><defs><path d="M1133.47 495.3L1110.68 482.9C1110.65 496.81 1110.64 504.54 1110.64 506.09C1110.63 511.89 1112.19 518.51 1117.52 521.68C1121.19 523.87 1125.05 525.79 1128.79 527.83C1132.77 529.99 1136.74 532.15 1140.72 534.31C1135.09 531.25 1133.42 524.44 1133.43 518.49C1133.43 518.49 1133.42 526.3 1133.43 518.49C1133.44 515.4 1133.45 507.67 1133.47 495.3Z" id="a1krIiykx2"></path><path d="M1174.98 415.21C1179.2 413.43 1184.1 413.13 1188.21 415.36C1183.19 412.63 1178.16 409.89 1173.14 407.16C1170.68 405.82 1168.23 404.49 1165.77 403.15C1163.96 402.17 1162.04 401.54 1159.97 401.4C1151.27 400.8 1144.43 407.21 1141.2 414.74C1140.29 416.9 1135.74 427.69 1127.55 447.1L1150.34 459.5C1158.53 440.08 1163.08 429.3 1163.99 427.14C1164.37 426.26 1164.79 425.39 1165.26 424.54C1165.4 424.29 1165.11 424.81 1165.26 424.54C1167.44 420.54 1170.73 417 1174.98 415.21Z" id="b7lCXjrSp"></path><path d="M1105.1 442.38C1104.88 438.23 1106.25 434.02 1108.52 430.58C1113.02 423.74 1122.44 419.33 1130.19 423.54C1124.35 420.37 1118.5 417.19 1112.66 414.01C1110.11 412.62 1107.55 410.87 1104.74 410.08C1102.19 409.36 1099.44 409.4 1096.87 410.02C1087.61 412.26 1080.52 422.9 1082.63 432.34C1083.33 435.45 1084.93 438.3 1086.51 441.04C1088.12 443.83 1096.18 457.78 1110.68 482.9L1133.47 495.3C1118.97 470.18 1110.91 456.23 1109.3 453.44C1106.53 448.62 1109.3 453.44 1109.3 453.44C1107.34 450.03 1105.32 446.39 1105.1 442.38Z" id="l28dY34GU"></path><path d="M1195.69 428.84C1195.69 432.63 1194.22 436.3 1191.43 441.89C1189.81 445.14 1181.69 461.37 1167.09 490.57C1167.06 504.49 1167.04 512.22 1167.04 513.76C1167.02 525.91 1160.58 534.23 1150.2 535.69C1139.83 537.15 1133.41 530.63 1133.43 518.49C1133.43 516.94 1133.45 509.21 1133.47 495.3C1118.97 470.18 1110.91 456.23 1109.3 453.44C1106.53 448.62 1105.07 445.36 1105.08 441.58C1105.1 432.58 1111.98 423.41 1121.19 422.12C1127.92 421.17 1133.46 424.02 1136.81 430.96C1137.71 432.86 1142.22 442.38 1150.34 459.5C1158.53 440.09 1163.08 429.3 1163.99 427.14C1167.37 419.26 1172.93 414.85 1179.65 413.9C1188.86 412.61 1195.71 419.85 1195.69 428.84Z" id="bNCiutOOR"></path><path d="M1121.88 427.07C1115.5 427.97 1110.09 434.61 1110.08 441.58C1110.07 443.98 1110.94 446.26 1113.64 450.94C1116.05 455.13 1135.39 488.61 1137.8 492.8C1138.24 493.56 1138.47 494.43 1138.47 495.31C1138.47 497.63 1138.43 516.18 1138.43 518.49C1138.42 523.15 1139.5 526.7 1141.54 528.75C1143.34 530.55 1146.07 531.22 1149.5 530.74C1157.45 529.62 1162.02 523.43 1162.04 513.75C1162.05 511.43 1162.08 492.88 1162.08 490.56C1162.09 489.79 1162.27 489.03 1162.61 488.34C1165.05 483.47 1184.53 444.52 1186.96 439.66C1189.75 434.07 1190.69 431.33 1190.69 428.83C1190.7 425.86 1189.63 423.08 1187.76 421.21C1185.83 419.28 1183.22 418.45 1180.34 418.85C1175.14 419.58 1171.19 423.03 1168.59 429.11C1167.22 432.34 1156.31 458.21 1154.95 461.44C1154.18 463.26 1152.42 464.46 1150.45 464.5C1148.46 464.53 1146.67 463.42 1145.82 461.64C1144.47 458.79 1133.64 435.96 1132.29 433.1C1130.3 428.97 1127.46 426.94 1123.63 426.94C1123.07 426.94 1122.49 426.99 1121.88 427.07Z" id="a9qJa8rwy"></path><linearGradient id="gradientalvcIcgrp" gradientUnits="userSpaceOnUse" x1="1113.88" y1="501.09" x2="1190.76" y2="424.21"><stop style="stop-color: #ffffff;stop-opacity: 0" offset="0%"></stop><stop style="stop-color: #ffffff;stop-opacity: 0.0896" offset="4.4799999999999995%"></stop><stop style="stop-color: #ffffff;stop-opacity: 1" offset="50%"></stop><stop style="stop-color: #ffffff;stop-opacity: 0.0896" offset="95.52000000000001%"></stop><stop style="stop-color: #ffffff;stop-opacity: 0" offset="100%"></stop></linearGradient><path d="M1163.99 427.14C1163.08 429.3 1158.53 440.09 1150.34 459.5L1142.47 442.9L1123 477.16L1133.47 495.3C1133.45 509.21 1133.43 516.94 1133.43 518.49C1133.43 520.82 1133.66 522.95 1134.12 524.85C1140.05 514.42 1187.51 430.91 1193.44 420.47C1190.7 415.89 1185.69 413.05 1179.65 413.9C1172.93 414.85 1167.37 419.26 1163.99 427.14Z" id="d7Q1FU156"></path><linearGradient id="gradienta3p5Ir1Avx" gradientUnits="userSpaceOnUse" x1="1115.72" y1="506.46" x2="1197.89" y2="424.29"><stop style="stop-color: #ffffff;stop-opacity: 1" offset="0%"></stop><stop style="stop-color: #ffffff;stop-opacity: 0" offset="50%"></stop><stop style="stop-color: #ffffff;stop-opacity: 1" offset="100%"></stop></linearGradient></defs><g><g><use xlink:href="#a1krIiykx2" opacity="1" fill="#15725f" fill-opacity="1"></use><g><use xlink:href="#a1krIiykx2" opacity="1" fill-opacity="0" stroke="#000000" stroke-width="1" stroke-opacity="0"></use></g></g><g><use xlink:href="#b7lCXjrSp" opacity="1" fill="#238872" fill-opacity="1"></use><g><use xlink:href="#b7lCXjrSp" opacity="1" fill-opacity="0" stroke="#000000" stroke-width="1" stroke-opacity="0"></use></g></g><g><use xlink:href="#l28dY34GU" opacity="1" fill="#20826d" fill-opacity="1"></use><g><use xlink:href="#l28dY34GU" opacity="1" fill-opacity="0" stroke="#000000" stroke-width="1" stroke-opacity="0"></use></g></g><g><use xlink:href="#bNCiutOOR" opacity="1" fill="#33a78c" fill-opacity="1"></use><g><use xlink:href="#bNCiutOOR" opacity="1" fill-opacity="0" stroke="#000000" stroke-width="1" stroke-opacity="0"></use></g></g><g><use xlink:href="#a9qJa8rwy" opacity="1" fill="url(#gradientalvcIcgrp)"></use><g><use xlink:href="#a9qJa8rwy" opacity="1" fill-opacity="0" stroke="#000000" stroke-width="1" stroke-opacity="0"></use></g></g><g><use xlink:href="#d7Q1FU156" opacity="1" fill="url(#gradienta3p5Ir1Avx)"></use><g><use xlink:href="#d7Q1FU156" opacity="1" fill-opacity="0" stroke="#000000" stroke-width="1" stroke-opacity="0"></use></g></g></g></svg>