<?xml version="1.0" encoding="UTF-8" standalone="no"?>
<!DOCTYPE svg PUBLIC "-//W3C//DTD SVG 1.1//EN" "http://www.w3.org/Graphics/SVG/1.1/DTD/svg11.dtd">
<svg version="1.1" xmlns="http://www.w3.org/2000/svg" xmlns:xlink="http://www.w3.org/1999/xlink" preserveAspectRatio="xMidYMid meet" viewBox="1213.80067979888 401.8642344615129 125.91736629587808 139.65780749033132" width="121.92" height="135.66"><defs><path d="M1331.57 501.59C1325.84 498.48 1320.11 495.36 1314.38 492.25C1311.86 490.87 1309.3 489.07 1306.51 488.3C1303.96 487.59 1301.21 487.67 1298.6 488.03C1296.07 488.39 1283.4 490.17 1260.61 493.37L1283.4 505.77C1306.2 502.57 1318.86 500.79 1321.4 500.43C1322.21 500.32 1323.03 500.25 1323.85 500.2C1324.34 500.18 1323.68 500.21 1323.85 500.2C1326.45 500.07 1329.23 500.32 1331.57 501.59Z" id="a1HzEnNYLC"></path><path d="M1247.02 504.58C1249.84 500.83 1263.9 482.03 1289.2 448.19L1266.41 435.79C1241.1 469.63 1227.04 488.43 1224.23 492.19C1221.36 495.99 1218.37 499.93 1216.48 504.34C1214.55 508.81 1214.14 514.28 1216 518.85C1216.76 520.74 1217.98 522.42 1219.6 523.66C1221.9 525.39 1224.75 526.59 1227.28 527.97C1232.77 530.95 1238.26 533.94 1243.76 536.93C1238.69 534.17 1237.28 528.15 1237.72 522.79C1237.76 522.29 1237.71 522.9 1237.72 522.79C1238.31 515.87 1242.98 509.93 1247.02 504.58Z" id="axEH1C1QH"></path><path d="M1329.25 416.71C1323.64 413.66 1318.03 410.61 1312.42 407.56C1309.95 406.22 1307.46 404.51 1304.8 403.6C1302.36 402.75 1299.69 402.72 1297.16 403.08C1290.82 403.97 1240.07 411.1 1233.73 411.99C1228.84 412.68 1224.04 414.55 1220.86 418.46C1217.83 422.2 1216.97 427.66 1218.02 432.28C1218.48 434.3 1219.41 436.2 1220.91 437.64C1222.91 439.57 1225.8 440.68 1228.21 441.99C1234.06 445.17 1239.9 448.35 1245.75 451.53C1240.46 448.66 1239.37 441.29 1241.07 435.96C1242.08 432.82 1243.78 430.12 1246.46 428.15C1249.39 426 1252.96 424.89 1256.52 424.39C1262.87 423.5 1313.61 416.37 1319.95 415.48C1320.67 415.38 1321.39 415.32 1322.11 415.29C1322.51 415.27 1321.96 415.3 1322.11 415.29C1324.56 415.19 1327.07 415.53 1329.25 416.71Z" id="aacGekvgwk"></path><path d="M1335.26 429.26C1335.25 434.46 1333.64 438.63 1328.51 445.51C1325.51 449.52 1310.47 469.61 1283.4 505.77C1306.2 502.57 1318.86 500.79 1321.4 500.43C1331.48 499.02 1336.74 503.17 1336.72 512.48C1336.7 521.78 1331.43 527.41 1321.34 528.83C1314.62 529.77 1260.84 537.33 1254.12 538.27C1242.72 539.88 1237.62 533.5 1237.63 524.67C1237.64 518.68 1239.7 514.28 1247.02 504.59C1249.83 500.83 1263.89 482.03 1289.2 448.19C1269.56 450.95 1258.65 452.48 1256.47 452.79C1245.51 454.33 1240.41 449.37 1240.42 440.86C1240.44 432.33 1245.56 425.94 1256.53 424.39C1260.75 423.8 1281.9 420.83 1319.95 415.48C1330.17 418.77 1335.27 423.37 1335.26 429.26Z" id="c1zhqTthLo"></path><path d="M1293.51 445.64C1294.53 447.38 1294.42 449.56 1293.21 451.18C1288.99 456.82 1255.24 501.94 1251.03 507.58C1243.81 517.14 1242.64 520.45 1242.63 524.68C1242.63 526.81 1243.01 529.73 1244.83 531.56C1246.54 533.27 1249.51 533.87 1253.42 533.32C1260.15 532.38 1313.93 524.82 1320.65 523.88C1330.44 522.5 1331.71 517.06 1331.72 512.47C1331.72 510.57 1331.44 508.02 1330.08 506.65C1328.72 505.29 1325.92 504.85 1322.09 505.38C1318.29 505.92 1287.9 510.19 1284.1 510.72C1282.1 511 1280.13 510.06 1279.1 508.32C1278.07 506.58 1278.19 504.39 1279.4 502.78C1283.91 496.75 1320 448.54 1324.51 442.51C1329.36 436 1330.26 432.94 1330.26 429.25C1330.27 426.01 1329.48 423.43 1328.04 421.98C1326.88 420.82 1325.2 420.26 1322.91 420.26C1322.21 420.26 1321.45 420.32 1320.65 420.43C1314.31 421.32 1263.56 428.45 1257.22 429.34C1249.41 430.44 1245.44 434.32 1245.42 440.86C1245.42 442.61 1245.71 444.98 1247.09 446.37C1248.62 447.9 1251.66 448.41 1255.78 447.83C1259.05 447.37 1285.24 443.69 1288.51 443.23C1288.74 443.2 1288.97 443.19 1289.21 443.19C1290.96 443.19 1292.6 444.11 1293.51 445.64Z" id="c2Q9Bnsn02"></path><linearGradient id="gradientc2JisDgIL" gradientUnits="userSpaceOnUse" x1="1239.34" y1="526.07" x2="1335.73" y2="429.68"><stop style="stop-color: #ffffff;stop-opacity: 0" offset="0%"></stop><stop style="stop-color: #ffffff;stop-opacity: 0.0896" offset="4.4799999999999995%"></stop><stop style="stop-color: #ffffff;stop-opacity: 1" offset="50%"></stop><stop style="stop-color: #ffffff;stop-opacity: 0.0896" offset="95.52000000000001%"></stop><stop style="stop-color: #ffffff;stop-opacity: 0" offset="100%"></stop></linearGradient><path d="M1284.97 420.4L1267.44 451.25L1289.2 448.19C1263.9 482.03 1249.84 500.83 1247.02 504.58C1239.7 514.28 1237.64 518.68 1237.63 524.67C1237.62 533.5 1242.72 539.88 1254.12 538.27C1254.27 538.25 1255.03 538.15 1256.38 537.96C1298.12 464.52 1321.3 423.72 1325.94 415.56C1324.2 415.22 1322.22 415.16 1319.95 415.48C1315.29 416.14 1303.63 417.77 1284.97 420.4Z" id="beOOruuhc"></path><linearGradient id="gradientd1mmumhNEB" gradientUnits="userSpaceOnUse" x1="1228.03" y1="521.83" x2="1330.11" y2="419.74"><stop style="stop-color: #ffffff;stop-opacity: 1" offset="0%"></stop><stop style="stop-color: #ffffff;stop-opacity: 0" offset="50%"></stop><stop style="stop-color: #ffffff;stop-opacity: 1" offset="100%"></stop></linearGradient></defs><g><g><use xlink:href="#a1HzEnNYLC" opacity="1" fill="#248a38" fill-opacity="1"></use><g><use xlink:href="#a1HzEnNYLC" opacity="1" fill-opacity="0" stroke="#000000" stroke-width="1" stroke-opacity="0"></use></g></g><g><use xlink:href="#axEH1C1QH" opacity="1" fill="#18782f" fill-opacity="1"></use><g><use xlink:href="#axEH1C1QH" opacity="1" fill-opacity="0" stroke="#000000" stroke-width="1" stroke-opacity="0"></use></g></g><g><use xlink:href="#aacGekvgwk" opacity="1" fill="#208334" fill-opacity="1"></use><g><use xlink:href="#aacGekvgwk" opacity="1" fill-opacity="0" stroke="#000000" stroke-width="1" stroke-opacity="0"></use></g></g><g><use xlink:href="#c1zhqTthLo" opacity="1" fill="#32a242" fill-opacity="1"></use><g><use xlink:href="#c1zhqTthLo" opacity="1" fill-opacity="0" stroke="#000000" stroke-width="1" stroke-opacity="0"></use></g></g><g><use xlink:href="#c2Q9Bnsn02" opacity="1" fill="url(#gradientc2JisDgIL)"></use><g><use xlink:href="#c2Q9Bnsn02" opacity="1" fill-opacity="0" stroke="#000000" stroke-width="1" stroke-opacity="0"></use></g></g><g><use xlink:href="#beOOruuhc" opacity="1" fill="url(#gradientd1mmumhNEB)"></use><g><use xlink:href="#beOOruuhc" opacity="1" fill-opacity="0" stroke="#000000" stroke-width="1" stroke-opacity="0"></use></g></g></g></svg>