<?xml version="1.0" encoding="UTF-8" standalone="no"?>
<!DOCTYPE svg PUBLIC "-//W3C//DTD SVG 1.1//EN" "http://www.w3.org/Graphics/SVG/1.1/DTD/svg11.dtd">
<svg version="1.1" xmlns="http://www.w3.org/2000/svg" xmlns:xlink="http://www.w3.org/1999/xlink" preserveAspectRatio="xMidYMid meet" viewBox="593.7231282552083 49.50000000000004 173.94092648033813 154.09999999999997" width="169.94" height="150.1"><defs><path d="M656 195C656 197.4 658 199.3 660.4 199.3C664.74 199.3 699.46 199.3 703.8 199.3C706.1 199.3 708.1 197.5 708.2 195.1C708.2 194.8 709.7 169.2 720.6 151.1C723.8 153.4 728.1 154.9 733.8 154.9C737 154.9 740.6 154.4 744.3 153.3C752.3 151.1 758.1 146.8 761.5 140.7C766.3 131.9 764.4 122 763.7 119C764.6 108.4 762.3 99.9 756.8 93.8C750.8 87.1 742.6 85.2 737.9 84.7C734.4 75 720.7 70.2 714.2 68.5C712.7 60.9 706.8 50.5 691.5 50.5C687.6 50.5 683.2 51.2 678.4 52.6C656 59.3 647.7 71.3 644.8 78.3C642.2 77.5 639.7 77.1 637.4 77.1C626 77.1 620.7 86.8 618.9 93.7C614.1 95.5 604.1 100.2 600.3 109.5C597.4 116.5 598.5 124.4 603.6 133C608.6 141.5 614.3 145.8 620.3 145.8C620.3 145.8 620.3 145.8 620.3 145.8C626 145.7 630.4 142 633.5 138.1C639 142.2 655.4 157.6 656 195ZM664.7 190.5C663.2 159.8 651.4 143 643.4 135.1C647.3 134.5 650.8 132.3 653.3 130.2C653.9 131 654.6 131.7 655.2 132.3C655.2 132.9 655.3 133.5 655.6 134.1C656.8 136.67 666.4 157.23 667.6 159.8C668.3 161.4 669.9 162.3 671.6 162.3C672 162.3 672.3 162.3 672.7 162.2C674.7 161.7 676.1 159.7 676 157.6C675.87 155.87 674.83 142.03 674.7 140.3C678.8 140.1 682.8 139.1 686.4 137.6C686.32 140.5 685.68 163.7 685.6 166.6C685.5 168.9 687.3 170.9 689.6 171.1C689.7 171.1 689.9 171.1 690 171.1C692.1 171.1 694 169.6 694.3 167.4C695.2 161.6 698.4 146.4 702.8 138.5C706.7 141.4 710.8 142.1 713.3 142.3C713.6 142.9 713.9 143.6 714.3 144.3C704 160.2 700.7 181.6 699.8 190.5C692.78 190.5 668.21 190.5 664.7 190.5ZM696.5 132.4C696 133.1 695.6 133.9 695.1 134.8C695 134.4 694.7 134 694.5 133.7C695.2 133.3 695.9 132.8 696.5 132.4ZM611.3 128.4C607.7 122.3 606.8 117 608.5 112.7C611.8 104.5 623.8 101.2 623.9 101.2C625.6 100.8 626.9 99.3 627.1 97.6C627.2 97.1 628.9 85.8 637.5 85.8C639.9 85.8 642.6 86.6 645.7 88.1C647 88.7 648.5 88.7 649.7 88C650.9 87.3 651.8 86.1 652 84.7C652 84.5 654.3 69 681 61C684.9 59.8 688.5 59.2 691.6 59.2C704.9 59.2 705.8 70.9 705.9 72.2C706 74.2 707.4 75.9 709.4 76.4C715.9 77.8 729.6 82.7 730 89.3C730.2 91.6 732.3 93.4 734.6 93.4C735.6 93.4 744.7 93.6 750.3 99.9C754.2 104.2 755.8 110.7 754.9 119.1C754.8 119.7 754.9 120.3 755.1 120.8C755.1 120.9 757.7 129.6 753.9 136.6C751.7 140.6 747.8 143.4 742.1 144.9C739.1 145.7 736.3 146.1 733.9 146.1C728.8 146.1 725.7 144.2 723.9 142.2C723.7 141.7 723.3 141.3 722.9 140.9C721.6 139.1 721.2 137.4 721.2 137C720.8 134.9 718.9 133.4 716.8 133.4C716.6 133.4 716.3 133.4 716.1 133.5C716.1 133.5 715.6 133.6 714.9 133.6C711.1 133.6 705.9 131.9 703.4 123.7C703 122.3 701.8 121.2 700.4 120.8C699 120.4 697.4 120.8 696.3 121.7C693.2 124.4 683.2 131.5 673.9 131.5C667.4 131.5 662.2 128.1 658.1 121.1C657.4 119.9 656.1 119.1 654.7 118.9C653.3 118.8 651.9 119.4 651 120.5C649.4 122.4 645.1 126.4 641.8 126.4C641 126.4 639.9 126.2 638.5 124.5C637.5 123.3 636 122.7 634.5 123C633 123.2 631.7 124.2 631.1 125.6C629.2 129.4 624.6 136.9 620.4 136.9C617.8 136.9 614.5 133.9 611.3 128.4Z" id="i3FWt4pTlP"></path><path d="M652 196.3C652 198.7 654 200.6 656.4 200.6C660.74 200.6 695.46 200.6 699.8 200.6C702.1 200.6 704.1 198.8 704.2 196.4C704.2 196.1 705.7 170.5 716.6 152.4C719.8 154.7 724.1 156.2 729.8 156.2C733 156.2 736.6 155.7 740.3 154.6C748.3 152.4 754.1 148.1 757.5 142C762.3 133.2 760.4 123.3 759.7 120.3C760.6 109.7 758.3 101.2 752.8 95.1C746.8 88.4 738.6 86.5 733.9 86C730.4 76.3 716.7 71.5 710.2 69.8C708.7 62.2 702.8 51.8 687.5 51.8C683.6 51.8 679.2 52.5 674.4 53.9C652 60.6 643.7 72.6 640.8 79.6C638.2 78.8 635.7 78.4 633.4 78.4C622 78.4 616.7 88.1 614.9 94.9C610.1 96.7 600.1 101.4 596.3 110.7C593.4 117.7 594.5 125.6 599.6 134.2C604.6 142.7 610.3 147 616.3 147C616.3 147 616.3 147 616.3 147C622 147 626.4 143.3 629.5 139.4C635 143.5 651.4 158.9 652 196.3ZM660.7 191.8C659.2 161.1 647.4 144.3 639.4 136.4C643.3 135.8 646.8 133.6 649.3 131.5C649.9 132.3 650.6 133 651.2 133.6C651.2 134.2 651.3 134.8 651.6 135.4C652.8 137.97 662.4 158.53 663.6 161.1C664.3 162.7 665.9 163.6 667.6 163.6C668 163.6 668.3 163.6 668.7 163.5C670.7 163 672.1 161 672 158.9C671.87 157.17 670.83 143.33 670.7 141.6C674.8 141.4 678.8 140.4 682.4 138.9C682.32 141.8 681.68 165 681.6 167.9C681.5 170.2 683.3 172.2 685.6 172.4C685.7 172.4 685.9 172.4 686 172.4C688.1 172.4 690 170.9 690.3 168.7C691.2 162.9 694.4 147.7 698.8 139.8C702.7 142.7 706.8 143.4 709.3 143.6C709.6 144.2 709.9 144.9 710.3 145.6C700 161.6 696.7 182.9 695.8 191.8C688.78 191.8 664.21 191.8 660.7 191.8ZM692.5 133.7C692 134.4 691.6 135.2 691.1 136.1C691 135.7 690.7 135.3 690.5 135C691.2 134.6 691.9 134.1 692.5 133.7ZM607.3 129.7C603.7 123.6 602.8 118.3 604.5 114C607.8 105.8 619.8 102.5 619.9 102.5C621.6 102.1 622.9 100.6 623.1 98.9C623.2 98.4 624.9 87.1 633.5 87.1C635.9 87.1 638.6 87.9 641.7 89.4C643 90 644.5 90 645.7 89.3C646.9 88.6 647.8 87.4 648 86C648 85.8 650.3 70.3 677 62.3C680.9 61.1 684.5 60.5 687.6 60.5C700.9 60.5 701.8 72.2 701.9 73.5C702 75.5 703.4 77.2 705.4 77.7C711.9 79.1 725.6 84 726 90.6C726.2 92.9 728.3 94.7 730.6 94.7C731.6 94.7 740.7 94.9 746.3 101.2C750.2 105.5 751.8 112 750.9 120.4C750.8 121 750.9 121.6 751.1 122.1C751.1 122.2 753.7 130.9 749.9 137.9C747.7 141.9 743.8 144.7 738.1 146.2C735.1 147 732.3 147.4 729.9 147.4C724.8 147.4 721.7 145.5 719.9 143.5C719.7 143 719.3 142.6 718.9 142.2C717.6 140.4 717.2 138.7 717.2 138.3C716.8 136.2 714.9 134.7 712.8 134.7C712.6 134.7 712.3 134.7 712.1 134.8C712.1 134.8 711.6 134.9 710.9 134.9C707.1 134.9 701.9 133.2 699.4 125C699 123.6 697.8 122.5 696.4 122.1C695 121.7 693.4 122.1 692.3 123C689.2 125.7 679.2 132.8 669.9 132.8C663.4 132.8 658.2 129.4 654.1 122.4C653.4 121.2 652.1 120.4 650.7 120.2C649.3 120.1 647.9 120.7 647 121.8C645.4 123.7 641.1 127.7 637.8 127.7C637 127.7 635.9 127.5 634.5 125.8C633.5 124.6 632 124 630.5 124.3C629 124.5 627.7 125.5 627.1 126.9C625.2 130.7 620.6 138.2 616.4 138.2C613.8 138.2 610.5 135.2 607.3 129.7Z" id="a4HcAfpIM"></path></defs><g><g><use xlink:href="#i3FWt4pTlP" opacity="1" fill="#f1f2f2" fill-opacity="1"></use><g><use xlink:href="#i3FWt4pTlP" opacity="1" fill-opacity="0" stroke="#000000" stroke-width="1" stroke-opacity="0"></use></g></g><g><use xlink:href="#a4HcAfpIM" opacity="1" fill="#000000" fill-opacity="1"></use><g><use xlink:href="#a4HcAfpIM" opacity="1" fill-opacity="0" stroke="#000000" stroke-width="1" stroke-opacity="0"></use></g></g></g></svg>