<?xml version="1.0" encoding="UTF-8" standalone="no"?>
<!DOCTYPE svg PUBLIC "-//W3C//DTD SVG 1.1//EN" "http://www.w3.org/Graphics/SVG/1.1/DTD/svg11.dtd">
<svg version="1.1" xmlns="http://www.w3.org/2000/svg" xmlns:xlink="http://www.w3.org/1999/xlink" preserveAspectRatio="xMidYMid meet" viewBox="113.55610174954231 71.76103679544788 151.33771264740702 186.6389632045521" width="147.34" height="182.64"><defs><path d="M242.4 189.9C262.6 160.1 267.4 128.7 255.4 106C248.1 92.3 235.4 84.1 221.5 84.1C218.8 84.1 216.1 84.4 213.4 85C213.15 84.1 211.15 76.9 210.9 76C210.3 73.7 207.8 72.3 205.5 72.9C203.2 73.5 201.8 76 202.4 78.3C202.66 79.24 204.74 86.76 205 87.7C190.6 94.3 189.7 105.1 188.9 115.5C188 127 187 140.1 169.2 154.5C135.1 182.1 108 207.6 122.6 238.9C127.3 248.8 136.9 254.1 149.8 254.1C174.3 254.1 212.5 234.2 242.4 189.9ZM197.8 116.4C198.7 105.2 199.1 99.1 211.9 94.6C215.1 93.5 218.4 92.9 221.6 92.9C232.3 92.9 242.1 99.3 247.8 110.1C258.3 129.9 253.6 157.8 235.3 184.9C207.3 226.4 171.4 245.2 149.9 245.2C143.3 245.2 134.6 243.5 130.8 235.3C119.8 212 137 192.1 174.9 161.5C195.6 144.7 196.9 128.3 197.8 116.4Z" id="d35oQ8kCed"></path><path d="M155.4 238.5C155.8 238.6 156.1 238.6 156.5 238.6C158.5 238.6 160.3 237.3 160.8 235.3C162 230.3 174.3 216.8 186.9 219C192.6 220 197.7 218.9 202.2 215.7C211.8 208.9 215.2 194.7 216.5 186.9C218.2 175.8 218.9 175.3 225.4 170.9C226.1 170.4 226.8 169.9 227.6 169.4C238.4 161.8 243.6 147.9 238.5 140.3C237.1 138 237.5 126.2 239.2 114.9C239.6 112.5 237.9 110.3 235.5 109.9C233.1 109.5 230.9 111.2 230.5 113.6C229.4 121.1 227.1 139.1 231.2 145.2C232.9 147.7 230.3 156.9 222.6 162.3C221.8 162.8 221.1 163.3 220.5 163.8C212.5 169.3 210.2 171.5 207.9 185.7C206.2 196.5 202.2 205.1 197.2 208.7C194.7 210.5 191.8 211.1 188.5 210.5C170.2 207.2 154.4 224.7 152.2 233.2C151.6 235.6 153 237.9 155.4 238.5Z" id="d1fppBz8ll"></path><path d="M153.5 201.1C154.25 200.5 160.25 195.7 161 195.1C162.9 193.6 163.2 190.8 161.7 188.9C160.2 187 157.4 186.7 155.5 188.2C154.75 188.8 148.75 193.6 148 194.2C146.1 195.7 145.8 198.5 147.3 200.4C148.2 201.5 149.5 202.1 150.8 202.1C151.8 202.1 152.7 201.8 153.5 201.1Z" id="dVaNz5mPo"></path><path d="M193.9 180.3C194.59 179.61 200.11 174.09 200.8 173.4C202.5 171.7 202.5 168.9 200.8 167.2C199.1 165.5 196.3 165.5 194.6 167.2C193.91 167.89 188.39 173.41 187.7 174.1C186 175.8 186 178.6 187.7 180.3C188.6 181.2 189.7 181.6 190.8 181.6C191.9 181.6 193 181.2 193.9 180.3Z" id="a1xQjsDJim"></path><path d="M206.8 132.2C208.4 132.2 209.9 131.4 210.7 129.9C211.09 129.18 214.21 123.42 214.6 122.7C215.8 120.6 215 117.9 212.8 116.7C210.7 115.5 208 116.3 206.8 118.5C206.41 119.22 203.29 124.98 202.9 125.7C201.7 127.9 202.5 130.6 204.7 131.7C205.4 132.1 206.1 132.2 206.8 132.2Z" id="bp7VSOT9h"></path><path d="M238.4 191.2C258.6 161.4 263.4 130 251.4 107.3C244.1 93.6 231.4 85.4 217.5 85.4C214.8 85.4 212.1 85.7 209.4 86.3C209.15 85.4 207.15 78.2 206.9 77.3C206.3 75 203.8 73.6 201.5 74.2C199.2 74.8 197.8 77.3 198.4 79.6C198.66 80.54 200.74 88.06 201 89C186.6 95.6 185.7 106.4 184.9 116.8C184 128.3 183 141.4 165.2 155.8C131.1 183.4 104 208.9 118.6 240.2C123.3 250.1 132.9 255.4 145.8 255.4C170.3 255.4 208.5 235.5 238.4 191.2ZM193.8 117.7C194.7 106.5 195.1 100.4 207.9 95.9C211.1 94.8 214.4 94.2 217.6 94.2C228.3 94.2 238.1 100.6 243.8 111.4C254.3 131.2 249.6 159.1 231.3 186.2C203.3 227.7 167.4 246.5 145.9 246.5C139.3 246.5 130.6 244.8 126.8 236.6C115.8 213.3 133 193.5 170.9 162.8C191.6 146 192.9 129.6 193.8 117.7Z" id="b19iylUAiv"></path><path d="M151.4 239.9C151.8 240 152.1 240 152.5 240C154.5 240 156.3 238.7 156.8 236.7C158 231.7 170.3 218.2 182.9 220.4C188.6 221.4 193.7 220.3 198.2 217.1C207.8 210.3 211.2 196.1 212.5 188.3C214.2 177.2 214.9 176.7 221.4 172.3C222.1 171.8 222.8 171.3 223.6 170.8C234.4 163.2 239.6 149.3 234.5 141.7C233.1 139.4 233.5 127.6 235.2 116.3C235.6 113.9 233.9 111.7 231.5 111.3C229.1 110.9 226.9 112.6 226.5 115C225.4 122.5 223.1 140.5 227.2 146.6C228.9 149.1 226.3 158.3 218.6 163.7C217.8 164.2 217.1 164.7 216.5 165.2C208.5 170.7 206.2 172.9 203.9 187.1C202.2 197.9 198.2 206.5 193.2 210.1C190.7 211.9 187.8 212.5 184.5 211.9C166.2 208.5 150.4 226 148.2 234.6C147.6 237 149 239.3 151.4 239.9Z" id="a42JHVs6f"></path><path d="M149.5 202.4C150.25 201.8 156.25 197 157 196.4C158.9 194.9 159.2 192.1 157.7 190.2C156.2 188.3 153.4 188 151.5 189.5C150.75 190.1 144.75 194.9 144 195.5C142.1 197 141.8 199.8 143.3 201.7C144.2 202.9 145.5 203.4 146.8 203.4C147.8 203.4 148.7 203.1 149.5 202.4Z" id="bnwROtK7f"></path><path d="M184.27 180.81C185.44 179.64 194.76 170.32 195.92 169.16C198.79 166.29 198.79 161.56 195.92 158.69C193.05 155.82 188.33 155.82 185.46 158.69C184.29 159.85 174.97 169.17 173.81 170.34C170.94 173.21 170.94 177.94 173.81 180.81C175.33 182.16 177.18 183 179.04 183C180.9 183 182.75 182.32 184.27 180.81Z" id="b5rL768my"></path><path d="M202.8 133.5C204.4 133.5 205.9 132.7 206.7 131.2C207.09 130.48 210.21 124.72 210.6 124C211.8 121.9 211 119.2 208.8 118C206.7 116.8 204 117.6 202.8 119.8C202.41 120.52 199.29 126.28 198.9 127C197.7 129.2 198.5 131.9 200.7 133C201.4 133.4 202.1 133.5 202.8 133.5Z" id="a78vLpQUE2"></path></defs><g><g><use xlink:href="#d35oQ8kCed" opacity="1" fill="#f1f2f2" fill-opacity="1"></use><g><use xlink:href="#d35oQ8kCed" opacity="1" fill-opacity="0" stroke="#000000" stroke-width="1" stroke-opacity="0"></use></g></g><g><use xlink:href="#d1fppBz8ll" opacity="1" fill="#f1f2f2" fill-opacity="1"></use><g><use xlink:href="#d1fppBz8ll" opacity="1" fill-opacity="0" stroke="#000000" stroke-width="1" stroke-opacity="0"></use></g></g><g><use xlink:href="#dVaNz5mPo" opacity="1" fill="#f1f2f2" fill-opacity="1"></use><g><use xlink:href="#dVaNz5mPo" opacity="1" fill-opacity="0" stroke="#000000" stroke-width="1" stroke-opacity="0"></use></g></g><g><use xlink:href="#a1xQjsDJim" opacity="1" fill="#f1f2f2" fill-opacity="1"></use><g><use xlink:href="#a1xQjsDJim" opacity="1" fill-opacity="0" stroke="#000000" stroke-width="1" stroke-opacity="0"></use></g></g><g><use xlink:href="#bp7VSOT9h" opacity="1" fill="#f1f2f2" fill-opacity="1"></use><g><use xlink:href="#bp7VSOT9h" opacity="1" fill-opacity="0" stroke="#000000" stroke-width="1" stroke-opacity="0"></use></g></g><g><use xlink:href="#b19iylUAiv" opacity="1" fill="#000000" fill-opacity="1"></use><g><use xlink:href="#b19iylUAiv" opacity="1" fill-opacity="0" stroke="#000000" stroke-width="1" stroke-opacity="0"></use></g></g><g><use xlink:href="#a42JHVs6f" opacity="1" fill="#000000" fill-opacity="1"></use><g><use xlink:href="#a42JHVs6f" opacity="1" fill-opacity="0" stroke="#000000" stroke-width="1" stroke-opacity="0"></use></g></g><g><use xlink:href="#bnwROtK7f" opacity="1" fill="#000000" fill-opacity="1"></use><g><use xlink:href="#bnwROtK7f" opacity="1" fill-opacity="0" stroke="#000000" stroke-width="1" stroke-opacity="0"></use></g></g><g><use xlink:href="#b5rL768my" opacity="1" fill="#000000" fill-opacity="1"></use><g><use xlink:href="#b5rL768my" opacity="1" fill-opacity="0" stroke="#000000" stroke-width="1" stroke-opacity="0"></use></g></g><g><use xlink:href="#a78vLpQUE2" opacity="1" fill="#000000" fill-opacity="1"></use><g><use xlink:href="#a78vLpQUE2" opacity="1" fill-opacity="0" stroke="#000000" stroke-width="1" stroke-opacity="0"></use></g></g></g></svg>