<?xml version="1.0" encoding="UTF-8" standalone="no"?>
<!DOCTYPE svg PUBLIC "-//W3C//DTD SVG 1.1//EN" "http://www.w3.org/Graphics/SVG/1.1/DTD/svg11.dtd">
<svg version="1.1" xmlns="http://www.w3.org/2000/svg" xmlns:xlink="http://www.w3.org/1999/xlink" preserveAspectRatio="xMidYMid meet" viewBox="666.0886014755944 297.42806631066077 56.93927181083893 182.8719336893393" width="52.94" height="178.87"><defs><path d="M672.1 373.4C670.1 390.5 671.1 413.9 674.8 436.2C678.9 460.9 684.3 474.3 690.9 475.8C691.4 475.9 691.9 476 692.4 476C692.4 476 692.4 476 692.4 476C706.9 476 718 425.8 719.7 400C721.6 370 715.2 350.6 701.6 344.1C703.8 337.4 709.6 316.5 701.5 300.8C700.4 298.7 697.7 297.8 695.6 298.9C693.5 300 692.6 302.7 693.7 304.8C700.5 317.7 694.8 336.7 693.1 341.7C692.7 341.8 692.4 341.8 692.1 341.8C681.3 341.8 674.5 352.4 672.1 373.4ZM692.7 466.7C685.2 457.9 674.2 390.9 683.5 361.2C685.7 354.1 688.6 350.6 692.2 350.6C692.5 350.6 692.8 350.6 693.1 350.7C701.9 351.8 707.6 359.6 710.1 373.8C715.8 407.2 700.3 459.9 692.7 466.7Z" id="a2mj5nbjAD"></path><path d="M668.1 374.7C666.1 391.8 667.1 415.2 670.8 437.5C674.9 462.2 680.3 475.6 686.9 477.1C687.4 477.2 687.9 477.3 688.4 477.3C688.4 477.3 688.4 477.3 688.4 477.3C702.9 477.3 714 427.1 715.7 401.3C717.6 371.3 711.2 351.9 697.6 345.4C699.8 338.7 705.6 317.8 697.5 302.1C696.4 300 693.7 299.1 691.6 300.2C689.5 301.3 688.6 304 689.7 306.1C696.5 319 690.8 338 689.1 343C688.7 343.2 688.4 343.1 688.1 343.1C677.3 343.1 670.5 353.7 668.1 374.7ZM688.7 468.1C681.2 459.3 670.2 392.3 679.5 362.6C681.7 355.5 684.6 352 688.2 352C688.5 352 688.8 352 689.1 352.1C697.9 353.1 703.6 360.9 706.1 375.2C711.8 408.6 696.3 461.3 688.7 468.1Z" id="i1ft84oafv"></path></defs><g><g><use xlink:href="#a2mj5nbjAD" opacity="1" fill="#f1f2f2" fill-opacity="1"></use><g><use xlink:href="#a2mj5nbjAD" opacity="1" fill-opacity="0" stroke="#000000" stroke-width="1" stroke-opacity="0"></use></g></g><g><use xlink:href="#i1ft84oafv" opacity="1" fill="#000000" fill-opacity="1"></use><g><use xlink:href="#i1ft84oafv" opacity="1" fill-opacity="0" stroke="#000000" stroke-width="1" stroke-opacity="0"></use></g></g></g></svg>