<?xml version="1.0" encoding="UTF-8" standalone="no"?>
<!DOCTYPE svg PUBLIC "-//W3C//DTD SVG 1.1//EN" "http://www.w3.org/Graphics/SVG/1.1/DTD/svg11.dtd">
<svg version="1.1" xmlns="http://www.w3.org/2000/svg" xmlns:xlink="http://www.w3.org/1999/xlink" preserveAspectRatio="xMidYMid meet" viewBox="111.29207485809951 319.49999999999994 159.6003183851522 164.5000000000001" width="155.6" height="160.5"><defs><path d="M198.7 320.6C149.6 322.2 120.3 345.2 116.7 367.1C114.3 381.5 122.6 393.7 138.7 399.7C145.6 402.3 154.5 404.5 164.1 406.2C164.5 410.7 165.1 428.2 154.1 446.3C148.8 455.1 149.9 464.2 157.1 470.9C163 476.4 172.8 479.6 183.6 479.6C193.8 479.6 204.9 476.6 214.3 469.8C237.9 452.6 227 421 221.4 408.4C233.3 407 245.2 403.8 253 397.4C264.1 388.3 272 369.7 265.6 351.7C261.4 340.1 247.8 320.5 203.7 320.5C202.1 320.5 200.4 320.5 198.7 320.6ZM163.1 464.4C159 460.6 158.5 456.1 161.7 450.9C172.8 432.7 173.4 415 173 407.6C182.7 408.9 192.7 409.6 202.3 409.6C205.4 409.6 208.7 409.5 212.1 409.3C215.9 417.2 229.2 448.1 209.1 462.7C192.5 474.7 171.1 471.8 163.1 464.4ZM202.2 400.7C181.1 400.7 156.2 396.9 141.7 391.5C129.6 387 123.6 378.6 125.3 368.5C128.3 350.1 154.6 330.7 199 329.3C200.6 329.2 202.2 329.2 203.7 329.2C232.5 329.2 251.5 338.2 257.3 354.5C262.3 368.7 255.9 383.7 247.4 390.6C239.4 397.1 223.3 400.7 202.2 400.7Z" id="j2KqcXCwlT"></path><path d="M194.7 322C145.6 323.6 116.3 346.6 112.7 368.5C110.3 382.9 118.6 395.1 134.7 401.1C141.6 403.7 150.5 405.9 160.1 407.6C160.5 412.1 161.1 429.6 150.1 447.7C144.8 456.5 145.9 465.6 153.1 472.3C159 477.8 168.8 481 179.6 481C189.8 481 200.9 478 210.3 471.2C233.9 454 223 422.4 217.4 409.8C229.3 408.4 241.2 405.2 249 398.8C260.1 389.7 268 371.1 261.6 353.1C257.4 341.4 243.8 321.9 199.7 321.9C198.1 321.9 196.4 321.9 194.7 322ZM159.1 465.8C155 462 154.5 457.5 157.7 452.3C168.8 434.1 169.4 416.4 169 409C178.7 410.3 188.7 411 198.3 411C201.4 411 204.7 410.9 208.1 410.7C211.9 418.5 225.2 449.5 205.1 464.1C188.5 476.1 167.1 473.2 159.1 465.8ZM198.2 402.1C177.1 402.1 152.2 398.3 137.7 392.9C125.6 388.4 119.6 380 121.3 369.9C124.3 351.5 150.6 332.1 195 330.7C196.6 330.6 198.2 330.6 199.7 330.6C228.5 330.6 247.5 339.6 253.3 355.9C258.3 370.1 251.9 385 243.4 392C235.4 398.5 219.3 402.1 198.2 402.1Z" id="ashYqhU1u"></path></defs><g><g><use xlink:href="#j2KqcXCwlT" opacity="1" fill="#f1f2f2" fill-opacity="1"></use><g><use xlink:href="#j2KqcXCwlT" opacity="1" fill-opacity="0" stroke="#000000" stroke-width="1" stroke-opacity="0"></use></g></g><g><use xlink:href="#ashYqhU1u" opacity="1" fill="#000000" fill-opacity="1"></use><g><use xlink:href="#ashYqhU1u" opacity="1" fill-opacity="0" stroke="#000000" stroke-width="1" stroke-opacity="0"></use></g></g></g></svg>