<?xml version="1.0" encoding="UTF-8" standalone="no"?>
<!DOCTYPE svg PUBLIC "-//W3C//DTD SVG 1.1//EN" "http://www.w3.org/Graphics/SVG/1.1/DTD/svg11.dtd">
<svg version="1.1" xmlns="http://www.w3.org/2000/svg" xmlns:xlink="http://www.w3.org/1999/xlink" preserveAspectRatio="xMidYMid meet" viewBox="843.7915788846548 525.1610367954478 151.70842111534546 191.63896320455228" width="147.71" height="187.64"><defs><path d="M955.3 556.4C956.4 550.8 958 539.1 955.4 529.4C954.8 527.1 952.4 525.7 950 526.3C947.7 526.9 946.3 529.3 946.9 531.7C949.1 539.9 947.5 550.5 946.6 555.2C942.7 556.3 934.4 558.4 926.7 558.4C922.3 558.4 918.8 557.7 916.3 556.4C914.8 555.6 912.9 555.7 911.5 556.8C910.1 557.9 909.5 559.6 909.9 561.3C911.1 566.2 915.7 574.6 925.1 578C922.5 582.7 916.8 594.6 908.4 619C897.4 651.3 870.6 679.9 851.1 690.4C849.7 691.1 848.9 692.5 848.8 694.1C848.7 695.6 849.5 697.1 850.7 698C851.1 698.2 872.8 712.5 899.3 712.5C916.7 712.5 936.2 706.3 952.9 685.9C989.3 641.5 982.5 596.9 980.1 585.8C983.3 585 986.6 583.7 990.1 581.9C991.6 581.1 992.5 579.5 992.5 577.9C992.4 576 991.3 574.5 989.8 573.9C989.6 573.8 973.1 566.6 955.3 556.4ZM949.8 563.4C960.1 569.3 969.9 574.2 976.7 577.5C975.3 577.8 973.9 577.9 972.6 577.9C972.6 577.9 972.6 577.9 972.6 577.9C966.8 577.9 964.4 574.7 964.4 574.7C963.6 573.5 962.3 572.7 960.9 572.7C959.4 572.6 958.1 573.3 957.2 574.5C954.5 578.1 953.4 582.8 953 586.9C946.9 580.8 947.4 574.7 947.4 574.4C947.6 573 947 571.5 945.9 570.5C945.1 569.8 944.1 569.4 943 569.4C942.6 569.4 942.2 569.4 941.9 569.5C939.1 570.2 936.5 570.6 934.1 570.6C929.1 570.6 925.6 568.9 923.3 566.8C924.4 567.1 925.5 567.1 926.6 567.1C936 567.1 945.7 564.6 949.8 563.4ZM861.8 694.2C881.9 680.7 906.2 652.8 916.8 621.9C927.6 590.3 933.9 580.4 934 580.3C934.2 580 934.3 579.8 934.4 579.5C935.9 579.5 937.5 579.4 939.2 579.1C940.3 584.6 944 593 955.5 599.3C956.2 599.7 956.9 599.8 957.6 599.8C957.6 599.8 957.6 599.8 957.6 599.8C960 599.8 962 597.8 962 595.4C962 595 961.9 594.6 961.9 594.3C961.7 592.1 961.6 587.8 962.4 584C964.7 585.3 967.7 586.3 971.3 586.5C972.9 594 981 637.7 946.1 680.3C916.1 716.9 876.8 702 861.8 694.2Z" id="b7z9EcDXTU"></path><path d="M887.3 686.2C887.3 693.9 893.6 700.2 901.3 700.2C909 700.2 915.3 693.9 915.3 686.2C915.3 678.5 909 672.2 901.3 672.2C893.6 672.2 887.3 678.5 887.3 686.2ZM896.1 686.3C896.1 683.4 898.5 681.1 901.3 681.1C904.2 681.1 906.5 683.5 906.5 686.3C906.6 689.2 904.2 691.5 901.3 691.5C898.4 691.5 896.1 689.1 896.1 686.3Z" id="bTEDJFKa4"></path><path d="M913 654.9C913 662.6 919.3 668.9 927 668.9C934.7 668.9 941 662.6 941 654.9C941 647.2 934.7 640.9 927 640.9C919.3 640.9 913 647.2 913 654.9ZM921.8 655C921.8 652.2 924.2 649.8 927 649.8C929.8 649.8 932.2 652.2 932.2 655C932.2 657.8 929.9 660.2 927 660.2C924.1 660.2 921.8 657.8 921.8 655Z" id="i4ihtPxfVI"></path><path d="M933.1 619.6C933.1 627.3 939.4 633.6 947.1 633.6C954.8 633.6 961.1 627.3 961.1 619.6C961.1 611.9 954.8 605.6 947.1 605.6C939.4 605.6 933.1 611.9 933.1 619.6ZM941.9 619.7C941.9 616.8 944.3 614.5 947.1 614.5C950 614.5 952.3 616.9 952.3 619.7C952.3 622.5 950 624.9 947.1 624.9C944.2 624.9 941.9 622.5 941.9 619.7Z" id="a1OZGtRcBq"></path><path d="M951.3 557.7C952.4 552.1 954 540.4 951.4 530.7C950.8 528.4 948.4 527 946 527.6C943.7 528.2 942.3 530.6 942.9 533C945.1 541.2 943.5 551.8 942.6 556.5C938.7 557.6 930.4 559.7 922.7 559.7C918.3 559.7 914.8 559 912.3 557.7C910.8 556.9 908.9 557 907.5 558.1C906.1 559.2 905.5 560.9 905.9 562.6C907.1 567.5 911.7 575.9 921.1 579.3C918.5 584 912.8 595.9 904.4 620.3C893.4 652.6 866.6 681.2 847.1 691.7C845.7 692.4 844.9 693.8 844.8 695.4C844.7 696.9 845.5 698.4 846.7 699.3C847.1 699.5 868.8 713.8 895.3 713.8C912.7 713.8 932.2 707.6 948.9 687.2C985.3 642.8 978.5 598.2 976.1 587.1C979.3 586.3 982.6 585 986.1 583.2C987.6 582.4 988.5 580.8 988.5 579.2C988.4 577.4 987.3 575.9 985.8 575.2C985.6 575.1 969.1 567.9 951.3 557.7ZM945.8 564.7C956.1 570.6 965.9 575.5 972.7 578.8C971.3 579.1 969.9 579.2 968.6 579.2C968.6 579.2 968.6 579.2 968.6 579.2C962.8 579.2 960.4 576 960.4 576C959.6 574.8 958.3 574 956.9 574C955.4 573.9 954.1 574.6 953.2 575.8C950.5 579.4 949.4 584.1 949 588.2C942.9 582.1 943.4 576 943.4 575.7C943.6 574.3 943 572.8 941.9 571.8C941.1 571.1 940.1 570.7 939 570.7C938.6 570.7 938.2 570.7 937.9 570.8C935.1 571.5 932.5 571.9 930.1 571.9C925.1 571.9 921.6 570.2 919.3 568.1C920.4 568.4 921.5 568.4 922.6 568.4C932 568.4 941.7 565.9 945.8 564.7ZM857.8 695.5C877.9 682 902.2 654.1 912.8 623.2C923.6 591.6 929.9 581.7 930 581.6C930.2 581.3 930.3 581.1 930.4 580.8C931.9 580.8 933.5 580.7 935.2 580.4C936.3 585.9 940 594.3 951.5 600.6C952.2 601 952.9 601.1 953.6 601.1C953.6 601.1 953.6 601.1 953.6 601.1C956 601.1 958 599.1 958 596.7C958 596.3 957.9 595.9 957.9 595.6C957.7 593.4 957.6 589.1 958.4 585.3C960.7 586.6 963.7 587.6 967.3 587.8C968.9 595.3 977 639 942.1 681.6C912.1 718.2 872.8 703.3 857.8 695.5Z" id="j4j25KGDyz"></path><path d="M883.3 687.6C883.3 695.3 889.6 701.6 897.3 701.6C905 701.6 911.3 695.3 911.3 687.6C911.3 679.9 905 673.6 897.3 673.6C889.6 673.6 883.3 679.9 883.3 687.6ZM892.1 687.6C892.1 684.7 894.5 682.4 897.3 682.4C900.2 682.4 902.5 684.8 902.5 687.6C902.6 690.5 900.2 692.8 897.3 692.8C894.4 692.8 892.1 690.4 892.1 687.6Z" id="i32SfLyQx"></path><path d="M909 656.3C909 664 915.3 670.3 923 670.3C930.7 670.3 937 664 937 656.3C937 648.5 930.7 642.3 923 642.3C915.3 642.3 909 648.6 909 656.3ZM917.8 656.3C917.8 653.5 920.2 651.1 923 651.1C925.8 651.1 928.2 653.5 928.2 656.3C928.2 659.1 925.9 661.5 923 661.5C920.1 661.5 917.8 659.1 917.8 656.3Z" id="dtVyFZdx"></path><path d="M929.1 620.9C929.1 628.6 935.4 634.9 943.1 634.9C950.8 634.9 957.1 628.6 957.1 620.9C957.1 613.2 950.8 606.9 943.1 606.9C935.4 606.9 929.1 613.2 929.1 620.9ZM937.9 621C937.9 618.1 940.3 615.8 943.1 615.8C946 615.8 948.3 618.2 948.3 621C948.3 623.9 946 626.2 943.1 626.2C940.2 626.2 937.9 623.8 937.9 621Z" id="a578yaYRA"></path></defs><g><g><use xlink:href="#b7z9EcDXTU" opacity="1" fill="#f1f2f2" fill-opacity="1"></use><g><use xlink:href="#b7z9EcDXTU" opacity="1" fill-opacity="0" stroke="#000000" stroke-width="1" stroke-opacity="0"></use></g></g><g><use xlink:href="#bTEDJFKa4" opacity="1" fill="#f1f2f2" fill-opacity="1"></use><g><use xlink:href="#bTEDJFKa4" opacity="1" fill-opacity="0" stroke="#000000" stroke-width="1" stroke-opacity="0"></use></g></g><g><use xlink:href="#i4ihtPxfVI" opacity="1" fill="#f1f2f2" fill-opacity="1"></use><g><use xlink:href="#i4ihtPxfVI" opacity="1" fill-opacity="0" stroke="#000000" stroke-width="1" stroke-opacity="0"></use></g></g><g><use xlink:href="#a1OZGtRcBq" opacity="1" fill="#f1f2f2" fill-opacity="1"></use><g><use xlink:href="#a1OZGtRcBq" opacity="1" fill-opacity="0" stroke="#000000" stroke-width="1" stroke-opacity="0"></use></g></g><g><use xlink:href="#j4j25KGDyz" opacity="1" fill="#000000" fill-opacity="1"></use><g><use xlink:href="#j4j25KGDyz" opacity="1" fill-opacity="0" stroke="#000000" stroke-width="1" stroke-opacity="0"></use></g></g><g><use xlink:href="#i32SfLyQx" opacity="1" fill="#000000" fill-opacity="1"></use><g><use xlink:href="#i32SfLyQx" opacity="1" fill-opacity="0" stroke="#000000" stroke-width="1" stroke-opacity="0"></use></g></g><g><use xlink:href="#dtVyFZdx" opacity="1" fill="#000000" fill-opacity="1"></use><g><use xlink:href="#dtVyFZdx" opacity="1" fill-opacity="0" stroke="#000000" stroke-width="1" stroke-opacity="0"></use></g></g><g><use xlink:href="#a578yaYRA" opacity="1" fill="#000000" fill-opacity="1"></use><g><use xlink:href="#a578yaYRA" opacity="1" fill-opacity="0" stroke="#000000" stroke-width="1" stroke-opacity="0"></use></g></g></g></svg>