<?xml version="1.0" encoding="utf-8"?>
<!-- Generator: Adobe Illustrator 15.1.0, SVG Export Plug-In . SVG Version: 6.00 Build 0)  -->
<!DOCTYPE svg PUBLIC "-//W3C//DTD SVG 1.1//EN" "http://www.w3.org/Graphics/SVG/1.1/DTD/svg11.dtd">
<svg version="1.1" id="Layer_1" xmlns="http://www.w3.org/2000/svg" xmlns:xlink="http://www.w3.org/1999/xlink" x="0px" y="0px"
	 width="218.443px" height="246.93px" viewBox="0 0 218.443 246.93" enable-background="new 0 0 218.443 246.93"
	 xml:space="preserve">
<g>
	<defs>
		<rect id="SVGID_1_" width="218.443" height="246.93"/>
	</defs>
	<clipPath id="SVGID_2_">
		<use xlink:href="#SVGID_1_"  overflow="visible"/>
	</clipPath>
	<path clip-path="url(#SVGID_2_)" fill="#24037F" d="M123.435,221.188c-11.649,0-22.342-2.373-31.777-7.055
		c-21.047-8.215-37.601-23.589-49.206-45.697c-11.605-22.022-17.489-43.814-17.489-64.77c0-16.389,3.58-30.068,10.642-40.66
		c4.684-7.063,11.58-14.253,21.081-21.977c9.27-7.52,19.548-14.275,30.55-20.077c10.926-5.738,22.653-10.722,34.857-14.815
		C134.35,2.064,145.87,0,156.336,0c16.635,0,28.714,6.643,35.904,19.745c9.254,12.773,16.017,28.075,20.103,45.483
		c4.048,17.346,6.101,34.356,6.101,50.561c0,9.125-0.588,17.647-1.748,25.333c-1.172,7.642-3.554,14.501-7.079,20.389
		c-5.865,12.832-16.465,26.083-31.506,39.387C162.863,214.361,144.467,221.188,123.435,221.188"/>
	<path clip-path="url(#SVGID_2_)" fill="#FFFFFF" d="M105.986,70.258c0.143,0.072,0.334,0.107,0.573,0.107
		c0.597,0,1.285-0.214,2.061-0.645c0.777-0.43,1.536-0.937,2.276-1.523c0.74-0.585,1.422-1.183,2.044-1.792
		c0.621-0.609,1.075-1.081,1.361-1.416l1.219,2.294c-0.238,0.287-0.711,0.753-1.416,1.398c-0.704,0.645-1.475,1.297-2.311,1.953
		c-0.837,0.658-1.649,1.243-2.438,1.757c-0.788,0.513-1.386,0.782-1.792,0.806c-0.048,0-0.084,0.006-0.107,0.018
		c-0.024,0.012-0.06,0.018-0.108,0.018c-0.43,0-0.95-0.09-1.559-0.269c-0.61-0.179-1.201-0.43-1.775-0.752
		c-0.573-0.323-1.075-0.711-1.505-1.165c-0.43-0.454-0.669-0.944-0.717-1.47v-0.143c0-0.382,0.077-1.004,0.233-1.864
		c0.155-0.86,0.371-1.858,0.645-2.993c0.274-1.135,0.586-2.366,0.932-3.692c0.346-1.327,0.711-2.647,1.093-3.961
		c-1.147,0.072-2.091,0.233-2.831,0.484c-0.74,0.251-1.266,0.4-1.577,0.448l-0.251-2.617c1.003-0.238,1.911-0.435,2.724-0.591
		c0.812-0.155,1.708-0.245,2.688-0.269c0.431-1.481,0.848-2.789,1.255-3.925c0.406-1.134,0.74-1.941,1.003-2.42l3.262,0.108
		c-0.263,0.407-0.622,1.196-1.075,2.366c-0.454,1.171-0.92,2.557-1.398,4.158c0.764,0.167,1.553,0.358,2.366,0.573
		c0.812,0.215,1.577,0.323,2.294,0.323c0.431,0,0.86-0.072,1.29-0.215l0.396,2.58c-0.121,0.025-0.246,0.037-0.376,0.037h-0.414
		c-0.693,0-1.518-0.078-2.473-0.233c-0.955-0.156-1.972-0.365-3.046-0.628c-0.215-0.023-0.466-0.059-0.753-0.107
		c-0.311,1.075-0.604,2.168-0.878,3.28c-0.275,1.11-0.52,2.174-0.735,3.19s-0.388,1.965-0.52,2.849
		c-0.131,0.884-0.197,1.637-0.197,2.258c0,0.479,0.041,0.867,0.126,1.165C105.657,70.037,105.793,70.211,105.986,70.258"/>
	<path clip-path="url(#SVGID_2_)" fill="#FFFFFF" d="M134.195,68.43c-0.646,0.956-1.321,1.721-2.025,2.294
		c-0.705,0.574-1.397,1.022-2.079,1.344c-0.682,0.323-1.339,0.538-1.972,0.646c-0.632,0.107-1.201,0.161-1.703,0.161
		c-0.262,0-0.496-0.006-0.698-0.018c-0.203-0.012-0.377-0.03-0.52-0.054c-0.168-0.024-0.312-0.06-0.43-0.107
		c-0.74-0.239-1.249-0.657-1.524-1.255c-0.274-0.597-0.412-1.313-0.412-2.15c0-0.836,0.103-1.745,0.305-2.725
		c0.203-0.979,0.431-1.953,0.682-2.921c0.251-0.968,0.483-1.882,0.699-2.742c0.215-0.86,0.321-1.589,0.321-2.187
		c0-0.191-0.022-0.405-0.07-0.645c-0.694,0.215-1.394,0.526-2.098,0.932c-0.705,0.407-1.375,0.867-2.008,1.38
		c-0.633,0.515-1.213,1.076-1.738,1.685c-0.524,0.609-0.932,1.213-1.219,1.81c-0.215,0.43-0.358,0.645-0.429,0.645l-0.037-0.071
		l-1.685,7.957l-3.117-0.788c0.119-0.55,0.299-1.314,0.536-2.295c0.238-0.979,0.509-2.096,0.807-3.351
		c0.299-1.255,0.633-2.593,1.004-4.014c0.37-1.422,0.747-2.85,1.129-4.284c0.382-1.434,0.777-2.832,1.183-4.194
		c0.406-1.362,0.802-2.599,1.184-3.709c0.382-1.112,0.747-2.056,1.093-2.833c0.346-0.775,0.651-1.295,0.914-1.559
		c0.263-0.262,0.532-0.447,0.807-0.555s0.543-0.161,0.808-0.161c0.381,0,0.746,0.113,1.092,0.34c0.347,0.227,0.651,0.52,0.914,0.878
		c0.263,0.359,0.472,0.759,0.628,1.201s0.233,0.878,0.233,1.309c0,0.238-0.072,0.609-0.216,1.11c-0.144,0.502-0.341,1.1-0.592,1.793
		c-0.251,0.693-0.543,1.457-0.878,2.294c-0.335,0.837-0.693,1.72-1.075,2.652c0.479-0.358,0.914-0.621,1.31-0.788
		c0.393-0.167,0.805-0.275,1.235-0.323h0.107c0.263,0,0.616,0.102,1.058,0.305s0.872,0.442,1.29,0.717
		c0.418,0.275,0.776,0.555,1.075,0.842s0.448,0.514,0.448,0.681v0.072c-0.047,0.55-0.228,1.308-0.538,2.276
		c-0.311,0.968-0.645,2.001-1.003,3.101c-0.358,1.099-0.681,2.174-0.967,3.225c-0.287,1.052-0.432,1.948-0.432,2.689
		s0.181,1.231,0.538,1.469c0.048,0.024,0.119,0.049,0.215,0.072c0.096,0.024,0.3,0.036,0.609,0.036c0.287,0,0.64-0.048,1.058-0.143
		c0.418-0.096,0.885-0.299,1.397-0.61c0.514-0.31,1.063-0.758,1.65-1.344c0.585-0.585,1.199-1.356,1.845-2.312L134.195,68.43z
		 M118.925,57.21c0.358-0.621,0.729-1.338,1.111-2.15s0.736-1.637,1.058-2.474c0.322-0.836,0.592-1.636,0.808-2.401
		c0.214-0.765,0.321-1.41,0.321-1.936c0-0.287-0.048-0.549-0.144-0.789c-0.335,0.574-0.675,1.303-1.021,2.187
		c-0.347,0.884-0.662,1.798-0.949,2.742c-0.287,0.945-0.537,1.852-0.752,2.724C119.14,55.987,118.997,56.686,118.925,57.21"/>
	<path clip-path="url(#SVGID_2_)" fill="#FFFFFF" d="M148.138,67.641c-0.43,0.311-0.932,0.663-1.505,1.058
		c-0.573,0.394-1.178,0.801-1.81,1.219c-0.634,0.418-1.268,0.83-1.9,1.236c-0.634,0.407-1.219,0.771-1.757,1.093
		c-0.537,0.323-0.998,0.586-1.38,0.789c-0.381,0.203-0.632,0.316-0.752,0.341c-0.072,0.023-0.167,0.035-0.287,0.035
		c-0.407,0-0.938-0.102-1.594-0.304c-0.659-0.203-1.322-0.454-1.991-0.753c-0.668-0.299-1.284-0.621-1.846-0.968
		c-0.562-0.346-0.938-0.675-1.129-0.985c-0.144-0.263-0.244-0.604-0.305-1.022c-0.059-0.418-0.09-0.902-0.09-1.452
		c0-0.478,0.023-0.985,0.073-1.523c0.047-0.538,0.111-1.051,0.195-1.542c0.084-0.489,0.181-0.937,0.287-1.344
		c0.107-0.406,0.233-0.728,0.376-0.968c0.167-0.334,0.432-0.758,0.789-1.272c0.358-0.514,0.771-1.051,1.236-1.613
		c0.466-0.561,0.962-1.129,1.489-1.702c0.523-0.574,1.05-1.094,1.576-1.56c0.524-0.466,1.033-0.848,1.522-1.147
		c0.49-0.298,0.927-0.459,1.309-0.484c0.023,0,0.042-0.005,0.055-0.017c0.011-0.012,0.042-0.018,0.089-0.018
		c0.382,0,0.765,0.167,1.147,0.501c0.383,0.335,0.718,0.741,1.003,1.219c0.287,0.478,0.521,0.986,0.699,1.523
		c0.181,0.538,0.27,1.022,0.27,1.452c0,0.215-0.013,0.371-0.036,0.466c-0.095,0.382-0.311,0.855-0.646,1.416
		c-0.335,0.562-0.705,1.111-1.11,1.649c-0.407,0.537-0.802,1.016-1.184,1.434c-0.383,0.418-0.669,0.698-0.859,0.842
		c-0.145,0.12-0.401,0.233-0.771,0.34c-0.371,0.108-0.801,0.216-1.291,0.323c-0.489,0.107-1.009,0.21-1.559,0.305
		c-0.55,0.095-1.087,0.179-1.613,0.251c-0.096,0.478-0.167,0.89-0.215,1.236c-0.048,0.347-0.084,0.592-0.107,0.735
		c0.048,0.264,0.19,0.526,0.431,0.788c0.237,0.264,0.538,0.502,0.896,0.717c0.358,0.216,0.758,0.389,1.2,0.52
		c0.443,0.132,0.891,0.198,1.345,0.198h0.306c0.106,0,0.209-0.012,0.304-0.037c0.43-0.119,1.004-0.394,1.721-0.824
		c0.717-0.43,1.463-0.919,2.24-1.47c0.776-0.549,1.517-1.116,2.222-1.702c0.705-0.585,1.249-1.105,1.631-1.559L148.138,67.641z
		 M140.181,57.426c-0.19,0-0.448,0.143-0.771,0.43s-0.668,0.663-1.04,1.129c-0.37,0.466-0.757,1.01-1.164,1.631
		c-0.407,0.622-0.766,1.267-1.076,1.935c-0.119,0.24-0.227,0.479-0.322,0.717c-0.096,0.24-0.19,0.491-0.287,0.753
		c0.622-0.119,1.272-0.269,1.954-0.448c0.682-0.179,1.188-0.376,1.523-0.591c0.167-0.119,0.353-0.359,0.556-0.717
		c0.202-0.359,0.395-0.758,0.573-1.201c0.18-0.442,0.328-0.908,0.449-1.398c0.119-0.49,0.178-0.914,0.178-1.272
		c0-0.263-0.048-0.49-0.143-0.681C140.516,57.522,140.372,57.426,140.181,57.426"/>
	<path clip-path="url(#SVGID_2_)" fill="#FFFFFF" d="M74.801,98.89c0.12-0.047,0.245-0.072,0.376-0.072h0.413
		c0.453,0,0.985,0.078,1.595,0.233c0.609,0.156,1.188,0.377,1.738,0.664c0.55,0.286,1.009,0.639,1.38,1.057s0.556,0.89,0.556,1.416
		c0,0.286-0.024,0.663-0.072,1.129c-0.049,0.466-0.132,1.004-0.251,1.613c-0.12,0.609-0.269,1.267-0.448,1.971
		c-0.179,0.705-0.4,1.428-0.663,2.169c-0.287,0.884-0.633,1.756-1.04,2.616c-0.406,0.861-0.842,1.649-1.308,2.366
		s-0.956,1.326-1.469,1.828c-0.515,0.502-1.035,0.824-1.56,0.968c-0.407,0.144-0.776,0.238-1.111,0.287
		c-0.335,0.047-0.669,0.071-1.004,0.071c-1.171,0-2.114-0.263-2.831-0.788c-0.717-0.525-1.147-1.075-1.291-1.649
		c-0.573,1.625-1.177,3.309-1.81,5.054c-0.633,1.744-1.219,3.399-1.756,4.965c-0.538,1.563-0.986,2.938-1.344,4.122
		c-0.359,1.183-0.538,2.013-0.538,2.49v0.072l-2.796,0.107c-0.167-0.145-0.251-0.479-0.251-1.004c0-0.908,0.251-2.271,0.753-4.086
		c0.501-1.816,1.219-3.872,2.15-6.166c0.407-1.004,0.867-2.127,1.381-3.37c0.514-1.241,0.992-2.532,1.433-3.871
		c0.442-1.338,0.819-2.688,1.129-4.05c0.31-1.362,0.467-2.664,0.467-3.907v-0.538c0-0.166-0.013-0.334-0.037-0.502
		c-0.071-0.811-0.155-1.541-0.251-2.186c-0.095-0.645-0.238-1.123-0.43-1.434l2.295-1.684c0.262,0.454,0.495,0.938,0.698,1.451
		c0.203,0.514,0.364,0.986,0.484,1.416c0.144,0.502,0.263,1.004,0.359,1.506c0.334-0.431,0.729-0.872,1.183-1.327
		c0.453-0.453,0.914-0.878,1.38-1.272c0.466-0.395,0.919-0.74,1.362-1.04C74.114,99.219,74.49,99.01,74.801,98.89 M72.507,115.056
		c0.263-0.048,0.573-0.305,0.932-0.771c0.358-0.466,0.735-1.045,1.129-1.738c0.394-0.693,0.782-1.464,1.165-2.312
		c0.382-0.848,0.722-1.703,1.022-2.563c0.298-0.86,0.543-1.679,0.734-2.455c0.191-0.777,0.287-1.44,0.287-1.99
		c0-0.215-0.024-0.442-0.072-0.681c-0.215-0.621-0.514-1.087-0.896-1.398c-1.673,0.383-3.082,1.028-4.229,1.936
		c-1.148,0.909-1.924,2.007-2.33,3.298c-0.096,0.31-0.203,0.549-0.323,0.716c0,0.192-0.012,0.371-0.036,0.538
		c-0.024,0.168-0.06,0.347-0.107,0.538c-0.072,0.382-0.174,0.83-0.305,1.344c-0.132,0.514-0.293,1.081-0.484,1.703
		c0.072,0.406,0.209,0.836,0.412,1.29c0.203,0.454,0.448,0.873,0.735,1.254c0.287,0.383,0.603,0.699,0.95,0.95
		c0.346,0.251,0.711,0.377,1.093,0.377C72.328,115.092,72.435,115.08,72.507,115.056"/>
	<path clip-path="url(#SVGID_2_)" fill="#FFFFFF" d="M99.068,111.687c-0.431,0.311-0.933,0.663-1.506,1.058
		c-0.574,0.394-1.178,0.801-1.81,1.219c-0.633,0.418-1.267,0.83-1.9,1.236c-0.633,0.407-1.219,0.771-1.756,1.093
		c-0.538,0.323-0.998,0.586-1.38,0.789c-0.383,0.203-0.633,0.316-0.753,0.341c-0.072,0.023-0.167,0.035-0.287,0.035
		c-0.406,0-0.938-0.102-1.595-0.304c-0.658-0.203-1.321-0.454-1.989-0.753c-0.669-0.299-1.285-0.621-1.846-0.968
		c-0.562-0.346-0.938-0.675-1.129-0.985c-0.144-0.263-0.246-0.604-0.305-1.022c-0.06-0.418-0.09-0.902-0.09-1.452
		c0-0.478,0.024-0.985,0.072-1.523c0.048-0.538,0.113-1.051,0.197-1.542c0.084-0.489,0.18-0.937,0.287-1.344
		c0.107-0.406,0.233-0.728,0.376-0.968c0.167-0.334,0.431-0.758,0.789-1.272c0.358-0.514,0.771-1.051,1.237-1.613
		c0.466-0.561,0.961-1.129,1.487-1.702c0.526-0.574,1.051-1.094,1.577-1.56c0.526-0.466,1.034-0.848,1.524-1.147
		c0.489-0.298,0.925-0.459,1.308-0.484c0.023,0,0.041-0.005,0.054-0.017c0.012-0.012,0.041-0.018,0.089-0.018
		c0.382,0,0.765,0.167,1.147,0.501c0.382,0.335,0.717,0.741,1.004,1.219s0.52,0.986,0.699,1.523
		c0.179,0.538,0.269,1.022,0.269,1.452c0,0.215-0.013,0.371-0.036,0.466c-0.096,0.382-0.311,0.855-0.645,1.416
		c-0.335,0.562-0.705,1.111-1.111,1.649c-0.407,0.537-0.801,1.016-1.183,1.434c-0.382,0.418-0.67,0.698-0.86,0.842
		c-0.144,0.12-0.401,0.233-0.771,0.34c-0.371,0.108-0.801,0.216-1.29,0.323c-0.49,0.107-1.01,0.21-1.56,0.305
		c-0.55,0.095-1.087,0.179-1.613,0.251c-0.096,0.478-0.167,0.89-0.215,1.236c-0.048,0.347-0.084,0.592-0.108,0.735
		c0.048,0.264,0.192,0.526,0.431,0.788c0.238,0.264,0.537,0.502,0.896,0.717c0.358,0.216,0.758,0.389,1.201,0.52
		c0.442,0.132,0.89,0.198,1.344,0.198h0.305c0.107,0,0.209-0.012,0.304-0.037c0.43-0.119,1.004-0.394,1.721-0.824
		c0.716-0.43,1.463-0.919,2.24-1.47c0.776-0.549,1.517-1.116,2.222-1.702c0.705-0.585,1.249-1.105,1.631-1.559L99.068,111.687z
		 M91.11,101.471c-0.192,0-0.448,0.143-0.771,0.43c-0.322,0.287-0.669,0.663-1.039,1.129c-0.371,0.466-0.759,1.01-1.165,1.631
		c-0.407,0.622-0.765,1.267-1.075,1.935c-0.12,0.24-0.228,0.479-0.323,0.717c-0.096,0.24-0.191,0.491-0.287,0.753
		c0.621-0.119,1.273-0.269,1.954-0.448c0.681-0.179,1.188-0.376,1.523-0.591c0.167-0.119,0.352-0.359,0.556-0.717
		c0.202-0.359,0.394-0.758,0.573-1.201c0.179-0.442,0.328-0.908,0.449-1.398c0.119-0.49,0.179-0.914,0.179-1.272
		c0-0.263-0.049-0.49-0.144-0.681C91.444,101.567,91.301,101.471,91.11,101.471"/>
	<path clip-path="url(#SVGID_2_)" fill="#FFFFFF" d="M120.216,104.268c-1.147,0.931-2.258,1.612-3.334,2.043
		c-1.075,0.43-2.02,0.645-2.832,0.645c-0.621,0-1.326-0.131-2.114-0.394c-0.264,1.123-0.58,2.257-0.95,3.405
		c-0.371,1.147-0.775,2.204-1.219,3.172c-0.442,0.967-0.908,1.787-1.398,2.455c-0.49,0.67-0.985,1.087-1.487,1.255
		c-0.55,0.215-1.147,0.37-1.792,0.465c-0.646,0.096-1.291,0.144-1.936,0.144c-1.075,0-2.085-0.156-3.029-0.466
		c-0.944-0.311-1.583-0.812-1.917-1.505c-0.192-0.406-0.347-0.991-0.466-1.757c-0.12-0.764-0.179-1.6-0.179-2.509
		c0-0.717,0.035-1.463,0.107-2.24c0.072-0.776,0.173-1.523,0.305-2.24c0.131-0.717,0.298-1.381,0.502-1.99
		c0.202-0.609,0.435-1.116,0.698-1.523c0.407-0.669,0.92-1.344,1.542-2.025c0.621-0.681,1.296-1.296,2.025-1.847
		c0.729-0.549,1.488-1.003,2.276-1.361c0.789-0.359,1.565-0.538,2.33-0.538h0.108l0.107,1.04c0.382-0.144,0.789-0.216,1.219-0.216
		c0.883,0,1.667,0.282,2.347,0.843c0.681,0.562,1.152,1.272,1.416,2.132c0.048,0.192,0.072,0.515,0.072,0.968
		c0,0.335-0.007,0.681-0.019,1.04c-0.013,0.358-0.03,0.633-0.054,0.824c0.12,0.048,0.251,0.084,0.395,0.108
		c0.238,0.072,0.609,0.107,1.11,0.107c0.311,0,0.7-0.03,1.165-0.09c0.466-0.059,0.968-0.166,1.506-0.322
		c0.537-0.155,1.093-0.37,1.667-0.645c0.573-0.274,1.123-0.639,1.649-1.094L120.216,104.268z M102.652,115.164
		c0.095,0.024,0.239,0.036,0.431,0.036c0.716,0,1.361-0.191,1.935-0.574c0.573-0.381,1.075-0.86,1.505-1.434
		c0.431-0.573,0.794-1.188,1.094-1.845c0.299-0.658,0.519-1.261,0.663-1.81c0.119-0.311,0.251-0.807,0.394-1.488
		c0.143-0.681,0.274-1.416,0.394-2.204c-0.406-0.144-0.818-0.388-1.236-0.735c-0.418-0.346-0.807-0.747-1.165-1.201
		c-0.359-0.453-0.651-0.944-0.878-1.47c-0.228-0.525-0.341-1.027-0.341-1.505c0-0.167,0.012-0.299,0.036-0.394
		c-0.55,0.335-1.07,0.729-1.559,1.182c-0.49,0.455-0.938,0.939-1.344,1.452c-0.407,0.515-0.753,1.052-1.04,1.613
		c-0.287,0.562-0.49,1.106-0.609,1.631c-0.144,0.55-0.275,1.213-0.394,1.989c-0.12,0.777-0.18,1.572-0.18,2.384
		c0,0.55,0.036,1.075,0.108,1.577c0.072,0.502,0.197,0.95,0.376,1.344c0.18,0.394,0.418,0.724,0.717,0.986
		C101.858,114.96,102.222,115.117,102.652,115.164 M108.709,100.646c-0.263,0-0.454,0.084-0.574,0.251
		c-0.119,0.167-0.179,0.371-0.179,0.609c0,0.407,0.131,0.819,0.395,1.237c0.262,0.419,0.609,0.712,1.039,0.878
		c0.024-0.215,0.036-0.417,0.036-0.609v-0.574c0-0.549-0.049-0.985-0.145-1.308c-0.095-0.322-0.273-0.484-0.537-0.484H108.709z"/>
	<path clip-path="url(#SVGID_2_)" fill="#FFFFFF" d="M125.592,98.89c0.12-0.047,0.245-0.072,0.377-0.072h0.412
		c0.453,0,0.985,0.078,1.596,0.233c0.608,0.156,1.188,0.377,1.737,0.664c0.55,0.286,1.01,0.639,1.38,1.057
		c0.371,0.418,0.557,0.89,0.557,1.416c0,0.286-0.024,0.663-0.072,1.129c-0.049,0.466-0.132,1.004-0.251,1.613
		c-0.12,0.609-0.268,1.267-0.448,1.971c-0.179,0.705-0.399,1.428-0.663,2.169c-0.286,0.884-0.633,1.756-1.039,2.616
		c-0.406,0.861-0.843,1.649-1.309,2.366s-0.956,1.326-1.469,1.828c-0.515,0.502-1.035,0.824-1.561,0.968
		c-0.406,0.144-0.775,0.238-1.109,0.287c-0.335,0.047-0.67,0.071-1.005,0.071c-1.171,0-2.114-0.263-2.831-0.788
		c-0.718-0.525-1.147-1.075-1.29-1.649c-0.574,1.625-1.179,3.309-1.812,5.054c-0.633,1.744-1.219,3.399-1.756,4.965
		c-0.538,1.563-0.986,2.938-1.344,4.122c-0.359,1.183-0.538,2.013-0.538,2.49v0.072l-2.795,0.107
		c-0.167-0.145-0.251-0.479-0.251-1.004c0-0.908,0.251-2.271,0.752-4.086c0.502-1.816,1.219-3.872,2.15-6.166
		c0.406-1.004,0.866-2.127,1.38-3.37c0.515-1.241,0.992-2.532,1.434-3.871c0.443-1.338,0.819-2.688,1.129-4.05
		c0.311-1.362,0.467-2.664,0.467-3.907v-0.538c0-0.166-0.013-0.334-0.036-0.502c-0.07-0.811-0.155-1.541-0.251-2.186
		s-0.238-1.123-0.43-1.434l2.294-1.684c0.263,0.454,0.495,0.938,0.698,1.451c0.204,0.514,0.365,0.986,0.484,1.416
		c0.144,0.502,0.264,1.004,0.358,1.506c0.335-0.431,0.729-0.872,1.183-1.327c0.454-0.453,0.914-0.878,1.381-1.272
		c0.466-0.395,0.92-0.74,1.361-1.04C124.905,99.219,125.281,99.01,125.592,98.89 M123.298,115.056
		c0.264-0.048,0.573-0.305,0.934-0.771c0.357-0.466,0.733-1.045,1.129-1.738c0.393-0.693,0.782-1.464,1.165-2.312
		c0.381-0.848,0.721-1.703,1.021-2.563c0.299-0.86,0.543-1.679,0.734-2.455c0.191-0.777,0.288-1.44,0.288-1.99
		c0-0.215-0.025-0.442-0.073-0.681c-0.215-0.621-0.513-1.087-0.896-1.398c-1.673,0.383-3.082,1.028-4.229,1.936
		c-1.147,0.909-1.924,2.007-2.33,3.298c-0.096,0.31-0.203,0.549-0.323,0.716c0,0.192-0.012,0.371-0.035,0.538
		c-0.024,0.168-0.06,0.347-0.107,0.538c-0.072,0.382-0.173,0.83-0.304,1.344c-0.133,0.514-0.293,1.081-0.485,1.703
		c0.073,0.406,0.209,0.836,0.412,1.29c0.204,0.454,0.449,0.873,0.735,1.254c0.286,0.383,0.604,0.699,0.949,0.95
		c0.348,0.251,0.711,0.377,1.095,0.377C123.119,115.092,123.228,115.08,123.298,115.056"/>
	<path clip-path="url(#SVGID_2_)" fill="#FFFFFF" d="M146.812,112.619c-0.454,0.573-0.848,1.081-1.183,1.523
		c-0.335,0.443-0.669,0.837-1.004,1.183c-0.335,0.347-0.692,0.658-1.074,0.932c-0.383,0.275-0.824,0.543-1.326,0.807
		c-0.622,0.286-1.435,0.429-2.438,0.429c-0.597,0-1.219-0.059-1.863-0.179c-0.646-0.119-1.237-0.304-1.774-0.555
		c-0.538-0.251-0.998-0.567-1.379-0.95c-0.383-0.382-0.61-0.836-0.683-1.362c-0.023-0.119-0.034-0.245-0.034-0.376v-0.484
		c0-0.765,0.064-1.828,0.195-3.191c0.132-1.362,0.328-2.855,0.592-4.48c0.263-1.625,0.593-3.303,0.985-5.036
		c0.396-1.732,0.855-3.357,1.381-4.875c0.524-1.517,1.11-2.861,1.756-4.033c0.646-1.17,1.35-2.007,2.115-2.508
		c0.263-0.191,0.543-0.323,0.842-0.395c0.3-0.072,0.579-0.107,0.844-0.107c0.668,0,1.259,0.185,1.773,0.555
		c0.515,0.371,0.829,0.735,0.949,1.094v0.107c0,0.263-0.101,0.759-0.304,1.487c-0.204,0.73-0.484,1.602-0.843,2.617
		c-0.358,1.016-0.788,2.133-1.291,3.352c-0.501,1.218-1.038,2.449-1.612,3.691c-0.574,1.243-1.178,2.462-1.811,3.657
		c-0.633,1.195-1.272,2.27-1.918,3.226c-0.022,0.119-0.064,0.31-0.125,0.573c-0.06,0.264-0.112,0.574-0.161,0.932
		c-0.049,0.359-0.096,0.747-0.144,1.165c-0.048,0.419-0.071,0.843-0.071,1.273c0,0.716,0.083,1.392,0.25,2.025
		c0.167,0.633,0.49,1.081,0.97,1.344c0.764-0.215,1.468-0.531,2.113-0.95c0.646-0.418,1.26-0.896,1.847-1.434
		c0.586-0.538,1.165-1.123,1.738-1.756s1.17-1.284,1.792-1.953L146.812,112.619z M142.331,92.761
		c-0.502,0.717-0.955,1.518-1.36,2.402c-0.408,0.884-0.772,1.798-1.095,2.742c-0.321,0.944-0.604,1.881-0.843,2.814
		c-0.238,0.932-0.418,1.804-0.537,2.616c0.334-0.645,0.693-1.403,1.075-2.276c0.382-0.872,0.753-1.792,1.112-2.76
		c0.357-0.968,0.686-1.929,0.984-2.886C141.967,94.458,142.188,93.574,142.331,92.761"/>
	<path clip-path="url(#SVGID_2_)" fill="#FFFFFF" d="M161.113,111.687c-0.43,0.311-0.932,0.663-1.505,1.058
		c-0.573,0.394-1.178,0.801-1.81,1.219c-0.634,0.418-1.268,0.83-1.9,1.236c-0.633,0.407-1.219,0.771-1.757,1.093
		c-0.537,0.323-0.998,0.586-1.38,0.789c-0.381,0.203-0.632,0.316-0.751,0.341c-0.073,0.023-0.168,0.035-0.288,0.035
		c-0.407,0-0.938-0.102-1.594-0.304c-0.659-0.203-1.322-0.454-1.991-0.753c-0.668-0.299-1.284-0.621-1.845-0.968
		c-0.562-0.346-0.938-0.675-1.13-0.985c-0.144-0.263-0.244-0.604-0.305-1.022c-0.059-0.418-0.09-0.902-0.09-1.452
		c0-0.478,0.024-0.985,0.073-1.523c0.047-0.538,0.111-1.051,0.196-1.542c0.083-0.489,0.18-0.937,0.286-1.344
		c0.107-0.406,0.233-0.728,0.377-0.968c0.166-0.334,0.431-0.758,0.788-1.272c0.358-0.514,0.771-1.051,1.236-1.613
		c0.467-0.561,0.962-1.129,1.489-1.702c0.523-0.574,1.05-1.094,1.576-1.56c0.524-0.466,1.033-0.848,1.523-1.147
		c0.489-0.298,0.926-0.459,1.308-0.484c0.023,0,0.042-0.005,0.055-0.017c0.012-0.012,0.042-0.018,0.089-0.018
		c0.382,0,0.765,0.167,1.147,0.501c0.383,0.335,0.718,0.741,1.003,1.219c0.287,0.478,0.521,0.986,0.699,1.523
		c0.181,0.538,0.27,1.022,0.27,1.452c0,0.215-0.013,0.371-0.036,0.466c-0.095,0.382-0.311,0.855-0.646,1.416
		c-0.335,0.562-0.705,1.111-1.11,1.649c-0.407,0.537-0.802,1.016-1.184,1.434c-0.383,0.418-0.669,0.698-0.859,0.842
		c-0.145,0.12-0.401,0.233-0.771,0.34c-0.371,0.108-0.801,0.216-1.291,0.323c-0.489,0.107-1.009,0.21-1.559,0.305
		c-0.55,0.095-1.087,0.179-1.613,0.251c-0.096,0.478-0.167,0.89-0.215,1.236c-0.048,0.347-0.084,0.592-0.107,0.735
		c0.048,0.264,0.191,0.526,0.431,0.788c0.237,0.264,0.538,0.502,0.896,0.717c0.358,0.216,0.758,0.389,1.2,0.52
		c0.443,0.132,0.891,0.198,1.345,0.198h0.306c0.106,0,0.209-0.012,0.304-0.037c0.43-0.119,1.004-0.394,1.721-0.824
		c0.717-0.43,1.463-0.919,2.24-1.47c0.776-0.549,1.518-1.116,2.222-1.702c0.705-0.585,1.249-1.105,1.631-1.559L161.113,111.687z
		 M153.156,101.471c-0.19,0-0.448,0.143-0.771,0.43s-0.668,0.663-1.039,1.129s-0.758,1.01-1.165,1.631
		c-0.407,0.622-0.766,1.267-1.076,1.935c-0.119,0.24-0.227,0.479-0.322,0.717c-0.096,0.24-0.19,0.491-0.287,0.753
		c0.622-0.119,1.273-0.269,1.954-0.448c0.682-0.179,1.188-0.376,1.523-0.591c0.167-0.119,0.353-0.359,0.556-0.717
		c0.202-0.359,0.396-0.758,0.573-1.201c0.18-0.442,0.328-0.908,0.449-1.398c0.119-0.49,0.178-0.914,0.178-1.272
		c0-0.263-0.048-0.49-0.142-0.681C153.491,101.567,153.348,101.471,153.156,101.471"/>
	<path clip-path="url(#SVGID_2_)" fill="#FFFFFF" d="M161.795,93.729l0.431-0.322c0.238-0.191,0.43-0.425,0.573-0.699
		c0.143-0.275,0.216-0.484,0.216-0.628c0-0.095-0.025-0.143-0.073-0.143c-0.071,0-0.155,0.048-0.25,0.143
		c-0.264,0.215-0.538,0.323-0.825,0.323c-0.262,0-0.502-0.059-0.717-0.179c-0.214-0.12-0.381-0.299-0.501-0.538
		c-0.192-0.334-0.287-0.74-0.287-1.219c0-0.31,0.065-0.621,0.198-0.932c0.131-0.31,0.362-0.585,0.697-0.824
		c0.167-0.095,0.371-0.144,0.609-0.144c0.311,0,0.64,0.085,0.987,0.251c0.345,0.168,0.668,0.377,0.967,0.628
		s0.549,0.519,0.752,0.806s0.318,0.562,0.341,0.825v0.251c0,0.573-0.167,1.153-0.502,1.738c-0.335,0.586-0.872,1.07-1.612,1.452
		L161.795,93.729z"/>
	<path clip-path="url(#SVGID_2_)" fill="#FFFFFF" d="M184.091,112.618c-0.145,0.072-0.502,0.257-1.075,0.556
		c-0.574,0.299-1.262,0.645-2.062,1.04c-0.801,0.394-1.666,0.812-2.599,1.254c-0.931,0.442-1.828,0.848-2.688,1.219
		c-0.859,0.37-1.638,0.675-2.329,0.914c-0.694,0.238-1.196,0.358-1.507,0.358h-0.106c-0.431-0.048-0.903-0.221-1.417-0.52
		c-0.514-0.299-1.016-0.669-1.504-1.111c-0.491-0.441-0.956-0.932-1.399-1.469c-0.441-0.538-0.806-1.058-1.093-1.559l-2.366,3.942
		l-1.792-1.648c0.287-0.335,0.699-0.884,1.237-1.649s1.135-1.643,1.792-2.635c0.658-0.991,1.344-2.043,2.061-3.154
		s1.416-2.192,2.098-3.244c0.681-1.051,1.302-2.019,1.863-2.903s1.01-1.589,1.345-2.115c0.143-0.861,0.377-1.654,0.698-2.384
		c0.322-0.728,0.711-1.165,1.165-1.309h0.18c0.143,0,0.304,0.072,0.483,0.216c0.179,0.143,0.347,0.328,0.502,0.555
		c0.155,0.228,0.286,0.466,0.396,0.717c0.106,0.251,0.161,0.484,0.161,0.699c0,0.12-0.014,0.228-0.036,0.323
		c-0.145,0.358-0.312,0.795-0.502,1.308c-0.192,0.514-0.348,1.022-0.467,1.523c-0.048,0.144-0.07,0.276-0.07,0.395
		c0,0.358,0.094,0.723,0.286,1.093c0.19,0.371,0.412,0.73,0.663,1.075c0.251,0.347,0.502,0.67,0.753,0.968
		c0.251,0.299,0.435,0.556,0.555,0.771c0.382,0.645,0.658,1.32,0.825,2.025s0.251,1.38,0.251,2.025c0,0.407-0.031,0.789-0.09,1.147
		c-0.061,0.359-0.15,0.681-0.27,0.968c0,0.024-0.042,0.12-0.125,0.287c-0.085,0.167-0.174,0.353-0.269,0.555
		c-0.097,0.203-0.186,0.389-0.27,0.556c-0.084,0.168-0.125,0.263-0.125,0.287c0.812-0.431,1.589-0.836,2.329-1.219
		c0.622-0.334,1.237-0.669,1.847-1.004c0.609-0.334,1.057-0.597,1.345-0.788L184.091,112.618z M172.62,114.554
		c0.264,0,0.537-0.036,0.824-0.107c0.048-0.024,0.103-0.048,0.161-0.072c0.06-0.024,0.125-0.048,0.198-0.072
		c0.262-0.119,0.496-0.34,0.698-0.663c0.202-0.323,0.37-0.687,0.502-1.093c0.132-0.406,0.227-0.836,0.286-1.291
		c0.06-0.453,0.091-0.883,0.091-1.29c0-0.454-0.042-0.866-0.127-1.237c-0.084-0.37-0.202-0.717-0.358-1.039
		c-0.155-0.323-0.322-0.633-0.501-0.932s-0.354-0.603-0.521-0.914c-0.215-0.382-0.37-0.776-0.466-1.183
		c-0.096-0.406-0.167-0.812-0.215-1.219l-5.341,7.635c0.382,0.167,0.741,0.425,1.076,0.771c0.335,0.347,0.674,0.705,1.021,1.075
		c0.346,0.371,0.711,0.712,1.094,1.022c0.383,0.311,0.812,0.514,1.29,0.609H172.62z"/>
	<path clip-path="url(#SVGID_2_)" fill="#FFFFFF" d="M82.992,155.947c0.287,0.335,0.573,0.73,0.86,1.184
		c0.837-0.216,1.69-0.441,2.563-0.682c0.872-0.237,1.702-0.488,2.491-0.753c0.789-0.262,1.511-0.519,2.169-0.77
		c0.657-0.251,1.188-0.496,1.595-0.735l0.573,3.261c-0.406,0.217-0.98,0.438-1.72,0.663c-0.741,0.229-1.524,0.449-2.348,0.663
		c-0.824,0.216-1.625,0.425-2.401,0.628c-0.777,0.204-1.393,0.39-1.846,0.557c0.143,0.572,0.214,1.206,0.214,1.898v0.627
		c0,0.229-0.024,0.449-0.071,0.664c-0.143,1.051-0.4,2.222-0.771,3.512c-0.371,1.291-0.801,2.539-1.29,3.746
		c-0.49,1.206-1.01,2.288-1.56,3.244c-0.549,0.956-1.087,1.625-1.612,2.007c-0.431,0.287-0.896,0.432-1.398,0.432
		c-0.454,0-0.896-0.107-1.326-0.323c-0.431-0.215-0.818-0.496-1.166-0.842c-0.346-0.348-0.638-0.741-0.878-1.184
		c-0.238-0.442-0.37-0.89-0.394-1.344v-0.179c0-0.359,0.048-0.934,0.144-1.722c0.095-0.788,0.227-1.709,0.394-2.76
		c0.168-1.052,0.358-2.199,0.573-3.44c0.215-1.243,0.437-2.51,0.663-3.801c0.228-1.29,0.466-2.562,0.717-3.816
		c0.251-1.254,0.484-2.425,0.699-3.513c0.215-1.088,0.406-2.044,0.574-2.867c0.166-0.824,0.31-1.452,0.43-1.882
		c0.143-0.573,0.388-1.326,0.735-2.26c0.345-0.931,0.764-1.923,1.254-2.974c0.489-1.051,1.04-2.127,1.649-3.226
		c0.609-1.1,1.242-2.109,1.9-3.029c0.657-0.92,1.326-1.702,2.007-2.349c0.681-0.645,1.356-1.062,2.025-1.255
		c0.238-0.07,0.489-0.106,0.753-0.106c0.573,0,1.063,0.174,1.469,0.519c0.407,0.348,0.741,0.778,1.004,1.291
		c0.263,0.515,0.46,1.064,0.592,1.649c0.13,0.586,0.22,1.129,0.269,1.631v0.143c0,0.407-0.078,0.986-0.233,1.739
		c-0.157,0.752-0.365,1.589-0.628,2.508c-0.263,0.921-0.555,1.877-0.878,2.868c-0.322,0.993-0.651,1.924-0.985,2.796
		c-0.336,0.872-0.664,1.645-0.986,2.312c-0.323,0.67-0.592,1.136-0.807,1.397c-0.191,0.215-0.478,0.484-0.86,0.808
		c-0.383,0.321-0.806,0.656-1.273,1.003c-0.466,0.347-0.949,0.699-1.451,1.058C83.923,155.302,83.445,155.637,82.992,155.947
		 M77.83,172.614c0.621-0.669,1.201-1.475,1.739-2.419c0.537-0.944,1.009-1.935,1.416-2.975c0.406-1.039,0.729-2.078,0.967-3.118
		c0.239-1.039,0.359-2.014,0.359-2.921c0-0.287-0.012-0.49-0.036-0.61c-0.478,0-0.992-0.065-1.541-0.197
		c-0.551-0.131-1.04-0.315-1.47-0.555c-0.167,0.979-0.34,1.983-0.52,3.01c-0.179,1.028-0.346,2.037-0.502,3.03
		c-0.155,0.991-0.281,1.94-0.376,2.849c-0.095,0.907-0.143,1.732-0.143,2.474C77.723,171.755,77.758,172.233,77.83,172.614
		 M88.87,136.233c-0.55,0.407-1.147,1.063-1.792,1.971c-0.645,0.908-1.303,1.967-1.971,3.172c-0.669,1.207-1.315,2.498-1.936,3.872
		c-0.622,1.374-1.177,2.725-1.667,4.051c-0.49,1.325-0.896,2.562-1.219,3.71c-0.322,1.146-0.507,2.103-0.555,2.866
		c0.095-0.047,0.185-0.095,0.269-0.142c0.083-0.048,0.184-0.096,0.304-0.144c0.454-0.479,1.01-1.027,1.667-1.649
		c0.658-0.621,1.309-1.266,1.954-1.936c0.645-0.668,1.236-1.331,1.774-1.989c0.538-0.656,0.938-1.273,1.201-1.846
		c0.215-0.503,0.448-1.178,0.699-2.025s0.478-1.762,0.681-2.742c0.203-0.979,0.37-1.972,0.502-2.975
		c0.131-1.004,0.197-1.924,0.197-2.761C88.978,137.189,88.941,136.711,88.87,136.233 M81.88,157.452
		c-0.049-0.142-0.156-0.286-0.323-0.429c-0.167-0.144-0.346-0.287-0.538-0.43c-0.191,0.119-0.388,0.231-0.591,0.34
		c-0.203,0.106-0.4,0.221-0.591,0.341c0.143,0.12,0.328,0.197,0.555,0.232s0.472,0.055,0.735,0.055
		C81.486,157.561,81.737,157.525,81.88,157.452 M88.261,134.799c-0.167-0.167-0.335-0.264-0.502-0.286L88.261,134.799z"/>
	<path clip-path="url(#SVGID_2_)" fill="#FFFFFF" d="M110.305,156.557c-0.264,0.502-0.586,1.004-0.968,1.505
		c-0.382,0.502-0.819,0.974-1.308,1.416c-0.49,0.441-1.022,0.824-1.596,1.146c-0.573,0.323-1.17,0.543-1.792,0.663
		c-0.263,0.047-0.507,0.083-0.734,0.108c-0.228,0.022-0.461,0.036-0.699,0.036c-1.028,0-1.924-0.21-2.689-0.628
		s-1.195-1.058-1.29-1.917v-0.358c0-0.526,0.054-1.273,0.161-2.241c0.108-0.967,0.239-1.995,0.394-3.083
		c0.156-1.086,0.317-2.162,0.484-3.225c0.167-1.064,0.31-1.966,0.431-2.707l-2.259-1.003l-5.914,14.767l-3.118-0.465
		c0.143-0.335,0.418-0.945,0.824-1.828c0.406-0.884,0.86-1.865,1.362-2.939c0.502-1.075,0.998-2.145,1.488-3.208
		c0.489-1.062,0.89-1.941,1.201-2.636c0.262-0.645,0.549-1.433,0.86-2.364c0.31-0.934,0.597-1.858,0.86-2.778
		c0.263-0.92,0.478-1.75,0.645-2.491s0.251-1.243,0.251-1.505l3.155,0.788c-0.072,0.095-0.121,0.197-0.144,0.304
		c-0.024,0.108-0.036,0.223-0.036,0.341c0,0.286,0.054,0.568,0.161,0.843c0.108,0.274,0.239,0.525,0.395,0.753
		c0.155,0.228,0.334,0.412,0.538,0.556c0.202,0.143,0.399,0.214,0.591,0.214c0.143,0,0.281-0.064,0.412-0.197
		c0.131-0.131,0.221-0.362,0.269-0.697c0.023-0.145,0.125-0.281,0.305-0.413c0.179-0.131,0.382-0.25,0.609-0.359
		c0.227-0.106,0.466-0.189,0.717-0.25c0.251-0.059,0.46-0.089,0.627-0.089c0.239,0,0.37,0.047,0.394,0.143
		c0.12,0.167,0.233,0.364,0.341,0.592c0.107,0.228,0.161,0.473,0.161,0.734c0,0.264-0.054,0.515-0.161,0.752
		c-0.108,0.24-0.293,0.455-0.556,0.646c-0.382,0.287-0.717,0.753-1.003,1.397c-0.287,0.646-0.533,1.387-0.735,2.223
		c-0.203,0.837-0.353,1.732-0.448,2.688c-0.096,0.956-0.144,1.9-0.144,2.832c0,0.909,0.048,1.781,0.144,2.617
		c0.095,0.837,0.251,1.53,0.466,2.079c0.74-0.145,1.385-0.322,1.935-0.538c0.55-0.215,1.045-0.495,1.488-0.842
		c0.442-0.347,0.848-0.766,1.218-1.255c0.371-0.489,0.735-1.094,1.094-1.811L110.305,156.557z"/>
	<path clip-path="url(#SVGID_2_)" fill="#FFFFFF" d="M121.632,154.765c-0.838,0.979-1.68,1.862-2.527,2.651
		c-0.848,0.788-1.655,1.47-2.42,2.043c-0.765,0.574-1.469,1.022-2.114,1.344c-0.645,0.323-1.195,0.509-1.648,0.557
		c-0.049,0.022-0.145,0.036-0.286,0.036c-0.454,0-0.934-0.108-1.436-0.322c-0.501-0.216-0.968-0.502-1.396-0.861
		c-0.432-0.357-0.789-0.758-1.076-1.201c-0.287-0.44-0.43-0.878-0.43-1.308v-0.072c0.048-0.477,0.191-1.29,0.43-2.437
		c0.191-1.004,0.502-2.42,0.932-4.247c0.431-1.828,1.052-4.272,1.864-7.331l2.94,0.538c-0.981,3.322-1.614,6.034-1.901,8.136
		c-0.286,2.104-0.429,3.693-0.429,4.769v0.807c0,0.226,0.011,0.412,0.034,0.554c0.023,0.168,0.049,0.312,0.072,0.432
		c0.884-0.454,1.804-0.991,2.76-1.613c0.812-0.549,1.708-1.219,2.688-2.007c0.979-0.789,1.936-1.708,2.868-2.762L121.632,154.765z
		 M118.118,134.226c-0.55,0.646-0.968,1.267-1.254,1.863c-0.287,0.599-0.49,1.123-0.608,1.577c-0.145,0.526-0.229,1.017-0.252,1.469
		l-2.796,0.217c0.049-1.076,0.292-2.115,0.734-3.119c0.443-1.003,0.974-1.816,1.596-2.438L118.118,134.226z"/>
	<path clip-path="url(#SVGID_2_)" fill="#FFFFFF" d="M131.31,154.083c-0.049,0.43-0.084,0.854-0.107,1.271
		c-0.024,0.419-0.035,0.831-0.035,1.238c0,1.098,0.106,2.02,0.321,2.759c0.382-0.143,0.854-0.346,1.416-0.608
		c0.562-0.264,1.152-0.562,1.774-0.897c0.621-0.334,1.255-0.699,1.899-1.092c0.646-0.395,1.256-0.783,1.828-1.165
		c0.573-0.382,1.081-0.759,1.523-1.129c0.443-0.37,0.783-0.699,1.021-0.987l0.395,2.581c-0.263,0.359-0.741,0.861-1.434,1.506
		c-0.693,0.646-1.446,1.284-2.259,1.917c-0.812,0.635-1.618,1.184-2.419,1.65c-0.801,0.466-1.438,0.698-1.918,0.698h-0.071
		c-0.479,0-0.991-0.061-1.542-0.18c-0.55-0.119-1.062-0.28-1.541-0.483s-0.878-0.447-1.199-0.734
		c-0.324-0.288-0.485-0.597-0.485-0.932c-0.022-0.287-0.036-0.646-0.036-1.076s-0.012-0.848-0.035-1.254
		c-0.551,0.55-1.11,1.069-1.686,1.558c-0.573,0.491-1.129,0.914-1.666,1.273c-0.538,0.357-1.051,0.645-1.542,0.859
		c-0.489,0.217-0.938,0.323-1.343,0.323c-0.192,0-0.323-0.012-0.396-0.036c-0.43-0.095-0.824-0.304-1.183-0.627
		c-0.358-0.322-0.663-0.722-0.914-1.201c-0.251-0.477-0.448-1.009-0.591-1.595c-0.144-0.585-0.215-1.188-0.215-1.81
		c0-0.86,0.143-1.672,0.43-2.438c0.19-0.502,0.478-1.11,0.86-1.828c0.383-0.717,0.818-1.463,1.308-2.239
		c0.49-0.776,1.016-1.564,1.578-2.365c0.561-0.801,1.128-1.519,1.703-2.152c0.572-0.631,1.129-1.164,1.666-1.594
		c0.538-0.43,1.033-0.681,1.487-0.753c0.119-0.024,0.228-0.035,0.322-0.035h0.287c0.621,0,1.141,0.119,1.559,0.358
		c0.418,0.238,0.76,0.502,1.021,0.788c0.311-1.171,0.64-2.323,0.987-3.459c0.345-1.136,0.68-2.175,1.004-3.118
		c0.321-0.943,0.631-1.757,0.931-2.438c0.299-0.68,0.579-1.165,0.842-1.452c0.335-0.334,0.683-0.565,1.04-0.697
		c0.359-0.132,0.729-0.197,1.111-0.197c0.407,0,0.8,0.078,1.183,0.231c0.382,0.156,0.724,0.348,1.022,0.574
		c0.298,0.229,0.538,0.484,0.716,0.771c0.18,0.286,0.269,0.561,0.269,0.823v0.108c-0.023,0.263-0.191,0.837-0.501,1.72
		c-0.312,0.886-0.712,1.942-1.2,3.172c-0.49,1.232-1.047,2.564-1.667,3.997c-0.622,1.435-1.262,2.821-1.919,4.158
		c-0.656,1.338-1.296,2.563-1.917,3.674C132.373,152.632,131.812,153.487,131.31,154.083 M122.993,158.493
		c0.287,0,0.646-0.145,1.075-0.432c0.432-0.286,0.902-0.663,1.416-1.129c0.515-0.465,1.045-0.991,1.597-1.577
		c0.549-0.585,1.074-1.177,1.576-1.773c0.19-0.812,0.417-1.798,0.682-2.957c0.262-1.158,0.56-2.407,0.896-3.745
		c-0.239-0.526-0.551-0.968-0.933-1.326c-0.381-0.359-0.716-0.539-1.003-0.539c-0.12,0-0.204,0.025-0.25,0.072
		c-0.097,0.072-0.312,0.293-0.646,0.663c-0.335,0.371-0.717,0.831-1.146,1.381c-0.431,0.549-0.892,1.159-1.38,1.827
		c-0.49,0.67-0.945,1.327-1.363,1.971c-0.418,0.646-0.782,1.25-1.092,1.812c-0.312,0.562-0.491,1.01-0.539,1.344
		c-0.047,0.335-0.096,0.676-0.143,1.021c-0.049,0.348-0.071,0.688-0.071,1.022c0,0.622,0.089,1.16,0.268,1.613
		c0.18,0.454,0.508,0.705,0.987,0.753H122.993z M137.402,135.158c-0.405,0.454-0.837,1.124-1.29,2.008
		c-0.454,0.884-0.901,1.912-1.344,3.082c-0.443,1.172-0.873,2.443-1.291,3.816c-0.418,1.375-0.794,2.768-1.129,4.177
		c0.55-1.026,1.123-2.15,1.721-3.369s1.136-2.425,1.613-3.62s0.878-2.33,1.2-3.406C137.207,136.77,137.38,135.875,137.402,135.158"
		/>
	<path clip-path="url(#SVGID_2_)" fill="#FFFFFF" d="M147.726,158.312c0.023-0.095,0.037-0.189,0.037-0.285v-0.287
		c-1.028,0.979-1.979,1.745-2.851,2.294c-0.873,0.55-1.679,0.823-2.42,0.823c-0.07,0-0.147-0.006-0.231-0.017
		c-0.084-0.013-0.161-0.018-0.234-0.018c-0.454-0.097-0.878-0.317-1.272-0.663c-0.394-0.348-0.734-0.776-1.021-1.291
		c-0.286-0.515-0.513-1.08-0.68-1.702c-0.167-0.621-0.251-1.242-0.251-1.865c0-0.716,0.131-1.445,0.394-2.186
		c0.191-0.502,0.479-1.111,0.861-1.828c0.381-0.717,0.817-1.463,1.307-2.24s1.016-1.559,1.577-2.348
		c0.562-0.788,1.129-1.506,1.703-2.15c0.574-0.646,1.129-1.177,1.667-1.596c0.538-0.417,1.034-0.663,1.488-0.735
		c0.118-0.022,0.226-0.036,0.321-0.036h0.287c0.502,0,0.949,0.073,1.344,0.216c0.395,0.144,0.74,0.328,1.04,0.556
		c0.299,0.227,0.543,0.473,0.734,0.734c0.192,0.265,0.335,0.502,0.43,0.718c0.072-0.287,0.156-0.515,0.251-0.682l2.33,0.359
		c-0.645,1.6-1.242,3.238-1.792,4.91c-0.55,1.673-0.979,3.262-1.29,4.767l0.035,0.108c-0.096,0.454-0.167,0.812-0.215,1.075
		s-0.12,0.608-0.215,1.039c0.43-0.286,0.973-0.586,1.631-0.896c0.658-0.311,1.313-0.61,1.972-0.897
		c0.657-0.285,1.248-0.53,1.774-0.733c0.524-0.203,0.86-0.328,1.003-0.377l-0.251,2.617c-0.191,0.119-0.549,0.311-1.075,0.572
		c-0.524,0.265-1.135,0.573-1.828,0.933c-0.692,0.358-1.422,0.76-2.186,1.201c-0.766,0.441-1.482,0.913-2.151,1.416
		c-0.478,1.672-0.974,3.388-1.487,5.144c-0.515,1.756-1.004,3.369-1.47,4.838c-0.466,1.47-0.884,2.707-1.255,3.71
		c-0.371,1.004-0.639,1.614-0.806,1.829c-0.335,0.334-0.669,0.615-1.003,0.842c-0.335,0.228-0.683,0.34-1.04,0.34
		c-0.718,0-1.351-0.478-1.9-1.433c-0.31-0.598-0.466-1.554-0.466-2.868c0-0.812,0.059-1.697,0.179-2.651
		c0.12-0.956,0.281-1.89,0.484-2.797c0.203-0.908,0.441-1.744,0.717-2.51c0.275-0.764,0.579-1.374,0.914-1.828
		c0.407-0.502,1.058-1.123,1.953-1.862C145.665,159.832,146.65,159.079,147.726,158.312 M143.245,158.17
		c0.264,0,0.609-0.144,1.04-0.431s0.896-0.657,1.398-1.111c0.501-0.453,1.021-0.968,1.559-1.541c0.537-0.574,1.059-1.148,1.56-1.721
		c0.263-0.836,0.603-1.857,1.021-3.065c0.417-1.206,0.891-2.514,1.415-3.924l-0.501,0.967c-0.072-0.357-0.192-0.692-0.359-1.003
		s-0.358-0.592-0.572-0.843c-0.215-0.25-0.437-0.447-0.664-0.591c-0.228-0.145-0.424-0.216-0.59-0.216
		c-0.073,0-0.157,0.024-0.251,0.071c-0.097,0.072-0.306,0.293-0.628,0.663c-0.323,0.372-0.705,0.837-1.147,1.399
		c-0.442,0.561-0.909,1.171-1.398,1.827c-0.488,0.657-0.944,1.309-1.361,1.953c-0.418,0.646-0.783,1.249-1.093,1.811
		c-0.312,0.562-0.49,1.01-0.538,1.344c-0.049,0.335-0.096,0.676-0.144,1.022c-0.049,0.347-0.072,0.687-0.072,1.021
		c0,0.622,0.091,1.16,0.269,1.614c0.18,0.454,0.508,0.705,0.987,0.753H143.245z M143.245,172.114c0.86-1.22,1.59-2.695,2.188-4.428
		c0.596-1.732,1.11-3.544,1.542-5.43c-1.101,0.979-1.854,1.899-2.259,2.759c-0.526,1.148-0.908,2.235-1.147,3.263
		c-0.239,1.026-0.358,2.043-0.358,3.047c0,0.119,0.006,0.251,0.018,0.394C143.239,171.863,143.245,171.994,143.245,172.114"/>
	<path clip-path="url(#SVGID_2_)" fill="#FFFFFF" d="M172.423,155.733c-0.431,0.31-0.933,0.663-1.506,1.056
		c-0.573,0.396-1.177,0.802-1.809,1.219c-0.635,0.419-1.269,0.831-1.901,1.238c-0.633,0.406-1.219,0.771-1.756,1.092
		c-0.538,0.323-0.998,0.585-1.38,0.789c-0.382,0.203-0.633,0.317-0.752,0.34c-0.073,0.024-0.167,0.036-0.288,0.036
		c-0.406,0-0.938-0.101-1.594-0.304c-0.659-0.203-1.322-0.454-1.99-0.753c-0.669-0.298-1.285-0.621-1.846-0.968
		c-0.562-0.347-0.938-0.676-1.13-0.985c-0.144-0.263-0.244-0.604-0.305-1.022c-0.059-0.418-0.089-0.9-0.089-1.451
		c0-0.479,0.023-0.985,0.072-1.523c0.047-0.538,0.112-1.051,0.196-1.542c0.083-0.489,0.18-0.937,0.286-1.343
		c0.108-0.407,0.233-0.729,0.377-0.968c0.167-0.335,0.431-0.76,0.788-1.272c0.358-0.514,0.771-1.052,1.237-1.614
		c0.466-0.561,0.962-1.129,1.488-1.703c0.524-0.572,1.051-1.093,1.576-1.558c0.525-0.466,1.033-0.848,1.523-1.147
		c0.489-0.299,0.926-0.461,1.309-0.483c0.022,0,0.041-0.006,0.055-0.02c0.011-0.012,0.041-0.017,0.088-0.017
		c0.382,0,0.765,0.167,1.147,0.501c0.383,0.335,0.718,0.742,1.005,1.219c0.285,0.479,0.519,0.986,0.697,1.524
		c0.181,0.537,0.271,1.021,0.271,1.451c0,0.215-0.014,0.371-0.037,0.466c-0.095,0.382-0.311,0.854-0.646,1.416
		s-0.705,1.111-1.11,1.648c-0.407,0.537-0.802,1.017-1.184,1.435s-0.669,0.699-0.859,0.841c-0.145,0.121-0.401,0.234-0.771,0.341
		c-0.371,0.108-0.801,0.215-1.29,0.323c-0.49,0.108-1.01,0.21-1.56,0.304c-0.549,0.098-1.087,0.181-1.613,0.251
		c-0.095,0.479-0.167,0.892-0.215,1.238c-0.048,0.346-0.084,0.59-0.107,0.734c0.048,0.264,0.191,0.525,0.432,0.789
		c0.237,0.263,0.537,0.501,0.895,0.717c0.358,0.215,0.759,0.388,1.201,0.519c0.442,0.132,0.89,0.198,1.344,0.198h0.306
		c0.106,0,0.209-0.012,0.304-0.037c0.431-0.119,1.004-0.394,1.721-0.824c0.717-0.43,1.464-0.92,2.24-1.47
		c0.777-0.549,1.518-1.116,2.223-1.702c0.704-0.586,1.248-1.104,1.631-1.559L172.423,155.733z M164.465,145.517
		c-0.19,0-0.446,0.144-0.771,0.43c-0.322,0.287-0.668,0.663-1.039,1.129s-0.758,1.01-1.165,1.631
		c-0.407,0.622-0.766,1.268-1.075,1.937c-0.12,0.238-0.227,0.478-0.323,0.717c-0.095,0.239-0.19,0.49-0.286,0.752
		c0.621-0.119,1.272-0.27,1.953-0.448c0.683-0.179,1.188-0.376,1.523-0.591c0.167-0.119,0.353-0.359,0.556-0.717
		c0.203-0.359,0.396-0.758,0.573-1.201c0.18-0.442,0.328-0.908,0.449-1.398c0.119-0.488,0.179-0.914,0.179-1.271
		c0-0.264-0.049-0.489-0.143-0.683C164.8,145.613,164.656,145.517,164.465,145.517"/>
	<path clip-path="url(#SVGID_2_)" fill="#24037F" d="M2.756,97.16l0.667,0.3c-0.02,0.031-0.151,0.199-0.394,0.504
		c-0.243,0.305-0.45,0.586-0.619,0.84c-0.169,0.252-0.334,0.615-0.493,1.083c-0.16,0.468-0.234,0.948-0.223,1.438
		c0.008,0.359,0.098,0.683,0.269,0.969c0.171,0.286,0.384,0.504,0.638,0.653c0.253,0.15,0.521,0.272,0.803,0.365
		c0.282,0.094,0.533,0.128,0.752,0.103c0.22-0.025,0.384-0.064,0.493-0.115c0.138-0.104,0.115-0.423-0.067-0.959
		s-0.369-1.087-0.562-1.654c-0.193-0.565-0.225-0.924-0.099-1.078c0.175-0.223,0.36-0.426,0.557-0.604
		c0.195-0.18,0.436-0.38,0.721-0.602c0.286-0.222,0.482-0.378,0.59-0.471c0.03-0.031,0.141-0.05,0.336-0.06
		c0.195-0.009,0.455-0.013,0.78-0.01c0.325,0.003,0.633,0.006,0.923,0.01c0.29,0.003,0.636,0.008,1.036,0.014
		c0.4,0.006,0.685,0.012,0.855,0.018l-0.014,0.03l0.03-0.015l0.109,4.904l-1.469,1.383l-0.097-4.318
		c-1.263-0.153-2.06-0.2-2.388-0.142c-0.016,0.189,0.023,0.509,0.118,0.957c0.096,0.448,0.177,0.853,0.246,1.218
		c0.067,0.363,0.077,0.575,0.029,0.636c-1.012,1.263-1.789,2.081-2.331,2.454c-0.138,0.092-0.359,0.147-0.664,0.165
		c-0.305,0.016-0.641-0.029-1.008-0.136c-0.368-0.107-0.721-0.267-1.061-0.479c-0.34-0.213-0.625-0.536-0.855-0.97
		c-0.229-0.436-0.351-0.938-0.363-1.508c-0.013-0.54,0.097-1.1,0.329-1.68c0.232-0.581,0.518-1.093,0.859-1.535
		c0.34-0.442,0.644-0.808,0.913-1.093C2.371,97.489,2.589,97.284,2.756,97.16"/>
	<polygon clip-path="url(#SVGID_2_)" fill="#24037F" points="10.334,110.536 0.555,111.318 0.758,109.452 8.774,108.836 
		7.29,107.535 7.73,106.013 10.745,108.639 10.641,109.053 	"/>
	<polygon clip-path="url(#SVGID_2_)" fill="#24037F" points="10.986,116.308 1.248,117.494 1.373,115.621 9.356,114.673 
		7.82,113.436 8.197,111.896 11.317,114.395 11.231,114.814 	"/>
	<path clip-path="url(#SVGID_2_)" fill="#24037F" d="M12.172,130.991c0.069-0.444,0.112-0.87,0.128-1.277
		c0.017-0.408-0.019-0.855-0.107-1.342c-0.087-0.487-0.239-0.902-0.455-1.245c-0.215-0.343-0.549-0.625-0.999-0.847
		c-0.451-0.223-1-0.315-1.646-0.28c-0.112,0.003-0.065,0.382,0.14,1.136c0.206,0.753,0.414,1.486,0.626,2.197
		c0.212,0.712,0.273,1.221,0.185,1.524c-0.657,1.151-1.31,1.999-1.961,2.547c-0.311,0.27-0.838,0.294-1.579,0.072
		c-0.929-0.284-1.682-0.819-2.257-1.607c-1.029-1.388-1.126-3.125-0.289-5.213c0.341-0.85,0.843-1.737,1.506-2.664l0.313,0.394
		c-0.183,0.631-0.321,1.138-0.414,1.521c-0.093,0.382-0.17,0.854-0.229,1.42c-0.059,0.563-0.052,1.049,0.023,1.452
		c0.177,0.934,0.566,1.648,1.167,2.145c0.6,0.497,1.315,0.698,2.144,0.604c0.09-0.01,0.003-0.358-0.26-1.05
		c-0.264-0.689-0.516-1.387-0.757-2.093c-0.241-0.706-0.289-1.268-0.142-1.687c0.23-0.458,0.717-1.199,1.461-2.227
		c0.267-0.331,0.585-0.542,0.955-0.63c0.37-0.089,0.772-0.046,1.208,0.128c0.435,0.173,0.843,0.414,1.225,0.721
		c0.382,0.309,0.724,0.693,1.027,1.155c0.302,0.462,0.506,0.944,0.612,1.443c0.026,0.127-0.004,0.384-0.091,0.769
		c-0.087,0.388-0.226,0.925-0.417,1.615c-0.192,0.689-0.316,1.142-0.372,1.358L12.172,130.991z"/>
	<path clip-path="url(#SVGID_2_)" fill="#24037F" d="M5.237,137.107c0.105-0.555,0.363-1.014,0.775-1.378
		c0.16-0.021,0.396,0.072,0.708,0.281c0.312,0.208,0.509,0.391,0.59,0.545c-0.095,0.552-0.344,1.003-0.749,1.356
		C6.102,137.854,5.661,137.585,5.237,137.107"/>
	<path clip-path="url(#SVGID_2_)" fill="#24037F" d="M9.893,143.62l0.726,0.091c-0.01,0.035-0.086,0.233-0.229,0.597
		c-0.143,0.364-0.258,0.692-0.345,0.984c-0.088,0.292-0.139,0.686-0.154,1.181c-0.015,0.495,0.055,0.974,0.209,1.44
		c0.114,0.342,0.294,0.624,0.542,0.848c0.248,0.222,0.515,0.368,0.801,0.438c0.286,0.067,0.578,0.105,0.875,0.111
		c0.297,0.007,0.547-0.034,0.75-0.122c0.202-0.089,0.348-0.173,0.436-0.256c0.102-0.138-0.013-0.437-0.344-0.896
		c-0.332-0.459-0.673-0.932-1.023-1.415c-0.35-0.484-0.488-0.818-0.411-1.002c0.102-0.267,0.219-0.514,0.354-0.741
		c0.135-0.23,0.306-0.492,0.514-0.787c0.207-0.296,0.349-0.503,0.425-0.623c0.019-0.038,0.121-0.09,0.304-0.157
		c0.183-0.065,0.431-0.145,0.742-0.237c0.312-0.094,0.607-0.182,0.886-0.263c0.278-0.082,0.609-0.178,0.994-0.291
		c0.384-0.11,0.658-0.188,0.823-0.232l-0.005,0.032l0.024-0.022l1.544,4.655l-0.998,1.754l-1.36-4.102
		c-1.253,0.227-2.028,0.414-2.326,0.567c0.041,0.186,0.173,0.479,0.395,0.88c0.223,0.4,0.42,0.764,0.592,1.091
		c0.172,0.329,0.243,0.529,0.215,0.602c-0.597,1.504-1.1,2.514-1.508,3.028c-0.105,0.129-0.301,0.246-0.587,0.354
		c-0.286,0.104-0.621,0.16-1.003,0.167c-0.383,0.005-0.768-0.044-1.155-0.147c-0.388-0.103-0.755-0.329-1.102-0.677
		c-0.347-0.349-0.611-0.793-0.79-1.334c-0.17-0.513-0.229-1.08-0.178-1.703c0.052-0.624,0.175-1.197,0.37-1.719
		c0.195-0.524,0.379-0.961,0.552-1.314C9.621,144.046,9.769,143.787,9.893,143.62"/>
	<path clip-path="url(#SVGID_2_)" fill="#24037F" d="M19.912,157.059c-0.182,0.307-0.427,0.525-0.733,0.66
		c-0.308,0.136-0.657,0.183-1.048,0.141c-0.392-0.042-0.799-0.124-1.22-0.245c-0.422-0.121-0.866-0.298-1.331-0.532
		c-0.465-0.232-0.895-0.463-1.288-0.691c-0.394-0.229-0.787-0.478-1.179-0.743l1.242,3.219l-0.913,1.799l-2.344-6.073l0.913-1.8
		c1.823,1.141,3.017,1.831,3.582,2.075c1.16,0.505,1.931,0.808,2.312,0.908c0.968,0.259,1.615,0.073,1.94-0.557
		c0.116-0.227,0.127-0.47,0.033-0.728c-0.094-0.258-0.241-0.486-0.44-0.682c-0.199-0.196-0.453-0.402-0.76-0.615
		c-0.308-0.214-0.56-0.374-0.756-0.481c-0.197-0.105-0.396-0.212-0.597-0.315l0.976-1.68c0.27,0.09,0.655,0.303,1.155,0.641
		c0.5,0.337,0.971,0.745,1.413,1.223c0.442,0.479,0.592,0.938,0.451,1.377C20.953,155.034,20.483,156.067,19.912,157.059"/>
	<polygon clip-path="url(#SVGID_2_)" fill="#24037F" points="26.321,166.661 17.342,170.647 16.887,168.552 21.193,161.323 
		14.529,164.314 14.074,162.219 23.204,158.165 23.496,160.299 19.259,167.5 26.017,164.498 	"/>
	<path clip-path="url(#SVGID_2_)" fill="#24037F" d="M19.759,174.551l-0.007-0.014l-0.558-2.057l8.504-4.323l-0.007,0.02
		l0.014-0.006c0.319,0.319,0.792,1.072,1.417,2.257c0.626,1.186,0.935,2.004,0.929,2.456c-0.175,1.266-0.745,3.099-1.713,5.499
		c-0.062,0.144-0.231,0.319-0.506,0.527c-0.276,0.207-0.642,0.393-1.097,0.557c-0.455,0.165-0.942,0.277-1.46,0.338
		c-0.518,0.063-1.084-0.003-1.698-0.195c-0.614-0.192-1.18-0.521-1.698-0.987c-0.459-0.44-0.878-1.04-1.259-1.8
		C20.239,176.062,19.952,175.305,19.759,174.551 M28.564,175.156c0.1-0.444,0.134-0.873,0.102-1.289
		c-0.032-0.416-0.138-0.828-0.317-1.235c-0.18-0.409-0.342-0.733-0.486-0.973c-0.145-0.241-0.351-0.558-0.617-0.948l-6.685,3.432
		c0.232,0.657,0.579,1.222,1.038,1.695c0.459,0.472,0.965,0.821,1.516,1.046c0.552,0.224,1.128,0.357,1.727,0.4
		s1.153-0.012,1.659-0.162c0.507-0.152,0.949-0.396,1.327-0.734C28.206,176.05,28.451,175.638,28.564,175.156"/>
	<path clip-path="url(#SVGID_2_)" fill="#24037F" d="M37.818,190.172c-0.095-0.438-0.208-0.853-0.338-1.237
		c-0.132-0.386-0.326-0.79-0.583-1.214c-0.257-0.423-0.548-0.756-0.872-0.998c-0.325-0.243-0.737-0.387-1.237-0.433
		c-0.5-0.045-1.046,0.066-1.637,0.33c-0.103,0.043,0.077,0.379,0.54,1.01c0.462,0.63,0.92,1.237,1.373,1.826
		c0.453,0.589,0.693,1.04,0.72,1.357c-0.199,1.309-0.504,2.336-0.915,3.08c-0.193,0.363-0.676,0.575-1.447,0.635
		c-0.969,0.069-1.864-0.161-2.684-0.689c-1.459-0.926-2.173-2.513-2.143-4.762c0.014-0.915,0.163-1.924,0.449-3.026l0.433,0.255
		c0.056,0.655,0.11,1.178,0.16,1.567c0.051,0.392,0.15,0.86,0.297,1.408c0.148,0.548,0.328,0.997,0.544,1.347
		c0.5,0.808,1.12,1.336,1.859,1.583c0.738,0.246,1.478,0.179,2.218-0.206c0.08-0.041-0.126-0.336-0.62-0.887
		c-0.494-0.549-0.98-1.109-1.458-1.681c-0.479-0.572-0.725-1.079-0.739-1.524c0.05-0.51,0.238-1.377,0.564-2.601
		c0.13-0.407,0.351-0.717,0.664-0.933s0.705-0.32,1.173-0.314c0.469,0.005,0.937,0.084,1.404,0.233
		c0.466,0.149,0.924,0.387,1.373,0.71c0.447,0.321,0.811,0.697,1.089,1.126c0.07,0.107,0.134,0.358,0.192,0.751
		c0.058,0.391,0.121,0.943,0.19,1.655c0.069,0.713,0.116,1.181,0.141,1.401L37.818,190.172z"/>
	<polygon clip-path="url(#SVGID_2_)" fill="#24037F" points="40.267,192.368 40.603,190.593 45.796,197.329 45.459,199.102 
		43.252,196.241 36.072,201.814 35.134,199.886 41.988,194.6 	"/>
	<path clip-path="url(#SVGID_2_)" fill="#24037F" d="M46.091,207.999c0.065-0.183,0.09-0.518,0.076-1.006
		c-0.92-0.473-1.7-1.265-2.337-2.374l-3.065,2.827l-1.098-1.844l7.401-6.776c0.799,0.502,1.607,1.142,2.427,1.917
		c0.818,0.774,1.252,1.338,1.3,1.686c0.004,0.405-0.015,1.059-0.054,1.962c-0.04,0.905-0.083,1.547-0.128,1.927
		c-0.06,0.408-0.462,0.739-1.206,0.993c-0.743,0.254-1.545,0.26-2.405,0.017c0.384,1.086,0.569,1.695,0.557,1.83
		c-0.053,0.224-0.151,0.438-0.294,0.644c-0.144,0.207-0.278,0.368-0.404,0.482c-0.125,0.114-0.309,0.269-0.551,0.464
		c-0.242,0.194-0.404,0.329-0.485,0.402c-0.074,0.068-0.191,0.166-0.352,0.293c-0.162,0.128-0.279,0.226-0.353,0.293
		c-0.074,0.066-0.158,0.164-0.252,0.292c-0.094,0.127-0.15,0.245-0.169,0.357c-0.02,0.113-0.019,0.254,0.002,0.425
		s0.08,0.362,0.177,0.571c-0.652-0.475-1.002-1.045-1.05-1.713c-0.049-0.667,0.205-1.29,0.761-1.867
		c0.044-0.041,0.176-0.171,0.394-0.391c0.219-0.222,0.374-0.385,0.468-0.489c0.093-0.106,0.209-0.249,0.348-0.431
		C45.938,208.307,46.035,208.143,46.091,207.999 M50.001,204.072c0.014-0.813-0.778-1.797-2.376-2.949l-3.087,2.847
		c0.465,0.523,0.968,0.92,1.508,1.192c0.54,0.271,1.035,0.403,1.485,0.398c0.449-0.005,0.865-0.072,1.246-0.205
		c0.38-0.132,0.679-0.315,0.895-0.555C49.887,204.562,49.997,204.32,50.001,204.072"/>
	<polygon clip-path="url(#SVGID_2_)" fill="#24037F" points="48.467,214.764 48.464,214.721 47.321,213.126 53.778,206.063 
		58.505,210.383 58.479,212.191 54.395,208.456 52.452,210.581 55.208,213.102 55.184,214.908 51.552,211.587 49.477,213.858 
		53.108,217.177 53.083,218.984 	"/>
	<polygon clip-path="url(#SVGID_2_)" fill="#24037F" points="56.086,221.332 56.08,221.29 54.798,219.803 60.599,212.191 
		65.693,216.073 65.83,217.875 61.427,214.519 59.682,216.81 62.652,219.074 62.789,220.875 58.875,217.893 57.012,220.339 
		60.925,223.321 61.061,225.123 	"/>
	<polygon clip-path="url(#SVGID_2_)" fill="#24037F" points="67.355,218.917 67.053,217.135 74.264,221.645 74.566,223.425 
		71.501,221.509 66.708,229.231 65.157,227.75 69.746,220.411 	"/>
	<path clip-path="url(#SVGID_2_)" fill="#24037F" d="M71.08,233.769l-0.35-0.647c0.599-0.587,0.971-1.045,1.115-1.377
		c-0.145-0.384-0.214-0.733-0.204-1.046c0.093-0.131,0.322-0.242,0.688-0.328c0.364-0.088,0.631-0.11,0.8-0.063
		c0.176,0.241,0.314,0.528,0.414,0.859c0.1,0.332,0.098,0.584-0.005,0.755c-0.229,0.298-0.617,0.651-1.166,1.061
		C71.822,233.391,71.392,233.653,71.08,233.769"/>
	<polygon clip-path="url(#SVGID_2_)" fill="#24037F" points="82.999,236.692 83.025,236.67 83.447,226.104 85.161,227.37 
		84.794,234.792 90.087,229.15 91.951,230.483 91.584,237.905 96.877,232.262 98.741,233.595 91.551,241.29 89.789,239.804 
		89.815,239.784 90.085,232.464 84.761,238.175 	"/>
	<polygon clip-path="url(#SVGID_2_)" fill="#24037F" points="98.489,242.974 98.468,242.938 96.716,242.054 99.167,232.804 
		105.358,234.445 106.172,236.057 100.823,234.639 100.084,237.422 103.695,238.379 104.509,239.993 99.752,238.732 98.966,241.703 
		103.721,242.963 104.535,244.578 	"/>
	<path clip-path="url(#SVGID_2_)" fill="#24037F" d="M115.301,238.194c-0.395-0.217-0.779-0.4-1.157-0.555
		c-0.379-0.151-0.812-0.27-1.3-0.353c-0.487-0.082-0.93-0.08-1.324,0.007c-0.397,0.086-0.775,0.303-1.137,0.652
		c-0.36,0.35-0.635,0.834-0.821,1.454c-0.035,0.105,0.337,0.189,1.115,0.253c0.779,0.062,1.539,0.113,2.28,0.155
		c0.741,0.041,1.24,0.156,1.497,0.344c0.861,1.007,1.438,1.908,1.732,2.707c0.147,0.385-0.008,0.888-0.468,1.511
		c-0.582,0.776-1.341,1.303-2.276,1.578c-1.654,0.498-3.322,0-5.003-1.494c-0.683-0.61-1.348-1.382-1.996-2.32l0.476-0.162
		c0.532,0.388,0.963,0.689,1.291,0.906c0.328,0.217,0.748,0.449,1.259,0.696c0.512,0.248,0.97,0.403,1.374,0.471
		c0.938,0.149,1.742,0.026,2.413-0.372c0.671-0.396,1.104-1,1.296-1.812c0.021-0.088-0.337-0.124-1.074-0.11
		c-0.739,0.013-1.482,0.014-2.228,0.003c-0.745-0.013-1.291-0.159-1.636-0.438c-0.353-0.371-0.885-1.081-1.598-2.13
		c-0.222-0.362-0.313-0.733-0.27-1.111c0.042-0.378,0.218-0.742,0.529-1.093s0.676-0.653,1.095-0.908s0.897-0.446,1.435-0.574
		s1.059-0.157,1.563-0.087c0.129,0.017,0.361,0.133,0.695,0.345c0.334,0.213,0.793,0.527,1.377,0.941
		c0.584,0.413,0.967,0.684,1.151,0.809L115.301,238.194z"/>
	<polygon clip-path="url(#SVGID_2_)" fill="#24037F" points="118.496,237.713 117.333,236.331 125.835,236.557 126.999,237.939 
		123.387,237.843 123.176,246.93 121.086,246.44 121.315,237.787 	"/>
	<path clip-path="url(#SVGID_2_)" fill="#24037F" d="M133.942,246.211l-1.124-9.973c0.877-0.351,1.87-0.628,2.979-0.833
		s1.818-0.226,2.129-0.06c0.329,0.235,0.848,0.635,1.555,1.199c0.708,0.564,1.202,0.976,1.482,1.237
		c0.169,0.162,0.242,0.458,0.222,0.888c-0.023,0.43-0.147,0.892-0.372,1.385c-0.228,0.493-0.567,0.965-1.02,1.413
		c-0.453,0.449-1.023,0.775-1.717,0.979c-0.691,0.204-1.509,0.224-2.453,0.058l0.454,3.904L133.942,246.211z M138.755,236.944
		c-0.593-0.526-1.847-0.491-3.762,0.106l0.551,4.753c0.726-0.001,1.353-0.144,1.884-0.43c0.531-0.287,0.92-0.64,1.163-1.061
		c0.245-0.42,0.414-0.858,0.51-1.316c0.093-0.459,0.104-0.875,0.031-1.249C139.061,237.373,138.935,237.104,138.755,236.944"/>
	<polygon clip-path="url(#SVGID_2_)" fill="#24037F" points="144.281,235.329 145.199,239.427 149.873,238.122 148.899,233.698 
		151.079,233.833 153.19,243.427 151.048,243.455 150.146,239.367 145.474,240.672 146.424,244.917 144.278,244.943 
		142.132,235.186 	"/>
	<polygon clip-path="url(#SVGID_2_)" fill="#24037F" points="154.996,232.581 157.912,241.946 155.635,242.193 152.693,232.645 	"/>
	<polygon clip-path="url(#SVGID_2_)" fill="#24037F" points="158.778,231.259 161.714,238.744 166.018,237.066 167.627,237.887 
		162.218,239.996 160.104,240.354 156.627,231.438 	"/>
	<polygon clip-path="url(#SVGID_2_)" fill="#24037F" points="166.883,227.781 170.548,234.935 174.664,232.837 176.346,233.496 
		171.175,236.132 169.107,236.699 164.759,228.172 	"/>
	<polygon clip-path="url(#SVGID_2_)" fill="#24037F" points="173.471,224.021 177.833,226.058 177.492,220.955 179.484,220.2 
		179.926,226.912 182.156,230.345 180.152,231.11 177.931,227.632 171.657,224.664 	"/>
</g>
</svg>
